<?xml version="1.0" encoding="UTF-8"?>
<svg viewBox="0 0 512 512" version="1.1" xmlns="http://www.w3.org/2000/svg">
<path d="M0 0 C4.61 1.804 6.864 4.57 9 9 C10.124 16.425 8.838 21.643 5 28 C6.238 28.392 7.475 28.784 8.75 29.188 C10.503 29.783 12.253 30.388 14 31 C14.94 31.329 15.879 31.657 16.848 31.996 C34.353 38.662 47.286 52.11 55 69 C56.602 73.279 57.92 77.562 59 82 C59.205 82.739 59.41 83.477 59.621 84.238 C60.09 87.659 59.887 90.906 59.731 94.348 C59.39 103.26 59.469 109.373 65.18 116.645 C70.995 124.17 72.145 133.19 72.177 142.408 C72.184 143.243 72.19 144.078 72.197 144.938 C72.217 147.696 72.228 150.453 72.238 153.211 C72.242 154.158 72.246 155.106 72.251 156.082 C72.271 161.105 72.286 166.128 72.295 171.151 C72.306 176.303 72.341 181.454 72.38 186.606 C72.407 190.597 72.415 194.588 72.418 198.58 C72.423 200.476 72.435 202.373 72.453 204.27 C72.684 229.225 65.552 250.94 47.887 269.207 C32.877 284.096 12.646 291.26 -8.255 291.249 C-29.351 290.936 -47.187 281.566 -62 267 C-62.35 266.656 -62.35 266.656 -64.121 264.918 C-81.343 246.823 -85.323 223.786 -85.301 199.75 C-85.305 198.002 -85.309 196.255 -85.314 194.507 C-85.321 190.863 -85.321 187.218 -85.316 183.574 C-85.31 178.935 -85.327 174.295 -85.35 169.656 C-85.365 166.053 -85.366 162.449 -85.363 158.846 C-85.363 157.136 -85.368 155.427 -85.378 153.718 C-85.445 140.993 -85.273 124.514 -76.532 114.282 C-71.798 108.734 -71.317 104.962 -71.812 97.812 C-72.395 79.174 -66.557 63.399 -54.207 49.324 C-41.787 36.245 -27.102 29.237 -9.129 27.785 C-5.165 26.791 -3.602 25.087 -1 22 C1.422 17.817 1.139 14.645 0 10 C-3 8 -3 8 -5.5 8.188 C-8 9 -8 9 -9.5 10.562 C-11 12 -11 12 -13.688 12.188 C-14.451 12.126 -15.214 12.064 -16 12 C-16.812 9.875 -16.812 9.875 -17 7 C-11.934 -0.12 -8.351 -0.712 0 0 Z " fill="#0F3E17" transform="translate(266,96)"/>
<path d="M0 0 C3.755 3.188 5.304 6.529 6.715 11.14 C6.823 11.491 6.823 11.491 7.367 13.269 C9.66 21.408 9.669 29.37 9.559 37.766 C9.554 39.418 9.552 41.07 9.552 42.723 C9.545 46.155 9.523 49.586 9.487 53.019 C9.442 57.384 9.427 61.75 9.423 66.116 C9.419 69.517 9.404 72.918 9.384 76.319 C9.376 77.928 9.369 79.536 9.364 81.145 C9.26 106.707 3.264 127.657 -15 146 C-15.636 146.67 -16.271 147.341 -16.926 148.031 C-21.062 152.066 -25.766 154.651 -30.875 157.25 C-31.199 157.415 -31.199 157.415 -32.839 158.249 C-42.417 162.897 -51.109 164.537 -61.75 164.438 C-62.9 164.428 -64.05 164.419 -65.235 164.41 C-83.021 164.048 -97.913 157.669 -110.797 145.297 C-118.341 137.432 -118.341 137.432 -120 134 C-119.823 128.93 -117.674 124.798 -115.375 120.375 C-115.015 119.673 -114.656 118.971 -114.285 118.247 C-106.103 102.419 -96.324 88.869 -84 76 C-83.478 75.446 -82.956 74.891 -82.418 74.32 C-73.899 65.296 -64.781 57.619 -54.755 50.314 C-53.263 49.197 -51.834 47.997 -50.422 46.781 C-47.501 44.633 -44.764 43.715 -41.312 42.625 C-25.097 37.045 -13.65 26.712 -5 12 C-3.121 8.067 -1.471 4.102 0 0 Z " fill="#CFE7D3" transform="translate(322,214)"/>
<path d="M0 0 C0.66 0 1.32 0 2 0 C2.329 0.871 2.657 1.743 2.996 2.641 C10.516 21.47 22.688 34.06 41.157 42.222 C48.026 45.121 54.594 46.403 62 47 C58.648 50.394 55.223 53.672 51.688 56.875 C51.205 57.313 51.205 57.313 48.762 59.531 C46.537 61.52 44.283 63.454 42 65.375 C24.131 81.024 11.109 101.713 1 123 C-8.244 111.233 -7.308 94.986 -7.266 80.746 C-7.267 79.112 -7.269 77.478 -7.271 75.844 C-7.274 72.441 -7.27 69.038 -7.261 65.635 C-7.249 61.306 -7.256 56.977 -7.268 52.648 C-7.275 49.281 -7.273 45.913 -7.268 42.546 C-7.266 40.951 -7.268 39.356 -7.273 37.761 C-7.326 14.652 -7.326 14.652 -2.375 4.75 C-2.152 4.294 -2.152 4.294 -1.023 1.984 C-0.686 1.33 -0.348 0.675 0 0 Z " fill="#CFE7D3" transform="translate(196,214)"/>
<path d="M0 0 C4.541 0.478 4.541 0.478 6.375 2.562 C8 4 8 4 11.438 4.438 C15.611 3.925 16.194 2.899 19 0 C21.75 0.25 21.75 0.25 24 1 C23.935 4.298 23.864 6.958 21.691 9.578 C17.725 12.766 14.207 13.723 9.148 13.43 C4.369 12.474 1.625 9.938 -1 6 C-1.188 3.375 -1.188 3.375 -1 1 C-0.67 0.67 -0.34 0.34 0 0 Z " fill="#0F3E17" transform="translate(272,191)"/>
<path d="M0 0 C0.866 0.103 1.732 0.206 2.625 0.312 C3.079 0.972 3.532 1.632 4 2.312 C5.625 4.312 5.625 4.312 9.062 4.812 C13.204 4.231 13.832 3.199 16.625 0.312 C19.375 0.562 19.375 0.562 21.625 1.312 C21.258 7.68 21.258 7.68 18.25 10.688 C13.872 13.398 9.694 14.022 4.625 13.312 C0.873 11.297 -1.011 9.858 -3.375 6.312 C-3.562 3.688 -3.562 3.688 -3.375 1.312 C-2.375 0.312 -2.375 0.312 0 0 Z " fill="#0F3E17" transform="translate(227.375,190.6875)"/>
<path d="M0 0 C7.483 6.15 7.483 6.15 10 10 C9.01 9.67 8.02 9.34 7 9 C6.67 10.32 6.34 11.64 6 13 C2.37 13 -1.26 13 -5 13 C-5 9.37 -5 5.74 -5 2 C-3.35 2 -1.7 2 0 2 C0 1.34 0 0.68 0 0 Z " fill="#CFE7D3" transform="translate(209,237)"/>
<path d="M0 0 C5.447 0.484 5.447 0.484 7.875 2.75 C9.182 5.363 9.24 7.115 9 10 C8.34 9.67 7.68 9.34 7 9 C6.67 9.66 6.34 10.32 6 11 C4.35 11 2.7 11 1 11 C1.012 10.374 1.023 9.747 1.035 9.102 C1.044 8.284 1.053 7.467 1.062 6.625 C1.068 6.219 1.068 6.219 1.098 4.164 C1 2 1 2 0 0 Z " fill="#CFE7D3" transform="translate(259,103)"/>
<path d="M0 0 C0.91 0.009 1.82 0.018 2.758 0.027 C3.456 0.039 4.155 0.051 4.875 0.062 C4.875 0.722 4.875 1.382 4.875 2.062 C7.185 2.062 9.495 2.062 11.875 2.062 C11.875 2.393 11.875 2.722 11.875 3.062 C9.458 3.117 7.042 3.156 4.625 3.188 C3.943 3.204 3.261 3.221 2.559 3.238 C-1.186 3.275 -3.949 3.142 -7.125 1.062 C-4.6 -0.2 -2.813 -0.036 0 0 Z " fill="#CFE7D3" transform="translate(255.125,249.9375)"/>
<path d="M0 0 C4.875 2.75 4.875 2.75 6 5 C5.67 5.66 5.34 6.32 5 7 C3.35 7 1.7 7 0 7 C0 4.69 0 2.38 0 0 Z " fill="#CFE7D3" transform="translate(204,232)"/>
<path d="M0 0 C-0.66 1.32 -1.32 2.64 -2 4 C-4.64 3.34 -7.28 2.68 -10 2 C-3.73 -1.243 -3.73 -1.243 0 0 Z " fill="#CFE7D3" transform="translate(284,258)"/>
<path d="M0 0 C0.66 0.33 1.32 0.66 2 1 C-0.79 4.487 -3.252 7.502 -7 10 C-7.66 9.67 -8.32 9.34 -9 9 C-6.03 6.03 -3.06 3.06 0 0 Z " fill="#0F3E17" transform="translate(240,276)"/>
<path d="M0 0 C0.66 0 1.32 0 2 0 C2.33 1.65 2.66 3.3 3 5 C2.01 5 1.02 5 0 5 C-0.33 5.99 -0.66 6.98 -1 8 C-1.66 8 -2.32 8 -3 8 C-1.125 2.25 -1.125 2.25 0 0 Z " fill="#CFE7D3" transform="translate(196,214)"/>
<path d="M0 0 C0.33 0 0.66 0 1 0 C1.33 3.63 1.66 7.26 2 11 C1.01 11 0.02 11 -1 11 C-1.125 3.375 -1.125 3.375 0 0 Z " fill="#CFE7D3" transform="translate(193,193)"/>
<path d="M0 0 C0.33 0.99 0.66 1.98 1 3 C-0.093 4.033 -1.2 5.051 -2.312 6.062 C-2.927 6.631 -3.542 7.199 -4.176 7.785 C-4.778 8.186 -5.38 8.587 -6 9 C-6.99 8.67 -7.98 8.34 -9 8 C-6.03 5.36 -3.06 2.72 0 0 Z " fill="#CFE7D3" transform="translate(258,271)"/>
<path d="M0 0 C2.062 0.438 2.062 0.438 4 1 C3.505 2.155 3.505 2.155 1 8 C-1 6 -1 6 -1.188 3.438 C-1 1 -1 1 0 0 Z " fill="#0F3E17" transform="translate(272,191)"/>
<path d="M0 0 C0 3.971 -1.314 5.165 -4 8 C-6.141 8.648 -6.141 8.648 -8 9 C-7.043 7.874 -6.084 6.749 -5.125 5.625 C-4.591 4.999 -4.058 4.372 -3.508 3.727 C-2.386 2.442 -1.206 1.206 0 0 Z " fill="#0F3E17" transform="translate(312,354)"/>
<path d="M0 0 C1.376 1.29 2.708 2.627 4 4 C4 4.66 4 5.32 4 6 C2.35 5.67 0.7 5.34 -1 5 C-0.67 3.35 -0.34 1.7 0 0 Z " fill="#CFE7D3" transform="translate(322,214)"/>
<path d="M0 0 C0.402 0.01 0.402 0.01 2.438 0.062 C0.796 2.083 -0.872 4.083 -2.562 6.062 C-2.893 6.062 -3.222 6.062 -3.562 6.062 C-3.605 4.396 -3.603 2.729 -3.562 1.062 C-2.562 0.062 -2.562 0.062 0 0 Z " fill="#0F3E17" transform="translate(227.5625,190.9375)"/>
</svg>
