<?xml version="1.0" encoding="UTF-8"?>
<svg viewBox="0 0 512 512" version="1.1" xmlns="http://www.w3.org/2000/svg">
<path d="M0 0 C1.012 -0.007 2.024 -0.013 3.067 -0.02 C6.41 -0.039 9.753 -0.043 13.096 -0.045 C15.424 -0.052 17.752 -0.059 20.08 -0.066 C24.96 -0.078 29.839 -0.081 34.719 -0.08 C40.964 -0.08 47.208 -0.107 53.452 -0.142 C58.26 -0.164 63.069 -0.168 67.877 -0.167 C70.179 -0.169 72.48 -0.178 74.782 -0.194 C78.006 -0.213 81.229 -0.207 84.453 -0.195 C84.926 -0.201 84.926 -0.201 87.317 -0.229 C94.453 -0.162 99.787 1.495 105.163 6.291 C105.702 6.951 106.24 7.611 106.796 8.291 C107.35 8.951 107.904 9.611 108.475 10.291 C111.65 14.684 112.168 17.711 112.16 23.183 C112.162 23.868 112.164 24.553 112.166 25.259 C112.17 26.742 112.169 28.226 112.164 29.71 C112.159 32.06 112.168 34.409 112.182 36.759 C112.219 43.439 112.237 50.119 112.226 56.799 C112.22 60.888 112.239 64.977 112.272 69.067 C112.28 70.623 112.279 72.179 112.268 73.735 C112.254 75.914 112.27 78.09 112.293 80.269 C112.294 81.507 112.294 82.745 112.295 84.021 C113.113 88.297 114.415 89.749 117.921 92.291 C121.157 92.903 121.157 92.903 124.863 92.886 C125.542 92.891 126.221 92.895 126.92 92.899 C128.388 92.904 129.855 92.898 131.323 92.882 C133.654 92.857 135.983 92.862 138.313 92.874 C143.266 92.895 148.218 92.875 153.171 92.853 C158.899 92.832 164.628 92.828 170.357 92.854 C172.639 92.857 174.921 92.836 177.204 92.813 C186.084 92.795 193.282 93.395 200.26 99.255 C200.788 99.906 201.315 100.557 201.858 101.228 C202.403 101.876 202.949 102.525 203.51 103.193 C207.218 108.708 207.213 113.666 207.195 120.11 C207.198 120.603 207.198 120.603 207.211 123.093 C207.225 126.344 207.224 129.594 207.221 132.845 C207.225 135.108 207.23 137.371 207.234 139.634 C207.242 144.377 207.242 149.12 207.236 153.862 C207.231 159.934 207.247 166.006 207.271 172.077 C207.285 176.751 207.286 181.425 207.283 186.099 C207.284 188.337 207.289 190.575 207.299 192.813 C207.311 195.946 207.305 199.079 207.293 202.212 C207.301 203.133 207.308 204.053 207.316 205.002 C207.256 212.379 205.662 218.244 200.52 223.883 C192.221 231.187 182.71 231.014 172.3 230.962 C170.707 230.973 169.114 230.986 167.521 231.001 C163.358 231.035 159.196 231.041 155.032 231.039 C149.145 231.042 143.257 231.085 137.37 231.123 C134.241 231.143 131.111 231.152 127.982 231.153 C126.558 231.157 125.135 231.161 123.712 231.165 C123.091 231.165 123.091 231.165 119.948 231.166 C116.921 231.291 116.921 231.291 113.921 232.291 C112.776 235.725 112.789 238.382 112.779 242.006 C112.775 242.684 112.772 243.363 112.768 244.062 C112.761 245.535 112.756 247.008 112.752 248.482 C112.745 250.82 112.729 253.158 112.711 255.496 C112.658 262.145 112.61 268.793 112.595 275.442 C112.585 279.511 112.555 283.58 112.513 287.649 C112.501 289.193 112.496 290.737 112.498 292.282 C112.509 301.812 112.278 310.007 105.991 317.63 C105.349 318.158 104.707 318.685 104.046 319.228 C103.727 319.501 103.727 319.501 102.116 320.88 C96.298 324.618 90.497 324.588 83.82 324.581 C82.817 324.588 81.815 324.594 80.782 324.601 C77.477 324.62 74.171 324.624 70.866 324.626 C68.562 324.633 66.258 324.64 63.954 324.647 C59.127 324.659 54.301 324.662 49.474 324.661 C43.298 324.661 37.122 324.688 30.947 324.723 C26.189 324.745 21.431 324.749 16.673 324.748 C14.396 324.75 12.12 324.759 9.843 324.775 C6.656 324.794 3.469 324.788 0.281 324.776 C-0.654 324.788 -1.588 324.799 -2.551 324.81 C-9.476 324.744 -14.726 323.117 -20.068 318.615 C-20.505 318.075 -20.942 317.535 -21.392 316.978 C-21.842 316.446 -22.292 315.913 -22.755 315.365 C-26.229 309.923 -27.453 305.486 -27.448 299.042 C-27.45 298.698 -27.45 298.698 -27.46 296.96 C-27.466 295.481 -27.466 294.002 -27.459 292.524 C-27.45 290.182 -27.461 287.841 -27.476 285.5 C-27.516 278.847 -27.517 272.195 -27.515 265.542 C-27.515 261.462 -27.534 257.382 -27.564 253.302 C-27.575 250.998 -27.563 248.694 -27.551 246.389 C-27.56 244.977 -27.57 243.564 -27.581 242.151 C-27.581 240.92 -27.581 239.689 -27.581 238.42 C-28.079 235.291 -28.079 235.291 -29.679 232.891 C-32.923 230.728 -35.098 230.805 -38.984 230.824 C-39.671 230.822 -40.358 230.819 -41.065 230.817 C-42.554 230.814 -44.042 230.821 -45.531 230.835 C-47.895 230.857 -50.258 230.853 -52.622 230.843 C-58.498 230.821 -64.374 230.838 -70.249 230.864 C-75.21 230.886 -80.169 230.887 -85.129 230.861 C-87.444 230.857 -89.757 230.882 -92.071 230.907 C-101.031 230.916 -108.673 230.05 -115.678 223.883 C-121.669 217.315 -122.526 210.63 -122.499 202.168 C-122.508 201.175 -122.516 200.182 -122.525 199.159 C-122.548 195.892 -122.549 192.625 -122.548 189.357 C-122.555 187.077 -122.563 184.797 -122.571 182.517 C-122.585 177.743 -122.586 172.969 -122.58 168.196 C-122.574 162.088 -122.605 155.981 -122.645 149.873 C-122.671 145.166 -122.674 140.459 -122.671 135.752 C-122.672 133.5 -122.682 131.249 -122.7 128.998 C-122.722 125.845 -122.712 122.695 -122.695 119.543 C-122.708 118.619 -122.721 117.696 -122.735 116.745 C-122.639 109.353 -120.191 104.641 -115.2 99.267 C-114.645 98.821 -114.089 98.375 -113.517 97.916 C-113.238 97.685 -113.238 97.685 -111.825 96.517 C-107.477 93.463 -104.364 93.04 -99.003 93.035 C-98.651 93.033 -98.651 93.033 -96.868 93.024 C-95.342 93.017 -93.816 93.015 -92.29 93.016 C-89.873 93.017 -87.456 93.004 -85.039 92.987 C-78.168 92.941 -71.297 92.916 -64.426 92.91 C-60.219 92.905 -56.013 92.88 -51.807 92.844 C-50.207 92.835 -48.606 92.832 -47.005 92.838 C-44.764 92.845 -42.525 92.827 -40.285 92.805 C-39.011 92.802 -37.737 92.799 -36.425 92.796 C-32.398 92.188 -30.753 91.36 -28.079 88.291 C-27.467 85.168 -27.467 85.168 -27.483 81.446 C-27.479 80.766 -27.475 80.085 -27.471 79.384 C-27.466 77.911 -27.472 76.437 -27.488 74.963 C-27.513 72.625 -27.508 70.288 -27.496 67.949 C-27.475 62.979 -27.495 58.01 -27.517 53.041 C-27.538 47.293 -27.542 41.546 -27.516 35.799 C-27.513 33.505 -27.534 31.213 -27.557 28.919 C-27.574 20.118 -27.103 13.883 -21.115 7.048 C-20.464 6.51 -19.813 5.971 -19.142 5.416 C-18.493 4.861 -17.845 4.307 -17.177 3.736 C-11.63 -0.086 -6.522 -0.006 0 0 Z M-17.079 18.291 C-17.324 21.376 -17.324 21.376 -17.319 25.221 C-17.321 25.922 -17.323 26.624 -17.325 27.346 C-17.328 28.868 -17.328 30.391 -17.323 31.913 C-17.318 34.327 -17.327 36.74 -17.34 39.153 C-17.377 46.015 -17.396 52.876 -17.385 59.738 C-17.379 63.937 -17.397 68.135 -17.431 72.334 C-17.439 73.93 -17.437 75.527 -17.427 77.123 C-17.326 92.694 -17.326 92.694 -21.455 97.05 C-29.062 102.86 -36.999 102.857 -46.212 102.807 C-48.575 102.794 -50.938 102.806 -53.301 102.823 C-57.461 102.85 -61.622 102.855 -65.782 102.854 C-72.454 102.852 -79.126 102.866 -85.798 102.909 C-88.121 102.919 -90.443 102.911 -92.766 102.901 C-94.193 102.907 -95.619 102.914 -97.045 102.922 C-98.286 102.921 -99.527 102.92 -100.805 102.919 C-105.436 103.445 -107.851 104.859 -110.867 108.375 C-112.616 112.581 -112.506 116.429 -112.483 120.943 C-112.49 121.909 -112.497 122.876 -112.504 123.871 C-112.522 127.062 -112.519 130.252 -112.513 133.443 C-112.518 135.663 -112.523 137.884 -112.529 140.104 C-112.538 144.757 -112.535 149.41 -112.525 154.063 C-112.514 160.023 -112.534 165.982 -112.563 171.942 C-112.582 176.527 -112.581 181.112 -112.576 185.698 C-112.576 187.895 -112.582 190.092 -112.594 192.289 C-112.609 195.363 -112.598 198.435 -112.581 201.509 C-112.591 202.415 -112.6 203.32 -112.61 204.253 C-112.546 209.735 -111.856 213.026 -108.079 217.291 C-104.107 220.486 -100.957 220.659 -95.938 220.644 C-95.238 220.646 -94.538 220.648 -93.817 220.65 C-92.303 220.653 -90.789 220.65 -89.276 220.64 C-86.874 220.626 -84.474 220.633 -82.072 220.645 C-75.247 220.676 -68.422 220.671 -61.597 220.651 C-57.416 220.64 -53.235 220.653 -49.053 220.681 C-47.466 220.686 -45.879 220.682 -44.292 220.668 C-28.853 220.535 -28.853 220.535 -23.542 224.796 C-17.082 231.398 -17.515 238.177 -17.563 246.996 C-17.576 249.33 -17.564 251.663 -17.547 253.997 C-17.52 258.109 -17.515 262.222 -17.516 266.334 C-17.518 272.919 -17.504 279.504 -17.46 286.089 C-17.451 288.381 -17.459 290.673 -17.469 292.965 C-17.463 294.378 -17.456 295.79 -17.448 297.203 C-17.449 298.43 -17.45 299.657 -17.451 300.921 C-16.906 305.863 -15.281 308.933 -12.007 312.633 C-7.76 315.038 -4.048 314.85 0.756 314.808 C1.742 314.815 2.728 314.822 3.744 314.829 C7 314.847 10.255 314.835 13.51 314.822 C15.776 314.824 18.041 314.828 20.307 314.833 C25.054 314.839 29.8 314.831 34.547 314.812 C40.628 314.789 46.709 314.802 52.789 314.826 C57.468 314.841 62.145 314.836 66.824 314.826 C69.065 314.823 71.307 314.826 73.549 314.836 C76.685 314.846 79.82 314.83 82.956 314.808 C83.418 314.812 83.418 314.812 85.757 314.833 C91.281 314.76 94.627 314.107 98.921 310.291 C102.067 306.359 102.297 303.263 102.305 298.301 C102.311 297.617 102.316 296.933 102.322 296.229 C102.331 294.752 102.334 293.274 102.331 291.796 C102.327 289.454 102.341 287.113 102.36 284.771 C102.396 279.798 102.41 274.826 102.421 269.853 C102.433 264.092 102.454 258.331 102.501 252.57 C102.514 250.269 102.51 247.968 102.505 245.667 C102.515 244.248 102.525 242.829 102.536 241.41 C102.538 240.177 102.54 238.944 102.542 237.674 C103.25 231.345 106.222 227.416 110.921 223.291 C114.512 220.951 117.663 221.034 121.889 221.019 C122.582 221.014 123.275 221.009 123.99 221.003 C125.491 220.993 126.993 220.987 128.494 220.986 C130.874 220.982 133.253 220.965 135.633 220.945 C142.397 220.889 149.162 220.859 155.926 220.834 C160.068 220.818 164.209 220.788 168.35 220.749 C169.925 220.738 171.5 220.732 173.074 220.732 C175.281 220.732 177.487 220.713 179.694 220.691 C180.947 220.686 182.201 220.681 183.493 220.676 C188.134 220.154 191.573 218.777 194.733 215.291 C196.549 212.232 197.048 209.704 197.081 206.218 C197.091 205.391 197.101 204.564 197.112 203.712 C197.115 203.26 197.115 203.26 197.129 200.973 C197.139 200.018 197.149 199.064 197.159 198.08 C197.189 194.916 197.21 191.752 197.229 188.587 C197.233 188.047 197.233 188.047 197.249 185.312 C197.282 179.592 197.306 173.872 197.326 168.151 C197.343 163.418 197.378 158.685 197.428 153.951 C197.488 148.235 197.519 142.52 197.529 136.804 C197.537 134.627 197.556 132.45 197.586 130.273 C197.625 127.223 197.626 124.176 197.618 121.125 C197.638 120.23 197.658 119.334 197.678 118.411 C197.613 112.725 196.406 109.732 192.502 105.574 C189.061 102.781 185.421 103.161 181.189 103.149 C180.509 103.145 179.829 103.142 179.129 103.138 C177.652 103.131 176.176 103.125 174.699 103.122 C172.357 103.115 170.015 103.099 167.673 103.081 C161.013 103.028 154.354 102.98 147.694 102.965 C143.618 102.954 139.543 102.925 135.468 102.883 C133.92 102.871 132.372 102.866 130.824 102.868 C115.714 102.885 115.714 102.885 108.921 98.291 C104.082 93.198 102.67 89.421 102.697 82.43 C102.697 81.748 102.696 81.066 102.696 80.364 C102.696 78.887 102.7 77.41 102.707 75.933 C102.718 73.59 102.712 71.249 102.702 68.907 C102.674 62.249 102.661 55.591 102.691 48.933 C102.707 44.856 102.695 40.781 102.664 36.704 C102.658 35.155 102.663 33.606 102.679 32.057 C102.815 18.43 102.815 18.43 99.062 13.848 C95.928 10.851 92.985 10.169 88.728 10.137 C87.874 10.128 87.021 10.119 86.141 10.111 C85.674 10.108 85.674 10.108 83.312 10.098 C82.819 10.094 82.819 10.094 80.325 10.073 C77.059 10.048 73.793 10.032 70.526 10.017 C69.411 10.012 68.296 10.006 67.147 10.001 C61.246 9.974 55.346 9.955 49.445 9.94 C43.348 9.924 37.252 9.879 31.155 9.828 C26.469 9.794 21.782 9.783 17.096 9.777 C14.848 9.77 12.601 9.755 10.353 9.731 C7.208 9.7 4.063 9.7 0.917 9.707 C-0.01 9.691 -0.938 9.674 -1.893 9.657 C-9.449 9.73 -12.813 11.892 -17.079 18.291 Z " fill="#0F3E17" transform="translate(205.079345703125,87.70947265625)"/>
<path d="M0 0 C4.473 2.531 8.449 5.272 12 9 C15.127 7.587 17.463 5.851 20.062 3.625 C27.257 -2.015 34.99 -4.759 44.164 -4.391 C55.999 -2.76 64.229 2.53 72.062 11.312 C78.553 20.316 81.131 29.943 80 41 C77.223 54.856 71.084 65.375 62 76 C61.411 76.712 60.822 77.423 60.215 78.156 C56.177 82.94 51.817 87.013 47 91 C46.447 91.466 45.893 91.931 45.323 92.411 C38.077 98.502 30.724 104.423 22.938 109.812 C22.343 110.239 21.749 110.665 21.136 111.105 C16.954 113.914 13.986 114.728 9 114 C5.93 112.383 5.93 112.383 2.875 110.125 C2.322 109.721 1.768 109.317 1.198 108.9 C-0.548 107.617 -2.274 106.31 -4 105 C-5.114 104.175 -6.229 103.351 -7.344 102.527 C-13.77 97.729 -19.776 92.635 -25.645 87.164 C-28 85 -28 85 -31.125 82.562 C-43.6 71.443 -53.915 55.047 -55.223 38.117 C-55.612 24.881 -51.19 15.544 -42.438 5.812 C-30.178 -5.818 -14.934 -6.811 0 0 Z " fill="#CFE7D3" transform="translate(235,204)"/>
<path d="M0 0 C4.473 2.531 8.449 5.272 12 9 C15.127 7.587 17.463 5.851 20.062 3.625 C27.257 -2.015 34.99 -4.759 44.164 -4.391 C55.999 -2.76 64.229 2.53 72.062 11.312 C78.553 20.316 81.131 29.943 80 41 C77.223 54.856 71.084 65.375 62 76 C61.411 76.712 60.822 77.423 60.215 78.156 C56.177 82.94 51.817 87.013 47 91 C46.447 91.466 45.893 91.931 45.323 92.411 C38.077 98.502 30.724 104.423 22.938 109.812 C22.343 110.239 21.749 110.665 21.136 111.105 C16.954 113.914 13.986 114.728 9 114 C5.93 112.383 5.93 112.383 2.875 110.125 C2.322 109.721 1.768 109.317 1.198 108.9 C-0.548 107.617 -2.274 106.31 -4 105 C-5.114 104.175 -6.229 103.351 -7.344 102.527 C-13.77 97.729 -19.776 92.635 -25.645 87.164 C-28 85 -28 85 -31.125 82.562 C-43.6 71.443 -53.915 55.047 -55.223 38.117 C-55.612 24.881 -51.19 15.544 -42.438 5.812 C-30.178 -5.818 -14.934 -6.811 0 0 Z M-41.887 21.156 C-45.89 27.786 -45.752 34.453 -45 42 C-41.877 54.198 -35.188 64.541 -26 73 C-24.332 74.665 -22.665 76.332 -21 78 C-14.06 84.818 -6.765 90.849 1.062 96.625 C1.479 96.933 1.479 96.933 3.588 98.492 C9.603 102.868 9.603 102.868 13 104 C15.321 102.602 17.407 101.185 19.562 99.562 C20.188 99.102 20.814 98.642 21.458 98.168 C30.383 91.561 38.872 84.57 47 77 C47.837 76.241 48.673 75.481 49.535 74.699 C59.62 65.175 69.03 52.39 70.238 38.203 C70.416 31.146 69.585 26.1 66 20 C65.819 19.681 65.819 19.681 64.902 18.066 C61.841 13.241 58.003 10.635 53 8 C52.608 7.783 52.608 7.783 50.625 6.688 C43.51 4.824 36.47 5.524 30 9 C25.845 11.623 22.357 14.343 19.438 18.312 C17 21 17 21 13.75 22.5 C8.366 21.782 6.871 18.713 3.508 14.66 C-2.059 8.755 -9.048 5.717 -17.125 5.312 C-28.421 5.934 -35.533 12.381 -41.887 21.156 Z " fill="#0F3E17" transform="translate(235,204)"/>
<path d="M0 0 C0 3 0 3 -2.5 5.688 C-3.325 6.451 -4.15 7.214 -5 8 C-5.66 7.67 -6.32 7.34 -7 7 C-4.69 4.69 -2.38 2.38 0 0 Z " fill="#0F3E17" transform="translate(286,276)"/>
</svg>
