<?xml version="1.0" encoding="UTF-8"?>
<svg viewBox="0 0 512 512" version="1.1" xmlns="http://www.w3.org/2000/svg">
<path d="M0 0 C0.334 -0.003 0.334 -0.003 2.026 -0.02 C4.239 -0.04 6.452 -0.051 8.666 -0.061 C9.045 -0.063 9.045 -0.063 10.963 -0.074 C14.981 -0.094 18.998 -0.109 23.016 -0.118 C27.148 -0.129 31.28 -0.164 35.412 -0.203 C38.604 -0.23 41.795 -0.238 44.987 -0.241 C46.509 -0.246 48.031 -0.258 49.553 -0.276 C59.038 -0.385 67.171 -0.194 74.716 6.142 C75.244 6.793 75.771 7.444 76.314 8.115 C76.859 8.763 77.405 9.411 77.966 10.079 C80.794 14.286 81.626 17.878 81.572 22.915 C81.569 23.449 81.569 23.449 81.552 26.148 C81.544 26.699 81.544 26.699 81.501 29.49 C81.492 30.612 81.483 31.734 81.474 32.89 C81.451 35.652 81.418 38.415 81.376 41.177 C81.697 41.173 81.697 41.173 83.321 41.15 C90.038 41.061 96.754 41.001 103.471 40.957 C105.974 40.937 108.476 40.91 110.978 40.875 C114.588 40.826 118.196 40.804 121.806 40.786 C122.914 40.766 124.022 40.745 125.163 40.724 C133.838 40.721 140.439 42.577 147.689 47.365 C154.628 54.626 156.11 61.205 155.9 71.06 C155.895 72.191 155.89 73.322 155.886 74.488 C155.864 78.093 155.808 81.697 155.751 85.302 C155.735 87.668 155.721 90.034 155.708 92.4 C155.605 107.008 155.127 121.588 154.376 136.177 C151.736 136.177 149.096 136.177 146.376 136.177 C146.376 131.227 146.376 126.277 146.376 121.177 C145.176 121.431 143.976 121.685 142.74 121.947 C141.056 122.295 139.373 122.642 137.689 122.99 C136.911 123.155 136.133 123.321 135.332 123.491 C128.294 124.932 121.216 125.937 114.105 126.929 C102.439 128.568 90.817 130.479 79.189 132.365 C75.784 132.916 72.38 133.467 68.975 134.016 C66.879 134.354 64.783 134.693 62.688 135.034 C61.755 135.185 60.821 135.335 59.86 135.49 C59.04 135.623 58.219 135.756 57.374 135.893 C55.376 136.177 55.376 136.177 53.376 136.177 C53.411 137.057 53.446 137.938 53.482 138.845 C53.509 140.006 53.536 141.168 53.564 142.365 C53.599 143.513 53.634 144.662 53.669 145.845 C53.346 149.522 52.553 151.239 50.376 154.177 C50.016 154.71 49.656 155.242 49.285 155.791 C46.217 158.019 42.819 157.624 39.166 157.611 C38.763 157.613 38.763 157.613 36.726 157.626 C35.023 157.633 33.32 157.632 31.617 157.623 C29.018 157.615 26.421 157.643 23.822 157.675 C22.166 157.677 20.509 157.676 18.853 157.673 C18.079 157.684 17.305 157.696 16.507 157.707 C12.798 157.66 10.587 157.308 7.409 155.333 C3.824 151.53 4.268 148 4.314 142.99 C4.323 141.717 4.332 140.445 4.341 139.134 C4.353 138.158 4.365 137.182 4.376 136.177 C3.757 136.097 3.138 136.016 2.5 135.933 C-0.354 135.56 -3.208 135.181 -6.061 134.802 C-7.035 134.676 -8.009 134.549 -9.012 134.419 C-14.201 133.725 -19.256 132.851 -24.352 131.659 C-28.673 130.742 -33.056 130.236 -37.436 129.677 C-44.156 128.809 -50.84 127.835 -57.52 126.699 C-60.741 126.157 -63.966 125.646 -67.194 125.142 C-67.734 125.057 -67.734 125.057 -70.467 124.628 C-72.694 124.28 -74.92 123.933 -77.147 123.589 C-78.214 123.421 -79.282 123.253 -80.381 123.079 C-80.862 123.005 -80.862 123.005 -83.292 122.626 C-85.624 122.177 -85.624 122.177 -87.624 121.177 C-87.562 133.851 -87.485 146.525 -87.388 159.199 C-87.343 165.084 -87.304 170.969 -87.277 176.854 C-87.251 182.534 -87.211 188.214 -87.16 193.894 C-87.144 196.06 -87.132 198.227 -87.126 200.393 C-87.116 203.429 -87.088 206.464 -87.056 209.5 C-87.057 210.395 -87.059 211.289 -87.06 212.211 C-86.984 217.273 -86.44 220.798 -83.624 225.177 C-78.839 229.495 -76.356 230.302 -69.97 230.275 C-69.624 230.274 -69.624 230.274 -67.874 230.27 C-65.544 230.265 -63.215 230.252 -60.886 230.24 C-59.221 230.234 -57.555 230.23 -55.89 230.226 C-52.297 230.217 -48.705 230.205 -45.112 230.193 C-39.431 230.175 -33.75 230.173 -28.069 230.175 C-27.111 230.176 -26.153 230.176 -25.166 230.176 C-22.214 230.178 -19.263 230.179 -16.311 230.181 C-4.073 230.188 8.164 230.183 20.402 230.126 C29.321 230.084 38.239 230.074 47.158 230.102 C51.879 230.115 56.599 230.112 61.32 230.071 C65.763 230.032 70.203 230.036 74.646 230.071 C76.276 230.076 77.905 230.067 79.534 230.04 C91.89 229.853 91.89 229.853 95.708 233.254 C97.238 235.518 98.399 237.631 99.376 240.177 C76.602 240.294 53.827 240.382 31.052 240.436 C20.477 240.462 9.901 240.497 -0.674 240.554 C-9.894 240.604 -19.113 240.636 -28.333 240.647 C-33.213 240.654 -38.092 240.669 -42.972 240.706 C-47.57 240.74 -52.168 240.75 -56.766 240.743 C-58.448 240.744 -60.131 240.754 -61.813 240.773 C-72.052 240.884 -80.868 240.555 -88.753 233.187 C-95.643 226.003 -97.07 219.333 -97.04 209.684 C-97.044 209.168 -97.044 209.168 -97.066 206.557 C-97.091 203.164 -97.095 199.77 -97.1 196.376 C-97.114 194.014 -97.13 191.653 -97.147 189.291 C-97.189 183.086 -97.214 176.881 -97.235 170.675 C-97.271 160.725 -97.331 150.775 -97.393 140.825 C-97.412 137.345 -97.424 133.865 -97.435 130.385 C-97.445 128.265 -97.455 126.144 -97.466 124.023 C-97.467 123.05 -97.468 122.077 -97.469 121.075 C-97.474 120.19 -97.48 119.306 -97.486 118.395 C-97.488 117.624 -97.491 116.853 -97.493 116.059 C-97.624 114.177 -97.624 114.177 -98.624 112.177 C-98.739 110.597 -98.793 109.011 -98.816 107.427 C-98.832 106.438 -98.849 105.45 -98.865 104.431 C-98.91 99.883 -98.951 95.334 -98.974 90.786 C-98.99 88.394 -99.017 86.003 -99.056 83.611 C-99.111 80.154 -99.132 76.697 -99.147 73.24 C-99.17 72.182 -99.192 71.124 -99.216 70.034 C-99.193 61.834 -97.301 55.15 -91.633 49.027 C-83.594 41.404 -76.407 40.744 -65.69 40.884 C-64.457 40.888 -63.224 40.893 -61.953 40.897 C-58.031 40.914 -54.109 40.951 -50.186 40.99 C-47.52 41.006 -44.854 41.018 -42.188 41.031 C-35.666 41.064 -29.145 41.114 -22.624 41.177 C-22.65 40.431 -22.676 39.686 -22.703 38.917 C-22.807 35.504 -22.872 32.091 -22.936 28.677 C-22.978 27.504 -23.02 26.331 -23.063 25.122 C-23.166 17.78 -22.546 12.806 -17.624 7.177 C-15.491 5.118 -15.491 5.118 -13.499 3.74 C-12.836 3.266 -12.173 2.793 -11.491 2.306 C-7.672 -0.003 -4.365 0.036 0 0 Z M-88.09 57.79 C-90.299 62.67 -90.196 67.076 -90.155 72.376 C-90.159 73.448 -90.162 74.52 -90.166 75.625 C-90.169 77.883 -90.162 80.142 -90.145 82.4 C-90.124 85.863 -90.145 89.325 -90.17 92.788 C-90.168 94.984 -90.163 97.18 -90.155 99.376 C-90.163 100.414 -90.171 101.451 -90.179 102.52 C-90.167 103.482 -90.154 104.443 -90.141 105.434 C-90.138 106.279 -90.135 107.125 -90.131 107.996 C-89.624 110.177 -89.624 110.177 -87.813 111.921 C-84.648 113.737 -81.365 114.158 -77.807 114.677 C-77.043 114.798 -76.279 114.919 -75.492 115.043 C-73.017 115.432 -70.539 115.804 -68.061 116.177 C-66.35 116.443 -64.639 116.71 -62.927 116.978 C-59.602 117.497 -56.277 118.01 -52.95 118.516 C-48.916 119.131 -44.885 119.766 -40.856 120.412 C-38.038 120.863 -35.218 121.302 -32.399 121.742 C-29.483 122.199 -26.567 122.659 -23.651 123.119 C-20.696 123.585 -17.741 124.05 -14.786 124.514 C-13.311 124.747 -11.835 124.979 -10.359 125.212 C-8.29 125.539 -6.221 125.864 -4.151 126.189 C-2.942 126.379 -1.732 126.569 -0.487 126.766 C2.376 127.177 2.376 127.177 4.376 127.177 C4.5 126.641 4.5 126.641 5.126 123.927 C6.445 119.972 7.083 118.618 10.376 116.177 C13.206 115.779 15.639 115.615 18.466 115.646 C19.248 115.642 20.029 115.638 20.835 115.634 C22.485 115.631 24.135 115.639 25.784 115.656 C28.302 115.677 30.818 115.656 33.335 115.63 C34.942 115.633 36.548 115.638 38.154 115.646 C38.528 115.642 38.528 115.642 40.424 115.621 C44.044 115.686 46.222 116.083 49.34 117.976 C52.053 120.908 52.151 123.265 52.376 127.177 C58.396 126.684 64.336 125.909 70.298 124.95 C70.701 124.886 70.701 124.886 72.737 124.562 C74.576 124.268 76.414 123.974 78.252 123.678 C81.693 123.126 85.134 122.577 88.574 122.027 C94.58 121.066 100.585 120.097 106.588 119.123 C110.077 118.557 113.566 117.993 117.056 117.436 C120.49 116.887 123.922 116.332 127.354 115.772 C129.272 115.461 131.191 115.156 133.11 114.851 C134.27 114.661 135.429 114.471 136.624 114.274 C137.642 114.11 138.659 113.946 139.708 113.777 C142.25 113.205 144.168 112.547 146.376 111.177 C147.55 108.831 147.528 107.379 147.569 104.762 C147.585 103.847 147.601 102.932 147.618 101.99 C147.663 97.788 147.704 93.587 147.727 89.385 C147.743 87.174 147.77 84.962 147.809 82.751 C147.864 79.557 147.885 76.364 147.9 73.169 C147.911 72.679 147.911 72.679 147.969 70.198 C147.949 63.848 147.007 58.795 142.376 54.177 C136.897 50.451 133.055 49.595 126.502 49.662 C126.067 49.659 126.067 49.659 123.865 49.641 C120.962 49.623 118.059 49.633 115.156 49.644 C113.069 49.636 110.983 49.628 108.896 49.617 C103.237 49.595 97.578 49.598 91.919 49.607 C87.193 49.612 82.466 49.605 77.739 49.597 C66.588 49.58 55.436 49.584 44.284 49.601 C32.784 49.618 21.285 49.602 9.785 49.569 C-0.094 49.543 -9.973 49.535 -19.852 49.544 C-25.749 49.549 -31.647 49.547 -37.545 49.526 C-43.091 49.508 -48.637 49.514 -54.183 49.538 C-56.217 49.543 -58.25 49.54 -60.283 49.527 C-63.063 49.511 -65.842 49.526 -68.622 49.549 C-69.423 49.537 -70.224 49.525 -71.049 49.513 C-78.276 49.632 -83.179 52.588 -88.09 57.79 Z " fill="#0F3E17" transform="translate(205.62353515625,111.822998046875)"/>
<path d="M0 0 C0.33 0 0.66 0 1 0 C1 7.59 1 15.18 1 23 C3.97 23.33 6.94 23.66 10 24 C12.754 24.93 15.254 25.864 17.875 27.062 C18.22 27.218 18.22 27.218 19.963 28.005 C37.159 36.045 48.241 49.165 54.887 66.656 C60.562 83.701 58.84 100.146 51.188 116.375 C48.326 121.73 44.997 126.438 41 131 C40.468 131.615 39.935 132.23 39.387 132.863 C30.186 142.767 16.2 150.167 2.619 151.177 C-17.718 151.683 -33.446 148.716 -48.777 134.234 C-52.597 130.394 -56.072 126.722 -58.651 121.935 C-61 119 -61 119 -64.147 118.246 C-65.397 118.244 -66.647 118.242 -67.935 118.241 C-68.632 118.231 -69.33 118.222 -70.049 118.213 C-72.387 118.189 -74.722 118.208 -77.06 118.227 C-78.735 118.219 -80.41 118.208 -82.086 118.195 C-86.635 118.166 -91.184 118.175 -95.734 118.19 C-100.488 118.199 -105.241 118.175 -109.995 118.154 C-118.998 118.119 -128 118.116 -137.003 118.123 C-147.252 118.129 -157.501 118.102 -167.75 118.071 C-188.833 118.01 -209.917 117.991 -231 118 C-231 117.67 -231 117.34 -231 117 C-175.23 117 -119.46 117 -62 117 C-62.66 115.515 -62.66 115.515 -66 108 C-71.037 90.354 -69.522 70.962 -60.875 54.875 C-52.022 40.586 -38.561 28.992 -22.227 24.184 C-17.748 23.222 -13.586 22.934 -9 23 C-9.141 21.041 -9.288 19.083 -9.438 17.125 C-9.519 16.034 -9.6 14.944 -9.684 13.82 C-10 11 -10 11 -11 9 C-11.33 8.835 -11.33 8.835 -13 8 C-11.35 8 -9.7 8 -8 8 C-8 12.95 -8 17.9 -8 23 C-5.36 23 -2.72 23 0 23 C0 15.41 0 7.82 0 0 Z " fill="#CFE7D3" transform="translate(360,225)"/>
<path d="M0 0 C2.172 0.539 2.172 0.539 4.172 2.539 C4.041 7.394 1.54 9.322 -1.828 12.539 C-1.53 12.543 -1.53 12.543 -0.019 12.564 C6.177 12.649 12.374 12.749 18.57 12.856 C20.884 12.895 23.199 12.93 25.513 12.961 C28.835 13.006 32.155 13.064 35.477 13.125 C36.516 13.137 37.556 13.148 38.627 13.16 C39.588 13.18 40.549 13.2 41.539 13.22 C42.387 13.234 43.235 13.247 44.109 13.261 C46.172 13.539 46.172 13.539 48.172 15.539 C48.422 18.039 48.422 18.039 48.172 20.539 C45.7 23.011 44.946 22.804 41.539 22.858 C40.578 22.878 39.617 22.898 38.627 22.918 C37.587 22.93 36.548 22.941 35.477 22.953 C34.945 22.963 34.945 22.963 32.257 23.012 C28.853 23.072 25.45 23.118 22.047 23.164 C19.743 23.202 17.44 23.241 15.137 23.281 C9.482 23.377 3.827 23.462 -1.828 23.539 C-1.394 23.94 -0.96 24.34 -0.513 24.753 C0.044 25.284 0.601 25.816 1.176 26.363 C1.733 26.888 2.291 27.412 2.865 27.952 C4.172 29.539 4.172 29.539 4.109 32.352 C3.172 34.539 3.172 34.539 2.172 35.539 C-0.739 35.858 -2.307 35.88 -4.789 34.257 C-6.779 32.327 -8.757 30.39 -10.703 28.414 C-11.404 27.749 -12.106 27.084 -12.828 26.398 C-17.71 21.517 -17.71 21.517 -18.195 17.508 C-16.235 13.251 -13.417 10.402 -10.078 7.164 C-9.457 6.523 -8.835 5.883 -8.195 5.223 C-3.613 0.689 -3.613 0.689 0 0 Z " fill="#0F3E17" transform="translate(338.828125,312.4609375)"/>
<path d="M0 0 C5.654 0.085 8.383 1.633 12.236 5.465 C12.798 6.054 13.359 6.643 13.938 7.25 C14.526 7.824 15.114 8.397 15.721 8.988 C19.89 13.24 19.89 13.24 20.356 16.47 C19.921 19.562 19.074 20.57 16.895 22.77 C16.567 23.1 16.567 23.1 14.912 24.771 C14.219 25.445 13.526 26.119 12.812 26.812 C12.139 27.505 11.465 28.198 10.771 28.912 C10.111 29.566 9.45 30.221 8.77 30.895 C8.468 31.193 8.468 31.193 6.945 32.702 C4.472 34.352 2.916 34.321 0 34 C-1 33 -1 33 -1.375 30.25 C-0.885 26 0.939 24.839 4 22 C3.702 21.996 3.702 21.996 2.191 21.975 C-4.005 21.89 -10.202 21.79 -16.398 21.683 C-18.712 21.644 -21.027 21.609 -23.341 21.578 C-26.663 21.533 -29.984 21.475 -33.305 21.414 C-34.344 21.403 -35.384 21.391 -36.455 21.379 C-37.416 21.359 -38.377 21.339 -39.367 21.319 C-40.215 21.306 -41.063 21.292 -41.937 21.278 C-44 21 -44 21 -46 19 C-45.67 15.703 -45.377 14.377 -43 12 C-40.975 11.722 -40.975 11.722 -38.458 11.681 C-37.518 11.661 -36.577 11.641 -35.608 11.621 C-34.59 11.609 -33.572 11.598 -32.523 11.586 C-32.003 11.576 -32.003 11.576 -29.371 11.527 C-26.039 11.467 -22.707 11.421 -19.375 11.375 C-17.12 11.337 -14.865 11.298 -12.609 11.258 C-7.073 11.162 -1.537 11.077 4 11 C3.183 10.232 2.365 9.463 1.523 8.672 C-1 6 -1 6 -1.375 3.25 C-1 1 -1 1 0 0 Z " fill="#0F3E17" transform="translate(367,277)"/>
<path d="M0 0 C1.252 0.005 2.503 0.01 3.793 0.016 C4.125 0.017 4.125 0.017 5.806 0.02 C7.936 0.026 10.065 0.038 12.195 0.051 C13.636 0.056 15.077 0.061 16.517 0.065 C20.056 0.076 23.594 0.093 27.133 0.114 C27.133 0.774 27.133 1.434 27.133 2.114 C25.483 2.114 23.833 2.114 22.133 2.114 C22.133 5.084 22.133 8.054 22.133 11.114 C14.543 11.114 6.953 11.114 -0.867 11.114 C-0.867 15.074 -0.867 19.034 -0.867 23.114 C3.093 23.114 7.053 23.114 11.133 23.114 C11.133 23.444 11.133 23.774 11.133 24.114 C16.413 24.444 21.693 24.774 27.133 25.114 C27.133 25.444 27.133 25.774 27.133 26.114 C22.878 26.138 18.624 26.156 14.37 26.168 C12.922 26.173 11.474 26.18 10.025 26.189 C7.948 26.201 5.87 26.207 3.793 26.211 C2.541 26.216 1.29 26.222 0 26.227 C-2.867 26.114 -2.867 26.114 -3.867 25.114 C-3.967 23.345 -3.998 21.572 -4 19.801 C-4.002 18.726 -4.003 17.651 -4.004 16.543 C-4.002 15.977 -4.002 15.977 -3.992 13.114 C-3.996 11.982 -4 10.85 -4.004 9.684 C-4.003 8.609 -4.002 7.534 -4 6.426 C-3.999 5.432 -3.998 4.438 -3.997 3.414 C-3.804 -0.02 -3.489 0.138 0 0 Z " fill="#CFE7D3" transform="translate(221.867431640625,234.886474609375)"/>
<path d="M0 0 C16.5 0 33 0 50 0 C48.83 5.849 48.83 5.849 46 8 C45.34 8 44.68 8 44 8 C44 9.65 44 11.3 44 13 C43.67 13 43.34 13 43 13 C42.688 10.312 42.688 10.312 43 7 C44.65 5.35 46.3 3.7 48 2 C32.16 1.67 16.32 1.34 0 1 C0 0.67 0 0.34 0 0 Z " fill="#0F3E17" transform="translate(323,297)"/>
<path d="M0 0 C1.078 0.102 2.155 0.204 3.266 0.309 C4.085 0.392 4.905 0.476 5.75 0.562 C5.75 0.893 5.75 1.222 5.75 1.562 C4.1 1.562 2.45 1.562 0.75 1.562 C0.75 2.553 0.75 3.542 0.75 4.562 C-2.88 4.562 -6.51 4.562 -10.25 4.562 C-10.25 3.243 -10.25 1.923 -10.25 0.562 C-6.7 -0.601 -3.692 -0.361 0 0 Z " fill="#CFE7D3" transform="translate(173.25,241.4375)"/>
<path d="M0 0 C0.66 0 1.32 0 2 0 C1.624 2.782 1.327 4.588 -0.438 6.812 C-2 8 -2 8 -4 8 C-4 9.65 -4 11.3 -4 13 C-4.33 13 -4.66 13 -5 13 C-5.352 10.047 -5.56 7.855 -3.887 5.301 C-2.627 3.835 -1.316 2.415 0 1 C0 0.67 0 0.34 0 0 Z " fill="#0F3E17" transform="translate(371,297)"/>
<path d="M0 0 C0.66 0.33 1.32 0.66 2 1 C1.217 2.172 0.423 3.338 -0.375 4.5 C-0.816 5.15 -1.257 5.799 -1.711 6.469 C-2.136 6.974 -2.562 7.479 -3 8 C-3.66 8 -4.32 8 -5 8 C-3.814 4.625 -2.724 2.353 0 0 Z " fill="#CFE7D3" transform="translate(122,165)"/>
<path d="M0 0 C0.66 0.33 1.32 0.66 2 1 C2 2.65 2 4.3 2 6 C0.68 5.67 -0.64 5.34 -2 5 C-1.125 1.125 -1.125 1.125 0 0 Z " fill="#CFE7D3" transform="translate(196,123)"/>
</svg>
