<?xml version="1.0" encoding="UTF-8"?>
<svg viewBox="0 0 512 512" version="1.1" xmlns="http://www.w3.org/2000/svg">
<path d="M0 0 C5.875 5.087 12.795 11.363 13.753 19.486 C13.86 22.378 13.87 25.257 13.849 28.151 C13.853 29.249 13.856 30.348 13.86 31.479 C13.868 35.101 13.854 38.722 13.84 42.344 C13.839 44.861 13.84 47.379 13.841 49.897 C13.841 55.168 13.831 60.44 13.813 65.711 C13.792 71.805 13.788 77.899 13.794 83.993 C13.8 89.861 13.794 95.729 13.783 101.597 C13.779 104.093 13.778 106.588 13.78 109.084 C13.78 112.565 13.767 116.045 13.751 119.526 C13.754 120.563 13.756 121.599 13.759 122.667 C13.752 123.613 13.745 124.559 13.737 125.534 C13.736 125.946 13.736 125.946 13.731 128.027 C13.477 130.145 13.477 130.145 11.477 133.145 C6.727 132.395 6.727 132.395 4.477 130.145 C3.852 128.02 3.852 128.02 3.477 126.145 C2.894 126.58 2.311 127.016 1.711 127.465 C-7.946 134.48 -17.524 139.075 -28.961 142.395 C-29.806 142.641 -30.652 142.887 -31.523 143.141 C-43.957 146.575 -56.249 147.555 -69.086 147.52 C-69.459 147.519 -69.459 147.519 -71.345 147.518 C-96.535 147.434 -120.946 141.937 -140.523 125.145 C-141.598 149.1 -141.598 149.1 -135.523 156.145 C-120.321 171.471 -95.553 176.394 -74.819 176.524 C-73.262 176.524 -71.705 176.523 -70.148 176.52 C-69.356 176.52 -68.563 176.521 -67.746 176.522 C-54.245 176.506 -40.358 176.103 -27.66 170.992 C-24.918 169.904 -23.305 170.295 -20.523 171.145 C-19.523 172.145 -19.523 172.145 -19.461 175.207 C-19.482 176.176 -19.502 177.146 -19.523 178.145 C-45.889 191.885 -83.853 189.734 -111.523 181.145 C-121.516 177.649 -131.315 172.907 -139.523 166.145 C-139.523 165.485 -139.523 164.825 -139.523 164.145 C-140.183 164.145 -140.843 164.145 -141.523 164.145 C-141.471 167.646 -141.376 171.144 -141.273 174.645 C-141.259 175.627 -141.245 176.609 -141.23 177.621 C-140.977 185.218 -139.46 190.481 -134.691 196.43 C-124.923 205.196 -112.159 210.073 -99.523 213.145 C-98.804 213.322 -98.084 213.499 -97.343 213.682 C-89.04 215.474 -80.79 215.483 -72.337 215.46 C-69.858 215.457 -67.38 215.481 -64.9 215.506 C-51.002 215.561 -38.177 213.862 -25.074 208.914 C-22.374 208.1 -20.325 207.853 -17.523 208.145 C-15.523 210.145 -15.523 210.145 -15.086 212.582 C-15.523 215.145 -15.523 215.145 -17.609 216.648 C-45.357 230.894 -83.722 229.286 -112.629 220.073 C-127.378 214.975 -140.518 207.244 -148.43 193.441 C-150.517 189.058 -150.654 185.226 -150.671 180.384 C-150.674 179.705 -150.678 179.026 -150.682 178.326 C-150.693 176.052 -150.697 173.778 -150.7 171.503 C-150.707 169.872 -150.713 168.241 -150.72 166.609 C-150.741 161.253 -150.752 155.896 -150.762 150.539 C-150.766 148.693 -150.77 146.847 -150.774 145.001 C-150.793 136.327 -150.807 127.653 -150.816 118.98 C-150.825 108.976 -150.852 98.973 -150.892 88.97 C-150.922 81.233 -150.937 73.495 -150.94 65.757 C-150.943 61.139 -150.952 56.52 -150.977 51.902 C-151 47.554 -151.004 43.206 -150.994 38.858 C-150.994 37.267 -151 35.676 -151.014 34.085 C-151.111 22.13 -149.699 13.839 -141.344 4.977 C-140.743 4.372 -140.142 3.767 -139.523 3.145 C-139.046 2.633 -138.57 2.121 -138.078 1.594 C-125.918 -10.216 -107.497 -13.915 -91.523 -16.855 C-90.998 -16.96 -90.998 -16.96 -88.34 -17.488 C-60.032 -22.609 -23.162 -17.867 0 0 Z " fill="#0F3E17" transform="translate(297.5234375,124.85546875)"/>
<path d="M0 0 C2.509 2.205 4.888 4.48 7.234 6.855 C7.798 7.397 8.361 7.938 8.941 8.496 C18.385 18.363 22.598 31.953 22.484 45.293 C22.488 45.744 22.488 45.744 22.508 48.029 C22.469 61.381 17.838 73.651 9.234 83.855 C8.808 84.437 8.381 85.018 7.941 85.617 C0.791 94.949 -11.232 101.855 -22.766 103.855 C-35.37 105.194 -47.487 105.113 -58.766 98.855 C-59.725 98.336 -60.684 97.816 -61.672 97.281 C-71.975 91.21 -79.23 83.407 -84.766 72.855 C-85.28 71.9 -85.794 70.945 -86.324 69.961 C-92.496 56.664 -92.579 40.547 -87.766 26.855 C-81.555 11.429 -71.127 0.181 -56.141 -7.02 C-37.618 -14.768 -16.015 -12.418 0 0 Z " fill="#CFE7D3" transform="translate(375.765625,260.14453125)"/>
<path d="M0 0 C2.509 2.205 4.888 4.48 7.234 6.855 C7.798 7.397 8.361 7.938 8.941 8.496 C18.385 18.363 22.598 31.953 22.484 45.293 C22.488 45.744 22.488 45.744 22.508 48.029 C22.469 61.381 17.838 73.651 9.234 83.855 C8.808 84.437 8.381 85.018 7.941 85.617 C0.791 94.949 -11.232 101.855 -22.766 103.855 C-35.37 105.194 -47.487 105.113 -58.766 98.855 C-59.725 98.336 -60.684 97.816 -61.672 97.281 C-71.975 91.21 -79.23 83.407 -84.766 72.855 C-85.28 71.9 -85.794 70.945 -86.324 69.961 C-92.496 56.664 -92.579 40.547 -87.766 26.855 C-81.555 11.429 -71.127 0.181 -56.141 -7.02 C-37.618 -14.768 -16.015 -12.418 0 0 Z M-67.734 11.594 C-78.527 23.611 -82.517 37.01 -81.766 52.855 C-81.385 55.66 -80.699 58.188 -79.766 60.855 C-79.509 61.644 -79.253 62.433 -78.988 63.246 C-74.378 76.148 -64.567 85.951 -52.32 91.848 C-39.573 96.877 -26.279 96.174 -13.766 90.855 C-1.171 84.717 6.417 75.397 11.609 62.48 C15.248 50.582 14.875 36.902 9.727 25.559 C2.45 12.377 -8.554 3.612 -22.766 -1.145 C-39.444 -4.579 -55.317 -0.216 -67.734 11.594 Z " fill="#0F3E17" transform="translate(375.765625,260.14453125)"/>
<path d="M0 0 C3.96 0.938 5.789 3.052 8.281 6.078 C8.515 6.347 8.515 6.347 9.697 7.71 C10.659 8.82 11.615 9.935 12.564 11.056 C14.69 13.548 16.893 15.965 19.094 18.391 C19.818 19.199 20.543 20.007 21.289 20.84 C22.164 21.811 23.044 22.779 23.969 23.703 C24.01 25.703 24.011 27.704 23.969 29.703 C21.328 30.531 21.328 30.531 17.969 30.703 C15.7 28.992 14.079 27.53 12.219 25.453 C11.738 24.949 11.257 24.445 10.762 23.926 C8.59 21.621 6.728 19.342 4.969 16.703 C4.961 17.275 4.953 17.847 4.944 18.436 C4.858 24.373 4.759 30.31 4.651 36.247 C4.613 38.464 4.578 40.681 4.547 42.899 C4.501 46.081 4.443 49.263 4.383 52.445 C4.377 52.943 4.377 52.943 4.348 55.463 C4.328 56.384 4.308 57.305 4.288 58.253 C4.274 59.066 4.261 59.879 4.247 60.716 C3.969 62.703 3.969 62.703 1.969 64.703 C-0.531 64.953 -0.531 64.953 -3.031 64.703 C-5.451 62.283 -5.295 61.66 -5.35 58.345 C-5.37 57.444 -5.39 56.544 -5.41 55.616 C-5.422 54.642 -5.433 53.668 -5.445 52.664 C-5.465 51.668 -5.484 50.672 -5.504 49.646 C-5.564 46.457 -5.61 43.268 -5.656 40.078 C-5.694 37.919 -5.733 35.76 -5.773 33.602 C-5.87 28.302 -5.955 23.003 -6.031 17.703 C-7.146 18.796 -8.257 19.891 -9.367 20.988 C-9.986 21.598 -10.606 22.208 -11.244 22.836 C-12.867 24.531 -14.253 26.265 -15.656 28.141 C-18.031 30.703 -18.031 30.703 -20.719 31.203 C-23.031 30.703 -23.031 30.703 -25.031 28.703 C-24.779 24.379 -23.142 22.279 -20.219 19.203 C-19.412 18.35 -18.605 17.496 -17.773 16.617 C-17.553 16.387 -17.553 16.387 -16.44 15.22 C-14.908 13.57 -13.441 11.874 -11.977 10.164 C-11.457 9.569 -10.937 8.974 -10.402 8.361 C-9.379 7.191 -8.368 6.01 -7.37 4.818 C-5.03 2.189 -3.463 0.803 0 0 Z " fill="#0F3E17" transform="translate(342.03125,274.296875)"/>
<path d="M0 0 C3.96 0.33 7.92 0.66 12 1 C12 2.32 12 3.64 12 5 C9.449 5.93 8.26 6.086 5.641 5.223 C4.852 4.84 4.063 4.457 3.25 4.062 C2.451 3.682 1.652 3.302 0.828 2.91 C0.225 2.61 -0.378 2.309 -1 2 C-0.67 1.34 -0.34 0.68 0 0 Z " fill="#CFE7D3" transform="translate(174,209)"/>
<path d="M0 0 C0.438 -0.008 0.438 -0.008 2.652 -0.051 C5.465 0.373 6.317 1.129 8.062 3.312 C6.127 3.535 4.189 3.74 2.25 3.938 C1.711 3.996 1.711 3.996 -1.02 4.289 C-3.938 4.312 -3.938 4.312 -6.938 2.312 C-4.427 -0.198 -3.469 0.015 0 0 Z " fill="#CFE7D3" transform="translate(203.9375,104.6875)"/>
<path d="M0 0 C0.66 0 1.32 0 2 0 C2 2.64 2 5.28 2 8 C1.67 8 1.34 8 1 8 C0.67 11.3 0.34 14.6 0 18 C-0.33 18 -0.66 18 -1 18 C-1.027 15.938 -1.046 13.875 -1.062 11.812 C-1.074 10.664 -1.086 9.515 -1.098 8.332 C-1.012 5.407 -0.678 2.837 0 0 Z " fill="#CFE7D3" transform="translate(295,295)"/>
<path d="M0 0 C1.32 1.32 2.64 2.64 4 4 C3.34 5.98 2.68 7.96 2 10 C0 8 0 8 -0.195 6.055 C-0.163 5.046 -0.163 5.046 0 0 Z " fill="#CFE7D3" transform="translate(346,290)"/>
<path d="M0 0 C0 4.39 -2.128 5.769 -5 9 C-5.66 8.67 -6.32 8.34 -7 8 C-4.69 5.36 -2.38 2.72 0 0 Z " fill="#0F3E17" transform="translate(326,289)"/>
<path d="M0 0 C0.33 0.99 0.66 1.98 1 3 C1.66 3.33 2.32 3.66 3 4 C1.02 4.99 -0.96 5.98 -3 7 C-3 5.68 -3 4.36 -3 3 C-2.01 2.67 -1.02 2.34 0 2 C0 1.34 0 0.68 0 0 Z " fill="#CFE7D3" transform="translate(313,252)"/>
<path d="M0 0 C0.66 0.33 1.32 0.66 2 1 C2.125 3.875 2.125 3.875 2 7 C1.34 7.66 0.68 8.32 0 9 C-1.125 6.75 -1.125 6.75 -2 4 C-1.125 1.688 -1.125 1.688 0 0 Z " fill="#CFE7D3" transform="translate(301,281)"/>
<path d="M0 0 C2.64 0.33 5.28 0.66 8 1 C7.67 1.66 7.34 2.32 7 3 C4.69 3 2.38 3 0 3 C0 2.01 0 1.02 0 0 Z " fill="#CFE7D3" transform="translate(349,265)"/>
</svg>
