<?xml version="1.0" encoding="UTF-8"?>
<svg viewBox="0 0 512 512" version="1.1" xmlns="http://www.w3.org/2000/svg">
<path d="M0 0 C6.922 3.562 13.606 9.988 16.719 17.207 C18.86 25.701 18.108 33.279 14.022 40.953 C10.826 45.831 6.653 49.694 2.438 53.688 C0.688 55.375 -1.06 57.065 -2.805 58.758 C-3.644 59.571 -4.484 60.384 -5.349 61.222 C-8.028 63.903 -10.493 66.716 -12.954 69.597 C-16.857 74.022 -21.163 78.075 -25.371 82.207 C-29.426 86.218 -33.271 90.32 -36.99 94.643 C-39.747 97.76 -42.715 100.653 -45.688 103.562 C-49.387 107.22 -53.057 110.853 -56.438 114.812 C-56.974 115.413 -57.51 116.014 -58.062 116.633 C-59.688 118.562 -59.688 118.562 -61.375 121.055 C-69.304 131.176 -81.569 131.853 -93.562 133.993 C-97.407 134.694 -101.194 135.554 -105 136.438 C-108.986 137.344 -112.592 137.763 -116.688 137.562 C-117.688 136.562 -117.688 136.562 -117.957 133.43 C-117.877 127.366 -116.286 121.555 -114.862 115.691 C-114.378 113.701 -113.908 111.708 -113.439 109.715 C-108.324 88.108 -108.324 88.108 -100.688 80.562 C-99.653 79.528 -98.619 78.493 -97.586 77.457 C-95.922 75.791 -94.255 74.128 -92.571 72.481 C-89.802 69.759 -87.17 66.992 -84.656 64.031 C-78.461 56.861 -71.526 50.349 -64.794 43.689 C-52.495 31.511 -52.495 31.511 -47.406 25.525 C-43.542 21.112 -39.374 16.981 -35.25 12.812 C-34.799 12.347 -34.799 12.347 -32.514 9.988 C-23.11 0.496 -13.519 -5.129 0 0 Z " fill="#0F3E17" transform="translate(384.6875,210.4375)"/>
<path d="M0 0 C1.134 -0.01 2.268 -0.02 3.437 -0.03 C4.677 -0.031 5.917 -0.032 7.195 -0.032 C8.504 -0.041 9.813 -0.049 11.162 -0.057 C14.751 -0.079 18.34 -0.088 21.929 -0.093 C24.172 -0.097 26.414 -0.103 28.657 -0.11 C36.482 -0.135 44.307 -0.148 52.133 -0.151 C59.425 -0.155 66.718 -0.185 74.01 -0.227 C80.274 -0.261 86.537 -0.277 92.8 -0.278 C96.54 -0.278 100.28 -0.287 104.02 -0.316 C108.19 -0.347 112.36 -0.338 116.531 -0.325 C117.769 -0.34 119.007 -0.355 120.283 -0.37 C128.664 -0.298 128.664 -0.298 132.493 2.572 C132.812 3.018 132.812 3.018 134.428 5.274 C135.711 6.554 136.996 7.833 138.281 9.111 C142.266 13.078 146.247 17.049 150.228 21.02 C151.94 22.727 153.653 24.432 155.366 26.137 C157.855 28.614 160.341 31.094 162.826 33.575 C163.583 34.327 164.341 35.08 165.121 35.855 C169.25 39.983 173.205 44.2 177.003 48.635 C178.096 49.892 179.25 51.096 180.428 52.274 C180.681 54.172 180.681 54.172 180.686 56.509 C180.693 57.383 180.699 58.257 180.705 59.158 C180.703 59.631 180.703 59.631 180.693 62.024 C180.695 62.993 180.697 63.962 180.699 64.961 C180.7 67.012 180.697 69.063 180.688 71.114 C180.678 74.261 180.688 77.408 180.701 80.555 C180.7 82.545 180.697 84.535 180.693 86.524 C180.697 87.47 180.701 88.416 180.705 89.39 C180.702 89.828 180.702 89.828 180.686 92.04 C180.685 92.811 180.683 93.582 180.681 94.377 C180.428 96.274 180.428 96.274 178.428 98.274 C173.872 97.719 173.872 97.719 172.428 96.274 C172.339 93.608 172.312 90.968 172.33 88.301 C172.331 87.903 172.331 87.903 172.334 85.884 C172.34 83.327 172.352 80.769 172.365 78.212 C172.37 76.482 172.375 74.752 172.379 73.022 C172.39 68.773 172.407 64.524 172.428 60.274 C171.384 60.306 170.341 60.337 169.266 60.369 C165.358 60.479 161.45 60.547 157.541 60.604 C155.856 60.634 154.172 60.675 152.487 60.727 C135.623 61.236 135.623 61.236 128.988 55.94 C126.473 53.255 124.97 50.617 123.428 47.274 C123.098 46.614 122.768 45.954 122.428 45.274 C122.341 42.503 122.312 39.756 122.33 36.985 C122.331 36.576 122.331 36.576 122.334 34.505 C122.34 31.886 122.352 29.268 122.365 26.649 C122.37 24.876 122.375 23.102 122.379 21.329 C122.39 16.977 122.407 12.626 122.428 8.274 C105.955 8.311 89.483 8.371 73.01 8.458 C65.362 8.498 57.714 8.53 50.065 8.545 C43.398 8.558 36.732 8.585 30.065 8.629 C26.535 8.651 23.006 8.667 19.476 8.666 C15.535 8.665 11.594 8.695 7.653 8.728 C6.484 8.723 5.314 8.718 4.109 8.713 C-3.764 8.815 -3.764 8.815 -7.712 11.058 C-10.513 14.395 -11.822 17.013 -11.827 21.388 C-11.833 22.204 -11.839 23.02 -11.845 23.861 C-11.841 24.752 -11.837 25.643 -11.833 26.56 C-11.837 27.511 -11.841 28.462 -11.845 29.441 C-11.855 32.635 -11.851 35.828 -11.847 39.022 C-11.851 41.308 -11.857 43.594 -11.863 45.881 C-11.876 52.098 -11.877 58.315 -11.874 64.532 C-11.873 69.718 -11.878 74.905 -11.883 80.091 C-11.894 93.026 -11.894 105.96 -11.887 118.895 C-11.882 130.126 -11.893 141.357 -11.912 152.588 C-11.932 164.122 -11.94 175.655 -11.936 187.188 C-11.934 193.662 -11.937 200.137 -11.951 206.611 C-11.963 212.7 -11.961 218.789 -11.948 224.877 C-11.946 227.113 -11.949 229.349 -11.957 231.584 C-11.967 234.634 -11.959 237.684 -11.947 240.734 C-11.954 241.62 -11.961 242.507 -11.969 243.42 C-11.925 248.417 -11.502 252.031 -8.572 256.274 C-4.724 259.428 -1.599 259.652 3.29 259.662 C3.968 259.667 4.646 259.673 5.345 259.678 C7.609 259.692 9.873 259.685 12.138 259.678 C13.765 259.684 15.391 259.691 17.018 259.699 C21.431 259.717 25.844 259.716 30.257 259.71 C33.943 259.707 37.628 259.713 41.313 259.719 C50.008 259.733 58.703 259.732 67.398 259.72 C76.366 259.709 85.333 259.723 94.301 259.75 C102.003 259.772 109.705 259.778 117.407 259.773 C122.006 259.769 126.605 259.772 131.203 259.789 C135.528 259.804 139.853 259.8 144.178 259.781 C145.764 259.778 147.349 259.781 148.935 259.791 C151.103 259.805 153.27 259.793 155.438 259.775 C156.65 259.775 157.862 259.775 159.111 259.775 C163.959 259.043 167.104 256.816 170.267 253.13 C171.953 248.98 171.92 245.027 171.99 240.587 C172.024 238.874 172.067 237.162 172.119 235.45 C172.131 234.696 172.144 233.943 172.156 233.166 C172.428 231.274 172.428 231.274 174.428 229.274 C178.983 229.83 178.983 229.83 180.428 231.274 C180.736 234.452 180.706 237.646 180.74 240.837 C180.769 241.719 180.798 242.601 180.828 243.51 C180.901 251.108 178.972 256.165 174.178 262.024 C165.687 268.971 157.8 268.845 147.3 268.776 C145.665 268.78 144.03 268.785 142.395 268.792 C137.971 268.806 133.548 268.795 129.125 268.779 C124.488 268.765 119.85 268.771 115.213 268.775 C107.428 268.777 99.643 268.764 91.858 268.741 C82.866 268.714 73.874 268.712 64.882 268.724 C56.22 268.735 47.557 268.729 38.895 268.715 C35.213 268.709 31.532 268.709 27.851 268.714 C23.514 268.718 19.178 268.708 14.842 268.687 C13.253 268.681 11.665 268.681 10.076 268.686 C7.902 268.692 5.729 268.679 3.555 268.662 C2.341 268.659 1.126 268.657 -0.125 268.654 C-6.818 267.916 -11.86 264.987 -16.572 260.274 C-20.482 254.479 -21.149 249.265 -21.08 242.406 C-21.087 241.442 -21.093 240.477 -21.099 239.483 C-21.115 236.264 -21.103 233.047 -21.09 229.829 C-21.095 227.516 -21.103 225.202 -21.111 222.889 C-21.13 216.616 -21.122 210.344 -21.11 204.071 C-21.1 197.503 -21.109 190.935 -21.115 184.367 C-21.124 172.632 -21.111 160.897 -21.09 149.161 C-21.072 138.53 -21.076 127.899 -21.094 117.268 C-21.115 104.91 -21.123 92.552 -21.112 80.193 C-21.105 73.656 -21.104 67.119 -21.118 60.582 C-21.129 54.435 -21.121 48.29 -21.098 42.143 C-21.093 39.889 -21.094 37.635 -21.103 35.381 C-21.114 32.301 -21.1 29.222 -21.08 26.142 C-21.089 25.252 -21.098 24.363 -21.107 23.446 C-21.023 16.678 -19.309 11.383 -14.791 6.251 C-14.224 5.805 -13.657 5.359 -13.072 4.899 C-12.505 4.438 -11.938 3.976 -11.354 3.501 C-7.488 0.839 -4.727 0.022 0 0 Z " fill="#0F3E17" transform="translate(168.57249450683594,103.72584533691406)"/>
<path d="M0 0 C3.871 3.249 7.634 6.491 11.078 10.199 C11.764 10.933 12.45 11.667 13.156 12.424 C13.847 13.171 14.538 13.918 15.25 14.688 C16.651 16.192 18.052 17.696 19.453 19.199 C20.063 19.858 20.673 20.516 21.302 21.194 C23 23 23 23 24.784 24.488 C26 26 26 26 25.924 27.935 C24.755 30.548 23.268 32.054 21.211 34.047 C20.434 34.81 19.656 35.573 18.855 36.359 C18.037 37.148 17.218 37.937 16.375 38.75 C11.287 43.698 6.349 48.654 1.729 54.044 C-1.977 58.236 -6.047 62.084 -10.039 66 C-14 69.915 -17.745 73.933 -21.379 78.152 C-23.629 80.718 -26.008 83.104 -28.438 85.5 C-29.302 86.356 -30.167 87.212 -31.059 88.094 C-31.699 88.723 -32.34 89.352 -33 90 C-35.902 88.687 -37.967 87.281 -40.207 85.023 C-40.499 84.731 -40.499 84.731 -41.976 83.251 C-42.279 82.942 -42.279 82.942 -43.812 81.375 C-44.435 80.744 -45.058 80.113 -45.7 79.463 C-57.462 67.483 -57.462 67.483 -60 62 C-53.389 54.307 -46.257 47.185 -39.034 40.071 C-38.27 39.315 -37.506 38.56 -36.719 37.781 C-36.027 37.101 -35.336 36.421 -34.623 35.721 C-33 34 -33 34 -32 32 C-31.34 32 -30.68 32 -30 32 C-29.728 31.402 -29.455 30.805 -29.175 30.189 C-28.027 28.05 -26.917 26.674 -25.203 24.976 C-24.642 24.415 -24.082 23.855 -23.504 23.278 C-22.902 22.686 -22.3 22.094 -21.68 21.484 C-21.061 20.869 -20.442 20.253 -19.805 19.618 C-17.833 17.657 -15.854 15.704 -13.875 13.75 C-12.535 12.42 -11.195 11.089 -9.855 9.758 C-6.576 6.5 -3.289 3.248 0 0 Z " fill="#CFE7D3" transform="translate(351,234)"/>
<path d="M0 0 C0.469 0 0.469 0 2.841 0.001 C3.332 -0 3.332 -0 5.817 -0.009 C9.081 -0.018 12.345 -0.02 15.609 -0.021 C17.868 -0.025 20.126 -0.028 22.384 -0.031 C27.125 -0.037 31.865 -0.039 36.606 -0.039 C42.694 -0.039 48.781 -0.052 54.869 -0.069 C59.535 -0.081 64.201 -0.083 68.867 -0.082 C71.112 -0.083 73.357 -0.088 75.603 -0.095 C78.737 -0.105 81.871 -0.102 85.006 -0.096 C85.941 -0.102 86.877 -0.108 87.841 -0.113 C88.692 -0.109 89.543 -0.105 90.42 -0.101 C90.791 -0.101 90.791 -0.101 92.668 -0.102 C94.488 0.147 94.488 0.147 96.488 2.147 C95.933 6.702 95.933 6.702 94.488 8.147 C91.363 8.253 88.26 8.293 85.135 8.292 C84.644 8.294 84.644 8.294 82.159 8.302 C78.895 8.312 75.631 8.314 72.367 8.315 C70.109 8.318 67.851 8.321 65.592 8.325 C60.852 8.331 56.111 8.333 51.371 8.332 C45.283 8.332 39.195 8.345 33.107 8.363 C28.441 8.374 23.775 8.376 19.109 8.375 C16.864 8.377 14.619 8.381 12.374 8.389 C9.239 8.398 6.105 8.396 2.971 8.39 C2.035 8.395 1.1 8.401 0.136 8.407 C-0.716 8.402 -1.567 8.398 -2.444 8.394 C-2.814 8.394 -2.814 8.394 -4.691 8.396 C-6.512 8.147 -6.512 8.147 -8.512 6.147 C-7.724 -0.31 -6.283 0.032 0 0 Z " fill="#0F3E17" transform="translate(197.5117950439453,244.85336303710938)"/>
<path d="M0 0 C0.469 0 0.469 0 2.841 0.001 C3.332 -0 3.332 -0 5.817 -0.009 C9.081 -0.018 12.345 -0.02 15.609 -0.021 C17.868 -0.025 20.126 -0.028 22.384 -0.031 C27.125 -0.037 31.865 -0.039 36.606 -0.039 C42.694 -0.039 48.781 -0.052 54.869 -0.069 C59.535 -0.081 64.201 -0.083 68.867 -0.082 C71.112 -0.083 73.357 -0.088 75.603 -0.095 C78.737 -0.105 81.871 -0.102 85.006 -0.096 C85.941 -0.102 86.877 -0.108 87.841 -0.113 C88.692 -0.109 89.543 -0.105 90.42 -0.101 C90.791 -0.101 90.791 -0.101 92.668 -0.102 C94.488 0.147 94.488 0.147 96.488 2.147 C95.933 6.702 95.933 6.702 94.488 8.147 C91.358 8.247 88.25 8.283 85.119 8.276 C84.627 8.277 84.627 8.277 82.138 8.281 C78.87 8.286 75.601 8.283 72.332 8.279 C70.071 8.28 67.811 8.281 65.55 8.282 C60.805 8.284 56.061 8.282 51.316 8.277 C45.219 8.271 39.122 8.275 33.025 8.281 C28.355 8.284 23.685 8.283 19.015 8.28 C16.766 8.28 14.517 8.281 12.268 8.283 C9.131 8.285 5.994 8.282 2.857 8.276 C1.918 8.278 0.979 8.28 0.011 8.282 C-6.398 8.261 -6.398 8.261 -7.512 7.147 C-7.637 4.147 -7.637 4.147 -7.512 1.147 C-5.562 -0.803 -2.596 0.013 0 0 Z " fill="#0F3E17" transform="translate(197.5117950439453,197.85336303710938)"/>
<path d="M0 0 C0.66 0.33 1.32 0.66 2 1 C1.196 1.66 0.391 2.32 -0.438 3 C-3.751 6.88 -3.746 9 -4 14 C-5.32 14.33 -6.64 14.66 -8 15 C-8.66 13.68 -9.32 12.36 -10 11 C-8.521 9.354 -7.042 7.708 -5.562 6.062 C-4.739 5.146 -3.915 4.229 -3.066 3.285 C-1 1 -1 1 0 0 Z " fill="#CFE7D3" transform="translate(301,285)"/>
<path d="M0 0 C0.33 0.99 0.66 1.98 1 3 C-1.31 4.98 -3.62 6.96 -6 9 C-6.66 8.67 -7.32 8.34 -8 8 C-5.36 5.36 -2.72 2.72 0 0 Z " fill="#CFE7D3" transform="translate(339,246)"/>
</svg>
