<?xml version="1.0" encoding="UTF-8"?>
<svg viewBox="0 0 512 512" version="1.1" xmlns="http://www.w3.org/2000/svg">
<path d="M0 0 C1.875 0.688 1.875 0.688 2.875 1.688 C2.875 7.297 2.875 12.907 2.875 18.688 C35.215 18.688 67.555 18.688 100.875 18.688 C100.875 13.407 100.875 8.127 100.875 2.688 C101.865 1.698 102.855 0.707 103.875 -0.312 C106.849 -0.042 107.729 0.542 109.875 2.688 C110.02 5.432 110.062 8.072 110 10.812 C109.991 11.567 109.982 12.321 109.973 13.098 C109.949 14.961 109.913 16.824 109.875 18.688 C110.772 18.661 111.669 18.635 112.594 18.608 C115.956 18.522 119.317 18.46 122.68 18.413 C124.129 18.388 125.578 18.354 127.027 18.31 C142.674 17.852 142.674 17.852 148.875 23.688 C150.934 25.75 150.934 25.75 152.312 27.688 C152.549 28.007 152.549 28.007 153.746 29.625 C156.287 34.267 156.028 39.386 156.036 44.551 C156.041 45.327 156.046 46.104 156.051 46.903 C156.066 49.459 156.073 52.015 156.078 54.57 C156.084 56.35 156.09 58.129 156.095 59.908 C156.106 63.632 156.112 67.356 156.115 71.08 C156.121 75.856 156.145 80.632 156.173 85.408 C156.192 89.08 156.197 92.751 156.199 96.423 C156.202 98.185 156.21 99.946 156.223 101.707 C156.24 104.166 156.238 106.624 156.231 109.083 C156.241 109.812 156.25 110.541 156.259 111.293 C156.235 114.226 156.196 116.217 154.517 118.678 C152.875 119.688 152.875 119.688 150.25 119.438 C147.875 118.688 147.875 118.688 146.875 117.688 C146.875 103.827 146.875 89.968 146.875 75.688 C83.845 75.688 20.815 75.688 -44.125 75.688 C-44.042 95.199 -43.96 114.71 -43.875 134.812 C-43.859 140.971 -43.843 147.129 -43.827 153.473 C-43.782 161 -43.782 161 -43.755 164.525 C-43.741 166.983 -43.734 169.442 -43.733 171.901 C-43.731 175.629 -43.704 179.355 -43.671 183.083 C-43.676 184.176 -43.681 185.269 -43.686 186.395 C-43.602 192.456 -43.234 196.108 -39.125 200.688 C-35.867 202.86 -34.952 202.94 -31.184 202.953 C-30.165 202.961 -29.145 202.969 -28.095 202.978 C-27.536 202.977 -27.536 202.977 -24.709 202.975 C-24.12 202.978 -24.12 202.978 -21.141 202.995 C-17.912 203.012 -14.683 203.021 -11.453 203.026 C-8.076 203.035 -4.699 203.055 -1.322 203.076 C7.995 203.129 17.313 203.162 26.63 203.195 C35.172 203.226 43.714 203.261 52.256 203.312 C55.619 203.331 58.983 203.346 62.347 203.352 C66.094 203.359 69.841 203.379 73.588 203.4 C74.708 203.399 75.827 203.398 76.981 203.397 C77.997 203.406 79.014 203.414 80.061 203.422 C80.504 203.424 80.504 203.424 82.748 203.431 C84.875 203.688 84.875 203.688 86.875 205.688 C86.319 210.243 86.319 210.243 84.875 211.688 C83.282 211.792 81.684 211.827 80.088 211.835 C79.052 211.842 78.015 211.849 76.948 211.856 C75.802 211.859 74.655 211.862 73.474 211.865 C72.274 211.871 71.074 211.878 69.838 211.884 C66.536 211.901 63.234 211.912 59.932 211.921 C57.869 211.926 55.806 211.932 53.743 211.938 C47.289 211.957 40.835 211.971 34.381 211.98 C26.93 211.99 19.481 212.016 12.03 212.056 C6.273 212.086 0.516 212.101 -5.241 212.105 C-8.68 212.107 -12.118 212.116 -15.557 212.141 C-19.397 212.169 -23.237 212.164 -27.077 212.157 C-27.645 212.164 -27.645 212.164 -30.52 212.196 C-37.861 212.148 -41.382 211.239 -46.734 206.16 C-51.088 200.778 -52.372 196.81 -52.406 189.921 C-52.412 189.253 -52.418 188.585 -52.424 187.898 C-52.441 185.668 -52.444 183.438 -52.447 181.208 C-52.457 179.606 -52.467 178.004 -52.477 176.402 C-52.504 172.055 -52.516 167.708 -52.525 163.361 C-52.531 160.642 -52.539 157.924 -52.548 155.206 C-52.576 146.694 -52.595 138.183 -52.603 129.671 C-52.612 119.858 -52.647 110.046 -52.705 100.233 C-52.748 92.639 -52.768 85.046 -52.771 77.452 C-52.773 72.921 -52.785 68.39 -52.821 63.858 C-52.854 59.593 -52.858 55.329 -52.84 51.064 C-52.839 49.503 -52.847 47.943 -52.867 46.383 C-52.975 37.405 -52.561 30.493 -46.125 23.688 C-40.734 18.436 -35.184 18.177 -27.927 18.209 C-25.659 18.249 -23.392 18.311 -21.125 18.375 C-19.572 18.4 -18.018 18.423 -16.465 18.443 C-12.684 18.498 -8.905 18.584 -5.125 18.688 C-5.142 18.086 -5.142 18.086 -5.23 15.039 C-5.259 13.464 -5.286 11.888 -5.312 10.312 C-5.338 9.518 -5.363 8.724 -5.389 7.906 C-5.415 5.832 -5.28 3.756 -5.125 1.688 C-2.125 -0.312 -2.125 -0.312 0 0 Z " fill="#0F3E17" transform="translate(202.125,117.3125)"/>
<path d="M0 0 C0.842 0.424 1.684 0.848 2.551 1.285 C15.392 8.28 23.997 19.71 28.407 33.568 C29.436 37.788 29.531 41.923 29.5 46.25 C29.495 47.17 29.49 48.089 29.485 49.036 C29.284 56.932 27.732 62.969 24 70 C23.542 70.9 23.085 71.8 22.613 72.727 C16.178 84.399 6.558 91.822 -5.875 96.375 C-17.806 99.717 -31.668 99.87 -43.043 94.672 C-57.118 86.714 -66.896 76.15 -71.746 60.609 C-75.207 46.195 -73.378 31.877 -65.75 19.188 C-51.771 -1.119 -23.137 -12.783 0 0 Z " fill="#CFE7D3" transform="translate(376,255)"/>
<path d="M0 0 C0.842 0.424 1.684 0.848 2.551 1.285 C15.392 8.28 23.997 19.71 28.407 33.568 C29.436 37.788 29.531 41.923 29.5 46.25 C29.495 47.17 29.49 48.089 29.485 49.036 C29.284 56.932 27.732 62.969 24 70 C23.542 70.9 23.085 71.8 22.613 72.727 C16.178 84.399 6.558 91.822 -5.875 96.375 C-17.806 99.717 -31.668 99.87 -43.043 94.672 C-57.118 86.714 -66.896 76.15 -71.746 60.609 C-75.207 46.195 -73.378 31.877 -65.75 19.188 C-51.771 -1.119 -23.137 -12.783 0 0 Z M-53.812 17.75 C-61.17 26.357 -64.185 34.492 -64.25 45.625 C-64.271 46.49 -64.291 47.355 -64.312 48.246 C-64.382 59.838 -59.895 69.493 -52.117 78.078 C-42.355 87.169 -30.786 90.6 -17.664 90.375 C-5.565 89.137 4.205 82.857 11.812 73.625 C14.951 69.361 17.174 64.958 19 60 C19.357 59.069 19.714 58.139 20.082 57.18 C22.909 47.388 21.556 37 17 28 C10.338 16.058 1.271 8.627 -11.938 4.625 C-27.871 1.412 -42.68 6.009 -53.812 17.75 Z " fill="#0F3E17" transform="translate(376,255)"/>
<path d="M0 0 C0.716 0.324 1.433 0.649 2.171 0.983 C5.086 2.031 7.189 2.26 10.271 2.278 C10.792 2.284 10.792 2.284 13.428 2.312 C14.56 2.314 15.692 2.317 16.859 2.319 C18.059 2.329 19.259 2.339 20.496 2.349 C23.779 2.375 27.062 2.392 30.344 2.405 C33.778 2.42 37.212 2.447 40.646 2.473 C47.145 2.519 53.643 2.556 60.142 2.589 C67.542 2.628 74.943 2.677 82.343 2.727 C97.562 2.831 112.781 2.92 128 3 C128 3.33 128 3.66 128 4 C109.025 4.165 109.025 4.165 13 5 C13 8.3 13 11.6 13 15 C9.127 15.968 5.964 16.076 2 16 C1.939 16.699 1.879 17.397 1.816 18.117 C1.733 19.027 1.649 19.937 1.562 20.875 C1.481 21.78 1.4 22.685 1.316 23.617 C1 26 1 26 0 28 C-7.844 29.412 -16.058 29.127 -24 29 C-24.027 27.042 -24.046 25.083 -24.062 23.125 C-24.074 22.034 -24.086 20.944 -24.098 19.82 C-24 17 -24 17 -23 15 C-19.37 15 -15.74 15 -12 15 C-12.041 13.391 -12.083 11.783 -12.125 10.125 C-12.195 7.383 -12.195 7.383 -12 5 C-10 3 -10 3 -7.617 2.805 C-6.712 2.828 -5.807 2.851 -4.875 2.875 C-3.965 2.893 -3.055 2.911 -2.117 2.93 C-1.419 2.953 -0.72 2.976 0 3 C0 2.01 0 1.02 0 0 Z " fill="#CFE7D3" transform="translate(158,326)"/>
<path d="M0 0 C63.03 0 126.06 0 191 0 C191 13.2 191 26.4 191 40 C190.67 39.34 190.34 38.68 190 38 C189.092 38.351 188.185 38.701 187.25 39.062 C181.849 40.655 176.512 39.619 171 39 C171 35.04 171 31.08 171 27 C172.815 26.835 172.815 26.835 182 26 C182.144 24.206 182.289 22.411 182.438 20.562 C182.875 15.125 182.875 15.125 184 14 C185.98 14 187.96 14 190 14 C190 9.71 190 5.42 190 1 C127.63 1 65.26 1 1 1 C1 39.94 1 78.88 1 119 C0.67 119 0.34 119 0 119 C0 79.73 0 40.46 0 0 Z " fill="#CFE7D3" transform="translate(158,193)"/>
<path d="M0 0 C0.489 -0.001 0.489 -0.001 2.961 -0.008 C3.984 -0 5.008 0.008 6.062 0.016 C7.086 0.008 8.11 0 9.164 -0.008 C10.141 -0.005 11.118 -0.003 12.125 0 C13.023 0.002 13.922 0.005 14.848 0.007 C17.062 0.266 17.062 0.266 19.062 2.266 C19.321 4.48 19.321 4.48 19.328 7.203 C19.329 7.692 19.329 7.692 19.336 10.164 C19.328 11.188 19.32 12.211 19.312 13.266 C19.32 14.289 19.328 15.313 19.336 16.367 C19.333 17.344 19.331 18.321 19.328 19.328 C19.326 20.227 19.324 21.125 19.321 22.051 C19.062 24.266 19.062 24.266 17.062 26.266 C14.848 26.524 14.848 26.524 12.125 26.531 C11.148 26.534 10.171 26.536 9.164 26.539 C8.141 26.531 7.117 26.524 6.062 26.516 C5.039 26.523 4.015 26.531 2.961 26.539 C1.984 26.536 1.007 26.534 0 26.531 C-0.898 26.529 -1.797 26.527 -2.723 26.524 C-4.938 26.266 -4.938 26.266 -6.938 24.266 C-7.196 22.051 -7.196 22.051 -7.203 19.328 C-7.206 18.351 -7.208 17.374 -7.211 16.367 C-7.203 15.344 -7.195 14.32 -7.188 13.266 C-7.195 12.242 -7.203 11.219 -7.211 10.164 C-7.208 9.187 -7.206 8.21 -7.203 7.203 C-7.201 6.305 -7.199 5.406 -7.196 4.48 C-6.661 -0.102 -3.937 0.01 0 0 Z " fill="#0F3E17" transform="translate(251.9375,266.734375)"/>
<path d="M0 0 C0.489 -0.001 0.489 -0.001 2.961 -0.008 C3.984 -0 5.008 0.008 6.062 0.016 C7.086 0.008 8.11 0 9.164 -0.008 C10.141 -0.005 11.118 -0.003 12.125 0 C13.023 0.002 13.922 0.005 14.848 0.007 C17.062 0.266 17.062 0.266 19.062 2.266 C19.321 4.48 19.321 4.48 19.328 7.203 C19.329 7.692 19.329 7.692 19.336 10.164 C19.328 11.188 19.32 12.211 19.312 13.266 C19.32 14.289 19.328 15.313 19.336 16.367 C19.333 17.344 19.331 18.321 19.328 19.328 C19.326 20.227 19.324 21.125 19.321 22.051 C19.062 24.266 19.062 24.266 17.062 26.266 C14.848 26.524 14.848 26.524 12.125 26.531 C11.148 26.534 10.171 26.536 9.164 26.539 C8.141 26.531 7.117 26.524 6.062 26.516 C5.039 26.523 4.015 26.531 2.961 26.539 C1.984 26.536 1.007 26.534 0 26.531 C-0.898 26.529 -1.797 26.527 -2.723 26.524 C-4.938 26.266 -4.938 26.266 -6.938 24.266 C-7.196 22.051 -7.196 22.051 -7.203 19.328 C-7.206 18.351 -7.208 17.374 -7.211 16.367 C-7.203 15.344 -7.195 14.32 -7.188 13.266 C-7.195 12.242 -7.203 11.219 -7.211 10.164 C-7.208 9.187 -7.206 8.21 -7.203 7.203 C-7.201 6.305 -7.199 5.406 -7.196 4.48 C-6.661 -0.102 -3.937 0.01 0 0 Z " fill="#0F3E17" transform="translate(199.9375,266.734375)"/>
<path d="M0 0 C0.489 -0.001 0.489 -0.001 2.961 -0.008 C3.984 -0 5.008 0.008 6.062 0.016 C7.086 0.008 8.11 0 9.164 -0.008 C10.141 -0.005 11.118 -0.003 12.125 0 C13.023 0.002 13.922 0.005 14.848 0.007 C17.062 0.266 17.062 0.266 19.062 2.266 C19.321 4.48 19.321 4.48 19.328 7.203 C19.329 7.692 19.329 7.692 19.336 10.164 C19.328 11.188 19.32 12.211 19.312 13.266 C19.32 14.289 19.328 15.313 19.336 16.367 C19.333 17.344 19.331 18.321 19.328 19.328 C19.326 20.227 19.324 21.125 19.321 22.051 C19.062 24.266 19.062 24.266 17.062 26.266 C14.848 26.524 14.848 26.524 12.125 26.531 C11.148 26.534 10.171 26.536 9.164 26.539 C8.141 26.531 7.117 26.524 6.062 26.516 C5.039 26.523 4.015 26.531 2.961 26.539 C1.984 26.536 1.007 26.534 0 26.531 C-0.898 26.529 -1.797 26.527 -2.723 26.524 C-4.938 26.266 -4.938 26.266 -6.938 24.266 C-7.196 22.051 -7.196 22.051 -7.203 19.328 C-7.206 18.351 -7.208 17.374 -7.211 16.367 C-7.203 15.344 -7.195 14.32 -7.188 13.266 C-7.195 12.242 -7.203 11.219 -7.211 10.164 C-7.208 9.187 -7.206 8.21 -7.203 7.203 C-7.201 6.305 -7.199 5.406 -7.196 4.48 C-6.661 -0.102 -3.937 0.01 0 0 Z " fill="#0F3E17" transform="translate(251.9375,221.734375)"/>
<path d="M0 0 C0.489 -0.001 0.489 -0.001 2.961 -0.008 C3.984 -0 5.008 0.008 6.062 0.016 C7.086 0.008 8.11 0 9.164 -0.008 C10.141 -0.005 11.118 -0.003 12.125 0 C13.023 0.002 13.922 0.005 14.848 0.007 C17.062 0.266 17.062 0.266 19.062 2.266 C19.321 4.48 19.321 4.48 19.328 7.203 C19.329 7.692 19.329 7.692 19.336 10.164 C19.328 11.188 19.32 12.211 19.312 13.266 C19.32 14.289 19.328 15.313 19.336 16.367 C19.333 17.344 19.331 18.321 19.328 19.328 C19.326 20.227 19.324 21.125 19.321 22.051 C19.062 24.266 19.062 24.266 17.062 26.266 C14.848 26.524 14.848 26.524 12.125 26.531 C11.148 26.534 10.171 26.536 9.164 26.539 C8.141 26.531 7.117 26.524 6.062 26.516 C5.039 26.523 4.015 26.531 2.961 26.539 C1.984 26.536 1.007 26.534 0 26.531 C-0.898 26.529 -1.797 26.527 -2.723 26.524 C-4.938 26.266 -4.938 26.266 -6.938 24.266 C-7.196 22.051 -7.196 22.051 -7.203 19.328 C-7.206 18.351 -7.208 17.374 -7.211 16.367 C-7.203 15.344 -7.195 14.32 -7.188 13.266 C-7.195 12.242 -7.203 11.219 -7.211 10.164 C-7.208 9.187 -7.206 8.21 -7.203 7.203 C-7.201 6.305 -7.199 5.406 -7.196 4.48 C-6.661 -0.102 -3.937 0.01 0 0 Z " fill="#0F3E17" transform="translate(199.9375,221.734375)"/>
<path d="M0 0 C9.9 0 19.8 0 30 0 C30.33 6.6 30.66 13.2 31 20 C32.98 19.67 34.96 19.34 37 19 C37.33 12.73 37.66 6.46 38 0 C70.34 0 102.68 0 136 0 C136 0.33 136 0.66 136 1 C103.99 1 71.98 1 39 1 C39.33 9.58 39.66 18.16 40 27 C32.08 27 24.16 27 16 27 C16 23.04 16 19.08 16 15 C19.96 15 23.92 15 28 15 C28 10.71 28 6.42 28 2 C18.76 2 9.52 2 0 2 C0 1.34 0 0.68 0 0 Z " fill="#CFE7D3" transform="translate(167,144)"/>
<path d="M0 0 C4.556 0.556 4.556 0.556 6 2 C5.962 3.679 5.87 5.356 5.754 7.031 C5.104 23.631 5.104 23.631 8.613 28.016 C12.94 31.41 17.806 33.313 23 35 C23.125 37.375 23.125 37.375 23 40 C22.34 40.66 21.68 41.32 21 42 C15.946 41.772 11.592 38.865 7.25 36.5 C6.47 36.084 5.69 35.667 4.887 35.238 C-0.838 32.162 -0.838 32.162 -2 31 C-2.218 26.884 -2.186 22.765 -2.185 18.644 C-2.187 16.574 -2.206 14.505 -2.225 12.436 C-2.227 11.138 -2.228 9.841 -2.23 8.504 C-2.235 7.306 -2.239 6.108 -2.243 4.873 C-2 2 -2 2 0 0 Z " fill="#0F3E17" transform="translate(350,274)"/>
<path d="M0 0 C0.33 0 0.66 0 1 0 C1.165 27.06 1.165 27.06 2 164 C0.68 164.33 -0.64 164.66 -2 165 C-2.33 168.63 -2.66 172.26 -3 176 C-6.96 176 -10.92 176 -15 176 C-15 172.04 -15 168.08 -15 164 C-11.04 164 -7.08 164 -3 164 C-2.835 163.34 -2.835 163.34 -2 160 C-1.34 160 -0.68 160 0 160 C0 107.2 0 54.4 0 0 Z " fill="#CFE7D3" transform="translate(149,153)"/>
<path d="M0 0 C3.96 0 7.92 0 12 0 C11.67 8.25 11.34 16.5 11 25 C43.01 25 75.02 25 108 25 C108 25.33 108 25.66 108 26 C75.66 26 43.32 26 10 26 C9.67 20.39 9.34 14.78 9 9 C5 8 5 8 3 9 C2.67 14.61 2.34 20.22 2 26 C-7.24 26 -16.48 26 -26 26 C-26 25.67 -26 25.34 -26 25 C-17.09 25 -8.18 25 1 25 C0.917 23.958 0.917 23.958 0.5 18.688 C0.048 12.434 -0.085 6.267 0 0 Z " fill="#CFE7D3" transform="translate(195,110)"/>
<path d="M0 0 C3.96 0 7.92 0 12 0 C12.195 2.832 12.391 5.664 12.586 8.496 C12.723 9.322 12.859 10.149 13 11 C13.66 11.33 14.32 11.66 15 12 C14.67 12.99 14.34 13.98 14 15 C3.77 14.67 -6.46 14.34 -17 14 C-17 13.67 -17 13.34 -17 13 C-14.195 12.835 -14.195 12.835 0 12 C0 8.04 0 4.08 0 0 Z " fill="#CFE7D3" transform="translate(329,122)"/>
<path d="M0 0 C6.93 0 13.86 0 21 0 C20.67 2.64 20.34 5.28 20 8 C16.04 8 12.08 8 8 8 C8 6.02 8 4.04 8 2 C5.36 1.67 2.72 1.34 0 1 C0 0.67 0 0.34 0 0 Z " fill="#CFE7D3" transform="translate(248,248)"/>
<path d="M0 0 C3.3 0 6.6 0 10 0 C10 3.3 10 6.6 10 10 C6.7 10 3.4 10 0 10 C0 6.7 0 3.4 0 0 Z " fill="#CFE7D3" transform="translate(253,275)"/>
<path d="M0 0 C3.3 0 6.6 0 10 0 C10 3.3 10 6.6 10 10 C6.7 10 3.4 10 0 10 C0 6.7 0 3.4 0 0 Z " fill="#CFE7D3" transform="translate(201,275)"/>
<path d="M0 0 C3.3 0 6.6 0 10 0 C10 3.3 10 6.6 10 10 C6.7 10 3.4 10 0 10 C0 6.7 0 3.4 0 0 Z " fill="#CFE7D3" transform="translate(253,230)"/>
<path d="M0 0 C3.3 0 6.6 0 10 0 C10 3.3 10 6.6 10 10 C6.7 10 3.4 10 0 10 C0 6.7 0 3.4 0 0 Z " fill="#CFE7D3" transform="translate(201,230)"/>
<path d="M0 0 C3.96 0 7.92 0 12 0 C12 1.98 12 3.96 12 6 C8.69 7.655 5.009 7.101 1.375 7.062 C0.573 7.058 -0.229 7.053 -1.055 7.049 C-3.036 7.037 -5.018 7.019 -7 7 C-7 6.67 -7 6.34 -7 6 C-5.02 5.67 -3.04 5.34 -1 5 C-0.67 3.35 -0.34 1.7 0 0 Z " fill="#CFE7D3" transform="translate(354,244)"/>
<path d="M0 0 C0.66 0 1.32 0 2 0 C2 4.95 2 9.9 2 15 C-1.278 11.722 -1.405 11.164 -1.688 6.812 C-1.753 5.911 -1.819 5.01 -1.887 4.082 C-1.924 3.395 -1.961 2.708 -2 2 C-1.34 2 -0.68 2 0 2 C0 1.34 0 0.68 0 0 Z " fill="#CFE7D3" transform="translate(395,294)"/>
<path d="M0 0 C1.892 2.386 3.024 4.072 4 7 C2.35 7.33 0.7 7.66 -1 8 C-1.042 5.667 -1.041 3.333 -1 1 C-0.67 0.67 -0.34 0.34 0 0 Z " fill="#CFE7D3" transform="translate(306,321)"/>
<path d="M0 0 C2 3 2 3 2 6 C0.35 6.33 -1.3 6.66 -3 7 C-2.67 5.35 -2.34 3.7 -2 2 C-1.34 2 -0.68 2 0 2 C0 1.34 0 0.68 0 0 Z " fill="#CFE7D3" transform="translate(149,311)"/>
<path d="M0 0 C0.99 0 1.98 0 3 0 C3 0.99 3 1.98 3 3 C3.99 3.33 4.98 3.66 6 4 C3.36 4 0.72 4 -2 4 C-1.34 2.68 -0.68 1.36 0 0 Z " fill="#CFE7D3" transform="translate(204,281)"/>
<path d="M0 0 C1.938 0.688 1.938 0.688 2.938 2.688 C2.463 2.76 2.463 2.76 0.062 3.125 C-3.062 3.688 -3.062 3.688 -5.062 4.688 C-4.688 2.75 -4.688 2.75 -4.062 0.688 C-2.062 -0.312 -2.062 -0.312 0 0 Z " fill="#0F3E17" transform="translate(202.0625,117.3125)"/>
<path d="M0 0 C0.66 0.99 1.32 1.98 2 3 C1.01 4.65 0.02 6.3 -1 8 C-1.99 7.67 -2.98 7.34 -4 7 C-2.68 4.69 -1.36 2.38 0 0 Z " fill="#0F3E17" transform="translate(392,320)"/>
</svg>
