<?xml version="1.0" encoding="UTF-8"?>
<svg viewBox="0 0 512 512" version="1.1" xmlns="http://www.w3.org/2000/svg">
<path d="M0 0 C2.563 2.563 2.298 3.631 2.312 7.188 C2.182 14.341 -0.173 18.986 -4 25 C-3.655 25.013 -3.655 25.013 -1.91 25.078 C8.876 25.729 16.58 29.033 24 37 C32.729 48.109 33.263 59.303 32 73 C29.6 86.578 22.035 98.721 12 108 C9.111 109.962 6.176 111.556 3 113 C2.67 113.165 2.67 113.165 1 114 C-1.101 114.123 -3.207 114.176 -5.312 114.188 C-6.443 114.202 -7.574 114.216 -8.738 114.23 C-11.964 114.003 -14.048 113.22 -17 112 C-20.463 111.981 -23.879 112.44 -27 114 C-36.38 115.077 -42.528 113.736 -50 108 C-50.837 107.376 -51.673 106.752 -52.535 106.109 C-62.29 97.762 -69.897 83.828 -71 71 C-71.996 57.662 -71.073 46.996 -62.438 36.125 C-55.699 29.21 -48.303 25.674 -38.625 25.5 C-34.037 25.627 -30.298 26.39 -26 28 C-27.653 21.388 -31.327 15.782 -37 12 C-36.67 10.35 -36.34 8.7 -36 7 C-34.35 6.67 -32.7 6.34 -31 6 C-28.69 8.64 -26.38 11.28 -24 14 C-23.484 13.299 -22.969 12.597 -22.438 11.875 C-16.394 4.747 -9.854 -0.948 0 0 Z " fill="#CFE7D3" transform="translate(361,231)"/>
<path d="M0 0 C2.076 -0.005 4.151 -0.012 6.227 -0.022 C11.842 -0.041 17.457 -0.022 23.073 0.005 C28.96 0.027 34.847 0.019 40.734 0.015 C50.617 0.013 60.5 0.035 70.383 0.072 C81.798 0.115 93.213 0.122 104.629 0.109 C115.626 0.098 126.623 0.109 137.62 0.131 C142.293 0.141 146.966 0.143 151.639 0.138 C157.144 0.135 162.649 0.151 168.154 0.182 C170.171 0.191 172.188 0.193 174.205 0.187 C176.965 0.181 179.723 0.199 182.483 0.223 C183.275 0.216 184.067 0.208 184.883 0.2 C191.549 0.304 197.515 2.24 202.703 6.526 C203.146 7.093 203.59 7.66 204.047 8.245 C204.511 8.812 204.975 9.379 205.453 9.963 C208.001 14.113 207.689 18.614 207.676 23.343 C207.677 23.723 207.677 23.723 207.681 25.645 C207.686 28.151 207.683 30.657 207.679 33.163 C207.68 34.903 207.681 36.644 207.682 38.385 C207.684 42.029 207.682 45.673 207.677 49.317 C207.671 53.998 207.675 58.679 207.681 63.36 C207.684 66.952 207.683 70.544 207.68 74.135 C207.68 75.862 207.681 77.589 207.683 79.316 C207.685 81.722 207.682 84.128 207.676 86.534 C207.678 87.254 207.68 87.973 207.682 88.715 C207.661 93.63 207.661 93.63 206.547 94.745 C204.047 94.87 204.047 94.87 201.547 94.745 C199.861 93.059 200.417 90.976 200.403 88.726 C200.403 88.367 200.403 88.367 200.405 86.55 C200.401 85.797 200.398 85.045 200.394 84.269 C200.387 82.628 200.382 80.987 200.378 79.346 C200.371 76.749 200.355 74.152 200.337 71.554 C200.284 64.167 200.236 56.78 200.221 49.392 C200.211 44.878 200.181 40.364 200.139 35.85 C200.127 34.13 200.122 32.409 200.124 30.688 C200.127 28.277 200.104 25.867 200.077 23.457 C200.083 22.747 200.09 22.037 200.097 21.306 C200.007 16.531 198.923 14.102 195.547 10.745 C192.305 9.124 188.746 9.585 185.184 9.577 C184.309 9.571 183.433 9.566 182.531 9.56 C179.58 9.542 176.629 9.531 173.678 9.52 C171.57 9.509 169.461 9.497 167.352 9.486 C160.412 9.449 153.471 9.424 146.531 9.401 C145.351 9.397 144.172 9.393 142.956 9.389 C131.836 9.353 120.716 9.321 109.596 9.3 C95.358 9.272 81.12 9.221 66.882 9.139 C56.879 9.084 46.875 9.055 36.872 9.045 C30.893 9.039 24.915 9.021 18.937 8.974 C13.313 8.93 7.689 8.92 2.065 8.935 C0 8.934 -2.065 8.922 -4.129 8.897 C-6.948 8.864 -9.764 8.875 -12.583 8.896 C-13.401 8.876 -14.218 8.857 -15.061 8.836 C-18.399 8.9 -20.59 9.098 -23.307 11.133 C-26.864 14.922 -28.204 17.92 -28.213 23.205 C-28.23 24.46 -28.246 25.715 -28.263 27.008 C-28.252 28.38 -28.239 29.753 -28.226 31.125 C-28.234 32.584 -28.245 34.044 -28.259 35.503 C-28.287 39.449 -28.279 43.394 -28.264 47.34 C-28.254 51.469 -28.279 55.598 -28.3 59.728 C-28.334 67.54 -28.338 75.353 -28.331 83.165 C-28.324 92.063 -28.352 100.96 -28.382 109.857 C-28.444 128.153 -28.461 146.449 -28.453 164.745 C-19.873 164.745 -11.293 164.745 -2.453 164.745 C-2.453 160.455 -2.453 156.165 -2.453 151.745 C2.048 147.243 2.048 147.243 7.353 147.227 C8.521 147.214 9.689 147.202 10.893 147.189 C12.15 147.197 13.407 147.205 14.703 147.213 C15.997 147.21 17.292 147.206 18.625 147.202 C21.362 147.196 24.099 147.204 26.836 147.223 C30.34 147.246 33.843 147.233 37.347 147.209 C40.695 147.191 44.043 147.203 47.39 147.213 C48.648 147.205 49.905 147.197 51.201 147.189 C51.785 147.195 51.785 147.195 54.74 147.227 C55.767 147.23 56.794 147.233 57.853 147.237 C61.264 147.88 62.457 149.016 64.547 151.745 C64.937 154.979 64.937 154.979 64.797 158.495 C64.761 159.665 64.724 160.836 64.687 162.042 C64.641 162.934 64.594 163.826 64.547 164.745 C64.84 164.744 64.84 164.744 66.324 164.738 C72.407 164.716 78.49 164.701 84.572 164.69 C86.845 164.685 89.118 164.678 91.391 164.669 C94.65 164.657 97.909 164.651 101.168 164.647 C102.191 164.642 103.214 164.637 104.267 164.631 C105.208 164.631 106.149 164.631 107.119 164.631 C107.951 164.629 108.784 164.627 109.642 164.624 C111.547 164.745 111.547 164.745 112.547 165.745 C112.672 168.245 112.672 168.245 112.547 170.745 C111.547 171.745 111.547 171.745 109.05 171.868 C107.93 171.867 106.81 171.866 105.656 171.865 C105.016 171.866 105.016 171.866 101.776 171.869 C100.344 171.866 98.912 171.862 97.48 171.858 C95.982 171.858 94.485 171.858 92.987 171.859 C88.909 171.859 84.83 171.853 80.752 171.846 C76.495 171.84 72.237 171.839 67.98 171.838 C59.912 171.835 51.844 171.827 43.776 171.817 C34.594 171.805 25.412 171.8 16.229 171.795 C-2.665 171.784 -21.559 171.767 -40.453 171.745 C-40.453 175.045 -40.453 178.345 -40.453 181.745 C-40.047 181.744 -40.047 181.744 -37.991 181.739 C-18.246 181.695 1.499 181.662 21.245 181.641 C30.794 181.631 40.342 181.617 49.891 181.594 C58.211 181.574 66.531 181.561 74.851 181.556 C79.259 181.554 83.667 181.548 88.074 181.533 C92.219 181.52 96.364 181.515 100.509 181.518 C102.034 181.518 103.558 181.514 105.083 181.506 C107.158 181.496 109.233 181.499 111.308 181.504 C112.471 181.502 113.634 181.5 114.833 181.499 C117.547 181.745 117.547 181.745 119.547 183.745 C119.172 186.37 119.172 186.37 118.547 188.745 C97.198 188.791 75.85 188.827 54.501 188.848 C44.59 188.859 34.678 188.873 24.766 188.896 C16.129 188.915 7.493 188.928 -1.144 188.933 C-5.719 188.935 -10.294 188.942 -14.87 188.956 C-19.172 188.97 -23.475 188.974 -27.777 188.971 C-29.36 188.971 -30.943 188.975 -32.525 188.983 C-34.679 188.993 -36.833 188.991 -38.987 188.985 C-40.194 188.987 -41.402 188.989 -42.646 188.991 C-45.453 188.745 -45.453 188.745 -47.453 186.745 C-47.712 184.713 -47.712 184.713 -47.719 182.245 C-47.722 181.358 -47.724 180.471 -47.727 179.557 C-47.723 179.093 -47.723 179.093 -47.703 176.745 C-47.711 175.817 -47.719 174.888 -47.727 173.932 C-47.724 173.045 -47.722 172.158 -47.719 171.245 C-47.717 170.43 -47.714 169.615 -47.712 168.776 C-47.453 166.745 -47.453 166.745 -45.453 164.745 C-43.071 164.549 -43.071 164.549 -40.328 164.62 C-39.418 164.638 -38.508 164.656 -37.571 164.674 C-36.872 164.698 -36.173 164.721 -35.453 164.745 C-35.458 163.985 -35.463 163.225 -35.467 162.443 C-35.578 143.938 -35.661 125.434 -35.712 106.929 C-35.738 97.981 -35.773 89.032 -35.831 80.083 C-35.88 72.281 -35.913 64.479 -35.924 56.677 C-35.93 52.548 -35.946 48.419 -35.982 44.29 C-36.016 40.399 -36.026 36.508 -36.019 32.616 C-36.02 31.193 -36.03 29.77 -36.049 28.346 C-36.155 20.151 -36.118 13.102 -30.453 6.745 C-22.231 -1.535 -10.786 -0.088 0 0 Z " fill="#0F3E17" transform="translate(168.453369140625,144.25537109375)"/>
<path d="M0 0 C2.563 2.563 2.298 3.631 2.312 7.188 C2.182 14.341 -0.173 18.986 -4 25 C-3.655 25.013 -3.655 25.013 -1.91 25.078 C8.876 25.729 16.58 29.033 24 37 C32.729 48.109 33.263 59.303 32 73 C29.6 86.578 22.035 98.721 12 108 C9.111 109.962 6.176 111.556 3 113 C2.67 113.165 2.67 113.165 1 114 C-1.101 114.123 -3.207 114.176 -5.312 114.188 C-6.443 114.202 -7.574 114.216 -8.738 114.23 C-11.964 114.003 -14.048 113.22 -17 112 C-20.463 111.981 -23.879 112.44 -27 114 C-36.38 115.077 -42.528 113.736 -50 108 C-50.837 107.376 -51.673 106.752 -52.535 106.109 C-62.29 97.762 -69.897 83.828 -71 71 C-71.996 57.662 -71.073 46.996 -62.438 36.125 C-55.699 29.21 -48.303 25.674 -38.625 25.5 C-34.037 25.627 -30.298 26.39 -26 28 C-27.653 21.388 -31.327 15.782 -37 12 C-36.67 10.35 -36.34 8.7 -36 7 C-34.35 6.67 -32.7 6.34 -31 6 C-28.69 8.64 -26.38 11.28 -24 14 C-23.484 13.299 -22.969 12.597 -22.438 11.875 C-16.394 4.747 -9.854 -0.948 0 0 Z M-57.375 41.438 C-64.079 49.998 -64.926 59.198 -64.27 69.792 C-62.562 83.78 -54.38 94.344 -44.113 103.371 C-38.881 107.404 -34.46 107.55 -28 107 C-26.323 106.361 -24.654 105.697 -23 105 C-19.28 104.602 -16.046 104.571 -12.562 106 C-7.711 107.893 -3.278 107.946 1.559 105.938 C13.395 99.308 20.411 87.884 24.438 75.125 C26.168 66.225 26.708 53.985 22 46 C18.037 40.523 13.821 35.197 7.094 33.328 C-1.642 31.959 -9.566 33.044 -17 38 C-21.404 38.755 -24.366 37.017 -28.133 34.973 C-38.59 29.525 -49.856 33.144 -57.375 41.438 Z " fill="#0F3E17" transform="translate(361,231)"/>
<path d="M0 0 C2.698 6.192 3.548 11.33 3.5 18.062 C3.495 18.981 3.49 19.9 3.485 20.847 C3.08 36.864 -3.816 50.153 -14.617 61.797 C-18.058 64.978 -21.756 67.071 -26 69 C-26.33 69.165 -26.33 69.165 -28 70 C-30.101 70.123 -32.207 70.176 -34.312 70.188 C-35.443 70.202 -36.574 70.216 -37.738 70.23 C-40.964 70.003 -43.048 69.22 -46 68 C-49.463 67.981 -52.879 68.44 -56 70 C-65.432 71.083 -71.459 69.695 -79 64 C-79.887 63.402 -80.774 62.804 -81.688 62.188 C-85.21 58.855 -88.601 55.232 -91 51 C-90.748 47.978 -90.178 47.178 -88 45 C-87.01 45 -86.02 45 -85 45 C-83.676 46.504 -83.676 46.504 -82.312 48.562 C-78.39 54.069 -73.407 59.457 -67 62 C-61.493 62.609 -57.089 62.143 -52 60 C-48.28 59.602 -45.046 59.571 -41.562 61 C-36.732 62.885 -32.322 62.913 -27.477 61.008 C-15.604 54.542 -10.061 43.6 -5.688 31.312 C-3.587 21.61 -4.444 10.495 -7 1 C-4 0 -4 0 0 0 Z " fill="#0F3E17" transform="translate(390,275)"/>
<path d="M0 0 C3.375 -0.125 3.375 -0.125 7 0 C9 2 9 2 9.195 4.602 C9.172 5.599 9.149 6.597 9.125 7.625 C9.107 8.628 9.089 9.631 9.07 10.664 C9.059 11.049 9.059 11.049 9 13 C8.67 13.165 8.67 13.165 7 14 C6.67 10.37 6.34 6.74 6 3 C4.02 2.34 2.04 1.68 0 1 C0 0.67 0 0.34 0 0 Z " fill="#0F3E17" transform="translate(354,231)"/>
<path d="M0 0 C1.675 0.286 3.344 0.618 5 1 C2 3 2 3 0 3 C0 3.99 0 4.98 0 6 C-0.66 6 -1.32 6 -2 6 C-1.125 1.125 -1.125 1.125 0 0 Z " fill="#0F3E17" transform="translate(326,237)"/>
</svg>
