<?xml version="1.0" encoding="UTF-8"?>
<svg viewBox="0 0 512 512" version="1.1" xmlns="http://www.w3.org/2000/svg">
<path d="M0 0 C6.664 1.064 11.271 7.137 15.188 12.289 C21.624 22.005 23.163 30.906 22.059 42.488 C20.019 50.825 15.916 56.379 9.754 62.234 C8.059 64.488 8.059 64.488 8.125 66.848 C9.259 70.056 10.532 73.172 11.871 76.301 C15.15 84.17 17.203 92.183 19.059 100.488 C19.822 99.478 20.585 98.467 21.371 97.426 C28.762 88.873 38.44 84.756 49.422 83.141 C51.559 82.988 51.559 82.988 55.059 83.488 C59.1 87.959 58.558 93.367 58.496 99.051 C58.486 100.038 58.477 101.025 58.467 102.042 C58.178 113.912 55.74 121.833 47.281 130.43 C39.373 137.754 30.926 139.96 20.306 139.582 C19.565 139.551 18.823 139.52 18.059 139.488 C18.025 140.088 17.991 140.687 17.956 141.304 C17.454 147.954 15.946 153.774 13.746 160.051 C13.598 160.491 13.598 160.491 12.85 162.721 C10.889 168.459 8.617 173.991 6.059 179.488 C7.049 179.158 8.039 178.828 9.059 178.488 C20.039 177.232 29.812 180.231 39.504 185.285 C42.059 187.488 42.059 187.488 42.586 190.41 C40.821 200.71 32.719 210.308 24.504 216.375 C16.07 221.669 7.998 223.678 -1.941 222.488 C-8.904 220.451 -14.737 217.548 -19.941 212.488 C-23.166 213.937 -25.97 215.846 -28.863 217.865 C-42.813 227.538 -61.423 238.052 -78.941 236.488 C-79.271 234.508 -79.601 232.528 -79.941 230.488 C-76.133 227.985 -72.494 226.58 -68.129 225.301 C-66.967 224.957 -65.806 224.612 -64.609 224.258 C-63.729 224.004 -62.849 223.75 -61.941 223.488 C-62.104 223.252 -62.104 223.252 -62.93 222.055 C-68.442 213.713 -71.362 205.593 -69.941 195.488 C-67.331 186.16 -62.129 176.947 -53.941 171.488 C-50.59 170.959 -49.318 171.227 -46.504 173.18 C-43.865 175.557 -42.182 177.789 -40.316 180.801 C-40.032 181.253 -40.032 181.253 -38.59 183.539 C-35.015 189.935 -33.496 194.705 -33.754 201.926 C-33.761 202.292 -33.761 202.292 -33.795 204.143 C-33.83 205.925 -33.884 207.707 -33.941 209.488 C-20.62 199.85 -9.876 188.466 -2.941 173.488 C-3.547 173.304 -4.153 173.12 -4.777 172.93 C-13.31 169.976 -20.623 164.707 -25.441 156.926 C-30.025 146.422 -30.374 135.54 -26.891 124.609 C-25.767 122.098 -24.964 120.39 -22.941 118.488 C-14.161 117.309 -5.923 122.483 0.895 127.629 C4.088 130.42 6.7 132.95 9.059 136.488 C13.892 121.988 9.943 102.882 6.059 88.488 C5.392 88.646 4.726 88.803 4.039 88.965 C-4.982 90.549 -14.737 90.934 -22.77 86.082 C-32.174 79.181 -38.054 70.068 -40.129 58.426 C-39.941 54.488 -39.941 54.488 -37.754 51.988 C-32.764 49.327 -28.265 49.362 -22.691 49.426 C-21.946 49.43 -21.201 49.435 -20.434 49.439 C-18.603 49.451 -16.772 49.469 -14.941 49.488 C-15.422 48.554 -15.903 47.619 -16.398 46.656 C-20.201 38.849 -20.097 29.167 -17.441 20.988 C-14.955 14.8 -11.182 9.598 -6.941 4.488 C-6.323 3.724 -5.704 2.959 -5.066 2.172 C-2.941 0.488 -2.941 0.488 0 0 Z " fill="#0F3E17" transform="translate(355.94140625,127.51171875)"/>
<path d="M0 0 C7.131 5.348 13.512 17.33 15 26 C15.643 33.954 14.019 40.644 11 48 C11.834 47.965 12.668 47.93 13.527 47.895 C20.485 47.727 26.673 47.844 33 51 C35 53 35 53 35.062 56.75 C33.748 66.213 28.24 76.14 21.137 82.445 C12.436 88.776 3.338 88.696 -7 88 C-9.477 87.48 -9.477 87.48 -11 87 C-11.484 89.166 -11.962 91.333 -12.438 93.5 C-12.704 94.707 -12.971 95.913 -13.246 97.156 C-14.953 105.86 -15.123 114.144 -15.062 123 C-15.058 124.252 -15.053 125.503 -15.049 126.793 C-15.037 129.862 -15.021 132.931 -15 136 C-14.34 136 -13.68 136 -13 136 C-12.752 135.443 -12.505 134.886 -12.25 134.312 C-7.574 125.661 1.78 119.957 11 117 C13.978 116.506 15.919 116.589 19 117 C20.875 119.125 20.875 119.125 22 122 C22.347 122.855 22.694 123.709 23.051 124.59 C24.263 128.945 24.33 132.94 24.312 137.438 C24.329 138.258 24.345 139.078 24.361 139.924 C24.369 148.918 20.776 156.139 15 163 C10.153 167.018 4.471 171 -2 171 C4.347 185.863 15.506 199.004 29 208 C28.954 207.045 28.907 206.09 28.859 205.105 C28.496 192.096 30.98 182.835 40 173 C42.625 170.375 42.625 170.375 45 169 C48.34 169.182 49.767 169.799 52.316 172.004 C56.752 177.057 60.519 181.723 63 188 C63.412 188.949 63.825 189.898 64.25 190.875 C66.715 201.147 63.917 210.08 58.777 219.16 C57.908 220.479 56.965 221.749 56 223 C56.641 223.121 57.281 223.242 57.941 223.367 C72.113 226.113 72.113 226.113 75 229 C74.444 233.556 74.444 233.556 73 235 C55.079 235.191 34.968 225.143 21.451 213.923 C19.883 212.676 19.883 212.676 17 211 C12.895 211.893 9.688 214.428 6.258 216.781 C-1.915 221.193 -13.109 221.729 -21.98 219.125 C-24.513 217.931 -26.716 216.617 -29 215 C-29.705 214.504 -30.41 214.007 -31.137 213.496 C-36.861 208.971 -40.41 203.277 -44 197 C-44.639 195.886 -45.279 194.773 -45.938 193.625 C-47.831 188.947 -47.831 188.947 -47 186 C-39.48 179.6 -30.141 176.853 -20.438 176.875 C-19.322 176.872 -18.207 176.87 -17.059 176.867 C-14.484 176.979 -12.459 177.332 -10 178 C-10.252 177.483 -10.503 176.966 -10.763 176.434 C-23 151.037 -23 151.037 -23 138 C-23.606 138.035 -24.212 138.07 -24.836 138.105 C-36.575 138.485 -45.327 135.046 -54 127 C-56.493 123.849 -58.317 120.641 -60 117 C-60.169 116.652 -60.169 116.652 -61.023 114.891 C-64.914 105.397 -63.94 93.638 -61 84 C-59 82 -59 82 -55.188 81.562 C-44.656 81.784 -34.588 87.313 -27.336 94.633 C-26.71 95.263 -26.084 95.894 -25.439 96.543 C-24.964 97.024 -24.489 97.505 -24 98 C-23.814 97.356 -23.628 96.711 -23.437 96.047 C-22.572 93.07 -21.692 90.098 -20.812 87.125 C-20.521 86.112 -20.229 85.099 -19.928 84.055 C-18.118 77.983 -15.974 72.626 -12.764 67.152 C-12 65 -12 65 -12.767 62.833 C-14.143 60.787 -15.668 59.091 -17.375 57.312 C-24.727 49.118 -26.392 40.335 -26.27 29.602 C-25.426 18.326 -18.348 9.965 -10.438 2.375 C-6.908 -0.411 -4.498 -1.124 0 0 Z " fill="#0F3E17" transform="translate(164,129)"/>
<path d="M0 0 C3.842 1.572 5.293 3.16 7 7 C7.401 10.745 7.332 13.206 5.875 16.688 C3.46 19.665 1.458 21.304 -2 23 C-4.888 23.289 -7.272 22.993 -10 22 C-12.938 19.5 -12.938 19.5 -15 17 C-15.33 16.67 -15.66 16.34 -16 16 C-16.665 12.077 -16.689 8.501 -15.012 4.848 C-11.007 -0.668 -6.5 -1.212 0 0 Z " fill="#CFE7D3" transform="translate(215,122)"/>
<path d="M0 0 C2.934 1.796 4.472 2.944 6 6 C6.531 10.92 6.751 14.773 4.125 19.062 C0.382 22.475 -2.608 22.328 -7.516 22.293 C-10.972 21.885 -12.687 20.537 -15 18 C-16.849 14.303 -16.476 10.035 -16 6 C-11.958 -0.602 -7.284 -0.859 0 0 Z " fill="#CFE7D3" transform="translate(308,122)"/>
<path d="M0 0 C2.5 1.438 2.5 1.438 4 4 C4.756 8.289 4.712 11.73 2.562 15.562 C-1.264 17.709 -4.722 17.895 -9 17 C-12.316 14.331 -12.89 12.684 -13.562 8.5 C-13 5 -13 5 -11 2.062 C-6.849 -0.791 -4.97 -0.71 0 0 Z " fill="#CFE7D3" transform="translate(261,353)"/>
<path d="M0 0 C0.33 0 0.66 0 1 0 C1.058 4.25 1.094 8.5 1.125 12.75 C1.133 13.353 1.133 13.353 1.176 16.406 C1.182 17.566 1.189 18.727 1.195 19.922 C1.206 20.99 1.216 22.058 1.227 23.159 C1.002 25.98 0.458 27.608 -1 30 C-2.836 27.857 -4.669 25.71 -6.5 23.562 C-7.025 22.951 -7.549 22.339 -8.09 21.709 C-12 17.113 -12 17.113 -12 16 C-10.515 15.835 -10.515 15.835 -3 15 C-2.67 11.7 -2.34 8.4 -2 5 C-1.67 5 -1.34 5 -1 5 C-0.67 3.35 -0.34 1.7 0 0 Z " fill="#CFE7D3" transform="translate(366,235)"/>
<path d="M0 0 C2.528 3.792 2.224 6.809 2.125 11.188 C2.116 11.937 2.107 12.687 2.098 13.459 C2.074 15.306 2.038 17.153 2 19 C-0.126 18.718 -2.251 18.424 -4.375 18.125 C-5.558 17.963 -6.742 17.8 -7.961 17.633 C-11 17 -11 17 -13 15 C-12.32 13.047 -12.32 13.047 -11 11 C-8.617 10.391 -8.617 10.391 -5.875 10.25 C-4.965 10.193 -4.055 10.137 -3.117 10.078 C-2.768 10.065 -2.768 10.065 -1 10 C-0.34 8.02 0.32 6.04 1 4 C0.34 3.67 -0.32 3.34 -1 3 C-0.67 2.01 -0.34 1.02 0 0 Z " fill="#CFE7D3" transform="translate(137,240)"/>
<path d="M0 0 C0.33 0.99 0.66 1.98 1 3 C0.67 3.66 0.34 4.32 0 5 C0.66 5.33 1.32 5.66 2 6 C1.67 9.3 1.34 12.6 1 16 C-0.65 16.33 -2.3 16.66 -4 17 C-4 18.98 -4 20.96 -4 23 C-4.33 23 -4.66 23 -5 23 C-5.703 14.051 -4.332 7.859 0 0 Z " fill="#CFE7D3" transform="translate(351,143)"/>
<path d="M0 0 C0.66 0.33 1.32 0.66 2 1 C2 1.99 2 2.98 2 4 C2.626 3.977 3.253 3.954 3.898 3.93 C4.716 3.912 5.533 3.894 6.375 3.875 C7.187 3.852 7.999 3.829 8.836 3.805 C11 4 11 4 13 6 C13 6.66 13 7.32 13 8 C2.442 8.369 2.442 8.369 -2 6 C-1.34 4.02 -0.68 2.04 0 0 Z " fill="#CFE7D3" transform="translate(158,201)"/>
<path d="M0 0 C1.604 -0.054 3.208 -0.093 4.812 -0.125 C5.706 -0.148 6.599 -0.171 7.52 -0.195 C10 0 10 0 13 2 C11.515 2.495 11.515 2.495 4 5 C4 6.65 4 8.3 4 10 C2.68 10.33 1.36 10.66 0 11 C0.186 10.299 0.371 9.598 0.562 8.875 C1.052 5.661 0.662 3.164 0 0 Z " fill="#CFE7D3" transform="translate(273,353)"/>
<path d="M0 0 C1.908 3.175 2.161 5.106 1.625 8.75 C1.514 9.549 1.403 10.348 1.289 11.172 C1.194 11.775 1.098 12.378 1 13 C-2.01 13.934 -2.867 14.044 -6 13 C-5.714 12.438 -5.428 11.876 -5.133 11.297 C-3.986 8.971 -2.922 6.622 -1.875 4.25 C-1.522 3.451 -1.169 2.652 -0.805 1.828 C-0.539 1.225 -0.274 0.622 0 0 Z " fill="#CFE7D3" transform="translate(226,339)"/>
<path d="M0 0 C1.65 0 3.3 0 5 0 C5 3.63 5 7.26 5 11 C3.35 11.33 1.7 11.66 0 12 C0 8.04 0 4.08 0 0 Z " fill="#CFE7D3" transform="translate(188,262)"/>
<path d="M0 0 C0.33 0.66 0.66 1.32 1 2 C1.99 2 2.98 2 4 2 C4.124 2.619 4.248 3.238 4.375 3.875 C5 6 5 6 7 8 C3.7 8 0.4 8 -3 8 C-1.125 1.125 -1.125 1.125 0 0 Z " fill="#CFE7D3" transform="translate(178,169)"/>
<path d="M0 0 C0.66 0.66 1.32 1.32 2 2 C0.68 3.65 -0.64 5.3 -2 7 C-3.938 6.25 -3.938 6.25 -6 5 C-6.75 2.875 -6.75 2.875 -7 1 C-3.625 0.375 -3.625 0.375 0 0 Z " fill="#CFE7D3" transform="translate(214,341)"/>
<path d="M0 0 C1.65 0.33 3.3 0.66 5 1 C4.67 2.98 4.34 4.96 4 7 C2.68 7 1.36 7 0 7 C-0.33 7.66 -0.66 8.32 -1 9 C-0.67 6.03 -0.34 3.06 0 0 Z " fill="#CFE7D3" transform="translate(337,255)"/>
<path d="M0 0 C0.33 0 0.66 0 1 0 C1.33 3.96 1.66 7.92 2 12 C0.35 11.01 -1.3 10.02 -3 9 C-2.01 6.03 -1.02 3.06 0 0 Z " fill="#CFE7D3" transform="translate(192,326)"/>
<path d="M0 0 C0.66 0 1.32 0 2 0 C2 0.66 2 1.32 2 2 C1.34 2 0.68 2 0 2 C-0.248 2.577 -0.495 3.155 -0.75 3.75 C-2.167 6.3 -3.876 8.018 -6 10 C-6.66 9.67 -7.32 9.34 -8 9 C-6.855 7.687 -5.709 6.375 -4.562 5.062 C-3.924 4.332 -3.286 3.601 -2.629 2.848 C-1.775 1.879 -0.913 0.913 0 0 Z " fill="#CFE7D3" transform="translate(159,138)"/>
<path d="M0 0 C0.99 0.33 1.98 0.66 3 1 C0.69 3.31 -1.62 5.62 -4 8 C-4.66 7.34 -5.32 6.68 -6 6 C-4.02 4.02 -2.04 2.04 0 0 Z " fill="#CFE7D3" transform="translate(406,254)"/>
<path d="M0 0 C0.299 0.103 0.299 0.103 1.812 0.625 C-1.439 2.842 -4.609 4.973 -8.188 6.625 C-4.135 -0.709 -4.135 -0.709 0 0 Z " fill="#0F3E17" transform="translate(304.1875,299.375)"/>
<path d="M0 0 C0.66 0.33 1.32 0.66 2 1 C-0.31 3.64 -2.62 6.28 -5 9 C-5.66 8.67 -6.32 8.34 -7 8 C-4.69 5.36 -2.38 2.72 0 0 Z " fill="#0F3E17" transform="translate(381,221)"/>
<path d="M0 0 C0.66 0 1.32 0 2 0 C1.34 1.32 0.68 2.64 0 4 C-0.66 4 -1.32 4 -2 4 C-2 4.66 -2 5.32 -2 6 C-3.32 6.33 -4.64 6.66 -6 7 C-5.049 5.827 -4.089 4.662 -3.125 3.5 C-2.591 2.85 -2.058 2.201 -1.508 1.531 C-1.259 1.279 -1.259 1.279 0 0 Z " fill="#0F3E17" transform="translate(353,128)"/>
</svg>
