<?xml version="1.0" encoding="UTF-8"?>
<svg viewBox="0 0 512 512" version="1.1" xmlns="http://www.w3.org/2000/svg">
<path d="M0 0 C5.222 4.162 10.092 8.587 14.625 13.5 C13.938 15.438 13.938 15.438 12.625 17.5 C10.371 18.555 10.371 18.555 7.625 18.5 C5.411 16.947 3.628 15.469 1.688 13.625 C-8.264 4.709 -19.247 -1.874 -31.375 -7.5 C-32.509 -8.036 -33.644 -8.573 -34.812 -9.125 C-40.238 -11.219 -45.801 -12.849 -51.375 -14.5 C-50.951 -13.843 -50.527 -13.185 -50.09 -12.508 C-42.742 -0.589 -38.072 12.203 -34.438 25.688 C-34.226 26.465 -34.014 27.242 -33.796 28.043 C-32.619 32.66 -32.167 36.737 -32.375 41.5 C-31.495 41.283 -30.614 41.067 -29.707 40.844 C-28.546 40.565 -27.384 40.287 -26.188 40 C-25.039 39.722 -23.89 39.443 -22.707 39.156 C-19.807 38.585 -17.314 38.367 -14.375 38.5 C-14.862 44.95 -14.862 44.95 -17.125 47.375 C-19.552 48.589 -21.694 49.128 -24.375 49.5 C-22.734 53.187 -20.448 56.179 -18 59.375 C-15.616 62.493 -13.346 65.547 -11.273 68.883 C-10.647 69.746 -10.02 70.61 -9.375 71.5 C-8.385 71.5 -7.395 71.5 -6.375 71.5 C-6.789 68.536 -7.2 65.906 -8.391 63.148 C-10.768 56.752 -10.07 49.511 -7.75 43.188 C-3.725 34.453 2.148 29.848 10.625 25.5 C18.181 22.981 26.533 24.058 33.625 27.5 C41.045 31.755 45.355 37.754 49 45.375 C51.073 55.74 49.365 64.651 43.672 73.555 C42.159 75.718 40.633 77.862 39.086 80 C36.367 83.791 33.952 87.745 31.562 91.75 C31.365 92.078 31.365 92.078 30.368 93.739 C27.625 98.363 27.625 98.363 27.625 99.5 C30.265 99.5 32.905 99.5 35.625 99.5 C35.625 100.49 35.625 101.48 35.625 102.5 C37.935 102.83 40.245 103.16 42.625 103.5 C42.577 102.904 42.577 102.904 42.336 99.887 C42.223 98.32 42.111 96.754 42 95.188 C41.936 94.402 41.871 93.616 41.805 92.807 C41.753 92.049 41.702 91.292 41.648 90.512 C41.596 89.815 41.544 89.119 41.49 88.401 C41.625 86.5 41.625 86.5 43.625 83.5 C46.25 83.312 46.25 83.312 48.625 83.5 C51.02 87.222 50.963 90.927 50.996 95.211 C51.007 95.967 51.019 96.723 51.03 97.503 C51.057 99.96 51.064 102.417 51.062 104.875 C51.063 105.712 51.063 106.549 51.064 107.411 C51.005 128.562 46.758 146.409 37.625 165.5 C37.081 166.658 36.537 167.815 35.977 169.008 C23.662 193.457 3.567 211.802 -20.375 224.5 C-21.231 224.961 -22.087 225.423 -22.969 225.898 C-32.214 230.492 -42.435 232.866 -52.375 235.5 C-52.682 235.593 -52.682 235.593 -54.233 236.064 C-59.216 237.078 -64.452 236.726 -69.525 236.74 C-71.643 236.75 -73.759 236.781 -75.877 236.812 C-106.656 237.055 -135.547 222.982 -157.522 201.894 C-176.672 182.916 -189.356 159.828 -194.952 133.47 C-195.303 131.836 -195.683 130.208 -196.07 128.582 C-202.769 96.643 -193.574 61.421 -176.347 34.3 C-171.901 27.549 -166.846 21.438 -161.375 15.5 C-160.513 14.555 -159.65 13.61 -158.762 12.637 C-116.121 -32.025 -48.927 -38.079 0 0 Z " fill="#0F3E17" transform="translate(329.375,134.5)"/>
<path d="M0 0 C0.922 0.071 1.843 0.141 2.792 0.214 C13.048 0.936 23.248 1.156 33.528 1.13 C36.129 1.125 38.731 1.13 41.332 1.137 C50.938 1.14 60.427 0.868 70 0 C70.523 4.185 71.013 8.373 71.5 12.562 C71.643 13.705 71.786 14.848 71.934 16.025 C73.283 27.881 73 38.797 73 51 C47.59 51 22.18 51 -4 51 C-4 41.615 -3.915 32.553 -3.125 23.25 C-3.046 22.217 -2.968 21.185 -2.887 20.121 C-2.331 13.319 -1.348 6.69 0 0 Z " fill="#CFE7D3" transform="translate(222,187)"/>
<path d="M0 0 C25.41 0 50.82 0 77 0 C77 17.343 77 17.343 76.125 25.062 C76.08 25.481 76.08 25.481 75.854 27.599 C73.654 47.692 73.654 47.692 72 51 C71.454 50.929 70.908 50.859 70.345 50.786 C61.082 49.76 51.819 49.849 42.513 49.87 C39.639 49.875 36.765 49.87 33.891 49.863 C24.21 49.86 14.639 50.008 5 51 C2.92 45.144 2.113 39.52 1.375 33.375 C1.241 32.377 1.107 31.38 0.969 30.352 C-0.286 20.06 0 10.612 0 0 Z " fill="#CFE7D3" transform="translate(218,247)"/>
<path d="M0 0 C7.42 4.255 11.73 10.254 15.375 17.875 C17.423 28.113 15.807 37.027 10.188 45.844 C8.714 47.945 7.222 50.033 5.715 52.109 C1.625 57.834 -1.933 63.912 -5.57 69.929 C-5.836 70.365 -5.836 70.365 -7.18 72.57 C-7.651 73.352 -8.123 74.133 -8.609 74.938 C-11.057 78.567 -11.057 78.567 -13 80 C-15.017 79.936 -15.017 79.936 -17 79 C-18.429 77.273 -18.429 77.273 -19.734 75.02 C-20.222 74.192 -20.71 73.364 -21.213 72.51 C-21.72 71.62 -22.227 70.73 -22.75 69.812 C-23.278 68.909 -23.806 68.005 -24.35 67.073 C-25.913 64.39 -27.458 61.696 -29 59 C-29.807 57.601 -30.614 56.203 -31.422 54.805 C-33.298 51.546 -35.151 48.274 -37 45 C-37.342 44.418 -37.683 43.836 -38.035 43.237 C-42.883 34.943 -44.694 27.795 -42.312 18.242 C-38.612 8.158 -32.432 2.838 -23 -2 C-15.444 -4.519 -7.092 -3.442 0 0 Z " fill="#0F3E17" transform="translate(363,162)"/>
<path d="M0 0 C0.825 0.165 0.825 0.165 5 1 C4.914 1.611 4.829 2.221 4.74 2.851 C2.395 19.935 1.433 36.756 1 54 C-7.25 54 -15.5 54 -24 54 C-23.435 35.741 -17.691 18.308 -4.5 5.188 C-3.85 4.604 -3.201 4.02 -2.531 3.418 C-1 2 -1 2 0 0 Z " fill="#CFE7D3" transform="translate(209,184)"/>
<path d="M0 0 C0.99 0 1.98 0 3 0 C4.717 1.836 6.195 3.617 7.688 5.625 C8.126 6.208 8.564 6.791 9.016 7.392 C19.566 21.726 26 35.919 26 54 C18.41 54 10.82 54 3 54 C2.795 51.075 2.59 48.15 2.379 45.137 C2.178 42.307 1.976 39.477 1.773 36.648 C1.633 34.68 1.494 32.712 1.357 30.743 C1.16 27.916 0.957 25.089 0.754 22.262 C0.693 21.38 0.633 20.499 0.571 19.591 C0.541 19.181 0.541 19.181 0.389 17.104 C0.338 16.383 0.287 15.661 0.234 14.917 C0 13 0 13 -1 10 C-1.092 8.461 -1.13 6.917 -1.125 5.375 C-1.128 4.578 -1.13 3.782 -1.133 2.961 C-1 1 -1 1 0 0 Z " fill="#CFE7D3" transform="translate(301,184)"/>
<path d="M0 0 C0.33 -1.32 0.66 -2.64 1 -4 C2.176 -0.326 2.074 3.169 2 7 C-4.826 8.6 -11.248 9.298 -18.25 9.266 C-18.719 9.267 -18.719 9.267 -21.095 9.271 C-23.064 9.273 -25.034 9.269 -27.004 9.261 C-29.992 9.25 -32.98 9.261 -35.969 9.273 C-37.896 9.272 -39.823 9.27 -41.75 9.266 C-42.19 9.268 -42.19 9.268 -44.415 9.278 C-50.509 9.233 -56.053 8.342 -62 7 C-61.67 3.7 -61.34 0.4 -61 -3 C-60.67 -2.34 -60.34 -1.68 -60 -1 C-59.322 -1.266 -58.644 -1.531 -57.945 -1.805 C-37.873 -9.422 -19.624 -8.553 0 0 Z " fill="#CFE7D3" transform="translate(287,171)"/>
<path d="M0 0 C7.92 0 15.84 0 24 0 C24.124 3.032 24.248 6.064 24.375 9.188 C24.756 17.818 25.427 26.391 26.339 34.981 C26.83 39.688 27.096 44.268 27 49 C14.159 38.567 5.578 26.032 1 10 C0.67 6.7 0.34 3.4 0 0 Z " fill="#CFE7D3" transform="translate(186,247)"/>
<path d="M0 0 C7.92 0 15.84 0 24 0 C22.873 11.269 22.873 11.269 20.312 16.438 C19.775 17.531 19.237 18.624 18.684 19.75 C12.751 31.203 7.39 40.985 -3 49 C-4.332 46.336 -3.865 44.803 -3.477 41.855 C-3.343 40.795 -3.209 39.735 -3.072 38.642 C-2.924 37.502 -2.777 36.362 -2.625 35.188 C-1.176 23.438 -0.417 11.831 0 0 Z " fill="#CFE7D3" transform="translate(303,247)"/>
<path d="M0 0 C-18.41 9.372 -37.379 10.191 -57 4 C-59.029 3.061 -61.043 2.082 -63 1 C-63 0.67 -63 0.34 -63 0 C-42.195 -3.082 -20.789 -3.326 0 0 Z " fill="#CFE7D3" transform="translate(288,306)"/>
<path d="M0 0 C1.875 1.188 1.875 1.188 3 3 C3.423 5.821 3.387 7.34 1.938 9.812 C-1.056 11.647 -3.578 11.311 -7 11 C-9 9 -9 9 -9.312 5.5 C-9.209 4.345 -9.106 3.19 -9 2 C-5.531 -0.313 -4.078 -0.425 0 0 Z " fill="#0F3E17" transform="translate(352,187)"/>
<path d="M0 0 C0.99 0.33 1.98 0.66 3 1 C4.283 4.85 4.066 7.947 4 12 C3.67 12 3.34 12 3 12 C3 9.69 3 7.38 3 5 C2.34 5 1.68 5 1 5 C0.67 3.35 0.34 1.7 0 0 Z " fill="#0F3E17" transform="translate(376,218)"/>
<path d="M0 0 C0.99 0 1.98 0 3 0 C3 0.66 3 1.32 3 2 C3.66 2.33 4.32 2.66 5 3 C2.69 3.66 0.38 4.32 -2 5 C-1.34 3.35 -0.68 1.7 0 0 Z " fill="#CFE7D3" transform="translate(280,356)"/>
<path d="M0 0 C3 3.75 3 3.75 3 6 C0.69 5.67 -1.62 5.34 -4 5 C-2.68 3.35 -1.36 1.7 0 0 Z " fill="#CFE7D3" transform="translate(231,354)"/>
</svg>
