<?xml version="1.0" encoding="UTF-8"?>
<svg viewBox="0 0 512 512" version="1.1" xmlns="http://www.w3.org/2000/svg">
<path d="M0 0 C2.59 2.039 2.59 2.039 4.938 4.625 C8.413 8.396 12.007 11.804 15.883 15.148 C19.43 18.251 22.832 21.506 26.25 24.75 C32.164 30.34 38.111 35.885 44.121 41.371 C52.599 49.113 61.008 56.929 69.394 64.771 C72.463 67.639 75.537 70.5 78.629 73.344 C78.918 73.61 78.918 73.61 80.383 74.957 C81.459 75.945 82.535 76.932 83.613 77.918 C85.084 79.269 86.542 80.634 88 82 C88.279 82.26 88.279 82.26 89.689 83.575 C93.956 87.664 93.956 87.664 94.375 90.875 C94.313 91.226 94.313 91.226 94 93 C91.77 93.715 91.77 93.715 89 94 C86.762 92.566 86.762 92.566 84.688 90.562 C83.99 89.904 83.293 89.245 82.574 88.566 C82.055 88.049 81.535 87.533 81 87 C81.01 87.868 81.021 88.736 81.032 89.63 C81.066 92.847 81.091 96.064 81.11 99.28 C81.12 100.673 81.134 102.066 81.151 103.459 C81.175 105.46 81.185 107.46 81.195 109.461 C81.206 110.665 81.216 111.87 81.227 113.111 C81 116 81 116 79 118 C74.444 117.444 74.444 117.444 73 116 C73.001 113.33 73.059 110.679 73.141 108.012 C73.172 105.457 73.192 102.903 73.211 100.348 C73.237 98.594 73.284 96.839 73.353 95.086 C73.927 79.739 73.927 79.739 69.287 74.341 C66.586 71.678 63.654 69.382 60.581 67.165 C58.521 65.647 56.703 63.936 54.871 62.152 C54.298 61.616 53.725 61.079 53.134 60.527 C52.574 60.002 52.014 59.478 51.438 58.938 C44.997 52.916 38.511 46.946 32 41 C25.402 34.974 18.835 28.92 12.312 22.812 C6.948 17.791 1.537 12.832 -4 8 C-9.372 11.732 -14.008 15.835 -18.531 20.559 C-21.222 23.219 -24.041 25.677 -26.899 28.155 C-30.237 31.086 -33.459 34.136 -36.688 37.188 C-42.115 42.297 -47.564 47.381 -53.052 52.427 C-56.089 55.224 -59.11 58.038 -62.117 60.867 C-62.824 61.532 -63.531 62.197 -64.26 62.883 C-65.627 64.17 -66.993 65.459 -68.357 66.75 C-68.674 67.048 -68.674 67.048 -70.273 68.555 C-70.824 69.075 -71.375 69.596 -71.943 70.132 C-74 72 -74 72 -75.701 73.106 C-78.649 75.184 -80.666 76.799 -81.654 80.351 C-81.902 83.272 -81.931 86.123 -81.886 89.054 C-81.897 90.157 -81.908 91.26 -81.919 92.397 C-81.946 96.033 -81.925 99.668 -81.902 103.305 C-81.912 105.83 -81.924 108.355 -81.94 110.879 C-81.969 116.84 -81.967 122.8 -81.95 128.76 C-81.932 135.549 -81.954 142.337 -81.979 149.126 C-82.03 163.084 -82.026 177.042 -82 191 C-72.43 191 -62.86 191 -53 191 C-53.046 186.221 -53.093 181.443 -53.141 176.52 C-53.161 173.489 -53.18 170.458 -53.195 167.428 C-53.219 162.619 -53.247 157.811 -53.302 153.003 C-53.345 149.125 -53.369 145.248 -53.38 141.371 C-53.387 139.893 -53.401 138.415 -53.423 136.937 C-53.452 134.863 -53.456 132.792 -53.454 130.718 C-53.463 129.539 -53.472 128.36 -53.481 127.145 C-52.896 123.317 -51.776 121.664 -49 119 C-46.023 118.516 -43.627 118.343 -40.656 118.406 C-39.85 118.406 -39.044 118.406 -38.214 118.406 C-36.512 118.411 -34.811 118.429 -33.11 118.458 C-30.509 118.5 -27.91 118.499 -25.309 118.492 C-23.654 118.503 -21.999 118.516 -20.344 118.531 C-19.568 118.531 -18.791 118.532 -17.992 118.532 C-14.977 118.598 -12.513 118.744 -9.792 120.103 C-7.15 122.899 -7.519 124.968 -7.546 128.766 C-7.545 129.45 -7.545 130.133 -7.544 130.837 C-7.547 133.093 -7.578 135.349 -7.609 137.605 C-7.617 139.171 -7.623 140.736 -7.627 142.301 C-7.642 146.419 -7.681 150.537 -7.725 154.655 C-7.766 158.858 -7.785 163.061 -7.805 167.264 C-7.848 175.509 -7.918 183.755 -8 192 C1.9 192 11.8 192 22 192 C22.165 192.825 22.165 192.825 23 197 C20.488 199.512 19.689 199.251 16.217 199.254 C15.713 199.257 15.713 199.257 13.158 199.271 C12.046 199.267 10.935 199.263 9.789 199.259 C8.622 199.262 7.454 199.266 6.251 199.269 C3.045 199.277 -0.162 199.275 -3.368 199.269 C-6.72 199.264 -10.072 199.268 -13.423 199.271 C-19.052 199.275 -24.681 199.27 -30.311 199.261 C-36.824 199.25 -43.337 199.253 -49.85 199.264 C-55.436 199.273 -61.023 199.275 -66.609 199.27 C-69.948 199.266 -73.287 199.266 -76.626 199.273 C-80.347 199.278 -84.068 199.27 -87.789 199.259 C-88.901 199.263 -90.013 199.267 -91.158 199.271 C-92.168 199.265 -93.177 199.26 -94.217 199.254 C-95.098 199.253 -95.978 199.252 -96.885 199.252 C-99 199 -99 199 -101 197 C-100.625 194.375 -100.625 194.375 -100 192 C-96.7 192 -93.4 192 -90 192 C-90 157.35 -90 122.7 -90 87 C-92.64 89.31 -95.28 91.62 -98 94 C-99.65 93.67 -101.3 93.34 -103 93 C-103.344 90.867 -103.344 90.867 -103 88 C-101.221 85.823 -99.54 84.022 -97.5 82.125 C-96.952 81.597 -96.404 81.069 -95.839 80.525 C-92.255 77.096 -88.57 73.79 -84.793 70.574 C-82.367 68.445 -80.135 66.147 -77.875 63.844 C-76.058 62.057 -74.185 60.385 -72.254 58.723 C-68.225 55.219 -64.319 51.603 -60.438 47.938 C-59.034 46.617 -57.63 45.297 -56.227 43.977 C-55.523 43.314 -54.82 42.652 -54.095 41.97 C-50.841 38.91 -47.578 35.86 -44.312 32.812 C-43.693 32.234 -43.074 31.656 -42.435 31.06 C-37.951 26.878 -33.45 22.714 -28.938 18.562 C-25.919 15.782 -22.916 12.987 -19.926 10.176 C-19.241 9.533 -18.557 8.891 -17.852 8.229 C-16.515 6.973 -15.18 5.715 -13.848 4.455 C-13.244 3.889 -12.641 3.322 -12.02 2.738 C-11.484 2.233 -10.949 1.728 -10.398 1.208 C-6.956 -1.767 -4.273 -0.988 0 0 Z " fill="#0F3E17" transform="translate(260,133)"/>
<path d="M0 0 C8.074 5.798 14.777 14.574 16.426 24.527 C17.668 37.622 15.659 49.352 7.02 59.82 C-0.337 67.699 -7.845 72.12 -18.758 72.695 C-24.757 72.731 -29.928 72.628 -35.574 70.527 C-39.031 73.198 -39.462 76.448 -40.574 80.527 C-42.574 82.527 -42.574 82.527 -45.176 82.723 C-46.174 82.699 -47.171 82.676 -48.199 82.652 C-49.202 82.634 -50.205 82.616 -51.238 82.598 C-52.009 82.574 -52.78 82.551 -53.574 82.527 C-53.551 83.214 -53.528 83.901 -53.504 84.609 C-53.486 85.51 -53.468 86.411 -53.449 87.34 C-53.426 88.233 -53.403 89.126 -53.379 90.047 C-53.574 92.527 -53.574 92.527 -55.574 95.527 C-58.395 95.82 -58.395 95.82 -61.699 95.715 C-62.247 95.701 -62.247 95.701 -65.02 95.633 C-65.863 95.598 -66.706 95.563 -67.574 95.527 C-67.557 95.907 -67.557 95.907 -67.469 97.828 C-67.442 98.822 -67.415 99.816 -67.387 100.84 C-67.369 101.333 -67.369 101.333 -67.281 103.828 C-67.574 106.527 -67.574 106.527 -68.83 108.169 C-72.044 110.672 -75.902 109.998 -79.824 109.965 C-80.658 109.985 -81.492 110.005 -82.352 110.025 C-88.268 110.021 -91.737 108.967 -96.574 105.527 C-100.606 100.461 -101.017 96.47 -101.008 90.078 C-100.505 87.118 -99.639 85.683 -97.574 83.527 C-96.914 83.527 -96.254 83.527 -95.574 83.527 C-95.354 82.971 -95.134 82.415 -94.907 81.842 C-93.14 78.772 -90.887 76.849 -88.246 74.488 C-87.716 74.01 -87.186 73.531 -86.64 73.038 C-83.9 70.57 -81.13 68.137 -78.342 65.724 C-57.353 47.497 -57.353 47.497 -56.168 38.652 C-56.089 34.249 -56.65 29.977 -57.346 25.636 C-57.848 20.992 -56.013 17.342 -53.574 13.527 C-53.088 12.755 -52.602 11.983 -52.102 11.188 C-39.823 -6.258 -18.51 -10.589 0 0 Z " fill="#CFE7D3" transform="translate(399.57421875,250.47265625)"/>
<path d="M0 0 C8.074 5.798 14.777 14.574 16.426 24.527 C17.668 37.622 15.659 49.352 7.02 59.82 C-0.337 67.699 -7.845 72.12 -18.758 72.695 C-24.757 72.731 -29.928 72.628 -35.574 70.527 C-39.031 73.198 -39.462 76.448 -40.574 80.527 C-42.574 82.527 -42.574 82.527 -45.176 82.723 C-46.174 82.699 -47.171 82.676 -48.199 82.652 C-49.202 82.634 -50.205 82.616 -51.238 82.598 C-52.009 82.574 -52.78 82.551 -53.574 82.527 C-53.551 83.214 -53.528 83.901 -53.504 84.609 C-53.486 85.51 -53.468 86.411 -53.449 87.34 C-53.426 88.233 -53.403 89.126 -53.379 90.047 C-53.574 92.527 -53.574 92.527 -55.574 95.527 C-58.395 95.82 -58.395 95.82 -61.699 95.715 C-62.247 95.701 -62.247 95.701 -65.02 95.633 C-65.863 95.598 -66.706 95.563 -67.574 95.527 C-67.557 95.907 -67.557 95.907 -67.469 97.828 C-67.442 98.822 -67.415 99.816 -67.387 100.84 C-67.369 101.333 -67.369 101.333 -67.281 103.828 C-67.574 106.527 -67.574 106.527 -68.83 108.169 C-72.044 110.672 -75.902 109.998 -79.824 109.965 C-80.658 109.985 -81.492 110.005 -82.352 110.025 C-88.268 110.021 -91.737 108.967 -96.574 105.527 C-100.606 100.461 -101.017 96.47 -101.008 90.078 C-100.505 87.118 -99.639 85.683 -97.574 83.527 C-96.914 83.527 -96.254 83.527 -95.574 83.527 C-95.354 82.971 -95.134 82.415 -94.907 81.842 C-93.14 78.772 -90.887 76.849 -88.246 74.488 C-87.716 74.01 -87.186 73.531 -86.64 73.038 C-83.9 70.57 -81.13 68.137 -78.342 65.724 C-57.353 47.497 -57.353 47.497 -56.168 38.652 C-56.089 34.249 -56.65 29.977 -57.346 25.636 C-57.848 20.992 -56.013 17.342 -53.574 13.527 C-53.088 12.755 -52.602 11.983 -52.102 11.188 C-39.823 -6.258 -18.51 -10.589 0 0 Z M-45.887 15.027 C-51.284 23.024 -51.095 30 -50.574 39.527 C-50.322 40.659 -50.069 41.791 -49.809 42.958 C-49.574 46.527 -49.574 46.527 -51.169 49.037 C-51.974 49.803 -52.778 50.569 -53.607 51.358 C-54.06 51.798 -54.06 51.798 -56.348 54.027 C-56.838 54.486 -57.328 54.945 -57.833 55.418 C-59.372 56.859 -60.885 58.324 -62.394 59.797 C-65.599 62.918 -68.835 66.005 -72.074 69.09 C-75.828 72.669 -79.569 76.261 -83.282 79.882 C-84.774 81.326 -86.287 82.746 -87.801 84.166 C-88.705 85.044 -89.609 85.922 -90.541 86.826 C-91.346 87.591 -92.15 88.356 -92.979 89.145 C-94.574 91.527 -94.574 91.527 -94.432 94.641 C-93.195 98.804 -92.286 100.146 -88.574 102.527 C-83.879 102.948 -79.275 102.814 -74.574 102.527 C-74.544 102.1 -74.544 102.1 -74.391 99.938 C-74.307 98.833 -74.223 97.728 -74.137 96.59 C-74.056 95.488 -73.974 94.386 -73.891 93.25 C-73.574 90.527 -73.574 90.527 -72.574 89.527 C-70.558 89.293 -68.536 89.114 -66.512 88.965 C-65.407 88.881 -64.302 88.797 -63.164 88.711 C-62.309 88.65 -61.455 88.59 -60.574 88.527 C-60.525 87.829 -60.476 87.13 -60.426 86.41 C-60.351 85.5 -60.276 84.59 -60.199 83.652 C-60.13 82.747 -60.06 81.842 -59.988 80.91 C-59.574 78.527 -59.574 78.527 -57.574 76.527 C-54.754 76.113 -54.754 76.113 -51.449 75.902 C-50.901 75.865 -50.901 75.865 -48.129 75.676 C-47.286 75.627 -46.443 75.578 -45.574 75.527 C-45.481 75.012 -45.481 75.012 -45.012 72.402 C-43.851 68.311 -41.582 66.221 -38.426 63.496 C-36.574 62.527 -36.574 62.527 -34.512 62.805 C-32.982 63.375 -31.463 63.977 -29.949 64.59 C-21.227 67.013 -13.637 65.399 -5.574 61.527 C1.56 56.816 6.562 49.232 8.953 41.043 C10.625 32.144 10.075 24.338 5.426 16.527 C5.256 16.215 5.256 16.215 4.398 14.633 C0.484 8.238 -5.939 5.193 -12.574 2.152 C-26.707 -0.792 -36.483 4.861 -45.887 15.027 Z " fill="#0F3E17" transform="translate(399.57421875,250.47265625)"/>
<path d="M0 0 C0.703 -0.002 1.405 -0.004 2.129 -0.006 C3.616 -0.007 5.102 -0.003 6.588 0.005 C8.866 0.016 11.144 0.005 13.422 -0.008 C14.865 -0.006 16.307 -0.004 17.75 0 C19.067 0.002 20.385 0.005 21.742 0.007 C24.875 0.266 24.875 0.266 26.875 2.266 C27.075 4.823 27.155 7.27 27.141 9.828 C27.142 10.202 27.142 10.202 27.146 12.092 C27.148 13.672 27.144 15.253 27.136 16.833 C27.125 19.256 27.136 21.678 27.148 24.102 C27.147 25.635 27.145 27.169 27.141 28.703 C27.145 29.43 27.149 30.157 27.153 30.906 C27.105 36.036 27.105 36.036 24.875 38.266 C21.742 38.524 21.742 38.524 17.75 38.531 C17.047 38.533 16.345 38.535 15.621 38.537 C14.134 38.538 12.648 38.535 11.162 38.526 C8.884 38.516 6.606 38.526 4.328 38.539 C2.885 38.538 1.443 38.535 0 38.531 C-1.317 38.529 -2.635 38.527 -3.992 38.524 C-7.125 38.266 -7.125 38.266 -9.125 36.266 C-9.325 33.708 -9.405 31.261 -9.391 28.703 C-9.393 27.956 -9.394 27.209 -9.396 26.439 C-9.398 24.859 -9.394 23.279 -9.386 21.698 C-9.375 19.275 -9.386 16.853 -9.398 14.43 C-9.397 12.896 -9.395 11.362 -9.391 9.828 C-9.395 9.101 -9.399 8.374 -9.403 7.625 C-9.333 0.157 -6.986 0.012 0 0 Z " fill="#0F3E17" transform="translate(283.125,230.734375)"/>
<path d="M0 0 C2.934 1.796 4.472 2.944 6 6 C6.521 10.829 6.734 14.742 4.25 19 C1.13 21.773 -0.72 22.833 -4.875 23.375 C-8.845 22.899 -10.895 21.47 -14 19 C-16.845 14.732 -16.853 11.004 -16 6 C-12.72 -0.572 -6.729 -1.346 0 0 Z " fill="#0F3E17" transform="translate(388,267)"/>
<path d="M0 0 C7.26 0 14.52 0 22 0 C22 7.92 22 15.84 22 24 C14.74 24 7.48 24 0 24 C0 16.08 0 8.16 0 0 Z M1 1 C0.959 3.434 0.918 5.868 0.875 8.375 C0.857 9.14 0.839 9.905 0.82 10.693 C0.805 12.463 0.901 14.233 1 16 C3 18 3 18 6.914 18.195 C8.484 18.182 10.055 18.158 11.625 18.125 C12.026 18.12 12.026 18.12 14.055 18.098 C16.037 18.074 18.018 18.038 20 18 C20.33 18.99 20.66 19.98 21 21 C21 14.4 21 7.8 21 1 C14.4 1 7.8 1 1 1 Z " fill="#CFE7D3" transform="translate(281,238)"/>
<path d="M0 0 C2 2 2 2 2.195 5.258 C2.184 5.896 2.184 5.896 2.125 9.125 C2.107 10.406 2.089 11.688 2.07 13.008 C2.047 13.995 2.024 14.983 2 16 C1.443 16.072 1.443 16.072 -1.375 16.438 C-5 17 -5 17 -7 18 C-6.724 17.316 -6.448 16.631 -6.164 15.926 C-4.876 12.689 -3.623 9.44 -2.375 6.188 C-1.929 5.026 -1.483 3.865 -1.023 2.668 C-0.686 1.788 -0.348 0.907 0 0 Z " fill="#CFE7D3" transform="translate(415,291)"/>
<path d="M0 0 C0 4.091 -1.699 5.449 -4.332 8.414 C-6.369 10.351 -8.291 11.283 -11 12 C-7.491 7.816 -3.919 3.804 0 0 Z " fill="#CFE7D3" transform="translate(337,310)"/>
<path d="M0 0 C0 3.589 -0.664 4.109 -3 6.688 C-3.557 7.31 -4.114 7.933 -4.688 8.574 C-5.121 9.045 -5.554 9.515 -6 10 C-6.99 9.67 -7.98 9.34 -9 9 C-6.03 6.03 -3.06 3.06 0 0 Z " fill="#CFE7D3" transform="translate(325,322)"/>
<path d="M0 0 C0.99 0.33 1.98 0.66 3 1 C0.36 3.64 -2.28 6.28 -5 9 C-5.33 8.01 -5.66 7.02 -6 6 C-5.34 6 -4.68 6 -4 6 C-3.711 5.381 -3.423 4.762 -3.125 4.125 C-2 2 -2 2 0 0 Z " fill="#0F3E17" transform="translate(308,328)"/>
</svg>
