<?xml version="1.0" encoding="UTF-8"?>
<svg viewBox="0 0 512 512" version="1.1" xmlns="http://www.w3.org/2000/svg">
<path d="M0 0 C1.457 -0.006 2.914 -0.013 4.371 -0.021 C8.292 -0.039 12.214 -0.038 16.135 -0.032 C19.425 -0.029 22.715 -0.035 26.005 -0.041 C33.774 -0.055 41.544 -0.053 49.313 -0.042 C57.293 -0.031 65.273 -0.045 73.253 -0.071 C80.137 -0.094 87.022 -0.1 93.906 -0.094 C98.003 -0.091 102.1 -0.093 106.198 -0.111 C110.054 -0.126 113.91 -0.122 117.766 -0.103 C119.17 -0.1 120.573 -0.103 121.977 -0.113 C139.778 -0.237 154.889 4.797 167.875 17.127 C178.019 27.556 184.313 40.522 184.365 55.174 C184.37 55.906 184.375 56.637 184.38 57.39 C184.394 59.784 184.393 62.178 184.391 64.572 C184.395 66.256 184.399 67.94 184.404 69.623 C184.412 73.146 184.411 76.669 184.406 80.191 C184.4 84.672 184.417 89.152 184.44 93.632 C184.455 97.11 184.456 100.587 184.453 104.064 C184.453 105.714 184.458 107.364 184.469 109.014 C184.574 128.59 180.871 145.462 166.762 159.998 C154.12 171.383 139.367 175.813 122.674 175.517 C120.381 175.494 118.088 175.472 115.795 175.45 C114.591 175.434 113.386 175.419 112.145 175.403 C105.712 175.331 99.279 175.321 92.846 175.301 C84.685 175.272 76.524 175.224 68.364 175.106 C61.746 175.01 55.13 174.984 48.511 174.996 C46.004 174.99 43.496 174.96 40.99 174.905 C27.297 174.621 17.232 174.792 6.873 184.489 C5.759 185.603 4.659 186.731 3.575 187.875 C1.536 189.975 -0.716 191.747 -3.035 193.529 C-3.793 194.134 -4.551 194.738 -5.332 195.361 C-8.644 197.986 -11.963 200.603 -15.285 203.217 C-15.88 203.685 -16.476 204.154 -17.09 204.637 C-18.694 205.896 -20.302 207.15 -21.91 208.404 C-22.643 208.998 -23.377 209.593 -24.132 210.205 C-26.795 212.001 -28.785 211.803 -31.91 211.404 C-33.919 209.873 -34.799 208.994 -35.27 206.487 C-35.264 205.765 -35.257 205.043 -35.25 204.3 C-35.25 203.479 -35.25 202.659 -35.25 201.813 C-35.234 200.932 -35.219 200.05 -35.203 199.142 C-35.198 198.237 -35.194 197.331 -35.19 196.398 C-35.173 193.504 -35.135 190.61 -35.097 187.717 C-35.082 185.755 -35.068 183.793 -35.056 181.832 C-35.023 177.022 -34.971 172.213 -34.91 167.404 C-35.694 167.103 -36.479 166.802 -37.287 166.492 C-47.543 162.237 -56.114 150.544 -60.562 140.773 C-64.986 129.713 -65.374 118.292 -65.343 106.56 C-65.348 104.977 -65.353 103.394 -65.359 101.811 C-65.368 98.517 -65.366 95.222 -65.356 91.928 C-65.344 87.746 -65.364 83.565 -65.394 79.383 C-65.412 76.12 -65.412 72.859 -65.406 69.596 C-65.406 68.056 -65.412 66.516 -65.424 64.976 C-65.552 46.732 -61.06 31.194 -48.261 17.689 C-34.292 4.115 -19.184 -0.069 0 0 Z M-45.91 25.404 C-55.944 38.088 -57.531 51.505 -57.441 67.06 C-57.444 68.737 -57.448 70.414 -57.453 72.09 C-57.458 75.583 -57.45 79.076 -57.431 82.569 C-57.408 87.01 -57.422 91.45 -57.445 95.891 C-57.46 99.347 -57.455 102.803 -57.445 106.259 C-57.442 107.895 -57.445 109.531 -57.455 111.167 C-57.529 127.667 -54.293 141.741 -42.597 154.154 C-40.596 156.099 -38.947 157.387 -36.402 158.569 C-33.151 160.191 -31.22 161.573 -28.91 164.404 C-27.069 170.624 -27.649 177.429 -27.785 183.842 C-27.787 185.64 -27.784 187.439 -27.777 189.238 C-27.769 193.629 -27.823 198.014 -27.91 202.404 C-24.126 200.601 -20.986 198.259 -17.722 195.654 C-17.121 195.178 -16.519 194.702 -15.899 194.212 C-10.185 189.67 -4.555 185.026 1.052 180.352 C1.722 179.796 2.392 179.239 3.083 178.666 C3.664 178.181 4.245 177.696 4.844 177.196 C5.214 176.9 5.214 176.9 7.09 175.404 C7.349 175.163 7.349 175.163 8.659 173.942 C14.429 168.959 19.054 168.562 26.501 168.695 C27.619 168.69 28.737 168.686 29.889 168.682 C33.573 168.674 37.255 168.708 40.938 168.74 C43.514 168.739 46.09 168.735 48.665 168.727 C56.136 168.712 63.607 168.738 71.078 168.771 C81.21 168.812 91.341 168.821 101.473 168.802 C105.235 168.802 108.996 168.828 112.758 168.856 C131.975 168.907 147.727 167.418 162.34 153.717 C172.557 143.035 177.152 129.824 177.267 115.212 C177.271 114.865 177.271 114.865 177.287 113.11 C177.307 110.831 177.319 108.551 177.329 106.271 C177.333 105.486 177.337 104.701 177.341 103.893 C177.362 99.736 177.376 95.579 177.385 91.422 C177.397 87.158 177.431 82.896 177.471 78.633 C177.497 75.328 177.505 72.023 177.509 68.718 C177.514 67.148 177.525 65.578 177.544 64.009 C177.729 47.431 173.494 33.746 162.145 21.287 C158.213 17.684 153.7 15.046 149.09 12.404 C148.08 11.806 147.069 11.208 146.028 10.592 C137.279 7.055 128.22 7.116 118.911 7.145 C117.509 7.143 116.106 7.139 114.704 7.135 C110.923 7.126 107.142 7.129 103.361 7.135 C99.386 7.14 95.412 7.136 91.437 7.133 C84.763 7.129 78.09 7.134 71.417 7.143 C63.725 7.154 56.034 7.151 48.343 7.14 C41.715 7.131 35.087 7.129 28.459 7.135 C24.512 7.138 20.564 7.138 16.616 7.131 C12.902 7.126 9.188 7.13 5.473 7.141 C3.478 7.145 1.482 7.139 -0.514 7.133 C-18.481 7.217 -33.564 11.622 -45.91 25.404 Z " fill="#0F3E17" transform="translate(198.90966796875,141.595947265625)"/>
<path d="M0 0 C3.741 2.284 7.019 5.038 9 9 C9.597 14.972 8.378 19.149 5 24 C1.632 27.133 -0.989 28.257 -5.5 28.5 C-9.955 28.29 -12.58 26.932 -16 24 C-19.516 19.999 -20.36 16.405 -20.281 11.062 C-19.686 6.695 -17.086 3.987 -13.938 1.125 C-9.255 -0.668 -4.925 -0.989 0 0 Z " fill="#CFE7D3" transform="translate(319,217)"/>
<path d="M0 0 C3.35 2.472 5.398 4.982 6.625 8.938 C6.959 13.627 6.032 17.123 3.938 21.312 C0.902 24.758 -1.742 26.511 -6.328 27.254 C-11.442 27.556 -14.458 26.409 -18.375 22.938 C-21.115 19.5 -22.283 16.697 -22.812 12.312 C-22.103 6.837 -19.597 3.326 -15.246 -0.113 C-10.402 -2.571 -4.975 -1.566 0 0 Z " fill="#CFE7D3" transform="translate(205.375,218.0625)"/>
<path d="M0 0 C4.174 1.687 6.663 4.161 9 8 C10.328 12.53 10.643 16.516 8.5 20.812 C5.631 25.038 2.004 27.373 -2.984 28.414 C-7.753 28.765 -10.841 27.478 -14.523 24.484 C-17.8 21.19 -18.86 18.103 -19.438 13.562 C-18.813 8.479 -17.024 4.888 -13.199 1.32 C-9.132 -1.122 -4.587 -0.498 0 0 Z " fill="#CFE7D3" transform="translate(260,217)"/>
<path d="M0 0 C1.943 2.914 3.464 5.858 5 9 C4.01 9.825 4.01 9.825 -1 14 C-2.32 11.36 -3.64 8.72 -5 6 C-4.01 6.33 -3.02 6.66 -2 7 C-2 7.99 -2 8.98 -2 10 C-0.438 8.938 -0.438 8.938 1 7 C0.688 3.312 0.688 3.312 0 0 Z " fill="#0F3E17" transform="translate(145,278)"/>
<path d="M0 0 C1.625 1.688 1.625 1.688 3 4 C2.092 8.037 0.027 10.276 -3 13 C-3.856 10.074 -4.387 7.918 -3.176 5.043 C-2.179 3.325 -1.094 1.658 0 0 Z " fill="#0F3E17" transform="translate(376,172)"/>
<path d="M0 0 C1.32 0.33 2.64 0.66 4 1 C2.628 3.954 1.011 6.44 -1 9 C-2.188 6.75 -2.188 6.75 -3 4 C-1.625 1.688 -1.625 1.688 0 0 Z " fill="#0F3E17" transform="translate(370,166)"/>
</svg>
