<?xml version="1.0" encoding="UTF-8"?>
<svg viewBox="0 0 512 512" version="1.1" xmlns="http://www.w3.org/2000/svg">
<path d="M0 0 C1.277 1.034 2.551 2.072 3.812 3.125 C7.102 1.649 9.978 -0.309 12.938 -2.353 C22.99 -9.278 32.816 -14.228 44.812 -16.875 C45.264 -16.978 45.264 -16.978 47.551 -17.5 C70.069 -21.795 96.334 -19.741 116.812 -8.875 C117.812 -7.875 117.812 -7.875 117.91 -5.152 C117.904 -4.601 117.904 -4.601 117.875 -1.812 C117.866 -0.708 117.857 0.397 117.848 1.535 C117.842 1.962 117.842 1.962 117.812 4.125 C118.716 4.162 119.62 4.2 120.551 4.238 C121.73 4.304 122.91 4.37 124.125 4.438 C125.297 4.496 126.469 4.554 127.676 4.613 C130.812 5.125 130.812 5.125 132.486 6.241 C134.473 9.063 134.184 11.355 134.18 14.781 C134.182 15.121 134.182 15.121 134.19 16.841 C134.197 19.123 134.183 21.405 134.169 23.688 C134.17 25.322 134.172 26.957 134.175 28.591 C134.18 33.033 134.167 37.475 134.15 41.916 C134.135 46.558 134.136 51.199 134.135 55.841 C134.131 63.633 134.116 71.426 134.094 79.219 C134.065 89.235 134.055 99.251 134.05 109.267 C134.046 117.863 134.034 126.46 134.02 135.056 C134.016 137.827 134.013 140.598 134.01 143.368 C134.005 147.714 133.995 152.059 133.98 156.404 C133.976 158.003 133.973 159.603 133.972 161.202 C133.97 163.376 133.962 165.549 133.953 167.723 C133.95 168.942 133.947 170.162 133.944 171.418 C133.812 174.125 133.812 174.125 132.812 175.125 C126.727 175.608 120.787 174.936 114.774 174.057 C86.672 170.043 40.44 165.047 16.062 182.25 C11.126 185.719 6.874 186.915 0.812 186.125 C-3.136 184.724 -6.376 182.849 -9.5 180.062 C-23.341 170.084 -48.891 171.645 -65.194 171.789 C-68.083 171.813 -70.971 171.809 -73.859 171.803 C-84.818 171.82 -95.344 172.559 -106.188 174.125 C-109.148 174.443 -112.091 174.672 -115.062 174.875 C-115.737 174.93 -116.411 174.986 -117.105 175.043 C-118.796 175.155 -120.493 175.15 -122.188 175.125 C-124.978 172.335 -124.446 170.635 -124.462 166.723 C-124.464 166.391 -124.464 166.391 -124.478 164.71 C-124.493 162.473 -124.493 160.236 -124.494 157.999 C-124.502 156.399 -124.51 154.799 -124.519 153.199 C-124.541 148.846 -124.55 144.493 -124.555 140.139 C-124.559 137.421 -124.565 134.703 -124.572 131.985 C-124.596 122.508 -124.609 113.03 -124.613 103.553 C-124.617 94.711 -124.647 85.869 -124.688 77.027 C-124.723 69.442 -124.739 61.857 -124.739 54.272 C-124.74 49.739 -124.749 45.207 -124.777 40.674 C-124.803 36.41 -124.806 32.148 -124.79 27.884 C-124.788 26.319 -124.795 24.753 -124.81 23.187 C-124.831 21.051 -124.82 18.917 -124.802 16.781 C-124.804 15.585 -124.806 14.389 -124.808 13.157 C-124.188 10.125 -124.188 10.125 -121.794 7.756 C-116.791 4.625 -111.915 5.028 -106.188 5.125 C-106.188 0.835 -106.188 -3.455 -106.188 -7.875 C-99.165 -11.808 -91.969 -13.903 -84.188 -15.875 C-83.044 -16.178 -81.901 -16.481 -80.723 -16.793 C-52.874 -23.347 -22.738 -17.575 0 0 Z " fill="#0F3E17" transform="translate(257.1875,162.875)"/>
<path d="M0 0 C1.204 0.052 2.408 0.104 3.648 0.158 C6.599 0.287 9.55 0.422 12.5 0.562 C11.51 1.882 10.52 3.202 9.5 4.562 C14.78 5.222 20.06 5.882 25.5 6.562 C25.5 25.702 25.5 44.843 25.5 64.562 C20.5 62.562 20.5 62.562 18.5 61.562 C18.17 62.553 17.84 63.542 17.5 64.562 C14.5 65.562 14.5 65.562 12.25 64.844 C8.118 64.421 5.688 66.726 2.5 69.062 C-3.699 73.606 -3.699 73.606 -7.375 73.406 C-9.5 72.562 -9.5 72.562 -10.5 71.562 C-10.594 69.538 -10.617 67.509 -10.614 65.482 C-10.613 64.832 -10.613 64.832 -10.613 61.539 C-10.608 60.108 -10.603 58.677 -10.598 57.246 C-10.596 55.79 -10.594 54.334 -10.593 52.878 C-10.59 49.04 -10.58 45.201 -10.569 41.362 C-10.558 37.448 -10.554 33.534 -10.549 29.619 C-10.538 21.934 -10.521 14.248 -10.5 6.562 C-13.035 7.007 -15.569 7.46 -18.102 7.918 C-18.811 8.042 -19.521 8.165 -20.252 8.293 C-30.624 10.184 -39.8 14.678 -48.5 20.562 C-49.148 20.879 -49.796 21.196 -50.464 21.522 C-53.005 22.978 -54.655 24.271 -56.5 26.562 C-57.713 31.466 -57.571 36.361 -57.5 41.38 C-57.508 42.898 -57.519 44.417 -57.533 45.935 C-57.562 50.046 -57.542 54.156 -57.513 58.268 C-57.491 62.568 -57.514 66.868 -57.533 71.168 C-57.561 79.307 -57.549 87.445 -57.522 95.584 C-57.493 104.851 -57.509 114.118 -57.529 123.385 C-57.57 142.444 -57.554 161.503 -57.5 180.562 C-56.498 179.951 -55.495 179.34 -54.463 178.71 C-53.12 177.896 -51.777 177.083 -50.434 176.27 C-49.776 175.868 -49.119 175.467 -48.442 175.053 C-30.755 164.367 -12.08 160.36 8.438 160.5 C9.694 160.505 10.95 160.509 12.244 160.514 C15.329 160.525 18.415 160.542 21.5 160.562 C20.25 164.216 19.829 165.343 16.5 167.562 C14.242 167.818 14.242 167.818 11.59 167.836 C10.609 167.854 9.628 167.871 8.617 167.889 C7.568 167.905 6.519 167.921 5.438 167.938 C-16.804 168.612 -39.188 174.588 -56.547 189.297 C-59.161 190.991 -60.427 191.081 -63.5 190.562 C-66.48 188.805 -66.48 188.805 -69.688 186.438 C-70.829 185.611 -71.972 184.787 -73.117 183.965 C-73.4 183.761 -73.4 183.761 -74.831 182.73 C-78.575 180.111 -82.542 177.841 -86.5 175.562 C-84.994 173.831 -83.748 172.679 -81.66 171.699 C-78.474 171.498 -76.669 172.788 -73.938 174.375 C-73.462 174.646 -73.462 174.646 -71.059 176.02 C-69.177 177.154 -67.328 178.344 -65.5 179.562 C-65.407 159.813 -65.336 140.064 -65.293 120.315 C-65.272 111.145 -65.244 101.975 -65.198 92.806 C-65.158 84.814 -65.133 76.823 -65.124 68.832 C-65.118 64.6 -65.106 60.367 -65.077 56.135 C-65.05 52.153 -65.042 48.171 -65.048 44.188 C-65.046 42.725 -65.038 41.263 -65.023 39.8 C-65.003 37.805 -65.01 35.809 -65.019 33.814 C-65.015 32.697 -65.012 31.58 -65.008 30.429 C-65.61 26.92 -66.904 25.887 -69.5 23.562 C-69.25 21.312 -69.25 21.312 -68.5 19.562 C-65.921 18.642 -64.906 18.377 -62.359 19.539 C-62.053 19.708 -62.053 19.708 -60.5 20.562 C-59.819 20.006 -59.139 19.449 -58.438 18.875 C-40.6 4.833 -22.715 -1.086 0 0 Z " fill="#0F3E17" transform="translate(323.5,145.4375)"/>
<path d="M0 0 C20.112 -0.868 40.836 0.362 59 10 C60 11 60 11 60.098 13.723 C60.086 14.825 60.074 15.927 60.062 17.062 C60.053 18.167 60.044 19.272 60.035 20.41 C60.024 21.265 60.012 22.119 60 23 C60.904 23.037 61.807 23.075 62.738 23.113 C63.328 23.146 63.328 23.146 66.312 23.312 C67.484 23.371 68.656 23.429 69.863 23.488 C73 24 73 24 74.673 25.116 C76.66 27.938 76.372 30.23 76.367 33.656 C76.369 33.996 76.369 33.996 76.377 35.716 C76.385 37.998 76.371 40.28 76.356 42.563 C76.357 44.197 76.359 45.832 76.363 47.466 C76.368 51.908 76.354 56.35 76.337 60.791 C76.322 65.433 76.323 70.074 76.322 74.716 C76.319 82.508 76.304 90.301 76.281 98.094 C76.252 108.11 76.242 118.126 76.238 128.142 C76.234 136.738 76.221 145.335 76.207 153.931 C76.203 156.702 76.2 159.473 76.197 162.243 C76.193 166.589 76.182 170.934 76.168 175.279 C76.163 176.878 76.161 178.478 76.16 180.077 C76.158 182.251 76.15 184.424 76.14 186.598 C76.137 187.817 76.134 189.037 76.131 190.293 C76 193 76 193 75 194 C68.914 194.483 62.975 193.811 56.961 192.932 C29.076 188.949 0.23 189.494 -27.458 194.542 C-30.63 195.113 -33.806 195.57 -37 196 C-32.776 188.558 -32.776 188.558 -28.769 187.299 C-25.817 186.793 -22.867 186.293 -19.906 185.84 C-18.793 185.667 -17.679 185.494 -16.532 185.316 C-5.576 183.741 5.249 183.425 16.302 183.533 C19.5 183.563 22.696 183.554 25.895 183.541 C28.023 183.547 30.152 183.556 32.281 183.566 C33.189 183.563 34.097 183.561 35.033 183.558 C46.865 183.717 58.095 185.571 70 187 C70 135.19 70 83.38 70 30 C66.7 29.67 63.4 29.34 60 29 C60.002 29.73 60.004 30.46 60.006 31.212 C60.05 48.955 60.083 66.697 60.104 84.44 C60.114 93.02 60.128 101.6 60.151 110.18 C60.171 117.656 60.184 125.133 60.188 132.609 C60.191 136.57 60.197 140.53 60.211 144.491 C60.225 148.215 60.229 151.94 60.226 155.665 C60.227 157.035 60.231 158.404 60.238 159.774 C60.248 161.639 60.245 163.504 60.241 165.369 C60.242 166.414 60.244 167.459 60.246 168.536 C60 171 60 171 58 173 C55.768 173.029 55.768 173.029 53.031 172.719 C52.041 172.609 51.051 172.5 50.031 172.387 C45.512 171.81 41.006 171.167 36.5 170.5 C26.342 169.046 16.25 168.343 6 168 C6 167.67 6 167.34 6 167 C13.26 167 20.52 167 28 167 C28 166.34 28 165.68 28 165 C26.02 164.67 24.04 164.34 22 164 C22 163.67 22 163.34 22 163 C24.522 162.917 27.04 162.858 29.562 162.812 C30.248 162.787 30.933 162.762 31.639 162.736 C39.637 162.629 45.66 164.332 54 166 C54 116.17 54 66.34 54 15 C50.37 14.01 46.74 13.02 43 12 C42.01 11.67 41.02 11.34 40 11 C40.004 11.772 40.009 12.545 40.013 13.34 C40.053 20.609 40.084 27.879 40.104 35.148 C40.114 38.885 40.128 42.623 40.151 46.36 C40.173 49.965 40.185 53.57 40.19 57.175 C40.193 58.552 40.201 59.929 40.211 61.306 C40.226 63.231 40.227 65.156 40.227 67.082 C40.231 68.179 40.236 69.276 40.241 70.406 C40 73 40 73 38 75 C34.062 74.676 31.421 73.256 28.188 71.062 C27.397 70.538 26.607 70.013 25.793 69.473 C25.201 68.987 24.61 68.501 24 68 C24 66 24 66 25.5 64.375 C25.995 63.921 26.49 63.468 27 63 C31.75 64.875 31.75 64.875 34 66 C34 46.86 34 27.72 34 8 C28.39 7.67 22.78 7.34 17 7 C12.665 6.678 8.332 6.354 4 6 C4 5.67 4 5.34 4 5 C4.494 5.012 4.494 5.012 6.992 5.07 C7.633 5.079 7.633 5.079 10.875 5.125 C12.151 5.148 13.427 5.171 14.742 5.195 C18 5 18 5 20 3 C13.4 2.67 6.8 2.34 0 2 C0 1.34 0 0.68 0 0 Z " fill="#0F3E17" transform="translate(315,144)"/>
<path d="M0 0 C2.375 2 2.375 2 4 4 C2.35 4.66 0.7 5.32 -1 6 C-1.33 57.15 -1.66 108.3 -2 161 C4.27 160.01 10.54 159.02 17 158 C90.444 151.485 90.444 151.485 110.07 166.594 C110.625 167.14 111.179 167.687 111.75 168.25 C114.345 170.8 115.969 171.449 119.625 171.562 C124.755 171.189 127.608 169.213 131.438 165.875 C134.354 163.741 136.441 163.331 140 163 C138.46 168.517 136.716 172.247 131.797 175.422 C126.273 178.438 122.267 179.91 116 179 C112.055 177.553 108.825 175.736 105.688 172.938 C91.846 162.959 66.297 164.52 49.993 164.664 C47.105 164.688 44.217 164.684 41.328 164.678 C30.369 164.695 19.843 165.434 9 167 C6.04 167.318 3.096 167.547 0.125 167.75 C-0.549 167.805 -1.223 167.861 -1.918 167.918 C-3.609 168.03 -5.306 168.025 -7 168 C-9.793 165.207 -9.254 163.506 -9.261 159.592 C-9.265 158.926 -9.268 158.261 -9.272 157.576 C-9.283 155.336 -9.279 153.097 -9.275 150.858 C-9.279 149.256 -9.284 147.655 -9.29 146.054 C-9.304 141.696 -9.304 137.339 -9.302 132.982 C-9.301 129.348 -9.305 125.715 -9.31 122.081 C-9.321 113.512 -9.322 104.942 -9.316 96.373 C-9.31 87.523 -9.322 78.673 -9.343 69.823 C-9.361 62.233 -9.367 54.643 -9.364 47.053 C-9.362 42.516 -9.364 37.98 -9.378 33.443 C-9.391 29.177 -9.389 24.912 -9.376 20.646 C-9.374 19.078 -9.376 17.511 -9.385 15.943 C-9.395 13.807 -9.387 11.672 -9.374 9.535 C-9.374 8.937 -9.374 8.937 -9.375 5.909 C-9 3 -9 3 -7.66 1.119 C-5.016 -0.663 -3.098 -0.443 0 0 Z " fill="#0F3E17" transform="translate(142,170)"/>
<path d="M0 0 C22 0 22 0 29 1 C29 20.14 29 39.28 29 59 C24.318 57.127 21.769 55.336 18.062 52.145 C16 51 16 51 13.578 51.102 C10.529 52.164 8.342 53.642 5.75 55.562 C1.074 59 1.074 59 0 59 C0 39.53 0 20.06 0 0 Z " fill="#CFE7D3" transform="translate(320,151)"/>
<path d="M0 0 C-1.25 3.653 -1.671 4.781 -5 7 C-7.433 7.303 -7.433 7.303 -10.297 7.379 C-11.338 7.413 -12.38 7.447 -13.453 7.482 C-13.997 7.496 -13.997 7.496 -16.75 7.562 C-29.819 7.932 -29.819 7.932 -36 9 C-35.34 8.34 -34.68 7.68 -34 7 C-34.33 6.34 -34.66 5.68 -35 5 C-36.848 4.586 -36.848 4.586 -39.062 4.375 C-40.362 4.251 -41.661 4.127 -43 4 C-43 3.67 -43 3.34 -43 3 C-28.743 -0.668 -14.631 -0.313 0 0 Z " fill="#0F3E17" transform="translate(345,306)"/>
<path d="M0 0 C4.374 1.569 8.693 3.256 13 5 C13 5.66 13 6.32 13 7 C10.251 8.953 8.191 10.193 4.762 9.637 C2.148 8.824 -0.42 7.914 -3 7 C-5.037 6.421 -7.079 5.858 -9.125 5.312 C-10.056 5.061 -10.986 4.81 -11.945 4.551 C-12.623 4.369 -13.301 4.187 -14 4 C-13.34 3.67 -12.68 3.34 -12 3 C-11.835 2.34 -11.67 1.68 -11.5 1 C-11.335 0.34 -11.17 -0.32 -11 -1 C-7.464 -2.768 -3.633 -1.056 0 0 Z " fill="#0F3E17" transform="translate(230,311)"/>
<path d="M0 0 C-1.54 5.517 -3.284 9.247 -8.203 12.422 C-13.73 15.44 -17.73 16.581 -24 16 C-24 15.67 -24 15.34 -24 15 C-22.02 14.67 -20.04 14.34 -18 14 C-19 11 -19 11 -22 9 C-21.432 8.925 -20.863 8.85 -20.277 8.773 C-14.734 7.83 -11.513 6.297 -7.508 2.34 C-5.111 0.21 -3.148 0 0 0 Z " fill="#0F3E17" transform="translate(282,333)"/>
<path d="M0 0 C0.603 0.338 1.207 0.675 1.828 1.023 C2.228 1.246 2.228 1.246 4.25 2.375 C4.644 2.595 4.644 2.595 6.641 3.711 C8.739 4.857 10.854 5.946 13 7 C12.67 7.66 12.34 8.32 12 9 C12.99 9.33 13.98 9.66 15 10 C11.509 11.746 7.809 11.583 4 11 C1.291 9.591 -0.652 7.998 -3 6 C-2 4 -1 2 0 0 Z " fill="#0F3E17" transform="translate(251,337)"/>
<path d="M0 0 C3.751 0.45 4.79 1.501 7.125 4.375 C4.219 5.632 2.329 6.375 -0.875 6.375 C-1.205 8.025 -1.535 9.675 -1.875 11.375 C-2.535 11.375 -3.195 11.375 -3.875 11.375 C-3.875 17.645 -3.875 23.915 -3.875 30.375 C-4.205 30.375 -4.535 30.375 -4.875 30.375 C-4.924 26.424 -4.961 22.473 -4.985 18.522 C-5 16.516 -5.025 14.51 -5.051 12.504 C-5.054 11.875 -5.054 11.875 -5.07 8.695 C-5.081 7.533 -5.091 6.37 -5.102 5.172 C-4.783 1.241 -3.881 0.506 0 0 Z " fill="#0F3E17" transform="translate(138.875,169.625)"/>
<path d="M0 0 C-0.33 0.99 -0.66 1.98 -1 3 C-2.485 3.165 -2.485 3.165 -10 4 C-10 3.34 -10 2.68 -10 2 C-10.66 1.67 -11.32 1.34 -12 1 C-8.019 -0.327 -4.15 -0.069 0 0 Z " fill="#CFE7D3" transform="translate(312,335)"/>
<path d="M0 0 C0.825 0.165 0.825 0.165 5 1 C4.67 2.32 4.34 3.64 4 5 C2.68 4.67 1.36 4.34 0 4 C0 2.667 0 1.333 0 0 Z " fill="#0F3E17" transform="translate(244,334)"/>
</svg>
