<?xml version="1.0" encoding="UTF-8"?>
<svg viewBox="0 0 512 512" version="1.1" xmlns="http://www.w3.org/2000/svg">
<path d="M0 0 C0.39 -0.003 0.39 -0.003 2.365 -0.016 C4.964 -0.031 7.563 -0.024 10.162 -0.016 C12.032 -0.022 13.901 -0.029 15.771 -0.037 C20.839 -0.055 25.907 -0.054 30.976 -0.048 C35.21 -0.045 39.445 -0.051 43.68 -0.057 C53.671 -0.071 63.662 -0.07 73.654 -0.058 C83.954 -0.047 94.254 -0.061 104.554 -0.088 C113.405 -0.11 122.256 -0.117 131.108 -0.111 C136.391 -0.107 141.674 -0.11 146.957 -0.127 C151.925 -0.142 156.893 -0.138 161.861 -0.12 C163.682 -0.116 165.502 -0.119 167.323 -0.13 C169.814 -0.143 172.304 -0.131 174.795 -0.114 C175.51 -0.123 176.225 -0.133 176.962 -0.143 C184.61 -0.032 190.785 3.601 196.355 8.61 C201.288 14.071 204.078 20.437 204.095 27.775 C204.1 28.651 204.104 29.528 204.109 30.431 C204.108 31.39 204.108 32.349 204.108 33.337 C204.112 34.359 204.115 35.381 204.119 36.434 C204.13 39.869 204.134 43.305 204.138 46.74 C204.144 49.199 204.151 51.658 204.158 54.117 C204.177 61.502 204.188 68.888 204.197 76.274 C204.201 79.754 204.206 83.234 204.212 86.714 C204.229 98.286 204.243 109.857 204.25 121.429 C204.252 124.431 204.254 127.432 204.256 130.434 C204.257 131.18 204.257 131.926 204.258 132.694 C204.266 144.777 204.291 156.86 204.324 168.943 C204.357 181.354 204.375 193.765 204.378 206.176 C204.38 213.142 204.389 220.108 204.414 227.074 C204.438 233.628 204.442 240.182 204.432 246.736 C204.431 249.14 204.438 251.544 204.451 253.947 C204.469 257.233 204.462 260.518 204.449 263.803 C204.46 264.751 204.471 265.699 204.482 266.675 C204.398 275.424 201.217 284.071 194.961 290.388 C187.726 295.599 182.3 297.537 173.448 297.535 C172.688 297.539 171.928 297.542 171.145 297.546 C168.596 297.557 166.048 297.561 163.5 297.565 C161.673 297.571 159.846 297.578 158.019 297.585 C152.018 297.606 146.017 297.616 140.016 297.626 C137.948 297.63 135.88 297.634 133.813 297.638 C124.097 297.657 114.382 297.672 104.666 297.68 C93.46 297.69 82.255 297.716 71.049 297.756 C62.382 297.787 53.715 297.801 45.048 297.805 C39.875 297.807 34.701 297.816 29.528 297.841 C24.657 297.864 19.787 297.869 14.916 297.858 C13.133 297.858 11.351 297.864 9.568 297.878 C-0.789 297.953 -9.806 297.759 -18.59 291.599 C-19.171 290.993 -19.753 290.387 -20.352 289.763 C-20.946 289.172 -21.54 288.582 -22.152 287.974 C-27.623 280.475 -29.783 273.889 -29.681 264.661 C-29.689 263.628 -29.698 262.595 -29.706 261.53 C-29.729 258.092 -29.715 254.656 -29.702 251.218 C-29.71 248.744 -29.721 246.269 -29.733 243.794 C-29.758 237.785 -29.758 231.776 -29.747 225.767 C-29.739 220.879 -29.74 215.992 -29.747 211.104 C-29.748 210.407 -29.749 209.709 -29.75 208.991 C-29.752 207.574 -29.755 206.157 -29.757 204.74 C-29.776 191.471 -29.764 178.202 -29.742 164.933 C-29.724 153.568 -29.735 142.202 -29.766 130.837 C-29.803 117.616 -29.82 104.396 -29.807 91.175 C-29.806 89.763 -29.804 88.351 -29.803 86.939 C-29.802 86.244 -29.802 85.55 -29.801 84.834 C-29.798 79.958 -29.809 75.082 -29.826 70.205 C-29.849 63.631 -29.839 57.056 -29.809 50.482 C-29.803 48.074 -29.807 45.667 -29.822 43.26 C-29.966 17.912 -29.966 17.912 -20.985 8.157 C-14.837 2.178 -8.483 -0.071 0 0 Z M-16.098 15.52 C-16.325 15.849 -16.325 15.849 -17.477 17.513 C-17.713 17.844 -17.713 17.844 -18.91 19.52 C-20.756 22.573 -21.165 25.116 -21.176 28.602 C-21.181 29.466 -21.186 30.329 -21.191 31.219 C-21.192 32.169 -21.192 33.118 -21.193 34.096 C-21.197 35.104 -21.202 36.113 -21.206 37.151 C-21.22 40.546 -21.226 43.941 -21.232 47.335 C-21.24 49.763 -21.248 52.19 -21.257 54.618 C-21.281 61.915 -21.296 69.212 -21.309 76.51 C-21.312 78.572 -21.316 80.634 -21.321 82.695 C-21.346 95.504 -21.368 108.313 -21.38 121.122 C-21.383 124.088 -21.386 127.055 -21.389 130.022 C-21.39 130.759 -21.391 131.496 -21.391 132.256 C-21.404 144.193 -21.437 156.13 -21.479 168.066 C-21.521 180.327 -21.545 192.588 -21.55 204.849 C-21.554 211.73 -21.565 218.612 -21.598 225.493 C-21.629 231.97 -21.635 238.447 -21.623 244.924 C-21.623 247.298 -21.631 249.673 -21.649 252.047 C-21.671 255.295 -21.663 258.542 -21.647 261.79 C-21.661 262.724 -21.675 263.658 -21.689 264.62 C-21.608 271.401 -19.88 276.756 -16.039 282.388 C-10.245 287.833 -5.628 289.536 2.284 289.542 C3.036 289.546 3.788 289.55 4.562 289.555 C7.089 289.568 9.615 289.574 12.141 289.581 C13.95 289.588 15.758 289.597 17.567 289.605 C23.513 289.632 29.46 289.647 35.406 289.661 C37.454 289.666 39.501 289.672 41.549 289.677 C50.067 289.699 58.586 289.718 67.104 289.729 C79.308 289.745 91.513 289.778 103.717 289.835 C112.3 289.874 120.882 289.894 129.465 289.899 C134.59 289.902 139.715 289.914 144.84 289.947 C149.665 289.977 154.489 289.983 159.314 289.972 C161.08 289.971 162.847 289.98 164.614 289.997 C182.302 290.164 182.302 290.164 188.961 284.388 C195.254 277.468 196.258 270.432 196.228 261.343 C196.231 260.839 196.231 260.839 196.242 258.288 C196.255 254.912 196.253 251.536 196.251 248.16 C196.257 245.738 196.264 243.317 196.272 240.896 C196.288 235.002 196.294 229.109 196.295 223.215 C196.296 218.424 196.3 213.632 196.306 208.841 C196.324 195.249 196.333 181.656 196.332 168.064 C196.332 167.698 196.332 167.698 196.332 165.845 C196.332 165.478 196.332 165.478 196.331 163.623 C196.33 151.74 196.35 139.857 196.378 127.974 C196.407 115.765 196.42 103.556 196.419 91.348 C196.418 84.496 196.423 77.645 196.445 70.794 C196.465 64.35 196.465 57.907 196.45 51.464 C196.448 49.1 196.453 46.736 196.465 44.372 C196.48 41.143 196.471 37.915 196.455 34.686 C196.466 33.753 196.476 32.819 196.487 31.857 C196.414 24.946 194.799 19.611 190.18 14.364 C189.613 13.918 189.045 13.472 188.461 13.013 C187.894 12.551 187.327 12.09 186.742 11.614 C182.313 8.564 178.764 8.095 173.435 8.114 C172.673 8.108 171.912 8.103 171.127 8.098 C168.574 8.083 166.021 8.082 163.468 8.081 C161.638 8.074 159.808 8.065 157.978 8.056 C153.005 8.034 148.031 8.025 143.058 8.02 C139.95 8.017 136.843 8.01 133.735 8.003 C122.891 7.979 112.047 7.966 101.204 7.962 C91.099 7.959 80.995 7.929 70.891 7.887 C62.214 7.852 53.537 7.837 44.86 7.836 C39.679 7.835 34.498 7.826 29.316 7.798 C24.441 7.772 19.565 7.77 14.69 7.786 C12.903 7.787 11.116 7.781 9.33 7.765 C-1.012 7.678 -8.468 7.616 -16.098 15.52 Z " fill="#0F3E17" transform="translate(168.03904724121094,98.61231994628906)"/>
<path d="M0 0 C1.065 -0.004 2.13 -0.008 3.227 -0.012 C5.473 -0.014 7.719 -0.007 9.964 0.01 C13.395 0.031 16.823 0.01 20.254 -0.016 C22.44 -0.013 24.626 -0.008 26.812 0 C27.835 -0.008 28.857 -0.016 29.91 -0.025 C35.721 0.052 39.437 0.437 43.906 4.531 C48.33 9.542 48.497 13.719 48.438 20.094 C48.439 20.549 48.439 20.549 48.449 22.85 C48.452 24.766 48.444 26.682 48.428 28.599 C48.406 31.522 48.428 34.444 48.453 37.367 C48.45 39.234 48.445 41.102 48.438 42.969 C48.446 43.838 48.454 44.707 48.462 45.602 C48.378 51.063 47.524 54.189 43.906 58.531 C40.197 61.791 37.05 62.648 32.179 62.74 C31.7 62.75 31.7 62.75 29.275 62.798 C24.893 62.856 20.512 62.905 16.129 62.936 C13.821 62.958 11.513 62.992 9.205 63.039 C5.87 63.106 2.538 63.133 -0.797 63.152 C-1.823 63.18 -2.849 63.208 -3.907 63.237 C-8.863 63.223 -12.231 62.977 -16.175 59.805 C-21.366 54.494 -21.411 49.383 -21.43 42.285 C-21.436 41.396 -21.443 40.508 -21.45 39.592 C-21.46 37.717 -21.465 35.842 -21.464 33.967 C-21.469 31.107 -21.505 28.248 -21.543 25.389 C-21.549 23.563 -21.553 21.736 -21.555 19.91 C-21.569 19.06 -21.583 18.21 -21.598 17.334 C-21.557 11.924 -20.802 8.741 -17.094 4.531 C-11.821 -0.298 -6.788 -0.054 0 0 Z " fill="#CFE7D3" transform="translate(289.09375,301.46875)"/>
<path d="M0 0 C1.459 -0.005 2.918 -0.013 4.377 -0.021 C8.33 -0.039 12.282 -0.032 16.235 -0.02 C20.376 -0.01 24.517 -0.019 28.658 -0.025 C35.612 -0.033 42.565 -0.023 49.519 -0.004 C57.552 0.018 65.585 0.011 73.619 -0.011 C80.522 -0.029 87.426 -0.032 94.33 -0.021 C98.45 -0.015 102.571 -0.014 106.691 -0.028 C110.565 -0.039 114.439 -0.031 118.314 -0.008 C119.733 -0.003 121.153 -0.004 122.573 -0.013 C135.86 -0.088 135.86 -0.088 140.736 4.518 C145.404 9.691 145.31 14.33 145.232 20.955 C145.234 21.953 145.235 22.952 145.237 23.98 C145.235 26.085 145.224 28.189 145.203 30.294 C145.174 33.507 145.182 36.718 145.195 39.932 C145.189 41.981 145.181 44.031 145.17 46.08 C145.173 47.036 145.176 47.993 145.179 48.978 C145.088 55.451 144.087 59.799 139.736 64.83 C136.251 67.771 133.118 67.651 128.728 67.678 C127.472 67.688 126.216 67.698 124.922 67.709 C123.527 67.715 122.132 67.721 120.737 67.726 C119.27 67.736 117.804 67.746 116.337 67.756 C111.517 67.787 106.697 67.808 101.877 67.826 C101.467 67.828 101.467 67.828 99.391 67.836 C91.654 67.867 83.917 67.894 76.18 67.911 C66.287 67.932 56.395 67.974 46.502 68.044 C39.544 68.091 32.586 68.116 25.628 68.123 C21.473 68.128 17.319 68.143 13.164 68.183 C9.254 68.219 5.344 68.228 1.433 68.215 C0.001 68.215 -1.431 68.225 -2.863 68.246 C-15.017 68.418 -15.017 68.418 -19.582 64.613 C-24.857 59.103 -24.583 53.456 -24.6 46.178 C-24.606 45.178 -24.613 44.178 -24.62 43.148 C-24.63 41.038 -24.635 38.927 -24.634 36.817 C-24.639 33.595 -24.675 30.374 -24.713 27.152 C-24.719 25.098 -24.723 23.044 -24.725 20.99 C-24.739 20.031 -24.753 19.071 -24.768 18.083 C-24.73 12.401 -24.231 8.907 -20.264 4.518 C-14.449 -0.974 -7.592 -0.047 0 0 Z M-14.105 9.913 C-15.629 12.023 -15.644 13.35 -15.652 15.941 C-15.661 16.832 -15.671 17.723 -15.681 18.641 C-15.674 19.601 -15.668 20.56 -15.662 21.549 C-15.665 22.536 -15.668 23.524 -15.671 24.541 C-15.673 26.629 -15.667 28.717 -15.655 30.805 C-15.639 34.005 -15.655 37.204 -15.674 40.404 C-15.672 42.432 -15.668 44.459 -15.662 46.486 C-15.668 47.446 -15.674 48.405 -15.681 49.394 C-15.671 50.285 -15.662 51.176 -15.652 52.094 C-15.649 52.877 -15.647 53.661 -15.645 54.469 C-15.147 57.147 -14.43 57.876 -12.264 59.518 C-9.638 59.895 -9.638 59.895 -6.418 59.899 C-5.808 59.903 -5.808 59.903 -2.722 59.924 C-1.368 59.918 -0.014 59.912 1.34 59.906 C2.764 59.91 4.188 59.915 5.612 59.922 C9.482 59.935 13.352 59.93 17.221 59.921 C21.268 59.913 25.314 59.92 29.361 59.925 C36.157 59.93 42.953 59.923 49.749 59.909 C57.61 59.892 65.471 59.898 73.332 59.914 C80.077 59.928 86.821 59.93 93.566 59.922 C97.597 59.917 101.627 59.917 105.657 59.926 C109.446 59.935 113.235 59.929 117.024 59.912 C118.416 59.908 119.808 59.909 121.2 59.916 C123.097 59.924 124.994 59.912 126.891 59.899 C127.954 59.897 129.016 59.896 130.111 59.895 C132.736 59.518 132.736 59.518 134.578 58.122 C136.102 56.012 136.117 54.685 136.125 52.094 C136.129 51.648 136.129 51.648 136.153 49.394 C136.147 48.434 136.141 47.475 136.135 46.486 C136.138 45.499 136.141 44.511 136.143 43.494 C136.146 41.406 136.14 39.318 136.127 37.23 C136.111 34.03 136.127 30.831 136.146 27.631 C136.145 25.604 136.141 23.576 136.135 21.549 C136.138 21.069 136.138 21.069 136.153 18.641 C136.144 17.75 136.134 16.859 136.125 15.941 C136.123 15.55 136.123 15.55 136.117 13.567 C135.619 10.888 134.902 10.159 132.736 8.518 C130.111 8.14 130.111 8.14 126.891 8.137 C125.671 8.128 124.451 8.12 123.195 8.111 C121.841 8.117 120.487 8.123 119.133 8.129 C117.709 8.125 116.285 8.12 114.86 8.113 C110.991 8.1 107.121 8.105 103.251 8.115 C99.205 8.122 95.158 8.115 91.112 8.11 C84.316 8.105 77.52 8.112 70.724 8.126 C62.863 8.143 55.002 8.138 47.141 8.121 C40.396 8.107 33.651 8.105 26.906 8.113 C22.876 8.118 18.846 8.119 14.815 8.109 C11.026 8.1 7.238 8.106 3.449 8.123 C2.057 8.127 0.665 8.126 -0.727 8.12 C-2.624 8.111 -4.521 8.123 -6.418 8.137 C-7.481 8.138 -8.544 8.139 -9.638 8.14 C-12.264 8.518 -12.264 8.518 -14.105 9.913 Z " fill="#0F3E17" transform="translate(195.263671875,130.482421875)"/>
<path d="M0 0 C1.005 -0.01 2.009 -0.019 3.045 -0.029 C4.129 -0.028 5.213 -0.027 6.331 -0.026 C7.446 -0.03 8.562 -0.035 9.712 -0.039 C12.074 -0.045 14.436 -0.045 16.798 -0.041 C20.411 -0.038 24.023 -0.061 27.635 -0.087 C29.93 -0.089 32.224 -0.09 34.518 -0.089 C35.598 -0.098 36.679 -0.107 37.792 -0.117 C47.408 -0.057 47.408 -0.057 51.057 3.275 C55.465 8.287 55.648 12.441 55.588 18.802 C55.59 19.256 55.59 19.256 55.6 21.551 C55.603 23.463 55.595 25.375 55.579 27.287 C55.557 30.2 55.578 33.11 55.604 36.023 C55.601 37.887 55.596 39.751 55.588 41.615 C55.596 42.478 55.605 43.342 55.613 44.232 C55.523 50.067 54.699 53.629 51.057 58.275 C45.418 62.644 39.391 62.89 32.495 62.876 C31.999 62.881 31.999 62.881 29.492 62.902 C27.408 62.914 25.324 62.915 23.24 62.906 C20.066 62.9 16.895 62.947 13.721 62.997 C11.687 63.002 9.653 63.003 7.62 63.001 C6.68 63.02 5.74 63.038 4.772 63.057 C-2.081 62.962 -6.091 61.125 -10.943 56.275 C-14.638 51.954 -14.425 47.541 -14.447 42.099 C-14.457 41.215 -14.467 40.331 -14.477 39.42 C-14.492 37.553 -14.499 35.687 -14.499 33.82 C-14.505 30.981 -14.56 28.146 -14.617 25.308 C-14.626 23.488 -14.631 21.669 -14.634 19.849 C-14.656 19.009 -14.677 18.169 -14.7 17.304 C-14.625 10.815 -12.478 6.889 -7.943 2.275 C-4.691 0.107 -3.761 0.02 0 0 Z M-4.943 11.275 C-5.241 14.252 -5.363 17.016 -5.341 19.993 C-5.344 20.848 -5.347 21.702 -5.35 22.582 C-5.352 24.388 -5.347 26.193 -5.334 27.999 C-5.318 30.764 -5.334 33.529 -5.353 36.294 C-5.351 38.048 -5.347 39.802 -5.341 41.556 C-5.347 42.384 -5.353 43.212 -5.36 44.066 C-5.289 49.798 -5.289 49.798 -3.694 51.991 C-1.491 53.606 -0.251 53.66 2.465 53.679 C2.909 53.685 2.909 53.685 5.155 53.717 C6.112 53.714 7.068 53.711 8.053 53.708 C9.038 53.713 10.023 53.719 11.038 53.724 C13.122 53.731 15.206 53.729 17.29 53.721 C20.479 53.712 23.667 53.741 26.856 53.773 C28.88 53.774 30.904 53.774 32.928 53.771 C33.882 53.782 34.837 53.793 35.82 53.805 C39.68 53.764 42.282 53.725 45.657 51.765 C47.653 48.215 47.63 44.898 47.588 40.931 C47.592 40.125 47.596 39.319 47.6 38.488 C47.603 36.787 47.595 35.086 47.579 33.385 C47.557 30.783 47.578 28.185 47.604 25.583 C47.601 23.928 47.596 22.273 47.588 20.618 C47.596 19.842 47.605 19.066 47.613 18.266 C47.556 15.01 47.263 12.642 45.657 9.784 C41.556 7.403 37.588 7.724 32.928 7.779 C31.942 7.777 30.956 7.776 29.94 7.774 C27.858 7.776 25.776 7.787 23.694 7.808 C20.503 7.837 17.313 7.829 14.122 7.816 C12.099 7.822 10.076 7.83 8.053 7.841 C7.097 7.838 6.141 7.835 5.155 7.832 C4.711 7.839 4.711 7.839 2.465 7.871 C1.684 7.876 0.904 7.881 0.099 7.887 C-2.509 8.382 -3.391 9.141 -4.943 11.275 Z " fill="#0F3E17" transform="translate(186.94287109375,222.725341796875)"/>
<path d="M0 0 C1.086 -0.004 2.172 -0.008 3.291 -0.012 C5.586 -0.014 7.881 -0.007 10.175 0.01 C13.676 0.031 17.175 0.01 20.676 -0.016 C22.909 -0.013 25.142 -0.008 27.375 0 C28.417 -0.008 29.459 -0.016 30.532 -0.025 C36.82 0.056 40.774 0.661 45.82 4.531 C49.642 8.844 49.257 13.52 49.219 18.996 C49.222 19.907 49.224 20.818 49.227 21.756 C49.229 23.679 49.224 25.601 49.211 27.523 C49.195 30.455 49.211 33.386 49.23 36.318 C49.228 38.19 49.225 40.062 49.219 41.934 C49.225 42.806 49.231 43.678 49.237 44.576 C49.179 49.628 48.665 53.178 45.82 57.531 C41.406 60.934 37.933 62.633 32.384 62.724 C31.489 62.74 30.594 62.756 29.672 62.773 C25.575 62.817 21.478 62.858 17.38 62.881 C15.224 62.898 13.068 62.925 10.912 62.963 C7.794 63.018 4.677 63.04 1.559 63.055 C0.603 63.077 -0.352 63.1 -1.337 63.123 C-7.788 63.103 -12.33 61.944 -17.18 57.531 C-20.691 52.675 -20.633 47.963 -20.613 42.188 C-20.619 41.3 -20.624 40.413 -20.629 39.499 C-20.636 37.629 -20.634 35.76 -20.626 33.891 C-20.617 31.04 -20.646 28.191 -20.678 25.34 C-20.679 23.518 -20.679 21.697 -20.676 19.875 C-20.687 19.028 -20.698 18.181 -20.71 17.308 C-20.631 10.587 -18.562 7.251 -14.128 2.189 C-9.557 -0.381 -5.159 -0.04 0 0 Z M-10.78 10.043 C-12.778 13.595 -12.733 16.907 -12.676 20.875 C-12.677 21.681 -12.679 22.487 -12.68 23.318 C-12.679 25.019 -12.667 26.72 -12.646 28.421 C-12.617 31.022 -12.626 33.621 -12.639 36.223 C-12.632 37.878 -12.624 39.533 -12.613 41.188 C-12.616 41.964 -12.619 42.74 -12.622 43.539 C-12.546 47.885 -12.251 50.403 -9.18 53.531 C-7.055 54.039 -7.055 54.039 -4.572 54.049 C-3.641 54.061 -2.71 54.074 -1.751 54.087 C-0.748 54.079 0.255 54.071 1.289 54.062 C2.321 54.066 3.353 54.07 4.416 54.074 C6.598 54.077 8.78 54.069 10.962 54.053 C14.308 54.031 17.651 54.053 20.996 54.078 C23.115 54.075 25.233 54.07 27.352 54.062 C27.853 54.067 27.853 54.067 30.391 54.087 C31.323 54.074 32.254 54.062 33.213 54.049 C34.032 54.046 34.851 54.042 35.695 54.039 C37.82 53.531 37.82 53.531 39.583 51.736 C41.475 48.365 41.268 44.954 41.254 41.188 C41.259 40.381 41.264 39.575 41.27 38.745 C41.276 37.044 41.275 35.342 41.266 33.641 C41.258 31.04 41.287 28.441 41.318 25.84 C41.32 24.185 41.319 22.53 41.316 20.875 C41.328 20.099 41.339 19.323 41.35 18.523 C41.308 15.263 41.03 12.903 39.42 10.043 C35.329 7.664 31.377 7.96 26.727 8 C26.235 7.998 26.235 7.998 23.746 7.988 C21.668 7.986 19.59 7.993 17.512 8.01 C14.332 8.031 11.153 8.01 7.973 7.984 C5.953 7.987 3.934 7.992 1.914 8 C0.963 7.992 0.012 7.984 -0.968 7.975 C-4.819 8.03 -7.414 8.086 -10.78 10.043 Z " fill="#0F3E17" transform="translate(288.1796875,222.46875)"/>
<path d="M0 0 C0.921 -0.01 1.843 -0.019 2.792 -0.029 C3.786 -0.033 4.78 -0.038 5.803 -0.042 C6.828 -0.048 7.853 -0.053 8.909 -0.059 C11.078 -0.069 13.248 -0.075 15.417 -0.079 C18.729 -0.089 22.041 -0.12 25.352 -0.151 C27.461 -0.158 29.57 -0.163 31.678 -0.167 C32.666 -0.179 33.654 -0.192 34.671 -0.204 C40.017 -0.187 43.843 0.112 48.44 3.161 C51.769 6.849 53.543 9.282 53.649 14.224 C53.668 15.063 53.688 15.901 53.707 16.764 C53.765 20.609 53.814 24.454 53.845 28.299 C53.867 30.323 53.901 32.348 53.948 34.371 C54.015 37.295 54.042 40.217 54.061 43.142 C54.089 44.04 54.117 44.938 54.146 45.863 C54.127 51.544 53.119 54.769 49.044 58.823 C43.928 63.09 38.066 62.498 31.698 62.532 C31.177 62.537 31.177 62.537 28.541 62.56 C26.341 62.574 24.14 62.583 21.94 62.587 C18.584 62.599 15.229 62.648 11.874 62.698 C9.732 62.708 7.59 62.715 5.448 62.72 C4.949 62.729 4.949 62.729 2.423 62.779 C-3.083 62.743 -6.91 62.251 -11.191 58.618 C-15.878 53.632 -16.016 48.501 -15.993 42.036 C-15.999 41.171 -16.004 40.306 -16.009 39.415 C-16.016 37.592 -16.014 35.77 -16.006 33.948 C-15.997 31.169 -16.026 28.393 -16.058 25.614 C-16.059 23.838 -16.059 22.062 -16.056 20.286 C-16.062 19.874 -16.062 19.874 -16.09 17.786 C-16.011 11.229 -13.872 7.754 -9.497 2.849 C-6.481 0.222 -3.845 0.032 0 0 Z M-5.128 9.659 C-7.193 13.268 -7.132 16.677 -7.091 20.724 C-7.095 21.552 -7.099 22.38 -7.103 23.234 C-7.105 24.982 -7.098 26.73 -7.081 28.479 C-7.06 31.152 -7.081 33.823 -7.107 36.497 C-7.104 38.198 -7.099 39.898 -7.091 41.599 C-7.099 42.397 -7.107 43.195 -7.116 44.017 C-7.06 47.332 -6.788 49.757 -5.144 52.663 C-1.113 55 2.734 54.732 7.315 54.692 C8.277 54.696 9.238 54.7 10.229 54.704 C12.26 54.707 14.29 54.699 16.321 54.683 C19.429 54.661 22.535 54.682 25.643 54.708 C27.617 54.705 29.591 54.7 31.565 54.692 C32.494 54.7 33.424 54.709 34.381 54.717 C38.174 54.662 40.706 54.587 44.022 52.663 C46.067 49.055 46.032 45.639 46.007 41.599 C46.013 40.77 46.019 39.942 46.025 39.089 C46.032 37.34 46.029 35.592 46.017 33.844 C46.003 31.17 46.037 28.499 46.075 25.825 C46.076 24.125 46.074 22.424 46.069 20.724 C46.082 19.926 46.096 19.128 46.109 18.305 C46.048 14.679 45.748 12.561 43.51 9.659 C39.185 7.549 35.443 7.587 30.686 7.63 C29.748 7.626 28.811 7.622 27.844 7.618 C25.867 7.616 23.889 7.623 21.911 7.64 C18.884 7.661 15.86 7.64 12.833 7.614 C10.909 7.617 8.985 7.622 7.061 7.63 C6.157 7.622 5.253 7.614 4.321 7.605 C0.584 7.661 -1.864 7.755 -5.128 9.659 Z " fill="#0F3E17" transform="translate(188.559814453125,301.8388671875)"/>
<path d="M0 0 C1.065 -0.004 2.13 -0.008 3.227 -0.012 C5.473 -0.014 7.719 -0.007 9.964 0.01 C13.395 0.031 16.823 0.01 20.254 -0.016 C22.44 -0.013 24.626 -0.008 26.812 0 C27.835 -0.008 28.857 -0.016 29.91 -0.025 C35.721 0.052 39.437 0.437 43.906 4.531 C48.33 9.542 48.497 13.719 48.438 20.094 C48.439 20.549 48.439 20.549 48.449 22.85 C48.452 24.766 48.444 26.682 48.428 28.599 C48.406 31.522 48.428 34.444 48.453 37.367 C48.45 39.234 48.445 41.102 48.438 42.969 C48.446 43.838 48.454 44.707 48.462 45.602 C48.378 51.063 47.524 54.189 43.906 58.531 C40.197 61.791 37.05 62.648 32.179 62.74 C31.7 62.75 31.7 62.75 29.275 62.798 C24.893 62.856 20.512 62.905 16.129 62.936 C13.821 62.958 11.513 62.992 9.205 63.039 C5.87 63.106 2.538 63.133 -0.797 63.152 C-1.823 63.18 -2.849 63.208 -3.907 63.237 C-8.863 63.223 -12.231 62.977 -16.175 59.805 C-21.366 54.494 -21.411 49.383 -21.43 42.285 C-21.436 41.396 -21.443 40.508 -21.45 39.592 C-21.46 37.717 -21.465 35.842 -21.464 33.967 C-21.469 31.107 -21.505 28.248 -21.543 25.389 C-21.549 23.563 -21.553 21.736 -21.555 19.91 C-21.569 19.06 -21.583 18.21 -21.598 17.334 C-21.557 11.924 -20.802 8.741 -17.094 4.531 C-11.821 -0.298 -6.788 -0.054 0 0 Z M-13.094 12.531 C-13.589 15.576 -13.773 18.053 -13.723 21.094 C-13.725 21.922 -13.727 22.75 -13.73 23.604 C-13.729 25.352 -13.716 27.1 -13.691 28.849 C-13.656 31.523 -13.67 34.193 -13.689 36.867 C-13.683 38.568 -13.673 40.268 -13.66 41.969 C-13.665 42.767 -13.67 43.565 -13.675 44.387 C-13.605 47.691 -13.318 50.132 -11.689 53.033 C-7.599 55.394 -3.643 55.102 1 55.062 C1.492 55.064 1.492 55.064 3.981 55.074 C6.059 55.077 8.137 55.069 10.214 55.053 C13.395 55.031 16.573 55.053 19.754 55.078 C21.773 55.075 23.793 55.07 25.812 55.062 C26.288 55.067 26.288 55.067 28.695 55.087 C32.535 55.032 35.14 54.974 38.502 53.033 C40.529 49.423 40.498 46.004 40.473 41.969 C40.479 41.14 40.485 40.312 40.491 39.459 C40.499 37.71 40.495 35.962 40.483 34.214 C40.469 31.54 40.503 28.869 40.541 26.195 C40.542 24.495 40.54 22.794 40.535 21.094 C40.548 20.296 40.562 19.498 40.575 18.676 C40.515 15.047 40.215 12.931 37.974 10.029 C33.659 7.922 29.933 7.957 25.188 8 C24.252 7.996 23.317 7.992 22.353 7.988 C20.379 7.986 18.406 7.993 16.432 8.01 C13.416 8.031 10.403 8.01 7.387 7.984 C5.466 7.987 3.546 7.992 1.625 8 C1.175 7.996 1.175 7.996 -1.099 7.975 C-6.217 8.052 -9.762 8.216 -13.094 12.531 Z " fill="#0F3E17" transform="translate(289.09375,301.46875)"/>
<path d="M0 0 C0.374 -0.002 0.374 -0.002 2.268 -0.01 C3.854 -0.015 5.441 -0.017 7.027 -0.017 C9.459 -0.02 11.89 -0.038 14.322 -0.057 C15.861 -0.06 17.399 -0.062 18.938 -0.062 C19.303 -0.066 19.303 -0.066 21.15 -0.084 C26.306 -0.061 26.306 -0.061 28.535 2.168 C27.98 6.724 27.98 6.724 26.535 8.168 C24.026 8.269 21.545 8.308 19.035 8.301 C18.284 8.302 17.533 8.303 16.76 8.304 C15.169 8.304 13.579 8.303 11.988 8.298 C9.546 8.293 7.103 8.298 4.66 8.305 C3.118 8.304 1.577 8.303 0.035 8.301 C-0.7 8.303 -1.436 8.305 -2.193 8.307 C-7.35 8.283 -7.35 8.283 -8.465 7.168 C-8.59 4.168 -8.59 4.168 -8.465 1.168 C-6.497 -0.799 -2.689 0.004 0 0 Z " fill="#0F3E17" transform="translate(285.46484375,159.83203125)"/>
<path d="M0 0 C0.949 0.006 1.898 0.011 2.875 0.017 C5.902 0.04 8.927 0.09 11.953 0.141 C14.006 0.161 16.06 0.179 18.113 0.195 C23.144 0.239 28.173 0.308 33.203 0.391 C33.203 0.721 33.203 1.051 33.203 1.391 C20.993 1.391 8.783 1.391 -3.797 1.391 C-3.797 8.651 -3.797 15.911 -3.797 23.391 C-6.767 23.391 -9.737 23.391 -12.797 23.391 C-13.073 20.308 -13.318 17.227 -13.547 14.141 C-13.628 13.268 -13.709 12.395 -13.793 11.496 C-13.851 10.652 -13.909 9.807 -13.969 8.938 C-14.032 8.162 -14.094 7.387 -14.159 6.589 C-13.797 4.391 -13.797 4.391 -12.398 2.131 C-8.411 -0.537 -4.691 -0.105 0 0 Z " fill="#CFE7D3" transform="translate(195.796875,309.609375)"/>
<path d="M0 0 C1.267 -0.012 2.533 -0.024 3.838 -0.037 C5.045 -0.039 6.252 -0.041 7.496 -0.043 C8.053 -0.045 8.053 -0.045 10.873 -0.055 C13.562 0.188 13.562 0.188 15.562 2.188 C15.027 5.723 15.027 5.723 13.562 7.188 C11.575 7.287 9.584 7.318 7.594 7.32 C6.383 7.322 5.173 7.323 3.926 7.324 C2.651 7.32 1.376 7.316 0.062 7.312 C-1.212 7.316 -2.487 7.32 -3.801 7.324 C-4.406 7.324 -4.406 7.324 -7.469 7.32 C-8.588 7.319 -9.708 7.318 -10.861 7.317 C-13.438 7.188 -13.438 7.188 -14.438 6.188 C-14.562 3.688 -14.562 3.688 -14.438 1.188 C-11.737 -1.513 -3.641 0.002 0 0 Z " fill="#0F3E17" transform="translate(302.4375,328.8125)"/>
<path d="M0 0 C-0.33 1.32 -0.66 2.64 -1 4 C-4.375 4.125 -4.375 4.125 -8 4 C-8.66 3.34 -9.32 2.68 -10 2 C-8.712 1.47 -7.42 0.951 -6.125 0.438 C-5.406 0.147 -4.686 -0.143 -3.945 -0.441 C-2 -1 -2 -1 0 0 Z " fill="#CFE7D3" transform="translate(359,393)"/>
<path d="M0 0 C0 0.66 0 1.32 0 2 C-1.961 3.389 -3.962 4.726 -6 6 C-6.66 5.67 -7.32 5.34 -8 5 C-2.25 0 -2.25 0 0 0 Z " fill="#0F3E17" transform="translate(278,303)"/>
<path d="M0 0 C0.66 0.33 1.32 0.66 2 1 C1.217 2.172 0.423 3.338 -0.375 4.5 C-0.816 5.15 -1.257 5.799 -1.711 6.469 C-2.136 6.974 -2.562 7.479 -3 8 C-3.66 8 -4.32 8 -5 8 C-3.814 4.625 -2.724 2.353 0 0 Z " fill="#0F3E17" transform="translate(177,133)"/>
</svg>
