<?xml version="1.0" encoding="UTF-8"?>
<svg viewBox="0 0 512 512" version="1.1" xmlns="http://www.w3.org/2000/svg">
<path d="M0 0 C3.994 3.216 5.845 7.22 8 11.75 C8.165 12.089 8.165 12.089 9 13.805 C9.165 14.144 9.165 14.144 10 15.859 C10.343 16.538 10.686 17.216 11.039 17.915 C12 20 12 20 12.651 22.202 C13.488 24.665 14.177 26.127 16 28 C20.544 29.641 25.157 30.177 29.938 30.75 C32.469 31.085 34.999 31.434 37.527 31.797 C38.649 31.934 39.77 32.072 40.926 32.214 C44.516 33.132 46.393 34.387 49 37 C49.784 41.702 49.097 44.475 46.402 48.362 C44.763 50.277 42.976 51.744 41.004 53.312 C29.553 62.615 29.553 62.615 28.554 68.729 C28.689 74.468 30.028 79.849 31.453 85.382 C32.324 89.548 32.577 93.776 32 98 C29.938 101.125 29.938 101.125 27 103 C19.731 104.219 14.537 100.437 8.375 96.938 C6.349 95.788 4.315 94.65 2.273 93.527 C1.381 93.019 0.488 92.511 -0.432 91.988 C-3.531 90.796 -4.873 90.97 -8 92 C-10.384 93.123 -10.384 93.123 -12.836 94.504 C-13.736 94.997 -14.635 95.49 -15.562 95.998 C-17.433 97.039 -19.3 98.085 -21.164 99.139 C-26.353 101.967 -30.051 103.918 -36 103 C-38.438 101.062 -38.438 101.062 -40 98 C-40.651 91.837 -39.637 85.792 -38.5 79.75 C-38.215 78.204 -37.934 76.657 -37.656 75.109 C-37.531 74.439 -37.405 73.768 -37.275 73.077 C-36.442 66.789 -36.442 66.789 -38.298 64.167 C-38.894 63.609 -39.491 63.051 -40.105 62.477 C-40.76 61.847 -41.414 61.218 -42.088 60.57 C-42.434 60.249 -42.434 60.249 -44.188 58.625 C-56.369 47.154 -56.369 47.154 -57.625 40.875 C-56.739 36.801 -55.354 35.464 -52 33 C-47.521 31.496 -43.062 30.908 -38.352 30.957 C-33.216 30.89 -28.497 30.695 -24 28 C-19.179 22.01 -16.821 14.627 -14.13 7.517 C-11.194 0.978 -7.061 -1.836 0 0 Z " fill="#CFE7D3" transform="translate(334,255)"/>
<path d="M0 0 C9.105 7.348 12.709 16.491 14.25 27.777 C14.377 28.695 14.503 29.612 14.634 30.557 C22.235 87.665 22.235 87.665 10.625 103.09 C9.34 104.554 8.048 106.012 6.75 107.465 C5.91 108.531 5.077 109.603 4.25 110.68 C3.375 111.796 2.5 112.912 1.625 114.027 C1.222 114.544 1.222 114.544 -0.82 117.156 C-3.25 119.465 -3.25 119.465 -5.93 119.93 C-8.25 119.465 -8.25 119.465 -10.25 117.465 C-10.148 112.551 -7.274 109.946 -4 106.652 C6.547 95.582 9.115 87.069 9 71.777 C8.997 71.131 8.997 71.131 8.979 67.858 C8.826 53.519 7.506 39.68 4.875 25.59 C4.726 24.763 4.577 23.936 4.423 23.084 C2.829 15.204 -0.662 10.208 -7.25 5.465 C-20.216 0.122 -36.823 1.259 -50.562 1.152 C-51.783 1.135 -53.004 1.117 -54.262 1.099 C-68.332 1.109 -75.984 5.271 -85.941 14.926 C-87.57 16.559 -89.194 18.197 -90.812 19.84 C-91.624 20.652 -92.435 21.464 -93.271 22.301 C-97.582 26.643 -101.72 31.073 -105.711 35.709 C-107.784 38.074 -109.997 40.272 -112.25 42.465 C-115.857 46.028 -119.245 49.684 -122.539 53.535 C-124.996 56.306 -127.644 58.868 -130.281 61.465 C-132.19 63.404 -133.977 65.402 -135.75 67.465 C-138.696 70.893 -141.812 74.076 -145.062 77.215 C-147.618 79.843 -149.999 82.597 -152.403 85.364 C-155.259 88.612 -158.22 91.757 -161.188 94.902 C-161.506 95.241 -161.506 95.241 -163.117 96.957 C-166.577 100.639 -170.05 104.308 -173.535 107.965 C-174.24 108.707 -174.944 109.449 -175.67 110.213 C-177.012 111.626 -178.358 113.035 -179.707 114.441 C-193.282 128.747 -193.282 128.747 -193.625 137.152 C-193.674 137.961 -193.723 138.769 -193.773 139.602 C-192.11 148.703 -183.953 155.16 -177.631 161.365 C-175.945 163.02 -174.269 164.686 -172.596 166.354 C-171.506 167.434 -170.415 168.514 -169.324 169.594 C-168.834 170.079 -168.344 170.565 -167.84 171.065 C-165.098 173.753 -162.287 176.319 -159.38 178.826 C-155.092 182.549 -151.091 186.513 -147.102 190.551 C-146.363 191.293 -145.624 192.036 -144.863 192.8 C-142.531 195.144 -140.203 197.492 -137.875 199.84 C-134.787 202.955 -131.695 206.066 -128.602 209.176 C-127.893 209.892 -127.185 210.609 -126.455 211.347 C-125.8 212.005 -125.146 212.663 -124.471 213.341 C-123.896 213.922 -123.32 214.503 -122.727 215.101 C-121.25 216.465 -121.25 216.465 -119.25 217.465 C-119.25 218.125 -119.25 218.785 -119.25 219.465 C-118.507 219.754 -117.765 220.042 -117 220.34 C-114.25 221.465 -114.25 221.465 -112.336 222.508 C-107.867 224.558 -103.286 224.132 -98.688 222.625 C-92.305 219.735 -88.553 215.866 -84.25 210.465 C-79.936 205.443 -79.936 205.443 -77.25 203.465 C-74.312 203.527 -74.312 203.527 -72.25 204.465 C-71.312 206.527 -71.312 206.527 -71.25 209.465 C-72.738 211.387 -74.416 212.928 -76.211 214.566 C-78.272 216.485 -80.06 218.502 -81.875 220.652 C-87.589 227.198 -93.806 231.352 -102.512 232.855 C-110.914 233.278 -118.6 230.275 -124.875 224.777 C-126.693 223.027 -128.477 221.259 -130.25 219.465 C-131.625 218.091 -133 216.717 -134.375 215.344 C-136.595 213.126 -138.81 210.906 -141.01 208.669 C-144.192 205.446 -147.378 202.307 -150.836 199.379 C-158.403 192.866 -165.25 185.516 -172.269 178.426 C-186.074 164.493 -186.074 164.493 -191.704 159.853 C-198.473 153.775 -202.23 146.24 -202.812 137.215 C-202.513 128.209 -198.073 120.954 -191.812 114.715 C-191.113 114.081 -190.413 113.446 -189.691 112.793 C-186.978 110.205 -184.576 107.441 -182.126 104.606 C-179.032 101.075 -175.794 97.683 -172.562 94.277 C-167.682 89.113 -162.814 83.941 -158 78.715 C-157.524 78.199 -157.049 77.683 -156.559 77.151 C-154.6 75.023 -152.642 72.893 -150.687 70.761 C-145.492 65.097 -140.309 59.449 -134.82 54.066 C-133.071 52.282 -131.443 50.421 -129.812 48.527 C-127.394 45.719 -124.891 43.065 -122.25 40.465 C-119.753 38.006 -117.389 35.514 -115.125 32.84 C-111.127 28.179 -106.739 23.925 -102.376 19.612 C-99.271 16.53 -96.261 13.436 -93.438 10.09 C-74.736 -11.69 -24.402 -16.649 0 0 Z " fill="#0F3E17" transform="translate(342.25,117.53515625)"/>
<path d="M0 0 C3.994 3.216 5.845 7.22 8 11.75 C8.165 12.089 8.165 12.089 9 13.805 C9.165 14.144 9.165 14.144 10 15.859 C10.343 16.538 10.686 17.216 11.039 17.915 C12 20 12 20 12.651 22.202 C13.488 24.665 14.177 26.127 16 28 C20.544 29.641 25.157 30.177 29.938 30.75 C32.469 31.085 34.999 31.434 37.527 31.797 C38.649 31.934 39.77 32.072 40.926 32.214 C44.516 33.132 46.393 34.387 49 37 C49.784 41.702 49.097 44.475 46.402 48.362 C44.763 50.277 42.976 51.744 41.004 53.312 C29.553 62.615 29.553 62.615 28.554 68.729 C28.689 74.468 30.028 79.849 31.453 85.382 C32.324 89.548 32.577 93.776 32 98 C29.938 101.125 29.938 101.125 27 103 C19.731 104.219 14.537 100.437 8.375 96.938 C6.349 95.788 4.315 94.65 2.273 93.527 C1.381 93.019 0.488 92.511 -0.432 91.988 C-3.531 90.796 -4.873 90.97 -8 92 C-10.384 93.123 -10.384 93.123 -12.836 94.504 C-13.736 94.997 -14.635 95.49 -15.562 95.998 C-17.433 97.039 -19.3 98.085 -21.164 99.139 C-26.353 101.967 -30.051 103.918 -36 103 C-38.438 101.062 -38.438 101.062 -40 98 C-40.651 91.837 -39.637 85.792 -38.5 79.75 C-38.215 78.204 -37.934 76.657 -37.656 75.109 C-37.531 74.439 -37.405 73.768 -37.275 73.077 C-36.442 66.789 -36.442 66.789 -38.298 64.167 C-38.894 63.609 -39.491 63.051 -40.105 62.477 C-40.76 61.847 -41.414 61.218 -42.088 60.57 C-42.434 60.249 -42.434 60.249 -44.188 58.625 C-56.369 47.154 -56.369 47.154 -57.625 40.875 C-56.739 36.801 -55.354 35.464 -52 33 C-47.521 31.496 -43.062 30.908 -38.352 30.957 C-33.216 30.89 -28.497 30.695 -24 28 C-19.179 22.01 -16.821 14.627 -14.13 7.517 C-11.194 0.978 -7.061 -1.836 0 0 Z M-5 7 C-6.588 9.977 -8.17 12.957 -9.75 15.938 C-9.972 16.353 -9.972 16.353 -11.094 18.455 C-11.532 19.283 -11.97 20.112 -12.422 20.965 C-12.874 21.797 -13.326 22.63 -13.792 23.488 C-15 26 -15 26 -15.685 28.53 C-16.466 31.256 -17.094 32.882 -19 35 C-23.97 36.866 -29.015 37.455 -34.25 38.062 C-35.678 38.259 -37.105 38.458 -38.531 38.662 C-42.016 39.151 -45.505 39.589 -49 40 C-48.472 43.977 -46.69 45.491 -43.711 48.055 C-28.684 61.544 -28.684 61.544 -27.895 66.977 C-28.193 70.562 -28.891 73.583 -30 77 C-30.378 78.975 -30.734 80.954 -31.062 82.938 C-31.237 83.809 -31.411 84.68 -31.59 85.578 C-32.132 88.782 -32.144 91.76 -32 95 C-28.82 94.329 -26.17 93.207 -23.27 91.75 C-22.385 91.307 -21.5 90.863 -20.588 90.406 C-20.13 90.174 -20.13 90.174 -17.812 89 C-17.349 88.768 -17.349 88.768 -15.002 87.594 C-8.14 84.14 -8.14 84.14 -7 83 C-0.188 83.212 4.892 86.309 10.75 89.562 C12.617 90.59 14.486 91.613 16.359 92.629 C17.179 93.083 17.998 93.538 18.843 94.006 C21 95 21 95 24 95 C24.347 87.717 23.462 81.096 22.067 73.979 C20.58 66.296 20.58 66.296 21 63 C22.928 60.505 22.928 60.505 25.594 57.918 C26.06 57.459 26.526 57 27.006 56.527 C28.493 55.068 29.996 53.628 31.5 52.188 C32.513 51.2 33.525 50.211 34.535 49.221 C37.011 46.8 39.501 44.396 42 42 C41.67 41.34 41.34 40.68 41 40 C38.885 39.679 36.754 39.47 34.621 39.309 C13.718 37.22 13.718 37.22 8.895 33.281 C6.002 29.293 4.732 24.852 3.586 20.109 C2.706 16.942 1.147 14.265 -0.5 11.438 C-0.985 10.57 -1.469 9.702 -1.969 8.809 C-2.309 8.212 -2.649 7.615 -3 7 C-3.66 7 -4.32 7 -5 7 Z " fill="#0F3E17" transform="translate(334,255)"/>
<path d="M0 0 C4.324 2.756 7.923 6.822 10.219 11.414 C11.207 25.179 11.207 25.179 7.219 30.414 C1.698 35.923 -2.01 38.544 -9.969 38.852 C-15.62 38.795 -18.933 38.054 -23.125 34.234 C-27.733 29.17 -30.07 25.433 -30.406 18.414 C-30.128 12.592 -28.76 8.688 -24.781 4.414 C-16.939 -2.558 -9.845 -4.687 0 0 Z " fill="#0F3E17" transform="translate(315.78125,149.5859375)"/>
<path d="M0 0 C3.198 0.304 3.971 0.987 6.144 3.287 C6.768 3.933 7.393 4.578 8.036 5.242 C8.355 5.584 8.355 5.584 9.968 7.315 C17.34 15.051 17.34 15.051 21.257 18.397 C27.027 23.359 32.435 28.698 37.85 34.041 C39.105 35.275 40.367 36.503 41.635 37.724 C43.48 39.503 45.306 41.301 47.128 43.104 C47.699 43.647 48.269 44.189 48.857 44.749 C50.417 46.317 50.417 46.317 52.656 49.252 C52.501 52.136 52.501 52.136 51.656 54.252 C49.577 55.119 49.577 55.119 46.656 55.252 C44.128 53.392 42.104 51.587 39.906 49.377 C39.215 48.703 38.524 48.028 37.812 47.333 C36.136 45.689 34.469 44.037 32.806 42.38 C29.711 39.297 26.579 36.252 23.448 33.206 C20.417 30.252 17.398 27.285 14.383 24.315 C12.856 22.814 11.325 21.317 9.791 19.824 C7.607 17.694 5.44 15.548 3.277 13.397 C2.609 12.751 1.941 12.106 1.252 11.441 C-3.231 6.937 -3.231 6.937 -3.821 3.368 C-3.161 0.439 -3.019 0.325 0 0 Z " fill="#0F3E17" transform="translate(228.344482421875,207.747802734375)"/>
<path d="M0 0 C6.145 0.181 10.03 5.024 14.106 9.112 C17.014 12.025 19.959 14.899 22.903 17.775 C26.054 20.859 29.193 23.957 32.331 27.056 C33.99 28.69 35.653 30.319 37.321 31.944 C39.732 34.295 42.127 36.661 44.52 39.031 C44.894 39.393 44.894 39.393 46.792 41.225 C47.477 41.91 48.161 42.594 48.866 43.299 C49.473 43.894 50.08 44.49 50.705 45.104 C52.373 47.545 52.321 49.102 52 52 C51 53 51 53 48.89 53.466 C44.325 52.73 41.956 49.722 38.754 46.539 C38.058 45.866 37.362 45.193 36.645 44.5 C35.169 43.07 33.698 41.633 32.232 40.192 C30.062 38.061 27.876 35.95 25.683 33.843 C22.119 30.411 18.585 26.95 15.066 23.471 C13.623 22.05 12.173 20.635 10.718 19.225 C8.577 17.151 6.457 15.059 4.34 12.961 C3.685 12.334 3.03 11.707 2.355 11.061 C0.733 9.431 -0.731 7.917 -2 6 C-1.961 3.314 -1.919 1.919 0 0 Z " fill="#0F3E17" transform="translate(199,237)"/>
<path d="M0 0 C2.431 1.584 4.296 3.385 6.312 5.469 C7.019 6.193 7.725 6.918 8.453 7.664 C8.719 7.941 8.719 7.941 10.062 9.344 C7.7 11.87 6.398 13.232 3.062 14.344 C2.436 13.706 1.81 13.068 1.164 12.41 C0.347 11.584 -0.47 10.758 -1.312 9.906 C-2.125 9.083 -2.937 8.259 -3.773 7.41 C-5.938 5.344 -5.938 5.344 -7.938 4.344 C-7.938 3.684 -7.938 3.024 -7.938 2.344 C-2.524 -0.855 -2.524 -0.855 0 0 Z " fill="#0F3E17" transform="translate(162.9375,277.65625)"/>
<path d="M0 0 C2.642 1.321 4.183 2.664 6 5 C6.312 7.688 6.312 7.688 6 10 C5 11 5 11 2.812 11.5 C-1.59 10.717 -3.427 7.466 -6 4 C-2.606 0 -2.606 0 0 0 Z " fill="#0F3E17" transform="translate(245,279)"/>
<path d="M0 0 C4.317 0.35 6.193 1.777 9 5 C7.68 6.65 6.36 8.3 5 10 C1.625 8.814 -0.647 7.724 -3 5 C-1.125 1.125 -1.125 1.125 0 0 Z " fill="#0F3E17" transform="translate(293,176)"/>
<path d="M0 0 C1.132 0.908 2.255 1.827 3.375 2.75 C4.001 3.26 4.628 3.771 5.273 4.297 C7.083 6.082 8.001 7.679 9 10 C6 10 6 10 4.176 8.469 C3.561 7.819 2.946 7.169 2.312 6.5 C1.69 5.85 1.067 5.201 0.426 4.531 C-0.045 4.026 -0.515 3.521 -1 3 C-0.67 2.01 -0.34 1.02 0 0 Z " fill="#CFE7D3" transform="translate(298,307)"/>
<path d="M0 0 C0.33 0.99 0.66 1.98 1 3 C-2.3 5.97 -5.6 8.94 -9 12 C-9.66 11.67 -10.32 11.34 -11 11 C-7.37 7.37 -3.74 3.74 0 0 Z " fill="#CFE7D3" transform="translate(254,134)"/>
<path d="M0 0 C0.66 0.33 1.32 0.66 2 1 C-0.681 4.574 -3.426 7.319 -7 10 C-7.66 9.67 -8.32 9.34 -9 9 C-6.03 6.03 -3.06 3.06 0 0 Z " fill="#CFE7D3" transform="translate(203,188)"/>
<path d="M0 0 C0.99 0.33 1.98 0.66 3 1 C1.68 2.155 1.68 2.155 -5 8 C-5.66 7.67 -6.32 7.34 -7 7 C-4.69 4.69 -2.38 2.38 0 0 Z " fill="#CFE7D3" transform="translate(216,174)"/>
<path d="M0 0 C1.532 4.084 0.631 7.795 0 12 C-0.33 12 -0.66 12 -1 12 C-1.222 10.377 -1.427 8.751 -1.625 7.125 C-1.741 6.22 -1.857 5.315 -1.977 4.383 C-1.984 3.596 -1.992 2.81 -2 2 C-1.34 1.34 -0.68 0.68 0 0 Z " fill="#CFE7D3" transform="translate(364,319)"/>
<path d="M0 0 C0.33 0 0.66 0 1 0 C1 3.3 1 6.6 1 10 C0.01 10 -0.98 10 -2 10 C-1.463 6.623 -0.889 3.303 0 0 Z " fill="#CFE7D3" transform="translate(357,340)"/>
<path d="M0 0 C1.675 0.286 3.344 0.618 5 1 C3.68 1.33 2.36 1.66 1 2 C0.67 3.65 0.34 5.3 0 7 C-0.66 6.67 -1.32 6.34 -2 6 C-1.125 1.125 -1.125 1.125 0 0 Z " fill="#0F3E17" transform="translate(199,237)"/>
</svg>
