<?xml version="1.0" encoding="UTF-8"?>
<svg viewBox="0 0 512 512" version="1.1" xmlns="http://www.w3.org/2000/svg">
<path d="M0 0 C13.009 8.939 22.209 21.702 25.734 37.172 C27.548 54.132 24.436 69.514 13.734 83.172 C4.317 94.079 -7.018 101.932 -21.673 103.416 C-40.163 104.655 -53.023 100.571 -67.289 88.453 C-76.571 79.86 -83.6 65.82 -84.266 53.172 C-84.327 52.157 -84.389 51.143 -84.453 50.098 C-84.974 35.301 -80.317 22.569 -70.789 11.223 C-51.367 -9.291 -24.545 -13.741 0 0 Z " fill="#CFE7D3" transform="translate(374.265625,271.828125)"/>
<path d="M0 0 C0.798 0.579 1.596 1.158 2.418 1.754 C26.497 20.09 42.732 46.375 47.5 76.484 C49.094 88.845 49.787 103.96 46 116 C44 118 44 118 41.5 118.25 C39 118 39 118 37 116 C37.023 113.594 37.023 113.594 37.375 110.5 C40.125 80.051 33.896 50.05 14 26 C-2.881 6.847 -26.725 -7.507 -52.59 -9.241 C-83.194 -10.453 -109.83 -4.819 -133.188 16.375 C-152.979 34.933 -167.308 59.972 -168.203 87.68 C-168.671 118.46 -159.958 146.282 -138.393 169.009 C-119.921 187.874 -94.695 199.81 -68.118 200.304 C-56.42 200.339 -45.303 199.493 -34.219 195.488 C-31.482 194.886 -29.67 195.195 -27 196 C-25 198 -25 198 -25 200.438 C-26 203 -26 203 -28.594 204.559 C-32.238 206.101 -35.612 206.906 -39.5 207.625 C-40.768 207.865 -42.037 208.105 -43.344 208.352 C-43.947 208.459 -43.947 208.459 -47 209 C-47.451 209.093 -47.451 209.093 -49.734 209.566 C-65.207 211.621 -81.109 210.626 -96 206 C-96.339 205.896 -96.339 205.896 -98.055 205.367 C-113.274 200.51 -127.229 192.844 -139 182 C-139.274 181.749 -139.274 181.749 -140.664 180.481 C-163.36 159.537 -176.874 131.288 -178.289 100.34 C-179.306 67.3 -168.233 38.288 -145.622 14.238 C-130.082 -1.816 -109.81 -13.114 -88 -18 C-87.551 -18.112 -87.551 -18.112 -85.281 -18.676 C-56.353 -24.786 -23.687 -17.556 0 0 Z " fill="#0F3E17" transform="translate(304,132)"/>
<path d="M0 0 C13.009 8.939 22.209 21.702 25.734 37.172 C27.548 54.132 24.436 69.514 13.734 83.172 C4.317 94.079 -7.018 101.932 -21.673 103.416 C-40.163 104.655 -53.023 100.571 -67.289 88.453 C-76.571 79.86 -83.6 65.82 -84.266 53.172 C-84.327 52.157 -84.389 51.143 -84.453 50.098 C-84.974 35.301 -80.317 22.569 -70.789 11.223 C-51.367 -9.291 -24.545 -13.741 0 0 Z M-59.266 13.172 C-59.882 13.707 -60.498 14.242 -61.133 14.793 C-65.689 19.026 -68.653 23.549 -71.266 29.172 C-71.66 30.017 -72.055 30.863 -72.461 31.734 C-77.048 42.769 -76.203 54.033 -72.266 65.172 C-66.865 78.148 -57.87 85.991 -45.465 91.895 C-35.713 95.788 -23.248 95.694 -13.391 92.172 C1.897 85.38 9.724 75.463 15.734 60.172 C18.863 48.317 17.17 34.999 11.156 24.387 C9.464 21.859 7.677 19.512 5.734 17.172 C5.223 16.536 4.711 15.901 4.184 15.246 C-2.575 7.682 -12.257 2.759 -22.323 2.021 C-36.837 1.235 -48.049 3.29 -59.266 13.172 Z " fill="#0F3E17" transform="translate(374.265625,271.828125)"/>
<path d="M0 0 C5.665 3.237 9.982 7.917 13.113 13.609 C14.754 20.174 13.574 26.087 10.738 32.109 C6.634 37.101 1.154 41.631 -5.461 42.348 C-11.598 42.531 -16.303 41.919 -21.262 38.109 C-26.371 32.773 -29.166 27.257 -29.762 19.859 C-29.582 13.94 -27.035 9.56 -23.262 5.109 C-16.56 -0.774 -8.579 -3.378 0 0 Z " fill="#0F3E17" transform="translate(277.26171875,234.890625)"/>
<path d="M0 0 C5.871 2.672 9.033 5.548 12.234 11.125 C14.15 16.872 14.451 23.905 12.293 29.617 C8.867 35.309 4.562 39.001 -1.766 41.125 C-7.516 41.744 -12.887 41.979 -18.203 39.562 C-24.33 33.735 -28.714 29.055 -29.141 20.312 C-28.987 14.237 -27.304 9.775 -23.082 5.367 C-16.088 -0.86 -9.238 -2.923 0 0 Z " fill="#0F3E17" transform="translate(214.765625,180.875)"/>
<path d="M0 0 C2.801 0.355 2.801 0.355 3.801 1.355 C4.208 4.962 4.217 6.758 2.113 9.777 C1.35 10.546 0.587 11.314 -0.199 12.105 C-3.319 15.366 -6.29 18.616 -9.074 22.168 C-13.508 27.787 -18.137 33.233 -22.776 38.682 C-25.089 41.402 -27.394 44.129 -29.699 46.855 C-30.616 47.939 -31.533 49.022 -32.449 50.105 C-32.903 50.642 -33.357 51.178 -33.824 51.73 C-36.345 54.71 -36.345 54.71 -48.949 69.605 C-49.403 70.142 -49.858 70.679 -50.326 71.232 C-51.237 72.309 -52.149 73.386 -53.061 74.463 C-55.434 77.265 -57.802 80.072 -60.16 82.887 C-60.648 83.467 -61.136 84.048 -61.639 84.646 C-62.564 85.748 -63.487 86.851 -64.408 87.955 C-67.188 91.259 -69.988 94.464 -73.199 97.355 C-77.39 97.165 -77.39 97.165 -79.199 95.355 C-79.602 93.207 -79.602 93.207 -79.199 90.355 C-77.458 87.968 -75.751 85.889 -73.762 83.73 C-72.647 82.479 -71.534 81.226 -70.422 79.973 C-69.87 79.357 -69.319 78.742 -68.75 78.108 C-66.661 75.748 -64.677 73.31 -62.699 70.855 C-57.828 64.86 -52.794 59.01 -47.752 53.158 C-45.21 50.207 -42.673 47.25 -40.137 44.293 C-39.64 43.714 -39.143 43.135 -38.632 42.538 C-33.919 37.037 -29.24 31.508 -24.567 25.973 C-23.175 24.326 -21.779 22.682 -20.383 21.039 C-19.918 20.491 -19.453 19.943 -18.974 19.378 C-18.049 18.29 -17.123 17.203 -16.194 16.118 C-13.96 13.495 -11.791 10.848 -9.719 8.094 C-8.949 7.087 -8.18 6.08 -7.387 5.043 C-7.053 4.591 -7.053 4.591 -5.367 2.305 C-3.199 0.355 -3.199 0.355 0 0 Z " fill="#0F3E17" transform="translate(275.19921875,179.64453125)"/>
<path d="M0 0 C3.095 1.454 4.957 3.238 7.32 5.711 C8.185 6.611 9.05 7.51 9.941 8.438 C12.675 11.398 15.363 14.386 17.973 17.457 C19.445 19.148 19.445 19.148 21.121 20.676 C22.445 22.148 22.445 22.148 22.695 25.273 C22.445 28.148 22.445 28.148 21.445 29.148 C19.32 29.648 19.32 29.648 16.445 29.148 C11.805 25.483 8.207 20.672 4.445 16.148 C4.437 16.695 4.429 17.242 4.421 17.805 C4.335 23.483 4.235 29.16 4.128 34.837 C4.09 36.958 4.055 39.078 4.023 41.199 C3.978 44.242 3.92 47.285 3.859 50.328 C3.854 50.804 3.854 50.804 3.824 53.213 C3.805 54.094 3.785 54.975 3.764 55.882 C3.751 56.66 3.738 57.437 3.724 58.238 C3.445 60.148 3.445 60.148 1.445 62.148 C-3.11 61.593 -3.11 61.593 -4.555 60.148 C-4.647 58.767 -4.672 57.381 -4.668 55.996 C-4.668 55.115 -4.668 54.234 -4.668 53.327 C-4.665 52.848 -4.665 52.848 -4.652 50.426 C-4.651 49.451 -4.65 48.475 -4.648 47.471 C-4.642 44.342 -4.63 41.214 -4.617 38.086 C-4.612 35.971 -4.608 33.855 -4.604 31.74 C-4.592 26.543 -4.576 21.346 -4.555 16.148 C-6.947 18.53 -9.329 20.904 -11.617 23.387 C-12.257 24.071 -12.896 24.756 -13.555 25.461 C-13.874 25.81 -13.874 25.81 -15.492 27.574 C-18.04 29.519 -19.421 29.545 -22.555 29.148 C-23.555 28.148 -23.555 28.148 -23.852 25.867 C-23.464 22.317 -22.27 21.202 -19.805 18.648 C-18.99 17.796 -18.175 16.944 -17.336 16.066 C-16.89 15.605 -16.444 15.144 -15.984 14.669 C-14.426 13.011 -12.943 11.301 -11.461 9.574 C-10.937 8.975 -10.414 8.375 -9.874 7.758 C-8.84 6.574 -7.817 5.38 -6.806 4.176 C-3.255 0.189 -3.255 0.189 0 0 Z " fill="#0F3E17" transform="translate(345.5546875,288.8515625)"/>
<path d="M0 0 C2.483 7.603 2.185 15.103 2 23 C1.67 23 1.34 23 1 23 C0.67 19.7 0.34 16.4 0 13 C-0.33 14.65 -0.66 16.3 -1 18 C-1.33 18 -1.66 18 -2 18 C-2.133 17.192 -2.266 16.384 -2.402 15.551 C-2.579 14.482 -2.756 13.414 -2.938 12.312 C-3.112 11.257 -3.286 10.201 -3.465 9.113 C-3.932 6.398 -4.444 3.699 -5 1 C-3 0 -3 0 0 0 Z " fill="#CFE7D3" transform="translate(389,304)"/>
<path d="M0 0 C2.31 0.66 4.62 1.32 7 2 C6.01 3.32 5.02 4.64 4 6 C2.02 5.34 0.04 4.68 -2 4 C-1.34 3.67 -0.68 3.34 0 3 C0 2.01 0 1.02 0 0 Z " fill="#CFE7D3" transform="translate(325,357)"/>
<path d="M0 0 C0.66 0.33 1.32 0.66 2 1 C1.67 2.98 1.34 4.96 1 7 C-0.32 7 -1.64 7 -3 7 C-2.625 4.062 -2.625 4.062 -2 1 C-1.34 0.67 -0.68 0.34 0 0 Z " fill="#CFE7D3" transform="translate(388,327)"/>
<path d="M0 0 C4.75 0.75 4.75 0.75 7 3 C7 4.32 7 5.64 7 7 C6.34 7 5.68 7 5 7 C4.732 6.361 4.464 5.721 4.188 5.062 C3 3 3 3 0 2 C0 1.34 0 0.68 0 0 Z " fill="#0F3E17" transform="translate(272,327)"/>
<path d="M0 0 C0.99 0.33 1.98 0.66 3 1 C1.384 3.041 -0.286 5.041 -2 7 C-2.66 7 -3.32 7 -4 7 C-2.926 4.085 -2.222 2.222 0 0 Z " fill="#CFE7D3" transform="translate(262,245)"/>
</svg>
