<?xml version="1.0" encoding="UTF-8"?>
<svg viewBox="0 0 512 512" version="1.1" xmlns="http://www.w3.org/2000/svg">
<path d="M0 0 C0.829 0.74 1.658 1.48 2.512 2.242 C5 4 5 4 7.719 3.805 C8.637 3.498 9.554 3.191 10.5 2.875 C10.959 2.729 10.959 2.729 13.281 1.992 C14.965 1.378 16.634 0.715 18.27 -0.02 C22.16 -1.417 26.11 -1.947 30.188 -2.562 C31.806 -2.811 33.425 -3.062 35.043 -3.316 C35.755 -3.424 36.467 -3.532 37.2 -3.643 C39 -4 39 -4 41 -5 C43.503 -5.136 45.976 -5.212 48.48 -5.238 C49.237 -5.248 49.993 -5.258 50.772 -5.268 C84.435 -5.616 115.224 -1.886 141 22 C153.981 35.611 164.188 54.175 164.188 73.312 C164.141 74.876 164.084 76.439 164 78 C170.51 75.939 173.438 74.186 177.066 68.258 C178.307 65.257 178.392 62.548 178.562 59.312 C178.901 53.099 178.901 53.099 180 52 C183 51.875 183 51.875 186 52 C188.27 54.27 187.312 59.007 187.312 62.066 C187.167 69.023 185.887 73.929 181.094 79.027 C175.969 83.703 171.939 86.054 165 87 C164.853 87.969 164.706 88.939 164.555 89.938 C160.949 112.083 151.51 132.285 134 147 C133.34 147 132.68 147 132 147 C131.974 147.55 131.948 148.101 131.922 148.668 C131.452 155.557 130.322 162.282 129.062 169.062 C128.978 169.533 128.978 169.533 128.548 171.913 C128.379 172.799 128.209 173.685 128.035 174.598 C127.884 175.397 127.734 176.196 127.578 177.02 C127 179 127 179 125 181 C122.019 181.227 122.019 181.227 118.242 181.195 C117.579 181.192 116.916 181.19 116.233 181.187 C114.113 181.176 111.994 181.15 109.875 181.125 C108.439 181.115 107.003 181.106 105.566 181.098 C102.044 181.076 98.522 181.041 95 181 C90.638 171.602 90.638 171.602 89.75 166.938 C89.6 166.183 89.451 165.429 89.297 164.652 C89.199 164.107 89.101 163.562 89 163 C88.56 163.072 88.56 163.072 86.336 163.438 C76.451 164.897 66.675 165.192 56.688 165.188 C55.425 165.188 54.163 165.189 52.863 165.189 C45.197 165.145 37.628 164.767 30 164 C29.59 165.06 29.18 166.119 28.758 167.211 C28.214 168.599 27.67 169.987 27.125 171.375 C26.856 172.074 26.586 172.772 26.309 173.492 C24.227 178.773 24.227 178.773 22 181 C19.143 181.259 19.143 181.259 15.531 181.266 C14.238 181.268 12.945 181.271 11.613 181.273 C10.939 181.269 10.264 181.265 9.569 181.261 C7.508 181.25 5.448 181.261 3.387 181.273 C2.094 181.271 0.801 181.268 -0.531 181.266 C-1.723 181.263 -2.915 181.261 -4.143 181.259 C-7 181 -7 181 -9 179 C-9.454 176.895 -9.809 174.768 -10.113 172.637 C-10.31 171.357 -10.506 170.078 -10.709 168.76 C-11.013 166.727 -11.312 164.693 -11.596 162.657 C-11.875 160.69 -12.182 158.726 -12.488 156.762 C-12.659 155.586 -12.829 154.41 -13.005 153.198 C-14.219 149.296 -15.945 147.656 -19 145 C-19.539 144.487 -20.078 143.974 -20.634 143.445 C-21.102 143.01 -21.569 142.574 -22.051 142.125 C-30.978 133.637 -38.359 125.035 -42 113 C-42.846 112.963 -43.691 112.925 -44.562 112.887 C-59.799 112.004 -59.799 112.004 -65.177 106.957 C-67.68 102.897 -67.612 99.623 -67.602 94.938 C-67.61 94.069 -67.619 93.2 -67.628 92.304 C-67.639 90.472 -67.64 88.64 -67.631 86.808 C-67.625 84.008 -67.672 81.213 -67.723 78.414 C-67.727 76.63 -67.729 74.846 -67.727 73.062 C-67.745 72.229 -67.763 71.396 -67.782 70.537 C-67.693 64.919 -67.693 64.919 -65.751 62.345 C-62.376 59.348 -59.646 58.45 -55.141 58.561 C-54.475 58.602 -53.81 58.644 -53.125 58.688 C-52.437 58.71 -51.748 58.733 -51.039 58.756 C-49.358 58.814 -47.679 58.904 -46 59 C-45.915 58.34 -45.83 57.68 -45.742 57 C-44.756 53.016 -42.997 49.636 -41.125 46 C-40.773 45.301 -40.421 44.603 -40.059 43.883 C-38.551 40.912 -37.082 38.119 -35.18 35.375 C-33.508 32.01 -33.916 30.611 -35 27 C-36.987 22.479 -39.247 18.095 -41.494 13.699 C-45.858 4.897 -45.858 4.897 -45 0 C-34.277 -9.685 -11.482 -6.314 0 0 Z M-35 5 C-33.019 11.935 -30.076 18.031 -26.605 24.326 C-25.111 27.152 -23.992 29.367 -24.031 32.602 C-25.283 35.701 -26.921 38.327 -28.75 41.125 C-32.417 46.87 -35.364 52.721 -38 59 C-38.99 61.31 -39.98 63.62 -41 66 C-43.805 66.165 -43.805 66.165 -58 67 C-58 78.55 -58 90.1 -58 102 C-51.833 103.762 -47.163 104.3 -40.891 104.461 C-38 105 -38 105 -36.297 106.633 C-34.711 109.528 -33.356 112.49 -32 115.5 C-26.622 126.79 -17.359 136.094 -7 143 C-6.324 144.904 -6.324 144.904 -5.902 147.219 C-5.741 148.07 -5.579 148.92 -5.412 149.797 C-5.255 150.689 -5.099 151.581 -4.938 152.5 C-4.777 153.361 -4.617 154.222 -4.451 155.109 C-4.127 156.849 -3.807 158.59 -3.492 160.332 C-2.712 164.565 -1.854 168.781 -1 173 C4.94 173 10.88 173 17 173 C19.64 167.06 22.28 161.12 25 155 C26.588 154.979 28.176 154.959 29.812 154.938 C30.706 154.926 31.599 154.914 32.52 154.902 C35.355 154.982 38.078 155.199 40.895 155.492 C47.521 156.122 54.137 156.186 60.788 156.185 C62.865 156.187 64.942 156.206 67.02 156.225 C74.683 156.255 81.986 155.754 89.528 154.333 C92 154 92 154 94 155 C94.762 156.658 94.762 156.658 95.473 158.781 C95.732 159.541 95.992 160.3 96.26 161.082 C96.525 161.88 96.79 162.678 97.062 163.5 C97.593 165.074 98.125 166.647 98.66 168.219 C98.894 168.919 99.127 169.62 99.367 170.342 C100 172 100 172 101 173 C102.343 173.086 103.69 173.107 105.035 173.098 C105.844 173.094 106.653 173.091 107.486 173.088 C108.336 173.08 109.187 173.071 110.062 173.062 C110.917 173.058 111.771 173.053 112.65 173.049 C114.767 173.037 116.883 173.019 119 173 C119.078 172.574 119.078 172.574 119.471 170.417 C120.062 167.236 120.669 164.06 121.289 160.885 C121.553 159.513 121.81 158.141 122.059 156.767 C122.421 154.785 122.81 152.809 123.199 150.832 C123.424 149.643 123.65 148.455 123.882 147.23 C125.209 143.397 126.968 141.64 130 139 C145.521 124.753 155.197 106.334 156.18 85.121 C156.727 62.962 149.74 43.724 134.478 27.459 C121.906 15.042 104.963 8.686 88 5 C87.199 4.823 86.399 4.645 85.574 4.463 C78.23 2.963 71.108 2.652 63.625 2.688 C63.014 2.69 63.014 2.69 59.919 2.702 C42.703 2.922 25.18 4.9 9.375 12.215 C6.432 13.188 4.93 12.961 2 12 C-0.141 10.695 -0.141 10.695 -2.25 9.125 C-12.228 2.287 -23.527 0.828 -35 5 Z " fill="#0F3E17" transform="translate(206,179)"/>
<path d="M0 0 C8.57 5.161 15.641 11.991 19.035 21.59 C22.031 36.468 19.52 45.876 12.035 58.59 C11.391 58.519 10.746 58.448 10.083 58.375 C1.191 57.509 -7.645 57.437 -16.568 57.459 C-19.12 57.465 -21.671 57.459 -24.223 57.453 C-25.848 57.454 -27.473 57.455 -29.098 57.457 C-29.859 57.455 -30.62 57.453 -31.405 57.451 C-36.735 57.475 -36.735 57.475 -38.965 58.59 C-41.715 59.215 -41.715 59.215 -44.965 58.59 C-47.504 55.886 -49.226 52.851 -50.965 49.59 C-51.309 48.956 -51.653 48.321 -52.008 47.668 C-56.146 38.575 -54.536 27.829 -51.434 18.676 C-46.578 8.473 -37.308 1.69 -27.152 -2.598 C-18.521 -4.798 -8.017 -3.813 0 0 Z " fill="#CFE7D3" transform="translate(283.96484375,117.41015625)"/>
<path d="M0 0 C0.938 2.5 0.938 2.5 1 5 C-1 7 -1 7 -3.207 7.012 C-4.067 6.905 -4.927 6.798 -5.812 6.688 C-6.239 6.638 -6.239 6.638 -8.395 6.387 C-10.038 6.143 -11.675 5.85 -13.296 5.489 C-18.437 4.56 -23.665 4.765 -28.875 4.75 C-30.086 4.746 -31.296 4.742 -32.543 4.738 C-40.411 4.789 -47.585 5.422 -55.18 7.441 C-58.182 8.036 -60.086 7.872 -63 7 C-64 6 -64 6 -64.062 3.438 C-64.042 2.633 -64.021 1.829 -64 1 C-45.995 -7.23 -18.176 -9.054 0 0 Z " fill="#0F3E17" transform="translate(297,204)"/>
<path d="M0 0 C5.579 3.158 5.579 3.158 7 6 C7.581 13.09 7.581 13.09 5.125 16.938 C2.391 19.591 1.526 19.95 -2.312 20.312 C-6.575 19.951 -8.02 18.98 -11 16 C-12.601 12.798 -12.499 9.474 -12 6 C-8.647 0.747 -6.194 -0.596 0 0 Z " fill="#0F3E17" transform="translate(206,229)"/>
<path d="M0 0 C0.645 0.002 0.645 0.002 3.91 0.014 C7.065 0.025 10.22 0.042 13.375 0.062 C13.375 0.393 13.375 0.722 13.375 1.062 C4.465 1.062 -4.445 1.062 -13.625 1.062 C-13.625 4.032 -13.625 7.002 -13.625 10.062 C-21.875 10.062 -30.125 10.062 -38.625 10.062 C-38.955 8.083 -39.285 6.102 -39.625 4.062 C-37.335 3.577 -35.043 3.099 -32.75 2.625 C-31.474 2.358 -30.198 2.091 -28.883 1.816 C-19.271 0.015 -9.758 -0.065 0 0 Z " fill="#CFE7D3" transform="translate(269.625,181.9375)"/>
<path d="M0 0 C-0.99 0.33 -1.98 0.66 -3 1 C-3 3.64 -3 6.28 -3 9 C-7.29 9 -11.58 9 -16 9 C-16 11.31 -16 13.62 -16 16 C-16.66 16 -17.32 16 -18 16 C-19.033 13.902 -20.051 11.796 -21.062 9.688 C-21.631 8.516 -22.199 7.344 -22.785 6.137 C-24 3 -24 3 -23 0 C-15.546 -1.656 -7.44 -1.72 0 0 Z " fill="#CFE7D3" transform="translate(195,183)"/>
<path d="M0 0 C3.63 0.33 7.26 0.66 11 1 C11 2.65 11 4.3 11 6 C14.3 6.33 17.6 6.66 21 7 C21 7.33 21 7.66 21 8 C20.082 8.061 19.164 8.121 18.219 8.184 C6.972 8.951 6.972 8.951 2.188 9.625 C1.136 9.749 0.084 9.873 -1 10 C-2 9 -2 9 -2.188 6.125 C-2 3 -2 3 0 0 Z " fill="#CFE7D3" transform="translate(168,166)"/>
<path d="M0 0 C0.33 0 0.66 0 1 0 C1.219 9.573 0.999 18.577 -1 28 C-2.722 25.009 -3.242 22.893 -3.195 19.453 C-3.189 18.609 -3.182 17.764 -3.176 16.895 C-3.159 16.022 -3.142 15.149 -3.125 14.25 C-3.116 13.362 -3.107 12.474 -3.098 11.559 C-3.074 9.372 -3.041 7.186 -3 5 C-2.01 4.67 -1.02 4.34 0 4 C0 2.68 0 1.36 0 0 Z " fill="#CFE7D3" transform="translate(361,252)"/>
<path d="M0 0 C1.32 0 2.64 0 4 0 C4 3.96 4 7.92 4 12 C1.69 12.66 -0.62 13.32 -3 14 C-4 12 -4 12 -3.223 9.18 C-2.84 8.089 -2.457 6.999 -2.062 5.875 C-1.682 4.779 -1.302 3.684 -0.91 2.555 C-0.61 1.712 -0.309 0.869 0 0 Z " fill="#CFE7D3" transform="translate(367,282)"/>
<path d="M0 0 C-1.45 4.11 -3.511 7.433 -6 11 C-6.66 10.67 -7.32 10.34 -8 10 C-7.67 6.7 -7.34 3.4 -7 0 C-3 -1 -3 -1 0 0 Z " fill="#CFE7D3" transform="translate(353,295)"/>
<path d="M0 0 C-0.33 1.32 -0.66 2.64 -1 4 C-2.729 3.858 -4.459 3.711 -6.188 3.562 C-6.669 3.522 -6.669 3.522 -9.105 3.316 C-11.786 3.023 -14.366 2.573 -17 2 C-17 1.67 -17 1.34 -17 1 C-11.28 0.168 -5.778 -0.12 0 0 Z " fill="#CFE7D3" transform="translate(295,342)"/>
<path d="M0 0 C2.458 3.687 3.012 6.697 4 11 C1.133 10.427 0.139 10.139 -2 8 C-2.125 4.875 -2.125 4.875 -2 2 C-1.34 2 -0.68 2 0 2 C0 1.34 0 0.68 0 0 Z " fill="#CFE7D3" transform="translate(296,348)"/>
<path d="M0 0 C0.99 0.33 1.98 0.66 3 1 C3 4.96 3 8.92 3 13 C2.01 13 1.02 13 0 13 C-0.194 11.021 -0.38 9.042 -0.562 7.062 C-0.667 5.96 -0.771 4.858 -0.879 3.723 C-0.919 2.824 -0.959 1.926 -1 1 C-0.67 0.67 -0.34 0.34 0 0 Z " fill="#CFE7D3" transform="translate(393,230)"/>
<path d="M0 0 C0 2.31 0 4.62 0 7 C-1.32 7.33 -2.64 7.66 -4 8 C-4.33 6.02 -4.66 4.04 -5 2 C-1.125 0 -1.125 0 0 0 Z " fill="#CFE7D3" transform="translate(371,230)"/>
<path d="M0 0 C2.007 0.287 4.009 0.619 6 1 C6.33 1.99 6.66 2.98 7 4 C5.25 4.75 5.25 4.75 3 5 C0.75 3.062 0.75 3.062 -1 1 C-0.67 0.67 -0.34 0.34 0 0 Z " fill="#CFE7D3" transform="translate(208,179)"/>
<path d="M0 0 C0.557 0.021 0.557 0.021 3.375 0.125 C3.045 1.115 2.715 2.105 2.375 3.125 C-0.265 2.795 -2.905 2.465 -5.625 2.125 C-3.625 0.125 -3.625 0.125 0 0 Z " fill="#CFE7D3" transform="translate(317.625,178.875)"/>
<path d="M0 0 C2.375 -0.188 2.375 -0.188 5 0 C5.66 0.99 6.32 1.98 7 3 C3.713 3.8 2.29 4.097 -1 3 C-0.67 2.01 -0.34 1.02 0 0 Z " fill="#CFE7D3" transform="translate(236,342)"/>
</svg>
