<?xml version="1.0" encoding="UTF-8"?>
<svg viewBox="0 0 512 512" version="1.1" xmlns="http://www.w3.org/2000/svg">
<path d="M0 0 C0.843 0.006 1.685 0.011 2.553 0.017 C3.415 0.022 4.277 0.027 5.165 0.032 C12.038 0.157 18.154 1.097 24.678 3.329 C25.698 3.646 26.718 3.964 27.768 4.29 C50.365 12.014 68.22 30.19 78.706 51.306 C90.384 76.091 93.534 107.864 84.424 133.915 C75.988 155.111 60.911 170.804 40.036 179.909 C29.015 184.472 18.544 185.708 6.678 185.329 C6.678 185.989 6.678 186.649 6.678 187.329 C7.401 187.591 8.124 187.854 8.869 188.124 C11.751 189.361 14.057 190.82 16.62 192.622 C17.076 192.937 17.076 192.937 19.387 194.531 C21.298 195.86 23.204 197.196 25.106 198.538 C26.018 199.164 26.93 199.79 27.87 200.435 C28.697 201.014 29.524 201.593 30.376 202.189 C32.678 203.329 32.678 203.329 34.876 203.078 C36.845 202.26 38.266 201.286 39.928 199.954 C47.348 194.542 54.542 193.279 63.678 194.329 C72.864 196.672 80.156 201.423 85.116 209.517 C89.599 217.469 89.947 226.341 88.065 235.224 C85.169 243.325 79.588 249.936 72.241 254.392 C64.439 257.852 54.639 257.841 46.538 255.372 C41.784 253.131 38.1 250.355 34.678 246.329 C33.977 245.566 33.276 244.803 32.553 244.017 C28.115 237.655 27.39 232.243 27.303 224.704 C27.289 223.976 27.276 223.247 27.261 222.496 C27.303 217.719 28.177 214.525 30.678 210.329 C30.323 210.203 30.323 210.203 28.526 209.562 C25.41 208.213 22.893 206.552 20.116 204.599 C19.072 203.879 18.027 203.159 16.952 202.417 C15.31 201.276 13.668 200.134 12.035 198.98 C10.446 197.86 8.844 196.761 7.241 195.661 C6.767 195.33 6.767 195.33 4.37 193.653 C1.678 192.329 1.678 192.329 -0.76 192.394 C-4.015 193.582 -6.915 195.191 -9.873 196.97 C-10.49 197.334 -11.108 197.698 -11.744 198.073 C-13.712 199.235 -15.673 200.407 -17.634 201.579 C-18.941 202.352 -20.247 203.124 -21.554 203.896 C-24.055 205.372 -26.543 206.867 -29.024 208.375 C-30.985 209.537 -32.975 210.654 -35.016 211.668 C-37.228 212.802 -37.228 212.802 -40.322 215.329 C-41.141 218.464 -40.842 221.32 -40.509 224.517 C-40.039 233.779 -41.21 239.225 -47.119 246.56 C-53.337 253.387 -59.339 256.39 -68.512 256.849 C-77.761 257.025 -84.467 255.634 -91.56 249.345 C-98.61 242.076 -101.477 234.971 -101.947 224.892 C-101.641 215.12 -98.024 208.61 -91.072 201.892 C-84.152 196.256 -77.081 193.55 -68.115 193.954 C-58.751 195.212 -51.56 199.213 -45.322 206.329 C-45.322 206.989 -45.322 207.649 -45.322 208.329 C-35.347 202.813 -25.513 197.107 -15.799 191.141 C-15.392 190.893 -15.392 190.893 -13.33 189.638 C-12.604 189.192 -11.878 188.747 -11.131 188.288 C-9.322 187.329 -9.322 187.329 -7.322 187.329 C-7.322 186.669 -7.322 186.009 -7.322 185.329 C-7.925 185.34 -8.529 185.35 -9.151 185.361 C-36.056 185.766 -57.723 180.731 -77.861 161.772 C-93.012 146.804 -100.905 124.19 -109.613 105.207 C-112.971 97.898 -116.393 90.62 -119.819 83.343 C-120.861 81.129 -121.901 78.914 -122.942 76.7 C-124.194 74.037 -125.45 71.376 -126.713 68.718 C-127.672 66.697 -128.626 64.673 -129.567 62.644 C-131.2 59.203 -132.082 57.489 -135.322 55.329 C-137.65 55.042 -137.65 55.042 -140.357 54.986 C-141.331 54.956 -142.305 54.926 -143.308 54.896 C-145.363 54.851 -147.417 54.807 -149.472 54.763 C-150.445 54.733 -151.417 54.704 -152.419 54.673 C-152.865 54.664 -152.865 54.664 -155.123 54.616 C-157.322 54.329 -157.322 54.329 -159.322 52.329 C-158.766 47.774 -158.766 47.774 -157.322 46.329 C-153.811 45.992 -150.284 46.004 -146.759 45.954 C-146.27 45.936 -146.27 45.936 -143.796 45.841 C-137.081 45.76 -132.39 46.756 -127.322 51.329 C-124.066 54.981 -121.968 58.739 -119.861 63.142 C-119.548 63.792 -119.235 64.442 -118.912 65.112 C-117.918 67.182 -116.932 69.255 -115.947 71.329 C-115.294 72.69 -114.64 74.051 -113.986 75.411 C-110.019 83.682 -106.167 91.999 -102.322 100.329 C-86.812 100.494 -86.812 100.494 -8.322 101.329 C-8.345 94.206 -8.368 87.083 -8.392 79.743 C-8.402 75.241 -8.412 70.738 -8.419 66.236 C-8.431 59.083 -8.446 51.93 -8.473 44.778 C-8.494 39.013 -8.506 33.249 -8.512 27.485 C-8.515 25.282 -8.522 23.078 -8.533 20.875 C-8.548 17.798 -8.55 14.721 -8.549 11.644 C-8.556 10.726 -8.563 9.807 -8.571 8.861 C-8.568 8.025 -8.565 7.189 -8.562 6.328 C-8.564 5.6 -8.566 4.872 -8.568 4.122 C-7.909 -0.68 -3.921 0.047 0 0 Z " fill="#0F3E17" transform="translate(299.32177734375,117.670654296875)"/>
<path d="M0 0 C22.083 0 40.306 8.074 56.336 23.18 C74.717 42.638 83 67.608 83 94 C55.61 94 28.22 94 0 94 C0 62.98 0 31.96 0 0 Z " fill="#CFE7D3" transform="translate(298,125)"/>
<path d="M0 0 C0.978 -0.037 1.956 -0.075 2.963 -0.113 C9.755 -0.195 14.203 0.944 19.438 5.375 C21.438 7.688 21.438 7.688 22.438 9.375 C21.86 9.148 21.282 8.921 20.688 8.688 C18.438 8.375 18.438 8.375 16.188 9.812 C15.899 10.07 15.899 10.07 14.438 11.375 C13.447 10.715 12.458 10.055 11.438 9.375 C9.109 9.088 9.109 9.088 6.402 9.031 C5.428 9.002 4.455 8.972 3.451 8.941 C1.396 8.897 -0.658 8.853 -2.713 8.809 C-3.199 8.794 -3.199 8.794 -5.66 8.719 C-6.106 8.709 -6.106 8.709 -8.364 8.662 C-10.562 8.375 -10.562 8.375 -12.562 6.375 C-11.587 -1.623 -6.984 0.099 0 0 Z " fill="#0F3E17" transform="translate(152.5625,163.625)"/>
<path d="M0 0 C3 3.75 3 3.75 3 6 C1.041 7.714 -0.959 9.384 -3 11 C-4.461 8.353 -5 7.106 -5 4 C-4.361 3.711 -3.721 3.423 -3.062 3.125 C-1 2 -1 2 0 0 Z " fill="#0F3E17" transform="translate(176,176)"/>
<path d="M0 0 C1.966 2.949 2.739 4.52 3 8 C1.75 9.812 1.75 9.812 0 11 C-0.99 11 -1.98 11 -3 11 C-2.328 7.194 -1.273 3.648 0 0 Z " fill="#0F3E17" transform="translate(333,347)"/>
<path d="M0 0 C3.375 -0.188 3.375 -0.188 7 0 C7.66 0.99 8.32 1.98 9 3 C7.312 4.188 7.312 4.188 5 5 C2.25 3.75 2.25 3.75 0 2 C0 1.34 0 0.68 0 0 Z " fill="#CFE7D3" transform="translate(306,303)"/>
</svg>
