<?xml version="1.0" encoding="UTF-8"?>
<svg viewBox="0 0 512 512" version="1.1" xmlns="http://www.w3.org/2000/svg">
<path d="M0 0 C4.61 2.699 8.559 6.059 12.562 9.562 C13.795 10.631 15.028 11.698 16.262 12.766 C16.882 13.304 17.503 13.842 18.142 14.396 C21.033 16.892 23.954 19.352 26.875 21.812 C34.696 28.416 42.358 35.19 50 42 C50.014 41.047 50.028 40.095 50.043 39.113 C50.481 27.593 50.481 27.593 53.5 24.688 C54.325 24.131 55.15 23.574 56 23 C56.33 22.67 56.66 22.34 57 22 C61.468 21.708 65.942 21.686 70.418 21.65 C71.922 21.633 73.426 21.606 74.93 21.568 C77.104 21.513 79.275 21.491 81.449 21.477 C82.752 21.457 84.055 21.437 85.397 21.417 C90.105 22.179 91.664 23.662 95 27 C96.286 29.571 96.12 31.397 96.114 34.276 C96.113 35.377 96.113 36.478 96.113 37.612 C96.108 38.805 96.103 39.998 96.098 41.227 C96.097 41.836 96.097 41.836 96.093 44.917 C96.088 48.82 96.075 52.722 96.062 56.625 C96.057 59.266 96.053 61.906 96.049 64.547 C96.038 71.031 96.021 77.516 96 84 C96.613 84.296 97.226 84.591 97.858 84.896 C105.787 88.984 112.56 96.336 119.062 102.375 C119.718 102.982 120.373 103.589 121.048 104.214 C121.663 104.79 122.277 105.367 122.91 105.961 C123.458 106.474 124.006 106.988 124.571 107.517 C126.454 109.471 127.874 111.179 128.293 113.91 C127.915 121.619 123.469 125.924 118 131 C114.818 133.121 113.861 133.296 110.188 133.312 C109.772 133.321 109.772 133.321 107.668 133.363 C105 133 105 133 99 130 C99.33 136.27 99.66 142.54 100 149 C101.279 147.783 102.558 146.566 103.875 145.312 C114.064 136.249 123.677 134.397 137 135 C147.961 136.201 157.731 141.802 165 150 C171.427 159.334 174.352 167.056 174.312 178.312 C174.329 179.212 174.345 180.111 174.361 181.037 C174.37 192.832 169.775 203.002 161.875 211.75 C152.472 220.589 140.223 223.455 127.719 223.246 C116.13 222.479 107.039 217.173 99 209 C98.994 209.588 98.988 210.176 98.982 210.782 C98.918 216.914 98.834 223.046 98.738 229.178 C98.704 231.465 98.676 233.752 98.654 236.04 C98.62 239.331 98.568 242.623 98.512 245.914 C98.505 246.933 98.499 247.952 98.492 249.002 C98.383 254.314 98.269 258.575 95 263 C90.378 265.876 86.431 266.434 81.106 266.394 C80.329 266.401 79.552 266.407 78.752 266.413 C76.159 266.429 73.566 266.425 70.973 266.42 C69.11 266.427 67.247 266.436 65.384 266.446 C60.33 266.468 55.276 266.471 50.223 266.469 C46.003 266.469 41.783 266.477 37.563 266.486 C27.609 266.505 17.655 266.508 7.7 266.501 C-2.569 266.494 -12.838 266.517 -23.107 266.554 C-31.926 266.585 -40.744 266.596 -49.563 266.592 C-54.83 266.59 -60.096 266.596 -65.362 266.62 C-70.313 266.643 -75.264 266.641 -80.215 266.62 C-82.031 266.617 -83.848 266.622 -85.664 266.636 C-88.145 266.655 -90.625 266.642 -93.106 266.621 C-93.823 266.634 -94.541 266.646 -95.281 266.659 C-98.988 266.594 -101.47 266.008 -104.368 263.774 C-108.357 259.569 -109.252 256.355 -109.241 250.653 C-109.243 249.595 -109.246 248.536 -109.249 247.445 C-109.242 246.294 -109.234 245.144 -109.227 243.958 C-109.227 242.738 -109.228 241.518 -109.228 240.261 C-109.227 236.925 -109.217 233.588 -109.203 230.252 C-109.19 226.762 -109.189 223.272 -109.187 219.782 C-109.181 213.177 -109.164 206.572 -109.144 199.967 C-109.122 192.446 -109.111 184.925 -109.101 177.404 C-109.08 161.936 -109.045 146.468 -109 131 C-110.082 131.486 -111.163 131.972 -112.277 132.473 C-116.003 134.147 -118.884 134.524 -123 134 C-128.9 131.05 -134.391 125.957 -136.91 119.762 C-137.611 116.352 -137.607 114.069 -135.867 111.004 C-134.045 108.816 -132.098 106.926 -130 105 C-129.165 104.206 -128.329 103.412 -127.469 102.594 C-122.107 97.601 -116.517 92.945 -110.816 88.348 C-107.255 85.379 -103.874 82.244 -100.481 79.086 C-96.393 75.305 -92.12 71.803 -87.781 68.312 C-84.76 65.8 -81.876 63.176 -79 60.5 C-74.412 56.231 -69.666 52.242 -64.781 48.312 C-61.76 45.8 -58.876 43.176 -56 40.5 C-51.39 36.21 -46.622 32.196 -41.715 28.246 C-38.893 25.912 -36.194 23.48 -33.5 21 C-28.974 16.836 -24.305 12.908 -19.52 9.047 C-17.289 7.235 -15.106 5.385 -12.938 3.5 C-8.831 0.005 -5.357 -1.007 0 0 Z M-11.562 13.938 C-12.633 14.958 -13.706 15.976 -14.781 16.992 C-15.32 17.502 -15.859 18.012 -16.414 18.538 C-18.711 20.655 -21.126 22.609 -23.562 24.562 C-27.328 27.594 -30.943 30.726 -34.5 34 C-38.057 37.274 -41.672 40.406 -45.438 43.438 C-49.973 47.096 -54.257 50.947 -58.519 54.914 C-62.607 58.695 -66.88 62.197 -71.219 65.688 C-74.772 68.642 -78.14 71.769 -81.522 74.916 C-84.733 77.887 -88.026 80.7 -91.438 83.438 C-95.622 86.803 -99.583 90.332 -103.5 94 C-108.359 98.548 -113.353 102.848 -118.543 107.02 C-121.758 109.611 -124.88 112.296 -128 115 C-127.16 119.282 -125.355 121.179 -122 124 C-119.672 124.926 -119.672 124.926 -117 125 C-114.281 123.094 -114.281 123.094 -111.5 120.5 C-108.719 117.906 -108.719 117.906 -106 116 C-103.33 116.381 -103.33 116.381 -101 117 C-100.997 117.709 -100.993 118.419 -100.99 119.15 C-100.909 136.392 -100.817 153.633 -100.712 170.875 C-100.662 179.213 -100.616 187.551 -100.578 195.889 C-100.545 203.155 -100.505 210.42 -100.457 217.685 C-100.432 221.534 -100.41 225.383 -100.397 229.232 C-100.384 232.851 -100.362 236.471 -100.333 240.09 C-100.319 242.058 -100.316 244.026 -100.312 245.993 C-100.301 247.157 -100.29 248.321 -100.278 249.52 C-100.273 250.536 -100.267 251.552 -100.262 252.599 C-100 255 -100 255 -98 257 C-95.531 257.195 -93.175 257.265 -90.705 257.247 C-89.944 257.25 -89.184 257.252 -88.4 257.255 C-85.838 257.26 -83.277 257.252 -80.715 257.243 C-78.883 257.244 -77.052 257.246 -75.221 257.249 C-70.238 257.254 -65.255 257.246 -60.271 257.236 C-55.067 257.227 -49.862 257.229 -44.658 257.229 C-35.917 257.228 -27.177 257.219 -18.436 257.206 C-8.316 257.19 1.804 257.185 11.924 257.186 C21.642 257.186 31.36 257.181 41.077 257.173 C45.221 257.169 49.365 257.167 53.509 257.167 C58.384 257.166 63.258 257.16 68.133 257.15 C69.927 257.147 71.722 257.146 73.516 257.146 C75.955 257.147 78.393 257.141 80.832 257.134 C81.551 257.135 82.271 257.137 83.012 257.138 C87.886 257.114 87.886 257.114 89 256 C89.094 254.098 89.117 252.192 89.114 250.287 C89.113 249.066 89.113 247.844 89.113 246.586 C89.108 245.244 89.103 243.901 89.098 242.559 C89.096 241.192 89.094 239.826 89.093 238.46 C89.09 234.858 89.08 231.256 89.069 227.654 C89.058 223.981 89.054 220.308 89.049 216.635 C89.038 209.423 89.021 202.212 89 195 C86.562 194.919 84.126 194.86 81.688 194.812 C80.997 194.787 80.307 194.762 79.596 194.736 C74.473 194.662 74.473 194.662 72.145 196.324 C71.085 197.875 70.042 199.437 69 201 C65.438 201.688 65.438 201.688 62 201 C59.771 198.771 58.401 196.801 57 194 C56.34 194 55.68 194 55 194 C53.619 195.967 52.285 197.969 51 200 C50 201 50 201 46.688 201.312 C43 201 43 201 40.625 199.125 C39 197 39 197 38 195 C36.68 195 35.36 195 34 195 C33.769 195.641 33.539 196.281 33.301 196.941 C29.721 206.436 25.65 212.534 17 218 C16.278 218.49 15.556 218.98 14.812 219.484 C5.641 224.717 -5.779 224.357 -16 223 C-20.606 221.658 -24.145 219.83 -28 217 C-28.764 216.447 -29.529 215.894 -30.316 215.324 C-38.725 208.588 -43.113 199.543 -45 189 C-45.621 182.768 -45.577 176.509 -45.521 170.252 C-45.5 167.373 -45.521 164.496 -45.547 161.617 C-45.569 147.133 -43.416 135.651 -33.75 124.375 C-25.233 117.02 -17.163 112.417 -5.812 112.562 C-4.976 112.571 -4.14 112.579 -3.278 112.588 C7.859 112.889 17.031 116 25 124 C35.578 136.268 35.116 146.2 36 163 C53.82 163 71.64 163 90 163 C90.438 140.562 90.438 140.562 90.568 133.471 C90.606 131.628 90.645 129.785 90.684 127.941 C90.7 126.975 90.717 126.008 90.734 125.013 C90.754 124.099 90.774 123.186 90.795 122.244 C90.81 121.447 90.826 120.65 90.842 119.829 C91 118 91 118 92 117 C94.5 116.5 94.5 116.5 98 117 C99.523 118.131 100.999 119.326 102.438 120.562 C106.549 123.962 106.549 123.962 110.75 124.312 C115.062 122.571 116.448 120.867 119 117 C119 116.01 119 115.02 119 114 C116.945 112.055 116.945 112.055 114.125 109.875 C110.254 106.818 106.509 103.711 102.875 100.375 C98.98 96.817 94.948 93.557 90.715 90.41 C89 89 89 89 88 87 C87.881 85.213 87.823 83.423 87.795 81.632 C87.775 80.511 87.755 79.39 87.734 78.235 C87.726 77.628 87.726 77.628 87.684 74.555 C87.663 73.315 87.642 72.074 87.621 70.797 C87.566 67.499 87.516 64.201 87.468 60.903 C87.418 57.538 87.362 54.173 87.307 50.809 C87.199 44.206 87.1 37.603 87 31 C78.09 31 69.18 31 60 31 C59.563 43.937 59.563 43.937 59.432 48.023 C59.394 49.076 59.356 50.13 59.316 51.215 C59.298 51.757 59.298 51.757 59.205 54.5 C59 57 59 57 58 58 C55.707 58.316 55.707 58.316 53 58 C50.824 56.277 50.824 56.277 48.688 53.938 C45.94 51.032 43.225 48.226 40.188 45.625 C37.31 43.158 34.503 40.629 31.725 38.051 C26.632 33.327 21.434 28.823 16.008 24.48 C13.661 22.545 11.383 20.578 9.117 18.551 C8.446 17.954 7.775 17.357 7.083 16.742 C5.757 15.557 4.437 14.365 3.126 13.165 C2.822 12.894 2.822 12.894 1.285 11.527 C0.748 11.04 0.21 10.553 -0.344 10.051 C-5.27 6.926 -8.23 10.648 -11.562 13.938 Z " fill="#0F3E17" transform="translate(260,104)"/>
<path d="M0 0 C0.397 0.003 0.397 0.003 2.404 0.017 C10.895 0.275 16.66 3.027 23 8.625 C32.16 18.827 31.791 29.548 31.188 42.5 C30.645 42.67 30.102 42.84 29.543 43.016 C26.398 44.081 23.77 45.011 21.211 47.16 C19.665 50.694 19.754 54.153 19.812 57.938 C19.801 58.688 19.789 59.439 19.777 60.213 C19.801 64.775 20.219 67.819 23.188 71.5 C26.375 73.312 26.375 73.312 29.188 74.5 C27.605 81.534 23.371 86.391 17.457 90.309 C8.831 95.163 0.458 97.125 -9.398 94.922 C-17.673 92.051 -25.244 86.163 -29.312 78.312 C-29.858 77.061 -30.355 75.787 -30.812 74.5 C-30.982 74.079 -30.982 74.079 -31.839 71.951 C-33.056 67.637 -33.118 63.721 -33.113 59.262 C-33.118 58.382 -33.122 57.501 -33.126 56.594 C-33.132 54.738 -33.133 52.881 -33.128 51.025 C-33.125 48.207 -33.148 45.39 -33.174 42.572 C-33.176 40.76 -33.177 38.949 -33.176 37.137 C-33.185 36.305 -33.194 35.474 -33.204 34.617 C-33.129 25.011 -29.977 16.872 -23.812 9.5 C-16.759 2.919 -9.567 -0.08 0 0 Z " fill="#CFE7D3" transform="translate(255.8125,224.5)"/>
<path d="M0 0 C4.431 2.136 7.229 4.376 9 9 C9.662 14.345 9.673 18.603 7.312 23.5 C5 26 5 26 2.395 27.246 C0 29 0 29 -0.628 31.971 C-0.631 33.157 -0.634 34.344 -0.637 35.566 C-0.657 36.856 -0.677 38.146 -0.697 39.475 C-0.695 40.837 -0.692 42.2 -0.688 43.562 C-0.699 46.231 -0.728 48.898 -0.762 51.566 C-0.761 52.752 -0.761 53.937 -0.76 55.158 C-1 58 -1 58 -3 60 C-5.5 60.25 -5.5 60.25 -8 60 C-10 58 -10 58 -10.224 55.174 C-10.22 54.585 -10.22 54.585 -10.203 51.602 C-10.215 50.318 -10.226 49.034 -10.238 47.711 C-10.249 45.668 -10.25 43.625 -10.23 41.582 C-10.215 39.609 -10.24 37.637 -10.266 35.664 C-10.263 34.483 -10.261 33.302 -10.259 32.084 C-11 29 -11 29 -13.929 26.712 C-14.942 26.147 -15.956 25.582 -17 25 C-20.57 21.074 -20.559 16.822 -20.422 11.73 C-19.787 7.621 -18.074 4.775 -15 2 C-10.358 -0.933 -5.305 -0.623 0 0 Z " fill="#0F3E17" transform="translate(261,242)"/>
<path d="M0 0 C1.21 0.005 2.419 0.01 3.666 0.016 C4.971 0.019 6.276 0.022 7.621 0.026 C9.01 0.034 10.398 0.042 11.787 0.051 C13.179 0.056 14.572 0.061 15.965 0.065 C19.385 0.077 22.804 0.094 26.224 0.114 C25.894 5.064 25.564 10.014 25.224 15.114 C15.447 15.851 6.091 16.114 -3.776 16.114 C-4.106 61.324 -4.436 106.534 -4.776 153.114 C-5.106 153.114 -5.436 153.114 -5.776 153.114 C-5.799 135.138 -5.817 117.162 -5.827 99.186 C-5.833 90.841 -5.84 82.495 -5.851 74.149 C-5.861 66.877 -5.867 59.606 -5.87 52.334 C-5.871 48.482 -5.874 44.629 -5.881 40.776 C-5.888 37.154 -5.89 33.532 -5.889 29.91 C-5.889 27.939 -5.895 25.967 -5.9 23.996 C-5.899 22.833 -5.897 21.671 -5.896 20.473 C-5.897 19.456 -5.898 18.439 -5.899 17.392 C-5.776 15.114 -5.776 15.114 -4.776 14.114 C-4.566 11.951 -4.408 9.783 -4.276 7.614 C-3.822 0.156 -3.822 0.156 0 0 Z " fill="#CFE7D3" transform="translate(165.775634765625,205.886474609375)"/>
<path d="M0 0 C3.92 1.992 6.322 4.976 8 9 C8.768 12.995 8.861 16.536 6.762 20.105 C3.727 23.757 1.627 25.683 -3.27 26.273 C-7.764 26.453 -10.983 26.579 -14.562 23.625 C-18.446 19.443 -18.448 16.411 -18.426 10.84 C-17.757 6.379 -15.41 3.809 -12 1 C-8.271 -0.865 -4.06 -0.56 0 0 Z " fill="#0F3E17" transform="translate(402,270)"/>
<path d="M0 0 C0.33 0 0.66 0 1 0 C1 14.52 1 29.04 1 44 C-16.82 44 -34.64 44 -53 44 C-53 38.72 -53 33.44 -53 28 C-49.767 29.94 -47.211 31.494 -44.438 33.875 C-43.879 34.347 -43.321 34.819 -42.746 35.305 C-41 37 -41 37 -39.421 39.562 C-36.58 42.422 -34.83 42.615 -30.875 42.719 C-30.096 42.715 -29.318 42.711 -28.516 42.707 C-27.792 42.722 -27.069 42.736 -26.324 42.751 C-23.633 42.799 -20.941 42.803 -18.25 42.812 C-12.228 42.874 -6.205 42.936 0 43 C0 28.81 0 14.62 0 0 Z " fill="#CFE7D3" transform="translate(349,223)"/>
<path d="M0 0 C5.28 0 10.56 0 16 0 C16 3.3 16 6.6 16 10 C11.38 10 6.76 10 2 10 C2.065 7.982 2.13 5.964 2.195 3.945 C2 2 2 2 0 0 Z " fill="#CFE7D3" transform="translate(248,328)"/>
<path d="M0 0 C0.644 0.006 0.644 0.006 3.902 0.035 C5.193 0.044 6.483 0.053 7.812 0.062 C8.812 0.074 9.811 0.086 10.84 0.098 C10.84 2.738 10.84 5.378 10.84 8.098 C7.367 9.255 4.859 9.12 1.203 8.977 C-0.096 8.928 -1.394 8.88 -2.732 8.83 C-4.104 8.774 -5.476 8.717 -6.848 8.66 C-8.231 8.607 -9.615 8.554 -10.998 8.502 C-14.386 8.372 -17.773 8.237 -21.16 8.098 C-21.16 7.768 -21.16 7.438 -21.16 7.098 C-18.355 6.933 -18.355 6.933 -4.16 6.098 C-4.16 4.448 -4.16 2.798 -4.16 1.098 C-3.16 0.098 -3.16 0.098 0 0 Z " fill="#CFE7D3" transform="translate(341.16015625,117.90234375)"/>
<path d="M0 0 C2 1.688 2 1.688 3 4 C2.861 6.853 2.369 8.465 0.75 10.812 C-1.709 12.481 -3.085 12.498 -6 12 C-8.774 9.976 -9.855 8.848 -10.438 5.438 C-10 3 -10 3 -8.938 1.188 C-5.874 -0.69 -3.498 -0.437 0 0 Z " fill="#CFE7D3" transform="translate(259,251)"/>
<path d="M0 0 C2.691 0.176 5.329 0.618 8 1 C8 5.62 8 10.24 8 15 C6.68 15.33 5.36 15.66 4 16 C3.67 18.64 3.34 21.28 3 24 C2.67 24 2.34 24 2 24 C1.976 23.463 1.976 23.463 1.852 20.746 C1.776 19.31 1.701 17.874 1.625 16.438 C1.594 15.733 1.563 15.029 1.531 14.303 C1.27 9.587 0.453 5.496 -1 1 C-0.67 0.67 -0.34 0.34 0 0 Z " fill="#CFE7D3" transform="translate(432,264)"/>
<path d="M0 0 C2.375 0.75 2.375 0.75 3.375 1.75 C3.562 4.688 3.562 4.688 3.375 7.75 C2.715 8.41 2.055 9.07 1.375 9.75 C-1.75 9.375 -1.75 9.375 -4.625 8.75 C-5.953 3.316 -5.953 3.316 -4.5 0.812 C-2.625 -0.25 -2.625 -0.25 0 0 Z " fill="#CFE7D3" transform="translate(397.625,278.25)"/>
<path d="M0 0 C1.937 -0.054 3.875 -0.093 5.812 -0.125 C6.891 -0.148 7.97 -0.171 9.082 -0.195 C12 0 12 0 15 2 C14.67 2.66 14.34 3.32 14 4 C13.361 3.691 12.721 3.381 12.062 3.062 C8.08 1.681 4.183 1.346 0 1 C0 0.67 0 0.34 0 0 Z " fill="#CFE7D3" transform="translate(252,241)"/>
<path d="M0 0 C0.99 0.33 1.98 0.66 3 1 C2.34 2.65 1.68 4.3 1 6 C0.01 5.67 -0.98 5.34 -2 5 C-1.34 3.35 -0.68 1.7 0 0 Z " fill="#CFE7D3" transform="translate(306,291)"/>
<path d="M0 0 C0.99 0.33 1.98 0.66 3 1 C3.688 3.062 3.688 3.062 4 5 C3.34 5.33 3.34 5.33 0 7 C0 4.69 0 2.38 0 0 Z " fill="#CFE7D3" transform="translate(224,247)"/>
<path d="M0 0 C7.385 -0.369 7.385 -0.369 10.5 1.5 C10.995 1.995 11.49 2.49 12 3 C7.97 2.447 3.98 1.844 0 1 C0 0.67 0 0.34 0 0 Z " fill="#0F3E17" transform="translate(252,104)"/>
<path d="M0 0 C0 3 0 3 -1.875 5.188 C-4 7 -4 7 -6 7 C-4.607 3.633 -3.021 2.014 0 0 Z " fill="#CFE7D3" transform="translate(159,196)"/>
</svg>
