<?xml version="1.0" encoding="UTF-8"?>
<svg viewBox="0 0 512 512" version="1.1" xmlns="http://www.w3.org/2000/svg">
<path d="M0 0 C5.173 2.983 9.32 6.895 13.625 11 C14.324 11.661 15.024 12.321 15.744 13.002 C20.569 17.58 25.293 22.251 29.965 26.984 C33.274 30.322 36.687 33.474 40.281 36.5 C42.282 38.246 44.139 40.107 46 42 C46.026 41.192 46.052 40.384 46.078 39.551 C46.545 30.748 46.545 30.748 48.938 26.812 C53.657 22.665 59.309 23.738 65.312 23.688 C66.454 23.658 67.595 23.629 68.771 23.6 C77.208 23.536 77.208 23.536 81.23 25.895 C83.735 28.875 84.12 30.411 84.062 34.215 C84.053 35.087 84.044 35.959 84.035 36.857 C84.023 37.802 84.012 38.748 84 39.723 C83.999 41.726 84 43.729 84.004 45.732 C84.008 48.891 84 52.047 83.949 55.205 C83.687 72.747 83.687 72.747 86.941 78.329 C89.183 80.584 91.332 82.286 94 84 C95.243 85.046 96.475 86.106 97.688 87.188 C98.322 87.731 98.956 88.275 99.609 88.836 C102.987 91.894 106.211 95.096 109.438 98.312 C109.752 98.624 109.752 98.624 111.341 100.202 C111.928 100.791 112.516 101.381 113.121 101.988 C113.651 102.52 114.182 103.051 114.728 103.599 C117.801 106.984 117.448 110.797 117.414 115.164 C116.75 119.711 114.519 122.195 111 125 C107.081 127.372 102.481 127.915 98 127 C95.69 125.68 93.38 124.36 91 123 C91 136.2 91 149.4 91 163 C107 162.5 107 162.5 112 162.279 C122.415 162.013 122.415 162.013 126.74 164.707 C128.738 166.703 130.365 168.704 132 171 C133.019 172.043 134.04 173.085 135.062 174.125 C137 177 137 177 136.906 179.871 C135.803 183.68 134.31 185.232 131.438 187.938 C130.536 188.795 129.635 189.652 128.707 190.535 C125.733 193.243 122.747 195.926 119.676 198.523 C118 200 118 200 115.812 202.5 C114 204 114 204 111.688 204.188 C107.648 202.402 104.749 199.43 102 196 C102 195.34 102 194.68 102 194 C100.708 195.124 99.416 196.249 98.125 197.375 C97.406 198.001 96.686 198.628 95.945 199.273 C94.592 200.474 93.279 201.721 92 203 C89.312 203.625 89.312 203.625 86 203 C83.352 200.569 81.162 197.866 79 195 C75.547 196.151 74.619 197.321 72.312 200.062 C71.69 200.796 71.067 201.529 70.426 202.285 C69.955 202.851 69.485 203.417 69 204 C65.922 203.661 64.351 203.326 62.051 201.188 C61.477 200.466 60.904 199.744 60.312 199 C57.152 195.076 57.152 195.076 55 194 C54.794 194.536 54.587 195.072 54.375 195.625 C52.494 198.873 50.162 201.92 47 204 C44.15 203.886 43.138 203.133 41.078 201.152 C40.475 200.421 39.872 199.691 39.25 198.938 C38.636 198.204 38.023 197.471 37.391 196.715 C36.932 196.149 36.473 195.583 36 195 C33.4 197.496 31.06 200.116 28.75 202.875 C21.634 210.983 11.147 218.061 0.122 219.193 C-14.014 219.732 -25.714 218.48 -36.941 208.941 C-48.432 198.105 -54.657 186.016 -55.438 170 C-54.926 156.861 -48.649 145.164 -39.312 136.188 C-27.87 126.454 -15.774 123.176 -1 124 C1.91 124.39 4.166 125.055 7 126 C7.776 126.245 8.552 126.49 9.352 126.742 C20.779 130.74 28.925 138.655 35 149 C37.078 153.572 39 157.935 39 163 C53.85 163 68.7 163 84 163 C83.977 159.63 83.954 156.261 83.93 152.789 C83.914 149.536 83.902 146.283 83.89 143.029 C83.88 140.763 83.866 138.497 83.849 136.231 C83.825 132.98 83.814 129.728 83.805 126.477 C83.8 125.968 83.8 125.968 83.773 123.392 C83.773 122.452 83.773 121.511 83.773 120.542 C83.769 119.711 83.764 118.88 83.759 118.025 C84 116 84 116 86 114 C89.028 113.507 91.104 113.422 93.738 115.121 C94.32 115.576 94.901 116.031 95.5 116.5 C98.015 118.454 98.916 118.987 102.188 119.5 C105.432 118.923 106.87 118.539 109 116 C109.57 112.879 109.57 112.879 109 109 C106.857 105.955 104.225 103.522 101.5 101 C100.804 100.327 100.108 99.654 99.391 98.961 C95.28 95.018 91.033 91.246 86.732 87.514 C84.786 85.813 82.901 84.067 81.062 82.25 C80.497 81.698 79.931 81.147 79.348 80.578 C76.991 77.818 76.864 75.094 76.795 71.62 C76.775 70.74 76.755 69.859 76.734 68.952 C76.726 68.478 76.726 68.478 76.684 66.082 C76.663 65.11 76.642 64.137 76.621 63.135 C76.555 60.028 76.496 56.92 76.438 53.812 C76.394 51.706 76.351 49.6 76.307 47.494 C76.199 42.33 76.1 37.165 76 32 C69.07 32 62.14 32 55 32 C54.688 41.312 54.688 41.312 54.612 44.236 C54.596 44.618 54.596 44.618 54.512 46.551 C54.486 47.331 54.459 48.111 54.432 48.915 C54 51 54 51 52.781 52.841 C51 54 51 54 48.544 53.897 C45.686 52.889 44.376 51.828 42.293 49.648 C41.623 48.961 40.954 48.274 40.264 47.566 C39.579 46.843 38.893 46.12 38.188 45.375 C33.561 40.567 28.901 35.955 23.837 31.608 C21.26 29.353 18.893 26.95 16.5 24.5 C12.69 20.632 8.787 16.944 4.641 13.438 C3 12 3 12 0.812 9.562 C-1 8 -1 8 -3.312 7.312 C-6.883 8.226 -8.436 10.089 -10.863 12.785 C-13.395 15.41 -16.115 17.747 -18.87 20.133 C-22.22 23.069 -25.45 26.128 -28.688 29.188 C-30.096 30.513 -31.505 31.839 -32.914 33.164 C-33.605 33.814 -34.297 34.464 -35.009 35.134 C-37.846 37.792 -40.702 40.43 -43.562 43.062 C-48.248 47.375 -52.911 51.713 -57.562 56.062 C-62.981 61.129 -68.435 66.155 -73.91 71.16 C-77.441 74.396 -80.939 77.667 -84.438 80.938 C-88.675 84.899 -92.914 88.859 -97.173 92.796 C-98.254 93.796 -99.332 94.797 -100.409 95.801 C-102.899 98.114 -105.407 100.336 -108.031 102.5 C-114.821 108.145 -114.821 108.145 -115.812 112.875 C-115 116 -115 116 -113.938 117.938 C-110.76 119.68 -108.566 119.476 -105 119 C-103.119 117.825 -101.44 116.502 -99.703 115.125 C-97.069 113.385 -95.038 113.435 -92 114 C-89.743 117.386 -89.747 118.542 -89.735 122.51 C-89.731 123.083 -89.731 123.083 -89.71 125.982 C-89.71 126.611 -89.71 126.611 -89.713 129.793 C-89.707 131.13 -89.7 132.467 -89.692 133.804 C-89.677 136.684 -89.669 139.563 -89.664 142.443 C-89.658 146.993 -89.636 151.543 -89.612 156.093 C-89.559 166.571 -89.525 177.05 -89.492 187.529 C-89.462 197.134 -89.427 206.74 -89.376 216.345 C-89.352 220.872 -89.339 225.398 -89.332 229.924 C-89.326 232.736 -89.312 235.547 -89.296 238.358 C-89.287 240.29 -89.289 242.222 -89.29 244.154 C-89.286 244.725 -89.286 244.725 -89.265 247.617 C-89.262 248.614 -89.259 249.611 -89.256 250.638 C-89 253 -89 253 -87 255 C-84.136 255.254 -84.136 255.254 -80.395 255.261 C-79.709 255.265 -79.022 255.268 -78.315 255.272 C-76.004 255.283 -73.694 255.279 -71.383 255.275 C-69.731 255.279 -68.078 255.284 -66.426 255.29 C-61.93 255.304 -57.435 255.304 -52.939 255.302 C-49.191 255.301 -45.443 255.305 -41.696 255.31 C-32.858 255.321 -24.02 255.322 -15.182 255.316 C-6.051 255.31 3.08 255.322 12.21 255.343 C20.039 255.361 27.867 255.367 35.696 255.364 C40.376 255.362 45.056 255.364 49.737 255.378 C54.136 255.391 58.535 255.389 62.935 255.376 C64.553 255.374 66.171 255.376 67.789 255.385 C69.992 255.395 72.193 255.387 74.395 255.374 C75.629 255.374 76.864 255.375 78.136 255.375 C79.081 255.251 80.026 255.127 81 255 C83.024 251.964 83.254 251.327 83.303 247.912 C83.311 247.503 83.311 247.503 83.353 245.435 C83.362 244.556 83.37 243.678 83.379 242.773 C83.387 242.322 83.387 242.322 83.43 240.036 C83.484 237.149 83.524 234.262 83.562 231.375 C83.606 228.481 83.653 225.587 83.705 222.693 C83.737 220.891 83.764 219.089 83.786 217.287 C83.888 211.112 83.888 211.112 85 210 C87.5 209.875 87.5 209.875 90 210 C92.152 212.152 91.189 217.087 91.203 220.074 C91.209 220.991 91.215 221.907 91.22 222.852 C91.23 224.798 91.236 226.744 91.24 228.69 C91.25 231.658 91.281 234.624 91.312 237.592 C91.319 239.482 91.324 241.372 91.328 243.262 C91.34 244.146 91.353 245.031 91.366 245.942 C91.347 251.018 91.011 254.711 88 259 C83.518 262.582 80.536 263.503 74.834 263.521 C74.135 263.529 73.437 263.537 72.717 263.545 C70.389 263.565 68.061 263.557 65.733 263.549 C64.058 263.558 62.384 263.568 60.71 263.58 C56.171 263.607 51.632 263.608 47.092 263.603 C43.3 263.601 39.508 263.611 35.716 263.62 C26.768 263.643 17.82 263.643 8.873 263.631 C-0.352 263.619 -9.577 263.644 -18.802 263.686 C-26.728 263.722 -34.654 263.734 -42.581 263.727 C-47.312 263.724 -52.043 263.729 -56.775 263.757 C-61.225 263.782 -65.674 263.778 -70.123 263.752 C-71.754 263.747 -73.385 263.753 -75.015 263.769 C-88.856 263.899 -88.856 263.899 -93.4 260.266 C-97.234 256.323 -98.251 251.913 -98.241 246.539 C-98.243 245.455 -98.246 244.372 -98.249 243.255 C-98.242 242.076 -98.234 240.897 -98.227 239.682 C-98.227 238.433 -98.228 237.184 -98.228 235.897 C-98.227 232.48 -98.217 229.063 -98.203 225.646 C-98.19 222.072 -98.189 218.498 -98.187 214.924 C-98.181 208.159 -98.164 201.395 -98.144 194.631 C-98.122 186.928 -98.111 179.226 -98.101 171.523 C-98.08 155.682 -98.045 139.841 -98 124 C-98.385 124.243 -98.385 124.243 -100.332 125.473 C-104.729 127.99 -109.073 127.644 -114 127 C-117.82 125.227 -119.483 123.741 -121.875 120.312 C-123.286 116.158 -123.916 112.329 -123 108 C-120.173 102.926 -116.443 99.342 -112.188 95.5 C-110.841 94.265 -109.495 93.029 -108.148 91.793 C-107.461 91.166 -106.774 90.538 -106.065 89.892 C-102.79 86.892 -99.554 83.85 -96.312 80.812 C-90.887 75.743 -85.429 70.711 -79.949 65.699 C-71.424 57.897 -62.958 50.034 -54.516 42.141 C-49.738 37.679 -44.924 33.258 -40.098 28.848 C-36.521 25.569 -32.981 22.252 -29.438 18.938 C-27.553 17.178 -25.668 15.42 -23.782 13.662 C-22.63 12.587 -21.478 11.512 -20.327 10.436 C-18.827 9.036 -17.32 7.643 -15.812 6.25 C-14.973 5.471 -14.134 4.693 -13.27 3.891 C-8.885 0.238 -5.751 -0.595 0 0 Z " fill="#0F3E17" transform="translate(265,118)"/>
<path d="M0 0 C8.008 6.863 12.395 15.273 14.75 25.438 C15.082 26.771 15.415 28.105 15.75 29.438 C16.824 29.432 17.899 29.427 19.006 29.422 C29.143 29.377 39.28 29.375 49.417 29.414 C54.629 29.433 59.84 29.437 65.052 29.407 C70.084 29.378 75.114 29.389 80.146 29.426 C82.063 29.434 83.981 29.427 85.898 29.406 C100.81 29.258 100.81 29.258 105.558 32.145 C107.518 34.222 108.803 35.744 109.75 38.438 C109.315 42.972 106.175 45.203 102.938 48.062 C102.403 48.552 101.869 49.042 101.318 49.547 C98.627 51.97 96.116 54.052 92.75 55.438 C92.231 54.86 91.711 54.283 91.176 53.688 C90.827 53.316 90.827 53.316 89.062 51.438 C88.378 50.695 87.694 49.952 86.988 49.188 C84.75 47.438 84.75 47.438 82.25 46.938 C78.935 47.601 77.71 48.972 75.438 51.438 C74.74 52.18 74.043 52.923 73.324 53.688 C72.805 54.265 72.285 54.842 71.75 55.438 C70.624 54.48 69.499 53.522 68.375 52.562 C67.749 52.029 67.122 51.495 66.477 50.945 C65.192 49.823 63.956 48.644 62.75 47.438 C60.062 46.812 60.062 46.812 56.75 47.438 C54.102 49.868 51.912 52.572 49.75 55.438 C46.575 54.051 45.611 53.258 43.375 50.375 C40.75 47.438 40.75 47.438 37.438 46.562 C36.551 46.521 35.664 46.48 34.75 46.438 C34.647 46.716 34.647 46.716 34.125 48.125 C32.2 51.363 29.711 53.12 26.75 55.438 C26.242 54.776 25.734 54.115 25.211 53.434 C24.523 52.589 23.834 51.745 23.125 50.875 C22.452 50.028 21.779 49.181 21.086 48.309 C18.75 46.438 18.75 46.438 15.684 46.344 C11.967 47.729 11.28 49.038 9.438 52.5 C3.783 62.061 -4.653 69.198 -15.574 72.043 C-27.941 73.866 -38.712 72.973 -49 65.418 C-57.277 58.385 -64.422 49.593 -65.43 38.445 C-66.259 24.901 -64.502 15.365 -55.52 4.766 C-40.622 -10.517 -17.32 -12.627 0 0 Z " fill="#CFE7D3" transform="translate(283.25,257.5625)"/>
<path d="M0 0 C2.5 0.125 2.5 0.125 3.5 1.125 C3.626 4.157 3.689 7.166 3.703 10.199 C3.709 11.116 3.715 12.032 3.72 12.977 C3.73 14.923 3.736 16.869 3.74 18.815 C3.75 21.783 3.781 24.749 3.812 27.717 C3.819 29.607 3.824 31.497 3.828 33.387 C3.84 34.271 3.853 35.156 3.866 36.067 C3.847 41.143 3.511 44.836 0.5 49.125 C-3.998 52.726 -6.975 53.624 -12.7 53.613 C-13.402 53.617 -14.104 53.621 -14.827 53.625 C-17.167 53.634 -19.507 53.615 -21.847 53.595 C-23.529 53.595 -25.211 53.598 -26.894 53.602 C-31.453 53.607 -36.013 53.588 -40.572 53.564 C-45.343 53.542 -50.113 53.543 -54.883 53.541 C-62.89 53.534 -70.896 53.513 -78.902 53.482 C-89.188 53.441 -99.474 53.424 -109.76 53.414 C-118.596 53.406 -127.433 53.389 -136.269 53.369 C-139.114 53.363 -141.959 53.358 -144.803 53.353 C-149.265 53.344 -153.727 53.33 -158.189 53.311 C-159.83 53.305 -161.47 53.301 -163.111 53.298 C-165.343 53.294 -167.576 53.284 -169.808 53.272 C-170.434 53.27 -170.434 53.27 -173.6 53.259 C-176.5 53.125 -176.5 53.125 -178.5 52.125 C-177.927 49.258 -177.639 48.264 -175.5 46.125 C-172.62 45.872 -172.62 45.872 -168.857 45.867 C-168.167 45.863 -167.476 45.859 -166.765 45.856 C-164.44 45.846 -162.116 45.85 -159.791 45.854 C-158.129 45.849 -156.467 45.844 -154.805 45.838 C-151.22 45.826 -147.636 45.821 -144.052 45.82 C-138.388 45.818 -132.725 45.8 -127.062 45.779 C-112.996 45.73 -98.929 45.699 -84.863 45.678 C-73.933 45.661 -63.003 45.639 -52.073 45.595 C-46.439 45.573 -40.805 45.565 -35.17 45.567 C-31.671 45.566 -28.171 45.552 -24.671 45.534 C-23.044 45.529 -21.416 45.528 -19.788 45.533 C-17.573 45.539 -15.358 45.527 -13.143 45.51 C-12.522 45.509 -12.522 45.509 -9.38 45.504 C-8.429 45.379 -7.479 45.254 -6.5 45.125 C-4.476 42.089 -4.246 41.452 -4.197 38.037 C-4.189 37.628 -4.189 37.628 -4.147 35.56 C-4.138 34.681 -4.13 33.803 -4.121 32.898 C-4.104 31.995 -4.087 31.092 -4.07 30.161 C-4.016 27.274 -3.976 24.387 -3.938 21.5 C-3.894 18.606 -3.847 15.712 -3.795 12.818 C-3.763 11.016 -3.736 9.214 -3.714 7.412 C-3.594 0.18 -3.594 0.18 0 0 Z " fill="#0F3E17" transform="translate(352.5,327.875)"/>
<path d="M0 0 C2.257 3.385 2.253 4.538 2.265 8.504 C2.269 9.076 2.269 9.076 2.29 11.971 C2.289 13.227 2.288 14.483 2.287 15.777 C2.293 17.113 2.3 18.448 2.308 19.784 C2.323 22.66 2.331 25.536 2.336 28.412 C2.342 32.958 2.364 37.504 2.388 42.051 C2.441 52.521 2.475 62.992 2.508 73.463 C2.538 83.059 2.573 92.655 2.624 102.251 C2.648 106.772 2.661 111.293 2.668 115.814 C2.674 118.625 2.688 121.435 2.704 124.245 C2.713 126.173 2.711 128.101 2.71 130.029 C2.714 130.601 2.714 130.601 2.735 133.496 C2.738 134.493 2.741 135.489 2.744 136.515 C3 139 3 139 5 142 C3.35 143.65 1.7 145.3 0 147 C-4.216 142.135 -6.127 139.401 -6.12 132.78 C-6.122 131.699 -6.123 130.618 -6.124 129.504 C-6.121 128.318 -6.117 127.131 -6.114 125.909 C-6.114 124.661 -6.114 123.412 -6.114 122.125 C-6.113 118.7 -6.108 115.274 -6.101 111.849 C-6.095 108.269 -6.095 104.69 -6.093 101.111 C-6.09 94.332 -6.082 87.553 -6.072 80.775 C-6.061 73.058 -6.055 65.341 -6.05 57.624 C-6.04 41.749 -6.022 25.875 -6 10 C-6.769 10.486 -7.538 10.972 -8.33 11.473 C-12.705 13.975 -17.097 13.684 -22 13 C-25.188 11.125 -25.188 11.125 -27 9 C-27 8.34 -27 7.68 -27 7 C-26.34 6.67 -25.68 6.34 -25 6 C-24.34 5.01 -23.68 4.02 -23 3 C-22.01 3.66 -21.02 4.32 -20 5 C-16.657 5.45 -14.144 5.712 -11.199 3.879 C-10.031 2.965 -8.866 2.047 -7.703 1.125 C-5.069 -0.615 -3.038 -0.565 0 0 Z " fill="#0F3E17" transform="translate(173,232)"/>
<path d="M0 0 C3.724 3.291 6.131 6.441 7.07 11.395 C7.366 16.555 5.888 19.463 2.688 23.375 C-0.216 26.63 -2.122 28.107 -6.547 28.648 C-12.041 28.87 -15.633 28.46 -19.906 24.852 C-23.35 21.235 -24.488 17.761 -24.75 12.875 C-24.584 8.38 -23.281 5.825 -20.312 2.375 C-13.875 -3.435 -7.709 -3.782 0 0 Z " fill="#0F3E17" transform="translate(256.3125,275.625)"/>
<path d="M0 0 C0.66 0 1.32 0 2 0 C4.83 4.716 5.983 8.597 5 14 C2.385 18.856 -0.657 23.219 -6 25 C-11.07 25.532 -14.957 25.486 -19.625 23.312 C-22 21 -22 21 -22.5 18.438 C-22 16 -22 16 -20 13 C-19.34 13 -18.68 13 -18 13 C-17.722 13.33 -17.722 13.33 -16.312 15 C-14 17 -14 17 -10.438 17.438 C-7 17 -7 17 -5.125 15.938 C-3.462 13.073 -3.344 10.265 -3 7 C-2.396 3.892 -1.841 2.761 0 0 Z " fill="#0F3E17" transform="translate(258,279)"/>
<path d="M0 0 C4.055 1.352 5.399 2.339 7.375 6.125 C7.375 10.045 6.927 12.297 4.75 15.562 C1.373 17.784 -0.66 17.751 -4.625 17.125 C-8.309 14.539 -9.442 13.055 -10.312 8.625 C-9.625 5.125 -9.625 5.125 -7.062 2.125 C-3.625 0.125 -3.625 0.125 0 0 Z " fill="#CFE7D3" transform="translate(248.625,279.875)"/>
<path d="M0 0 C0.66 0.33 1.32 0.66 2 1 C2 1.99 2 2.98 2 4 C-3.487 5.868 -8.222 6.236 -14 6 C-11.668 3.668 -10.145 3.311 -7 2.438 C-2.159 1.079 -2.159 1.079 0 0 Z " fill="#CFE7D3" transform="translate(270,324)"/>
<path d="M0 0 C0.402 0.01 0.402 0.01 2.438 0.062 C2.438 1.053 2.438 2.042 2.438 3.062 C-0.062 5.25 -0.062 5.25 -2.562 7.062 C-3.223 6.403 -3.882 5.743 -4.562 5.062 C-3.81 0.093 -3.81 0.093 0 0 Z " fill="#0F3E17" transform="translate(275.5625,127.9375)"/>
<path d="M0 0 C0.33 0.66 0.66 1.32 1 2 C0.763 2.217 0.763 2.217 -0.438 3.312 C-2 5 -2 5 -3 8 C-5.312 9.062 -5.312 9.062 -8 10 C-9.341 10.652 -10.677 11.314 -12 12 C-8.394 7.411 -4.526 3.678 0 0 Z " fill="#CFE7D3" transform="translate(189,190)"/>
<path d="M0 0 C1.32 0.66 2.64 1.32 4 2 C2.625 4.5 2.625 4.5 1 7 C0.34 7 -0.32 7 -1 7 C-1.625 4.625 -1.625 4.625 -2 2 C-1.34 1.34 -0.68 0.68 0 0 Z " fill="#0F3E17" transform="translate(285,252)"/>
<path d="M0 0 C0 3 0 3 -1.75 4.824 C-2.493 5.439 -3.235 6.054 -4 6.688 C-4.743 7.31 -5.485 7.933 -6.25 8.574 C-6.827 9.045 -7.405 9.515 -8 10 C-8.66 9.67 -9.32 9.34 -10 9 C-6.7 6.03 -3.4 3.06 0 0 Z " fill="#CFE7D3" transform="translate(228,154)"/>
<path d="M0 0 C1.65 0.33 3.3 0.66 5 1 C5 1.99 5 2.98 5 4 C3.02 4.33 1.04 4.66 -1 5 C-1.33 4.01 -1.66 3.02 -2 2 C-1.34 2 -0.68 2 0 2 C0 1.34 0 0.68 0 0 Z " fill="#0F3E17" transform="translate(325,310)"/>
<path d="M0 0 C0.684 1.797 0.684 1.797 1 4 C-0.215 5.703 -0.215 5.703 -1.938 7.25 C-2.503 7.771 -3.069 8.292 -3.652 8.828 C-4.097 9.215 -4.542 9.602 -5 10 C-5.66 9.67 -6.32 9.34 -7 9 C-6.578 8.518 -6.157 8.036 -5.723 7.539 C-5.175 6.907 -4.627 6.276 -4.062 5.625 C-3.517 4.999 -2.972 4.372 -2.41 3.727 C-1 2 -1 2 0 0 Z " fill="#0F3E17" transform="translate(292,310)"/>
<path d="M0 0 C0 3.971 -1.314 5.165 -4 8 C-6.141 8.648 -6.141 8.648 -8 9 C-7.043 7.874 -6.084 6.749 -5.125 5.625 C-4.591 4.999 -4.058 4.372 -3.508 3.727 C-2.386 2.442 -1.206 1.206 0 0 Z " fill="#0F3E17" transform="translate(385,305)"/>
<path d="M0 0 C0.66 0.33 1.32 0.66 2 1 C-0.657 4.739 -2.581 6.65 -7 8 C-6.021 6.854 -5.042 5.708 -4.062 4.562 C-3.517 3.924 -2.972 3.286 -2.41 2.629 C-1.632 1.73 -0.841 0.841 0 0 Z " fill="#0F3E17" transform="translate(363,304)"/>
<path d="M0 0 C0.66 0.33 1.32 0.66 2 1 C0.845 1.99 0.845 1.99 -5 7 C-5.66 6.67 -6.32 6.34 -7 6 C-4.69 4.02 -2.38 2.04 0 0 Z " fill="#0F3E17" transform="translate(152,215)"/>
<path d="M0 0 C0.66 0.33 1.32 0.66 2 1 C1.312 2.938 1.312 2.938 0 5 C-2.625 5.75 -2.625 5.75 -5 6 C-3.35 4.02 -1.7 2.04 0 0 Z " fill="#0F3E17" transform="translate(205,165)"/>
<path d="M0 0 C0.66 0.66 1.32 1.32 2 2 C1.01 2.825 1.01 2.825 -4 7 C-4 4 -4 4 -2 1.812 C-1.34 1.214 -0.68 0.616 0 0 Z " fill="#0F3E17" transform="translate(232,140)"/>
</svg>
