<?xml version="1.0" encoding="UTF-8"?>
<svg viewBox="0 0 512 512" version="1.1" xmlns="http://www.w3.org/2000/svg">
<path d="M0 0 C11.193 8.877 20.844 21.873 22.802 36.335 C22.989 40.12 23.003 43.865 22.945 47.654 C22.965 48.914 22.984 50.173 23.004 51.471 C22.934 65.047 18.878 76.192 10.32 86.779 C9.548 87.768 8.776 88.757 7.98 89.775 C0.037 99.229 -13.514 106.314 -25.68 107.779 C-45.069 109.082 -59.964 106.354 -75.301 93.6 C-86.979 82.757 -94.014 68.454 -95.02 52.475 C-95.63 35.23 -90.479 20.493 -79.164 7.318 C-57.932 -14.381 -24.74 -17.979 0 0 Z " fill="#CFE7D3" transform="translate(377.6796875,284.220703125)"/>
<path d="M0 0 C1.412 -0.004 2.824 -0.009 4.235 -0.016 C8.049 -0.03 11.863 -0.024 15.677 -0.015 C19.676 -0.007 23.674 -0.014 27.673 -0.019 C34.384 -0.024 41.094 -0.017 47.805 -0.003 C55.559 0.013 63.312 0.008 71.066 -0.008 C77.733 -0.022 84.4 -0.024 91.067 -0.016 C95.044 -0.011 99.022 -0.011 103 -0.021 C106.737 -0.029 110.474 -0.023 114.211 -0.006 C116.235 -0 118.258 -0.009 120.281 -0.018 C120.884 -0.014 120.884 -0.014 123.938 0.007 C124.985 0.008 126.032 0.009 127.111 0.011 C132.901 0.78 136.498 4.644 140.445 8.65 C140.954 9.159 141.463 9.669 141.987 10.194 C143.06 11.27 144.131 12.348 145.199 13.429 C146.81 15.058 148.429 16.68 150.05 18.3 C154.919 23.187 159.665 28.125 164.151 33.37 C168.107 37.801 172.412 41.907 176.64 46.076 C178.5 47.911 180.358 49.748 182.214 51.587 C183.028 52.39 183.843 53.193 184.682 54.02 C189.19 58.722 191.455 61.244 191.438 67.967 C191.441 68.622 191.441 68.622 191.457 71.94 C191.443 73.363 191.429 74.786 191.413 76.208 C191.411 77.674 191.41 79.139 191.411 80.605 C191.407 83.67 191.391 86.734 191.364 89.799 C191.33 93.728 191.322 97.656 191.324 101.585 C191.323 104.608 191.312 107.631 191.298 110.654 C191.292 112.103 191.288 113.552 191.286 115.001 C191.282 117.023 191.263 119.046 191.243 121.068 C191.235 122.219 191.228 123.37 191.22 124.555 C190.952 127.388 190.952 127.388 188.952 130.388 C186.452 130.701 186.452 130.701 183.952 130.388 C181.952 128.388 181.952 128.388 181.712 125.87 C181.716 124.808 181.721 123.747 181.725 122.653 C181.725 122.053 181.725 122.053 181.726 119.014 C181.736 117.712 181.746 116.409 181.757 115.068 C181.761 113.726 181.764 112.383 181.766 111.041 C181.773 107.506 181.793 103.972 181.815 100.437 C181.836 96.831 181.845 93.225 181.855 89.619 C181.876 82.542 181.91 75.465 181.952 68.388 C180.722 68.414 179.492 68.441 178.224 68.468 C173.632 68.558 169.04 68.616 164.448 68.663 C162.465 68.688 160.482 68.722 158.5 68.765 C155.64 68.826 152.782 68.854 149.921 68.876 C149.482 68.889 149.482 68.889 147.262 68.955 C140.938 68.958 136.875 67.369 131.952 63.388 C125.784 56.887 124.512 51.042 124.659 42.396 C124.664 41.45 124.668 40.504 124.672 39.53 C124.689 36.524 124.727 33.519 124.765 30.513 C124.78 28.469 124.794 26.425 124.806 24.38 C124.839 19.383 124.891 14.386 124.952 9.388 C106.802 9.425 88.652 9.485 70.502 9.572 C62.075 9.612 53.647 9.644 45.219 9.659 C37.873 9.672 30.528 9.699 23.182 9.743 C19.292 9.765 15.403 9.781 11.514 9.78 C7.852 9.779 4.19 9.797 0.527 9.829 C-1.454 9.842 -3.435 9.835 -5.417 9.827 C-16.324 9.955 -16.324 9.955 -21.048 14.388 C-24.276 18.664 -26.168 22.031 -26.182 27.405 C-26.186 28.225 -26.191 29.044 -26.195 29.889 C-26.195 30.789 -26.195 31.689 -26.195 32.617 C-26.197 33.095 -26.197 33.095 -26.206 35.515 C-26.217 38.735 -26.221 41.954 -26.225 45.174 C-26.231 47.477 -26.238 49.779 -26.245 52.082 C-26.262 58.349 -26.272 64.616 -26.281 70.882 C-26.286 74.796 -26.292 78.71 -26.298 82.624 C-26.315 93.463 -26.33 104.302 -26.337 115.141 C-26.339 117.953 -26.341 120.765 -26.343 123.578 C-26.343 124.277 -26.344 124.976 -26.344 125.696 C-26.353 137.017 -26.378 148.337 -26.41 159.658 C-26.443 171.283 -26.461 182.909 -26.465 194.535 C-26.467 201.061 -26.476 207.587 -26.501 214.113 C-26.524 220.253 -26.529 226.393 -26.518 232.534 C-26.518 234.786 -26.524 237.039 -26.538 239.292 C-26.556 242.37 -26.549 245.447 -26.535 248.525 C-26.546 249.414 -26.557 250.303 -26.569 251.219 C-26.5 257.916 -24.949 263.238 -20.341 268.241 C-14.288 272.026 -8.705 272.088 -1.697 272.016 C-0.479 272.023 0.738 272.03 1.992 272.038 C4.624 272.05 7.255 272.053 9.887 272.041 C14.047 272.021 18.206 272.037 22.366 272.056 C28.94 272.083 35.514 272.087 42.088 272.081 C53.879 272.07 65.67 272.094 77.46 272.134 C81.598 272.147 85.735 272.149 89.873 272.14 C93.041 272.136 96.209 272.143 99.378 272.149 C100.527 272.143 101.676 272.137 102.86 272.131 C103.903 272.135 104.946 272.139 106.02 272.143 C106.93 272.142 107.839 272.141 108.776 272.14 C110.952 272.388 110.952 272.388 112.952 274.388 C112.397 278.944 112.397 278.944 110.952 280.388 C109.313 280.493 107.669 280.528 106.027 280.535 C104.96 280.543 103.893 280.55 102.794 280.557 C101.613 280.56 100.432 280.562 99.216 280.565 C97.98 280.572 96.744 280.578 95.471 280.585 C92.07 280.601 88.669 280.613 85.268 280.621 C83.142 280.626 81.016 280.633 78.89 280.639 C72.236 280.658 65.582 280.672 58.928 280.68 C51.253 280.69 43.577 280.716 35.902 280.757 C29.968 280.787 24.035 280.802 18.101 280.805 C14.558 280.808 11.015 280.816 7.473 280.842 C3.513 280.869 -0.446 280.865 -4.405 280.858 C-5.572 280.871 -6.738 280.884 -7.94 280.897 C-15.965 280.846 -21.346 279.673 -27.509 274.205 C-27.824 273.833 -27.824 273.833 -29.423 271.951 C-30.07 271.209 -30.717 270.468 -31.384 269.705 C-35.345 264.19 -35.339 259.231 -35.322 252.667 C-35.327 251.682 -35.332 250.696 -35.338 249.681 C-35.353 246.375 -35.353 243.07 -35.354 239.764 C-35.362 237.396 -35.37 235.027 -35.379 232.658 C-35.401 226.22 -35.41 219.782 -35.415 213.344 C-35.418 209.321 -35.425 205.298 -35.432 201.275 C-35.452 190.129 -35.468 178.983 -35.471 167.837 C-35.471 167.481 -35.471 167.481 -35.471 165.676 C-35.472 164.231 -35.472 162.786 -35.473 161.341 C-35.473 160.623 -35.473 159.906 -35.473 159.167 C-35.473 158.448 -35.474 157.73 -35.474 156.99 C-35.477 145.357 -35.504 133.725 -35.542 122.092 C-35.58 110.139 -35.599 98.185 -35.599 86.232 C-35.6 79.524 -35.609 72.817 -35.637 66.11 C-35.664 59.799 -35.666 53.488 -35.65 47.177 C-35.648 44.864 -35.655 42.551 -35.671 40.238 C-35.691 37.073 -35.68 33.909 -35.662 30.744 C-35.676 29.835 -35.689 28.926 -35.702 27.99 C-35.603 20.385 -33.251 13.913 -28.087 8.231 C-19.744 0.21 -11.067 -0.051 0 0 Z " fill="#0F3E17" transform="translate(162.047607421875,101.61181640625)"/>
<path d="M0 0 C11.193 8.877 20.844 21.873 22.802 36.335 C22.989 40.12 23.003 43.865 22.945 47.654 C22.965 48.914 22.984 50.173 23.004 51.471 C22.934 65.047 18.878 76.192 10.32 86.779 C9.548 87.768 8.776 88.757 7.98 89.775 C0.037 99.229 -13.514 106.314 -25.68 107.779 C-45.069 109.082 -59.964 106.354 -75.301 93.6 C-86.979 82.757 -94.014 68.454 -95.02 52.475 C-95.63 35.23 -90.479 20.493 -79.164 7.318 C-57.932 -14.381 -24.74 -17.979 0 0 Z M-56.68 1.779 C-57.514 2.192 -58.348 2.604 -59.207 3.029 C-71.97 9.952 -80.68 20.877 -85.055 34.592 C-88.759 48.988 -86.579 62.148 -79.43 75.154 C-72.003 86.943 -61.079 94.981 -47.617 98.779 C-36.212 101.094 -26.5 99.92 -15.68 95.779 C-14.94 95.502 -14.2 95.225 -13.438 94.939 C-2.518 90.181 6.471 79.694 11.441 69.025 C16.888 55.106 17.01 40.721 11.102 26.936 C4.496 13.871 -5.575 4.816 -19.117 -0.658 C-30.984 -4.237 -45.636 -4.043 -56.68 1.779 Z " fill="#0F3E17" transform="translate(377.6796875,284.220703125)"/>
<path d="M0 0 C4.556 0.556 4.556 0.556 6 2 C6.141 4.671 6.042 7.324 6 10 C7.031 10.186 8.062 10.371 9.125 10.562 C13.768 11.889 16.657 14.832 19 19 C18.875 21.938 18.875 21.938 18 24 C16.35 24.33 14.7 24.66 13 25 C12.381 24.196 11.762 23.391 11.125 22.562 C9 20 9 20 7 19 C5.357 18.879 3.709 18.825 2.062 18.812 C1.625 18.805 1.625 18.805 -0.59 18.77 C-3 19 -3 19 -6 21 C-6.714 26.626 -6.714 26.626 -6 29 C-2.491 31.699 1.134 32.71 5.375 33.812 C11.32 35.558 14.733 37.539 19 42 C20.964 45.928 20.336 50.708 20 55 C18.209 59.578 14.951 62.155 11 65 C8.125 65.812 8.125 65.812 6 66 C6.041 67.279 6.082 68.558 6.125 69.875 C6.195 72.055 6.195 72.055 6 74 C4 76 4 76 1.438 76.188 C-1 76 -1 76 -2 75 C-2.072 73.481 -2.084 71.958 -2.062 70.438 C-2.058 70.024 -2.058 70.024 -2.035 67.934 C-2.024 67.296 -2.012 66.657 -2 66 C-2.846 65.959 -3.691 65.918 -4.562 65.875 C-9.097 64.721 -11.791 62.333 -15 59 C-16.366 56.268 -16.128 54.018 -16 51 C-15 50 -15 50 -12.625 49.625 C-11.759 49.749 -10.892 49.873 -10 50 C-8.375 52.375 -8.375 52.375 -7 55 C-2.547 57.969 1.779 57.625 7 57 C9.688 55.375 9.688 55.375 11 53 C11.625 50 11.625 50 11 47 C6.601 42.727 0.938 41.66 -4.879 40.125 C-9.16 38.582 -11.93 36.292 -14.812 32.812 C-16.504 28.806 -16.681 25.285 -16 21 C-13.772 16.626 -11.097 13.698 -7 11 C-4.188 10.25 -4.188 10.25 -2 10 C-2.041 8.721 -2.082 7.442 -2.125 6.125 C-2.195 3.945 -2.195 3.945 -2 2 C-1.34 1.34 -0.68 0.68 0 0 Z " fill="#0F3E17" transform="translate(340,294)"/>
<path d="M0 0 C0.91 0 1.819 0.001 2.756 0.001 C3.233 -0 3.233 -0 5.644 -0.009 C8.81 -0.018 11.977 -0.02 15.143 -0.021 C17.334 -0.025 19.525 -0.028 21.716 -0.031 C26.316 -0.037 30.915 -0.039 35.514 -0.039 C41.421 -0.039 47.327 -0.052 53.233 -0.069 C57.76 -0.081 62.287 -0.083 66.814 -0.082 C68.992 -0.083 71.17 -0.088 73.348 -0.095 C76.39 -0.105 79.43 -0.102 82.471 -0.096 C83.379 -0.102 84.287 -0.108 85.222 -0.113 C91.45 -0.082 91.45 -0.082 93.679 2.147 C93.349 5.444 93.056 6.769 90.679 9.147 C87.651 9.351 84.715 9.43 81.687 9.421 C80.755 9.426 79.823 9.432 78.863 9.437 C75.771 9.451 72.68 9.45 69.589 9.447 C67.446 9.451 65.304 9.456 63.162 9.46 C58.667 9.468 54.172 9.468 49.677 9.462 C43.908 9.457 38.14 9.473 32.372 9.497 C27.946 9.511 23.521 9.512 19.095 9.509 C16.968 9.51 14.841 9.515 12.713 9.525 C9.742 9.537 6.771 9.531 3.8 9.519 C2.916 9.527 2.032 9.534 1.122 9.542 C0.313 9.535 -0.496 9.528 -1.33 9.521 C-1.681 9.521 -1.681 9.521 -3.459 9.521 C-5.911 9.028 -6.832 8.126 -8.321 6.147 C-7.714 -0.236 -6.088 0.032 0 0 Z " fill="#0F3E17" transform="translate(171.3214111328125,242.85336303710938)"/>
<path d="M0 0 C1.65 0 3.3 0 5 0 C6.619 5.435 7.92 10.897 9.125 16.438 C9.307 17.264 9.489 18.091 9.676 18.943 C10.119 20.962 10.56 22.981 11 25 C12.468 22.226 13.538 19.528 14.438 16.523 C14.693 15.688 14.948 14.853 15.211 13.992 C15.739 12.24 16.265 10.488 16.789 8.734 C16.917 8.318 16.917 8.318 17.562 6.211 C17.791 5.451 18.019 4.691 18.254 3.908 C19 2 19 2 21 0 C23.625 0.375 23.625 0.375 26 1 C27.832 6.223 29.238 11.522 30.625 16.875 C30.854 17.754 31.084 18.633 31.32 19.539 C31.882 21.692 32.442 23.846 33 26 C34.86 19.777 36.243 13.496 37.588 7.145 C38.895 1.105 38.895 1.105 40 0 C41.666 -0.041 43.334 -0.043 45 0 C44.459 8.027 42.895 15.677 41.062 23.5 C40.798 24.678 40.533 25.856 40.26 27.07 C40 28.192 39.74 29.313 39.473 30.469 C39.355 30.976 39.355 30.976 38.762 33.545 C38 36 38 36 36 38 C33.5 38.312 33.5 38.312 31 38 C29.123 35.184 28.519 33.609 27.781 30.402 C27.676 29.961 27.676 29.961 27.145 27.725 C26.714 25.863 26.284 24.001 25.855 22.139 C25.645 21.256 25.435 20.374 25.219 19.465 C25.032 18.657 24.846 17.848 24.654 17.015 C24 15 24 15 22 13 C21.873 13.447 21.873 13.447 21.23 15.711 C19.607 21.416 17.981 27.121 16.312 32.812 C16.082 33.603 15.851 34.393 15.613 35.207 C15 37 15 37 14 38 C11.562 38.188 11.562 38.188 9 38 C6.302 35.302 5.907 32.353 5.062 28.75 C4.891 28.039 4.72 27.328 4.544 26.596 C4.02 24.4 3.508 22.2 3 20 C2.843 19.331 2.686 18.663 2.525 17.974 C1.109 11.897 -0.188 6.267 0 0 Z " fill="#0F3E17" transform="translate(157,165)"/>
<path d="M0 0 C0.701 -0.002 1.402 -0.004 2.124 -0.005 C4.451 -0.01 6.778 -0.007 9.105 -0.003 C10.716 -0.004 12.326 -0.005 13.937 -0.006 C17.316 -0.008 20.696 -0.006 24.075 -0.001 C28.417 0.005 32.758 0.001 37.1 -0.005 C40.426 -0.008 43.753 -0.007 47.08 -0.004 C48.681 -0.004 50.282 -0.005 51.884 -0.007 C54.118 -0.009 56.352 -0.006 58.586 0 C59.223 0 59.223 0 62.446 0.002 C65.293 0.129 65.293 0.129 66.293 1.129 C66.418 4.129 66.418 4.129 66.293 7.129 C64.402 9.021 61.097 8.257 58.586 8.259 C57.885 8.261 57.184 8.262 56.462 8.264 C54.135 8.269 51.808 8.266 49.48 8.262 C47.87 8.263 46.26 8.264 44.649 8.265 C41.27 8.267 37.89 8.264 34.511 8.26 C30.169 8.254 25.828 8.257 21.486 8.263 C18.159 8.267 14.833 8.266 11.506 8.263 C9.905 8.263 8.303 8.263 6.702 8.266 C4.468 8.268 2.234 8.264 0 8.259 C-0.637 8.258 -0.637 8.258 -3.86 8.256 C-6.707 8.129 -6.707 8.129 -7.707 7.129 C-7.832 4.129 -7.832 4.129 -7.707 1.129 C-5.816 -0.762 -2.511 0.002 0 0 Z " fill="#0F3E17" transform="translate(171.70703125,292.87060546875)"/>
<path d="M0 0 C3.635 1.624 4.774 2.661 7 6 C7.475 11.794 7.036 14.9 4 20 C2.065 22.263 -0.034 24.32 -2.188 26.375 C-2.746 26.92 -3.305 27.466 -3.881 28.027 C-5.247 29.359 -6.623 30.68 -8 32 C-3.05 32.33 1.9 32.66 7 33 C7.33 34.32 7.66 35.64 8 37 C7 38 7 38 4.775 38.114 C3.817 38.108 2.858 38.103 1.871 38.098 C1.354 38.096 1.354 38.096 -1.264 38.088 C-2.352 38.08 -3.441 38.071 -4.562 38.062 C-5.109 38.06 -5.109 38.06 -7.873 38.049 C-10.582 38.037 -13.291 38.021 -16 38 C-16.631 35.663 -16.631 35.663 -17 33 C-15.359 30.956 -13.873 29.404 -11.938 27.688 C-10.916 26.721 -9.898 25.751 -8.883 24.777 C-8.387 24.305 -7.891 23.833 -7.38 23.347 C-0.448 16.58 -0.448 16.58 0.355 11.953 C0.375 10 0.375 10 0 7 C-2.31 6.67 -4.62 6.34 -7 6 C-7.557 6.99 -8.114 7.98 -8.688 9 C-11 12 -11 12 -13.75 12.375 C-14.493 12.251 -15.235 12.127 -16 12 C-16.438 9.375 -16.438 9.375 -16 6 C-11.876 0.242 -6.813 -1.304 0 0 Z " fill="#0F3E17" transform="translate(245,165)"/>
<path d="M0 0 C0.809 1.672 0.809 1.672 1 4 C-2.003 7.705 -5.513 10.729 -9 14 C-4.05 14.33 0.9 14.66 6 15 C6.33 16.32 6.66 17.64 7 19 C6 20 6 20 3.775 20.114 C2.817 20.108 1.858 20.103 0.871 20.098 C0.354 20.096 0.354 20.096 -2.264 20.088 C-3.352 20.08 -4.441 20.071 -5.562 20.062 C-6.109 20.06 -6.109 20.06 -8.873 20.049 C-11.582 20.037 -14.291 20.021 -17 20 C-17.649 17.688 -17.649 17.688 -18 15 C-16.161 12.683 -14.466 10.853 -12.312 8.875 C-12.041 8.613 -12.041 8.613 -10.666 7.285 C-3.04 0 -3.04 0 0 0 Z " fill="#0F3E17" transform="translate(246,183)"/>
<path d="M0 0 C2 2 2 2 2 6 C2.309 5.752 2.309 5.752 3.875 4.5 C6 3 6 3 8 3 C7.143 11.571 7.143 11.571 5 15 C2.625 15.125 2.625 15.125 0 15 C-2 13 -2 13 -2.266 10.977 C-2.26 10.201 -2.255 9.425 -2.25 8.625 C-2.255 7.854 -2.26 7.083 -2.266 6.289 C-1.977 3.801 -1.241 2.158 0 0 Z " fill="#0F3E17" transform="translate(166,188)"/>
<path d="M0 0 C2 2 2 2 2.312 5.75 C2.232 9.76 1.075 12.541 -1 16 C-1.99 16 -2.98 16 -4 16 C-4 15.34 -4 14.68 -4 14 C-5.32 14.99 -6.64 15.98 -8 17 C-8.66 16.67 -9.32 16.34 -10 16 C-9.196 15.113 -8.391 14.226 -7.562 13.312 C-5.226 10.532 -4.643 8.58 -4 5 C-1.938 2.188 -1.938 2.188 0 0 Z " fill="#0F3E17" transform="translate(250,169)"/>
<path d="M0 0 C4.29 0 8.58 0 13 0 C13.33 1.65 13.66 3.3 14 5 C9.05 5 4.1 5 -1 5 C-0.67 3.35 -0.34 1.7 0 0 Z " fill="#0F3E17" transform="translate(208,183)"/>
<path d="M0 0 C0.99 0.99 1.98 1.98 3 3 C3.66 3.33 4.32 3.66 5 4 C4.34 6.97 3.68 9.94 3 13 C-1 14 -1 14 -4 14 C-2.68 9.38 -1.36 4.76 0 0 Z " fill="#0F3E17" transform="translate(172,179)"/>
<path d="M0 0 C2 2 2 2 2.312 4.938 C2 8 2 8 0.625 9.875 C-1 11 -1 11 -3 11 C-3 8.69 -3 6.38 -3 4 C-2.01 3.67 -1.02 3.34 0 3 C0 2.01 0 1.02 0 0 Z " fill="#0F3E17" transform="translate(162,170)"/>
<path d="M0 0 C1.354 2.709 1.065 5.009 1 8 C-0.32 8 -1.64 8 -3 8 C-3.33 5.69 -3.66 3.38 -4 1 C-2 0 -2 0 0 0 Z " fill="#0F3E17" transform="translate(188,185)"/>
<path d="M0 0 C1.983 2.974 2.828 4.477 3 8 C1.062 10.312 1.062 10.312 -1 12 C-2.117 7.31 -1.806 4.462 0 0 Z " fill="#CFE7D3" transform="translate(179,175)"/>
<path d="M0 0 C1.65 0.33 3.3 0.66 5 1 C5 2.65 5 4.3 5 6 C2.509 6.687 0.621 7 -2 7 C-1.34 4.69 -0.68 2.38 0 0 Z " fill="#0F3E17" transform="translate(170,186)"/>
<path d="M0 0 C2.64 0 5.28 0 8 0 C8.33 0.99 8.66 1.98 9 3 C4.38 3 -0.24 3 -5 3 C-5 2.67 -5 2.34 -5 2 C-3.35 2 -1.7 2 0 2 C0 1.34 0 0.68 0 0 Z " fill="#0F3E17" transform="translate(213,185)"/>
<path d="M0 0 C0.99 0.33 1.98 0.66 3 1 C2.34 4.3 1.68 7.6 1 11 C-0.333 8.333 -1.667 5.667 -3 3 C-2.01 2.01 -1.02 1.02 0 0 Z " fill="#0F3E17" transform="translate(247,167)"/>
<path d="M0 0 C1.938 0.812 1.938 0.812 4 2 C4.33 2.99 4.66 3.98 5 5 C3.02 5 1.04 5 -1 5 C-0.67 3.35 -0.34 1.7 0 0 Z " fill="#CFE7D3" transform="translate(333,156)"/>
<path d="M0 0 C1.255 3.766 0.371 5.372 -1 9 C-1.99 9 -2.98 9 -4 9 C-3.67 7.02 -3.34 5.04 -3 3 C-2.01 2.67 -1.02 2.34 0 2 C0 1.34 0 0.68 0 0 Z " fill="#0F3E17" transform="translate(164,176)"/>
<path d="M0 0 C1.601 4.002 0.293 7.046 -1 11 C-1.66 10.01 -2.32 9.02 -3 8 C-2.188 5.5 -2.188 5.5 -1 3 C-0.67 2.01 -0.34 1.02 0 0 Z " fill="#CFE7D3" transform="translate(170,182)"/>
</svg>
