<?xml version="1.0" encoding="UTF-8"?>
<svg viewBox="0 0 512 512" version="1.1" xmlns="http://www.w3.org/2000/svg">
<path d="M0 0 C5.881 4.718 10.398 10.964 11.781 18.492 C12.863 29.886 11.328 38.53 4.035 47.684 C0.635 51.311 -2.705 53.356 -7.219 55.492 C-6.191 55.881 -5.164 56.271 -4.105 56.672 C9.265 61.973 19.475 69.019 25.781 82.492 C26.122 83.139 26.462 83.787 26.813 84.453 C30.27 91.75 30.363 98.852 30.248 106.754 C30.218 108.95 30.227 111.145 30.24 113.342 C30.193 123.957 30.193 123.957 28.496 126.164 C25.485 128.497 21.701 127.898 18.043 127.865 C17.15 127.868 16.257 127.872 15.337 127.876 C12.381 127.884 9.425 127.87 6.469 127.855 C4.418 127.855 2.366 127.855 0.315 127.857 C-3.986 127.857 -8.286 127.846 -12.587 127.828 C-18.105 127.806 -23.623 127.805 -29.142 127.812 C-33.378 127.815 -37.614 127.809 -41.85 127.799 C-43.885 127.795 -45.92 127.794 -47.955 127.795 C-50.797 127.796 -53.639 127.783 -56.48 127.767 C-57.325 127.769 -58.17 127.772 -59.04 127.774 C-62.946 127.739 -64.895 127.708 -68.219 125.492 C-68.607 122.67 -68.607 122.67 -68.617 119.086 C-68.621 117.784 -68.625 116.482 -68.629 115.141 C-68.623 114.458 -68.616 113.776 -68.61 113.073 C-68.594 111.027 -68.61 108.983 -68.629 106.938 C-68.583 91.393 -64.333 80.204 -53.668 68.852 C-46.71 62.149 -39.417 58.308 -30.219 55.492 C-30.799 55.212 -31.379 54.933 -31.977 54.645 C-41.135 49.944 -45.716 44.12 -49.219 34.492 C-51.538 26.955 -50.8 19.074 -47.605 11.945 C-43.004 3.806 -36.299 -2.231 -27.336 -5.113 C-17.412 -6.963 -8.351 -5.675 0 0 Z " fill="#0F3E17" transform="translate(365.21875,249.5078125)"/>
<path d="M0 0 C1.358 -0.011 2.715 -0.022 4.073 -0.035 C7.74 -0.066 11.407 -0.077 15.075 -0.083 C17.37 -0.087 19.665 -0.096 21.96 -0.106 C29.977 -0.139 37.993 -0.156 46.01 -0.159 C53.468 -0.162 60.925 -0.203 68.382 -0.26 C74.8 -0.308 81.218 -0.329 87.636 -0.329 C91.463 -0.33 95.289 -0.341 99.115 -0.38 C102.714 -0.416 106.312 -0.418 109.911 -0.395 C111.851 -0.391 113.791 -0.421 115.731 -0.453 C121.676 -0.382 125.541 -0.13 130.141 3.848 C131.273 5.025 132.382 6.224 133.459 7.452 C134.328 8.278 135.197 9.104 136.092 9.955 C136.843 10.706 137.595 11.456 138.369 12.229 C139.214 13.073 140.059 13.916 140.93 14.786 C141.785 15.645 142.64 16.504 143.521 17.389 C144.381 18.244 145.24 19.1 146.125 19.981 C149.883 23.745 153.531 27.487 156.896 31.608 C159.543 34.731 162.273 36.72 165.736 38.893 C173.55 44.287 180.16 49.792 182.045 59.454 C184.034 76.302 183.59 94.614 181.459 111.452 C180.459 112.452 180.459 112.452 178.021 112.639 C175.459 112.452 175.459 112.452 173.459 110.452 C173.218 108.465 173.218 108.465 173.232 106.002 C173.232 105.542 173.232 105.542 173.232 103.212 C173.243 102.216 173.253 101.22 173.264 100.194 C173.267 99.176 173.269 98.157 173.272 97.108 C173.283 93.848 173.309 90.587 173.334 87.327 C173.344 85.12 173.353 82.913 173.361 80.706 C173.383 75.288 173.417 69.87 173.459 64.452 C172.904 64.462 172.904 64.462 170.098 64.515 C165.953 64.588 161.808 64.634 157.663 64.671 C155.875 64.691 154.086 64.719 152.298 64.753 C149.716 64.802 147.135 64.825 144.553 64.842 C144.158 64.853 144.158 64.853 142.159 64.905 C135.589 64.907 130.437 63.021 125.436 58.706 C124.99 58.147 124.544 57.589 124.084 57.014 C123.853 56.736 123.853 56.736 122.686 55.331 C119.231 50.039 119.189 45.339 119.264 39.213 C119.267 38.333 119.269 37.452 119.272 36.544 C119.283 33.743 119.309 30.941 119.334 28.139 C119.344 26.235 119.353 24.331 119.361 22.426 C119.383 17.768 119.418 13.11 119.459 8.452 C102.239 8.489 85.019 8.549 67.799 8.636 C59.803 8.675 51.807 8.708 43.811 8.723 C36.84 8.736 29.87 8.763 22.899 8.806 C19.209 8.829 15.52 8.845 11.83 8.844 C7.707 8.843 3.585 8.873 -0.537 8.906 C-1.756 8.901 -2.974 8.896 -4.23 8.891 C-10.859 8.972 -15.278 9.257 -20.541 13.452 C-24.853 18.576 -25.113 22.468 -25.042 28.865 C-25.048 29.805 -25.053 30.745 -25.059 31.713 C-25.073 34.859 -25.058 38.005 -25.043 41.151 C-25.047 43.408 -25.052 45.665 -25.059 47.922 C-25.073 54.05 -25.062 60.178 -25.045 66.306 C-25.032 72.718 -25.038 79.129 -25.042 85.54 C-25.044 96.307 -25.031 107.074 -25.008 117.841 C-24.984 128.915 -24.977 139.988 -24.987 151.062 C-25 164.413 -24.997 177.763 -24.981 191.114 C-24.976 196.211 -24.976 201.308 -24.98 206.406 C-24.985 212.407 -24.975 218.409 -24.954 224.41 C-24.948 226.614 -24.947 228.817 -24.952 231.021 C-24.958 234.027 -24.946 237.033 -24.929 240.039 C-24.935 240.912 -24.941 241.786 -24.947 242.685 C-24.895 247.685 -24.308 251.118 -21.541 255.452 C-17.454 259.232 -14.411 260.569 -8.897 260.603 C-7.944 260.611 -6.99 260.62 -6.008 260.628 C-5.486 260.631 -5.486 260.631 -2.843 260.641 C-1.742 260.649 -0.641 260.658 0.493 260.666 C2.886 260.684 5.28 260.699 7.673 260.712 C11.454 260.733 15.235 260.76 19.016 260.789 C27.722 260.854 36.428 260.909 45.134 260.965 C53.751 261.02 62.368 261.078 70.984 261.144 C74.721 261.17 78.457 261.191 82.194 261.212 C84.469 261.228 86.745 261.245 89.02 261.262 C90.068 261.266 91.117 261.271 92.197 261.275 C93.145 261.283 94.092 261.292 95.069 261.3 C95.897 261.305 96.726 261.31 97.58 261.316 C99.459 261.452 99.459 261.452 100.459 262.452 C100.646 264.889 100.646 264.889 100.459 267.452 C98.009 269.901 97.36 269.707 93.996 269.726 C93.057 269.736 92.118 269.746 91.15 269.756 C90.633 269.756 90.633 269.756 88.018 269.758 C86.931 269.766 85.845 269.775 84.726 269.783 C81.116 269.807 77.506 269.816 73.896 269.823 C71.39 269.832 68.883 269.841 66.376 269.85 C61.111 269.867 55.845 269.874 50.579 269.877 C44.511 269.881 38.443 269.911 32.376 269.953 C26.526 269.992 20.676 270.003 14.826 270.004 C12.345 270.008 9.864 270.021 7.382 270.041 C3.9 270.068 0.418 270.064 -3.064 270.051 C-3.573 270.058 -3.573 270.058 -6.148 270.096 C-14.288 270.013 -20.727 267.679 -26.979 262.389 C-27.494 261.75 -28.01 261.11 -28.541 260.452 C-29.077 259.812 -29.614 259.173 -30.166 258.514 C-33.757 253.128 -33.832 248.344 -33.815 242.065 C-33.82 241.116 -33.826 240.167 -33.831 239.188 C-33.846 236.005 -33.847 232.822 -33.847 229.638 C-33.855 227.357 -33.863 225.075 -33.873 222.793 C-33.895 216.593 -33.903 210.392 -33.908 204.192 C-33.912 200.317 -33.918 196.443 -33.925 192.569 C-33.945 181.836 -33.961 171.102 -33.964 160.369 C-33.964 160.026 -33.964 160.026 -33.965 158.289 C-33.965 156.897 -33.966 155.505 -33.966 154.114 C-33.966 153.423 -33.966 152.732 -33.967 152.021 C-33.967 151.329 -33.967 150.637 -33.967 149.925 C-33.971 138.721 -33.998 127.518 -34.035 116.315 C-34.073 104.803 -34.092 93.292 -34.093 81.78 C-34.094 75.32 -34.102 68.861 -34.131 62.401 C-34.157 56.324 -34.159 50.247 -34.143 44.17 C-34.141 41.942 -34.148 39.714 -34.164 37.486 C-34.184 34.439 -34.174 31.393 -34.156 28.346 C-34.169 27.469 -34.182 26.592 -34.196 25.688 C-34.098 18.503 -31.727 12.884 -26.815 7.592 C-19.032 0.158 -10.236 0.002 0 0 Z " fill="#0F3E17" transform="translate(169.541015625,107.54833984375)"/>
<path d="M0 0 C8.707 6.282 12.933 13.555 16.676 23.535 C16.676 32.115 16.676 40.695 16.676 49.535 C-10.384 49.535 -37.444 49.535 -65.324 49.535 C-65.324 16.878 -65.324 16.878 -53.324 4.535 C-37.439 -9.617 -17.904 -11.284 0 0 Z " fill="#CFE7D3" transform="translate(370.32421875,319.46484375)"/>
<path d="M0 0 C0.441 0 0.441 0 2.671 0.001 C3.133 -0 3.133 -0 5.47 -0.009 C8.539 -0.018 11.608 -0.02 14.678 -0.021 C16.801 -0.025 18.925 -0.028 21.049 -0.031 C25.507 -0.037 29.965 -0.039 34.423 -0.039 C40.148 -0.039 45.872 -0.052 51.597 -0.069 C55.985 -0.081 60.373 -0.083 64.761 -0.082 C66.872 -0.083 68.983 -0.088 71.094 -0.095 C74.042 -0.105 76.989 -0.102 79.937 -0.096 C80.817 -0.102 81.696 -0.108 82.602 -0.113 C88.641 -0.082 88.641 -0.082 90.869 2.147 C90.313 6.702 90.313 6.702 88.869 8.147 C85.927 8.253 83.009 8.293 80.066 8.292 C79.143 8.295 78.219 8.299 77.268 8.302 C74.199 8.312 71.13 8.314 68.06 8.315 C65.937 8.318 63.813 8.321 61.689 8.325 C57.231 8.331 52.773 8.333 48.315 8.332 C42.59 8.332 36.866 8.345 31.141 8.363 C26.753 8.374 22.365 8.376 17.977 8.375 C15.866 8.377 13.755 8.381 11.643 8.389 C8.696 8.398 5.748 8.396 2.801 8.39 C1.921 8.395 1.042 8.401 0.136 8.407 C-5.903 8.375 -5.903 8.375 -8.131 6.147 C-7.367 -0.12 -6.123 0.033 0 0 Z " fill="#0F3E17" transform="translate(179.1310272216797,243.85336303710938)"/>
<path d="M0 0 C1.98 0 3.96 0 6 0 C7.98 8.25 9.96 16.5 12 25 C13.566 21.868 14.578 19.331 15.508 16.016 C15.772 15.081 16.036 14.146 16.309 13.184 C16.578 12.216 16.847 11.247 17.125 10.25 C17.402 9.266 17.679 8.283 17.965 7.27 C18.647 4.847 19.325 2.424 20 0 C22.31 0 24.62 0 27 0 C29.628 8.272 31.992 16.556 34 25 C36.202 18.723 38.005 12.409 39.642 5.967 C40.896 1.104 40.896 1.104 42 0 C43.666 -0.041 45.334 -0.043 47 0 C46.38 2.897 45.754 5.793 45.125 8.688 C44.951 9.504 44.777 10.321 44.598 11.162 C43.693 15.302 42.622 19.076 41 23 C40.422 25.262 39.881 27.534 39.375 29.812 C39.115 30.974 38.854 32.135 38.586 33.332 C38.393 34.212 38.199 35.093 38 36 C35.69 36 33.38 36 31 36 C30.793 35.218 30.586 34.435 30.373 33.629 C29.44 30.106 28.501 26.584 27.562 23.062 C27.4 22.447 27.4 22.447 26.576 19.33 C26.264 18.16 25.951 16.99 25.629 15.785 C25.341 14.701 25.053 13.617 24.756 12.5 C24 10 24 10 23 9 C22.897 9.373 22.897 9.373 22.373 11.263 C21.438 14.634 20.501 18.005 19.562 21.375 C19.237 22.551 18.912 23.726 18.576 24.938 C18.264 26.059 17.951 27.18 17.629 28.336 C17.341 29.373 17.053 30.41 16.756 31.478 C16 34 16 34 15 36 C13.02 36 11.04 36 9 36 C5.562 24.08 2.568 12.137 0 0 Z " fill="#0F3E17" transform="translate(164,171)"/>
<path d="M0 0 C0.325 -0.002 0.325 -0.002 1.971 -0.011 C4.126 -0.019 6.281 -0.014 8.436 -0.007 C9.93 -0.008 11.425 -0.01 12.919 -0.013 C16.053 -0.016 19.187 -0.011 22.321 -0.002 C26.343 0.009 30.365 0.003 34.387 -0.009 C37.473 -0.016 40.56 -0.014 43.646 -0.009 C45.129 -0.008 46.613 -0.009 48.096 -0.014 C50.167 -0.019 52.238 -0.011 54.309 0 C55.488 0.002 56.668 0.003 57.884 0.005 C60.654 0.259 60.654 0.259 62.654 2.259 C62.842 4.821 62.842 4.821 62.654 7.259 C60.795 9.118 57.705 8.387 55.223 8.388 C54.887 8.389 54.887 8.389 53.188 8.393 C50.958 8.398 48.728 8.395 46.498 8.392 C44.955 8.392 43.412 8.393 41.869 8.395 C38.63 8.396 35.392 8.394 32.154 8.389 C27.994 8.383 23.834 8.387 19.674 8.393 C16.486 8.396 13.299 8.395 10.111 8.393 C8.577 8.392 7.042 8.393 5.508 8.395 C3.367 8.398 1.227 8.394 -0.914 8.388 C-1.524 8.388 -1.524 8.388 -4.613 8.386 C-7.346 8.259 -7.346 8.259 -8.346 7.259 C-8.533 4.821 -8.533 4.821 -8.346 2.259 C-5.565 -0.522 -3.895 0.005 0 0 Z " fill="#0F3E17" transform="translate(179.345703125,292.7412109375)"/>
<path d="M0 0 C0.33 0 0.66 0 1 0 C1.001 1.173 1.003 2.346 1.004 3.554 C1.04 31.406 1.096 59.259 1.178 87.111 C1.188 90.541 1.198 93.97 1.208 97.4 C1.209 98.083 1.211 98.765 1.213 99.469 C1.244 110.518 1.261 121.567 1.273 132.616 C1.286 143.957 1.313 155.298 1.355 166.639 C1.377 173.007 1.393 179.376 1.392 185.744 C1.391 191.739 1.409 197.734 1.441 203.729 C1.45 205.929 1.451 208.128 1.446 210.327 C1.439 213.333 1.457 216.338 1.481 219.344 C1.473 220.212 1.465 221.08 1.458 221.974 C1.541 227.888 2.992 231.938 6 237 C7.642 240.283 6.519 243.425 6 247 C2.04 247 -1.92 247 -6 247 C-6.197 243.209 -6.382 239.417 -6.562 235.625 C-6.619 234.564 -6.675 233.503 -6.732 232.41 C-6.962 227.422 -7.103 222.45 -6.84 217.461 C-6.801 216.693 -6.762 215.925 -6.722 215.134 C-6 213 -6 213 -3.495 211.393 C-1 209 -1 209 -0.369 205.244 C-0.341 203.691 -0.34 202.137 -0.361 200.585 C-0.352 199.728 -0.344 198.871 -0.335 197.988 C-0.313 195.112 -0.327 192.237 -0.341 189.36 C-0.332 187.301 -0.321 185.241 -0.309 183.181 C-0.281 177.585 -0.283 171.988 -0.291 166.391 C-0.294 160.544 -0.269 154.697 -0.247 148.85 C-0.21 137.776 -0.198 126.701 -0.195 115.627 C-0.19 103.02 -0.157 90.413 -0.122 77.806 C-0.05 51.871 -0.013 25.936 0 0 Z " fill="#CFE7D3" transform="translate(135,130)"/>
<path d="M0 0 C3.025 1.736 5.418 3.836 7 7 C7.579 10.241 7.803 11.885 7 15 C4.381 18.722 1.25 21.827 -2 25 C-2.712 25.723 -3.423 26.446 -4.156 27.191 C-5.753 28.812 -7.374 30.409 -9 32 C-3.72 32.33 1.56 32.66 7 33 C7 34.32 7 35.64 7 37 C-0.92 37 -8.84 37 -17 37 C-15.876 31.38 -15.876 31.38 -12.691 28.371 C-12.027 27.728 -11.362 27.086 -10.678 26.424 C-9.98 25.768 -9.282 25.113 -8.562 24.438 C-7.184 23.128 -5.81 21.815 -4.441 20.496 C-3.83 19.92 -3.218 19.345 -2.588 18.752 C-0.189 16.105 0.911 13.931 1.25 10.375 C1 8 1 8 -1 6 C-3.164 5.805 -3.164 5.805 -5.625 5.875 C-6.034 5.884 -6.034 5.884 -8.102 5.93 C-8.415 5.941 -8.415 5.941 -10 6 C-10.33 7.65 -10.66 9.3 -11 11 C-12.65 11 -14.3 11 -16 11 C-15.732 7.071 -15.476 5.451 -12.562 2.688 C-8.411 -0.047 -4.951 -0.845 0 0 Z " fill="#0F3E17" transform="translate(252,170)"/>
<path d="M0 0 C3.025 1.736 5.418 3.836 7 7 C7.134 9.672 7.043 12.323 7 15 C6.67 15.165 6.67 15.165 5 16 C2.399 14.699 2.358 13.699 1.438 11 C0.09 7.09 0.09 7.09 -1 6 C-2.519 5.928 -4.042 5.916 -5.562 5.938 C-6.389 5.947 -7.215 5.956 -8.066 5.965 C-8.385 5.971 -8.385 5.971 -10 6 C-10.33 7.65 -10.66 9.3 -11 11 C-12.65 11 -14.3 11 -16 11 C-15.732 7.071 -15.476 5.451 -12.562 2.688 C-8.411 -0.047 -4.951 -0.845 0 0 Z " fill="#0F3E17" transform="translate(252,170)"/>
<path d="M0 0 C0.99 0.33 1.98 0.66 3 1 C3.66 0.67 4.32 0.34 5 0 C5 0.66 5 1.32 5 2 C5.66 2 6.32 2 7 2 C6.856 3.279 6.711 4.558 6.562 5.875 C6.481 6.594 6.4 7.314 6.316 8.055 C6 10 6 10 5 12 C3.02 12 1.04 12 -1 12 C-1.33 9.03 -1.66 6.06 -2 3 C-1.34 3 -0.68 3 0 3 C0 2.01 0 1.02 0 0 Z " fill="#0F3E17" transform="translate(174,195)"/>
<path d="M0 0 C2.039 1.695 2.039 1.695 4 4 C4.023 6.367 4.023 6.367 3.375 8.875 C3.267 9.311 3.267 9.311 2.719 11.516 C1.891 14.376 1.03 17.206 0 20 C-0.99 19.67 -1.98 19.34 -3 19 C-4.402 14.388 -3.463 11.228 -2.062 6.688 C-1.682 5.433 -1.302 4.179 -0.91 2.887 C-0.61 1.934 -0.309 0.981 0 0 Z " fill="#0F3E17" transform="translate(182,178)"/>
<path d="M0 0 C-0.33 0.99 -0.66 1.98 -1 3 C-2.848 3.73 -2.848 3.73 -5.062 4.188 C-5.796 4.346 -6.529 4.505 -7.285 4.668 C-7.568 4.723 -7.568 4.723 -9 5 C-9.33 6.65 -9.66 8.3 -10 10 C-11.65 10 -13.3 10 -15 10 C-14.752 6.364 -14.375 4.445 -12 1.625 C-7.928 -0.581 -4.534 -0.356 0 0 Z " fill="#0F3E17" transform="translate(251,171)"/>
<path d="M0 0 C0.33 1.32 0.66 2.64 1 4 C1.99 3.67 2.98 3.34 4 3 C4.33 2.34 4.66 1.68 5 1 C5.66 1 6.32 1 7 1 C6.67 4.3 6.34 7.6 6 11 C3.69 11 1.38 11 -1 11 C-1.33 8.03 -1.66 5.06 -2 2 C-1.34 2 -0.68 2 0 2 C0 1.34 0 0.68 0 0 Z " fill="#0F3E17" transform="translate(196,196)"/>
<path d="M0 0 C3.088 4.632 4.211 9.033 3.625 14.5 C3.419 15.325 3.213 16.15 3 17 C2.01 17.33 1.02 17.66 0 18 C-0.505 16.397 -1.004 14.793 -1.5 13.188 C-1.639 12.741 -1.639 12.741 -2.344 10.48 C-3 8 -3 8 -3 5 C-2.34 5 -1.68 5 -1 5 C-0.67 3.35 -0.34 1.7 0 0 Z " fill="#0F3E17" transform="translate(193,181)"/>
<path d="M0 0 C0.33 0 0.66 0 1 0 C1.02 0.777 1.04 1.554 1.06 2.355 C1.155 5.862 1.265 9.368 1.375 12.875 C1.406 14.098 1.437 15.322 1.469 16.582 C1.507 17.749 1.546 18.915 1.586 20.117 C1.617 21.196 1.649 22.275 1.681 23.386 C2 26 2 26 4 28 C1.69 28 -0.62 28 -3 28 C-3 24.37 -3 20.74 -3 17 C-2.34 16.67 -1.68 16.34 -1 16 C-0.688 13.286 -0.487 10.661 -0.375 7.938 C-0.336 7.179 -0.298 6.42 -0.258 5.639 C-0.163 3.76 -0.081 1.88 0 0 Z " fill="#CFE7D3" transform="translate(296,349)"/>
<path d="M0 0 C4.29 0 8.58 0 13 0 C13 1.32 13 2.64 13 4 C8.71 4 4.42 4 0 4 C0 2.68 0 1.36 0 0 Z " fill="#0F3E17" transform="translate(215,190)"/>
<path d="M0 0 C0.66 0.99 1.32 1.98 2 3 C2.66 3 3.32 3 4 3 C3.67 6.3 3.34 9.6 3 13 C2.67 12.01 2.34 11.02 2 10 C1.34 10 0.68 10 0 10 C-0.33 10.99 -0.66 11.98 -1 13 C-1.99 13 -2.98 13 -4 13 C-3.297 10.023 -2.418 7.147 -1.438 4.25 C-1.168 3.451 -0.899 2.652 -0.621 1.828 C-0.416 1.225 -0.211 0.622 0 0 Z " fill="#0F3E17" transform="translate(201,187)"/>
<path d="M0 0 C0.33 0.99 0.66 1.98 1 3 C1.66 3 2.32 3 3 3 C3.33 2.34 3.66 1.68 4 1 C5.601 5.002 4.293 8.046 3 12 C1.68 12 0.36 12 -1 12 C-0.67 8.04 -0.34 4.08 0 0 Z " fill="#0F3E17" transform="translate(203,179)"/>
<path d="M0 0 C0.99 0.99 1.98 1.98 3 3 C1.35 4.98 -0.3 6.96 -2 9 C-3.32 7.68 -4.64 6.36 -6 5 C-5.196 4.361 -4.391 3.721 -3.562 3.062 C-1 1 -1 1 0 0 Z " fill="#0F3E17" transform="translate(326,288)"/>
<path d="M0 0 C-0.99 3.63 -1.98 7.26 -3 11 C-5.296 7.555 -5.54 5.062 -6 1 C-3.924 0.447 -2.156 0 0 0 Z " fill="#CFE7D3" transform="translate(180,188)"/>
<path d="M0 0 C2.97 0 5.94 0 9 0 C8.67 0.99 8.34 1.98 8 3 C5.934 3.73 5.934 3.73 3.438 4.188 C2.611 4.346 1.785 4.505 0.934 4.668 C0.615 4.723 0.615 4.723 -1 5 C-0.67 3.35 -0.34 1.7 0 0 Z " fill="#0F3E17" transform="translate(242,171)"/>
<path d="M0 0 C0.382 0.113 0.382 0.113 2.312 0.688 C1.312 1.688 0.312 2.688 -0.688 3.688 C-1.368 4.409 -2.049 5.131 -2.75 5.875 C-4.688 7.688 -4.688 7.688 -6.688 7.688 C-6.326 5.009 -5.948 3.078 -4.438 0.812 C-2.688 -0.312 -2.688 -0.312 0 0 Z " fill="#0F3E17" transform="translate(241.6875,199.3125)"/>
<path d="M0 0 C-0.458 3.469 -0.891 6.674 -2 10 C-2.66 10 -3.32 10 -4 10 C-4.688 6.688 -4.688 6.688 -5 3 C-3.426 0.676 -2.828 0 0 0 Z " fill="#0F3E17" transform="translate(173,183)"/>
<path d="M0 0 C0.825 0.165 0.825 0.165 5 1 C4.67 2.98 4.34 4.96 4 7 C3.01 7.33 2.02 7.66 1 8 C-0.354 5.291 -0.065 2.991 0 0 Z " fill="#0F3E17" transform="translate(192,191)"/>
<path d="M0 0 C2.062 1.688 2.062 1.688 4 4 C3.75 6.75 3.75 6.75 3 9 C1.68 8.34 0.36 7.68 -1 7 C-0.67 4.69 -0.34 2.38 0 0 Z " fill="#0F3E17" transform="translate(182,178)"/>
<path d="M0 0 C0 2.64 0 5.28 0 8 C-0.99 7.67 -1.98 7.34 -3 7 C-3.875 5.125 -3.875 5.125 -4 3 C-1.643 0 -1.643 0 0 0 Z " fill="#0F3E17" transform="translate(193,179)"/>
<path d="M0 0 C0.66 0.33 1.32 0.66 2 1 C0.707 3.884 -0.659 5.872 -3 8 C-3.66 7.67 -4.32 7.34 -5 7 C-1.125 1.125 -1.125 1.125 0 0 Z " fill="#0F3E17" transform="translate(143,115)"/>
<path d="M0 0 C1.675 0.286 3.344 0.618 5 1 C4.67 2.32 4.34 3.64 4 5 C4 4.01 4 3.02 4 2 C3.34 2 2.68 2 2 2 C1.67 2.99 1.34 3.98 1 5 C0.01 5 -0.98 5 -2 5 C-1.125 1.125 -1.125 1.125 0 0 Z " fill="#0F3E17" transform="translate(199,195)"/>
<path d="M0 0 C0 1.65 0 3.3 0 5 C-0.99 4.835 -0.99 4.835 -6 4 C-2.174 0 -2.174 0 0 0 Z " fill="#CFE7D3" transform="translate(363,302)"/>
<path d="M0 0 C0 0.99 0 1.98 0 3 C-2.5 5.188 -2.5 5.188 -5 7 C-5.66 6.67 -6.32 6.34 -7 6 C-4.69 4.02 -2.38 2.04 0 0 Z " fill="#0F3E17" transform="translate(329,249)"/>
<path d="M0 0 C1.32 0 2.64 0 4 0 C3.67 2.64 3.34 5.28 3 8 C0.376 4.939 0 4.268 0 0 Z " fill="#CFE7D3" transform="translate(200,177)"/>
<path d="M0 0 C1.938 0.375 1.938 0.375 4 1 C4.33 1.66 4.66 2.32 5 3 C3.35 3.66 1.7 4.32 0 5 C-0.33 4.01 -0.66 3.02 -1 2 C-0.67 1.34 -0.34 0.68 0 0 Z " fill="#0F3E17" transform="translate(252,172)"/>
<path d="M0 0 C0.33 0.99 0.66 1.98 1 3 C1.66 3 2.32 3 3 3 C2.67 4.32 2.34 5.64 2 7 C0.68 6.34 -0.64 5.68 -2 5 C-1.34 3.35 -0.68 1.7 0 0 Z " fill="#0F3E17" transform="translate(254,182)"/>
<path d="M0 0 C0.99 0.33 1.98 0.66 3 1 C2.67 2.65 2.34 4.3 2 6 C1.01 6.33 0.02 6.66 -1 7 C-0.67 4.69 -0.34 2.38 0 0 Z " fill="#CFE7D3" transform="translate(208,180)"/>
</svg>
