<?xml version="1.0" encoding="UTF-8"?>
<svg viewBox="0 0 512 512" version="1.1" xmlns="http://www.w3.org/2000/svg">
<path d="M0 0 C0.336 0 0.336 0 2.035 0.002 C32.007 0.112 61.901 9.289 86.062 27.375 C86.924 28.014 87.785 28.654 88.672 29.312 C120.566 54.224 142.089 90.38 148.312 130.438 C150.402 149.472 150.443 169.686 146.062 188.375 C145.869 189.294 145.676 190.213 145.477 191.16 C138.969 218.501 124.819 242.949 105.401 262.99 C104.247 264.184 103.112 265.397 101.98 266.613 C77.888 291.923 41.128 306.618 6.582 307.605 C-5.972 307.819 -17.749 307.499 -29.938 304.375 C-31.181 304.085 -32.425 303.795 -33.707 303.496 C-72.439 293.963 -104.784 268.958 -125.938 235.375 C-128.95 230.203 -131.507 224.84 -133.938 219.375 C-134.469 218.199 -135 217.024 -135.547 215.812 C-152.061 176.995 -152.631 133.477 -136.969 94.336 C-129.46 76.441 -119.182 60.534 -105.938 46.375 C-105.106 45.474 -104.275 44.573 -103.418 43.645 C-76.604 15.705 -38.536 -0.053 0 0 Z " fill="#CFE7D3" transform="translate(254.9375,95.625)"/>
<path d="M0 0 C2.986 4.103 4.859 8.932 6.906 13.555 C7.272 14.374 7.638 15.194 8.015 16.039 C9.18 18.65 10.34 21.262 11.5 23.875 C12.28 25.624 13.06 27.373 13.84 29.121 C15.277 32.345 16.714 35.57 18.146 38.796 C18.461 39.503 18.776 40.21 19.1 40.938 C19.698 42.307 20.28 43.684 20.846 45.067 C22.822 49.897 22.822 49.897 24.812 51.051 C25.534 51.137 26.256 51.224 27 51.312 C27.891 51.432 28.781 51.552 29.699 51.676 C30.788 51.783 31.878 51.89 33 52 C34.382 52.159 35.763 52.319 37.145 52.48 C43.995 53.256 50.855 53.905 57.723 54.5 C58.666 54.584 59.609 54.668 60.581 54.754 C62.406 54.915 64.232 55.069 66.058 55.215 C76.099 56.099 76.099 56.099 80 60 C80.248 63.035 80.203 64.28 79 67 C76.451 69.83 73.55 72.186 70.623 74.615 C67.525 77.259 64.587 80.08 61.625 82.875 C57.928 86.356 54.228 89.823 50.406 93.168 C49.851 93.659 49.296 94.149 48.724 94.655 C47.222 95.977 45.709 97.288 44.195 98.598 C41.749 101.275 41.156 102.417 41 106 C41.348 109.039 41.348 109.039 42.062 112.625 C42.193 113.292 42.324 113.96 42.458 114.647 C43.398 119.338 44.446 124.003 45.504 128.668 C45.637 129.256 45.637 129.256 46.31 132.234 C46.843 134.572 47.382 136.908 47.93 139.243 C51.43 154.514 51.43 154.514 51 160 C49.282 162.266 48.521 162.907 45.699 163.41 C42.09 162.862 39.897 161.401 36.812 159.438 C35.502 158.618 34.189 157.802 32.875 156.988 C32.501 156.756 32.501 156.756 30.605 155.581 C24.662 151.975 18.597 148.569 12.559 145.125 C10.888 144.172 9.22 143.215 7.551 142.258 C7.064 141.98 7.064 141.98 4.603 140.575 C2 139 2 139 -0.183 137.269 C-2 136 -2 136 -4.617 136.445 C-9.321 138.607 -13.697 141.201 -18.125 143.875 C-19.083 144.446 -20.042 145.016 -21.029 145.604 C-25.949 148.539 -30.843 151.513 -35.715 154.527 C-36.165 154.804 -36.165 154.804 -38.443 156.202 C-40.156 157.255 -41.864 158.318 -43.565 159.392 C-44.339 159.867 -45.113 160.342 -45.91 160.832 C-46.582 161.252 -47.254 161.672 -47.946 162.105 C-50.514 163.224 -52.226 163.368 -55 163 C-56.821 161.804 -56.821 161.804 -58 160 C-58.615 152.049 -55.972 143.561 -54.188 135.875 C-53.92 134.698 -53.652 133.521 -53.376 132.309 C-52.592 128.871 -51.797 125.435 -51 122 C-50.783 121.059 -50.567 120.119 -50.344 119.149 C-47.279 105.837 -47.279 105.837 -46 102 C-46.593 101.736 -47.186 101.471 -47.797 101.199 C-50.08 99.956 -51.474 98.696 -53.25 96.812 C-55.588 94.406 -57.952 92.12 -60.5 89.938 C-65.349 85.765 -69.984 81.367 -74.633 76.974 C-77.305 74.461 -79.951 72.039 -82.832 69.762 C-85 68 -85 68 -87 65 C-86.556 59.556 -86.556 59.556 -84 57 C-82.154 56.545 -82.154 56.545 -79.863 56.254 C-78.99 56.14 -78.117 56.027 -77.217 55.909 C-76.738 55.852 -76.738 55.852 -74.312 55.562 C-73.321 55.438 -72.33 55.314 -71.308 55.186 C-57.57 53.514 -43.781 52.265 -30 51 C-29.724 50.338 -29.449 49.676 -29.165 48.994 C-23.911 36.404 -18.577 23.86 -12.938 11.438 C-12.473 10.404 -12.009 9.37 -11.53 8.305 C-11.096 7.357 -10.662 6.41 -10.215 5.434 C-9.834 4.599 -9.454 3.764 -9.062 2.904 C-7.001 -0.791 -3.889 -0.476 0 0 Z " fill="#CFE7D3" transform="translate(259,161)"/>
<path d="M0 0 C0.336 0 0.336 0 2.035 0.002 C32.007 0.112 61.901 9.289 86.062 27.375 C86.924 28.014 87.785 28.654 88.672 29.312 C120.566 54.224 142.089 90.38 148.312 130.438 C150.402 149.472 150.443 169.686 146.062 188.375 C145.869 189.294 145.676 190.213 145.477 191.16 C138.969 218.501 124.819 242.949 105.401 262.99 C104.247 264.184 103.112 265.397 101.98 266.613 C77.888 291.923 41.128 306.618 6.582 307.605 C-5.972 307.819 -17.749 307.499 -29.938 304.375 C-31.181 304.085 -32.425 303.795 -33.707 303.496 C-72.439 293.963 -104.784 268.958 -125.938 235.375 C-128.95 230.203 -131.507 224.84 -133.938 219.375 C-134.469 218.199 -135 217.024 -135.547 215.812 C-152.061 176.995 -152.631 133.477 -136.969 94.336 C-129.46 76.441 -119.182 60.534 -105.938 46.375 C-105.106 45.474 -104.275 44.573 -103.418 43.645 C-76.604 15.705 -38.536 -0.053 0 0 Z M-102.478 57.079 C-118.455 75.65 -128.938 97.747 -134.938 121.375 C-135.027 121.72 -135.027 121.72 -135.481 123.465 C-144.779 160.767 -134.627 199.919 -115.938 232.375 C-113.489 236.25 -110.838 239.828 -107.938 243.375 C-107.491 243.925 -107.045 244.475 -106.586 245.042 C-88.098 267.7 -64.877 283.657 -36.938 292.375 C-36.245 292.601 -35.553 292.827 -34.839 293.06 C-1.475 303.504 36.842 296.183 67.062 280.438 C99.963 262.542 122.644 230.456 134.062 195.375 C137.632 182.974 139.249 170.9 139.248 157.999 C139.25 155.908 139.268 153.818 139.287 151.727 C139.343 138.837 138.074 126.346 134.375 113.938 C134.245 113.494 134.245 113.494 133.585 111.248 C126.649 88.374 114.457 68.748 98.062 51.375 C97.39 50.638 96.717 49.9 96.023 49.141 C80.152 32.378 56.943 18.935 34.312 14.25 C33.534 14.085 32.755 13.921 31.953 13.751 C29.659 13.276 27.362 12.821 25.062 12.375 C23.884 12.146 22.706 11.916 21.492 11.68 C-24.497 3.961 -71.592 22.913 -102.478 57.079 Z " fill="#0F3E17" transform="translate(254.9375,95.625)"/>
<path d="M0 0 C2.986 4.103 4.859 8.932 6.906 13.555 C7.272 14.374 7.638 15.194 8.015 16.039 C9.18 18.65 10.34 21.262 11.5 23.875 C12.28 25.624 13.06 27.373 13.84 29.121 C15.277 32.345 16.714 35.57 18.146 38.796 C18.461 39.503 18.776 40.21 19.1 40.938 C19.698 42.307 20.28 43.684 20.846 45.067 C22.822 49.897 22.822 49.897 24.812 51.051 C25.534 51.137 26.256 51.224 27 51.312 C27.891 51.432 28.781 51.552 29.699 51.676 C30.788 51.783 31.878 51.89 33 52 C34.382 52.159 35.763 52.319 37.145 52.48 C43.995 53.256 50.855 53.905 57.723 54.5 C58.666 54.584 59.609 54.668 60.581 54.754 C62.406 54.915 64.232 55.069 66.058 55.215 C76.099 56.099 76.099 56.099 80 60 C80.248 63.035 80.203 64.28 79 67 C76.451 69.83 73.55 72.186 70.623 74.615 C67.525 77.259 64.587 80.08 61.625 82.875 C57.928 86.356 54.228 89.823 50.406 93.168 C49.851 93.659 49.296 94.149 48.724 94.655 C47.222 95.977 45.709 97.288 44.195 98.598 C41.749 101.275 41.156 102.417 41 106 C41.348 109.039 41.348 109.039 42.062 112.625 C42.193 113.292 42.324 113.96 42.458 114.647 C43.398 119.338 44.446 124.003 45.504 128.668 C45.637 129.256 45.637 129.256 46.31 132.234 C46.843 134.572 47.382 136.908 47.93 139.243 C51.43 154.514 51.43 154.514 51 160 C49.282 162.266 48.521 162.907 45.699 163.41 C42.09 162.862 39.897 161.401 36.812 159.438 C35.502 158.618 34.189 157.802 32.875 156.988 C32.501 156.756 32.501 156.756 30.605 155.581 C24.662 151.975 18.597 148.569 12.559 145.125 C10.888 144.172 9.22 143.215 7.551 142.258 C7.064 141.98 7.064 141.98 4.603 140.575 C2 139 2 139 -0.183 137.269 C-2 136 -2 136 -4.617 136.445 C-9.321 138.607 -13.697 141.201 -18.125 143.875 C-19.083 144.446 -20.042 145.016 -21.029 145.604 C-25.949 148.539 -30.843 151.513 -35.715 154.527 C-36.165 154.804 -36.165 154.804 -38.443 156.202 C-40.156 157.255 -41.864 158.318 -43.565 159.392 C-44.339 159.867 -45.113 160.342 -45.91 160.832 C-46.582 161.252 -47.254 161.672 -47.946 162.105 C-50.514 163.224 -52.226 163.368 -55 163 C-56.821 161.804 -56.821 161.804 -58 160 C-58.615 152.049 -55.972 143.561 -54.188 135.875 C-53.92 134.698 -53.652 133.521 -53.376 132.309 C-52.592 128.871 -51.797 125.435 -51 122 C-50.783 121.059 -50.567 120.119 -50.344 119.149 C-47.279 105.837 -47.279 105.837 -46 102 C-46.593 101.736 -47.186 101.471 -47.797 101.199 C-50.08 99.956 -51.474 98.696 -53.25 96.812 C-55.588 94.406 -57.952 92.12 -60.5 89.938 C-65.349 85.765 -69.984 81.367 -74.633 76.974 C-77.305 74.461 -79.951 72.039 -82.832 69.762 C-85 68 -85 68 -87 65 C-86.556 59.556 -86.556 59.556 -84 57 C-82.154 56.545 -82.154 56.545 -79.863 56.254 C-78.99 56.14 -78.117 56.027 -77.217 55.909 C-76.738 55.852 -76.738 55.852 -74.312 55.562 C-73.321 55.438 -72.33 55.314 -71.308 55.186 C-57.57 53.514 -43.781 52.265 -30 51 C-29.724 50.338 -29.449 49.676 -29.165 48.994 C-23.911 36.404 -18.577 23.86 -12.938 11.438 C-12.473 10.404 -12.009 9.37 -11.53 8.305 C-11.096 7.357 -10.662 6.41 -10.215 5.434 C-9.834 4.599 -9.454 3.764 -9.062 2.904 C-7.001 -0.791 -3.889 -0.476 0 0 Z M-4 16 C-7.44 22.506 -10.494 29.026 -13.148 35.883 C-13.685 37.247 -14.221 38.612 -14.758 39.977 C-15.578 42.067 -16.388 44.159 -17.172 46.264 C-21.545 57.936 -21.545 57.936 -24.825 60.335 C-26.969 60.926 -28.778 61.015 -31 61 C-32.69 61.18 -34.378 61.368 -36.066 61.562 C-37.898 61.714 -39.73 61.859 -41.562 62 C-48.284 62.568 -54.995 63.151 -61.688 64 C-62.846 64.144 -64.005 64.289 -65.199 64.438 C-68 65 -68 65 -71 67 C-69.503 68.524 -68.003 70.044 -66.5 71.562 C-65.665 72.409 -64.829 73.256 -63.969 74.129 C-59.794 78.245 -55.325 82.039 -50.845 85.818 C-48.687 87.646 -46.561 89.507 -44.438 91.375 C-43.702 91.983 -42.967 92.592 -42.209 93.219 C-41.52 93.835 -40.831 94.451 -40.121 95.086 C-39.496 95.623 -38.872 96.159 -38.228 96.712 C-35.233 102.291 -38.428 110.48 -39.848 116.359 C-40.024 117.112 -40.2 117.864 -40.381 118.639 C-41.125 121.816 -41.882 124.99 -42.637 128.164 C-43.191 130.499 -43.738 132.835 -44.285 135.172 C-44.457 135.883 -44.629 136.595 -44.806 137.328 C-45.653 140.954 -46.199 144.274 -46 148 C-41.966 146.507 -38.358 144.589 -34.633 142.445 C-34.035 142.102 -33.437 141.76 -32.821 141.406 C-30.921 140.316 -29.023 139.22 -27.125 138.125 C-25.858 137.397 -24.591 136.669 -23.324 135.941 C-20.977 134.593 -18.631 133.243 -16.286 131.891 C-15.201 131.267 -14.117 130.643 -13 130 C-12.431 129.616 -11.862 129.233 -11.276 128.837 C-8.145 126.804 -6.234 125.998 -2.47 126.036 C1.271 127.075 4.175 128.466 7.527 130.422 C8.12 130.764 8.713 131.106 9.323 131.458 C11.201 132.545 13.069 133.647 14.938 134.75 C16.186 135.475 17.436 136.199 18.686 136.922 C23.763 139.869 28.808 142.85 33.754 146.016 C37 148 37 148 39 148 C38.476 140.034 36.875 132.497 35 124.75 C34.457 122.474 33.915 120.198 33.375 117.922 C33.135 116.928 32.895 115.933 32.648 114.909 C29.915 102.647 29.915 102.647 31 98 C32.962 95.212 35.418 93.2 38 91 C44.582 85.34 50.892 79.425 57.172 73.434 C57.534 73.09 57.534 73.09 59.367 71.352 C60.018 70.731 60.669 70.111 61.339 69.471 C63 68 63 68 65 67 C65 66.34 65 65.68 65 65 C63.86 64.884 62.721 64.768 61.547 64.649 C57.29 64.215 53.033 63.781 48.777 63.346 C46.94 63.158 45.103 62.971 43.266 62.784 C40.615 62.515 37.964 62.244 35.312 61.973 C34.907 61.931 34.907 61.931 32.853 61.723 C31.307 61.565 29.762 61.4 28.217 61.229 C26.73 61.075 25.24 60.952 23.748 60.858 C18.494 60.445 18.494 60.445 16.201 58.382 C14.626 55.258 13.154 52.109 11.785 48.891 C11.488 48.205 11.191 47.519 10.885 46.813 C9.939 44.627 9 42.439 8.062 40.25 C6.827 37.379 5.589 34.509 4.348 31.641 C4.053 30.96 3.759 30.279 3.456 29.578 C1.451 24.966 -0.673 20.456 -3 16 C-3.33 16 -3.66 16 -4 16 Z " fill="#0F3E17" transform="translate(259,161)"/>
<path d="M0 0 C0.33 0.66 0.66 1.32 1 2 C-2.434 5.636 -5.797 8.361 -10 11 C-10.66 10.67 -11.32 10.34 -12 10 C-8.04 6.7 -4.08 3.4 0 0 Z " fill="#0F3E17" transform="translate(169,124)"/>
<path d="M0 0 C0.33 0.66 0.66 1.32 1 2 C0.095 3.155 -0.824 4.299 -1.75 5.438 C-2.26 6.076 -2.771 6.714 -3.297 7.371 C-5.197 9.188 -6.436 9.604 -9 10 C-8.064 8.894 -7.126 7.791 -6.188 6.688 C-5.665 6.073 -5.143 5.458 -4.605 4.824 C-3.128 3.146 -1.6 1.561 0 0 Z " fill="#0F3E17" transform="translate(156,135)"/>
<path d="M0 0 C0.99 0.66 1.98 1.32 3 2 C2.34 2.66 1.68 3.32 1 4 C0.303 5.317 -0.37 6.649 -1 8 C-1.625 5.688 -1.625 5.688 -2 3 C-1.34 2.01 -0.68 1.02 0 0 Z " fill="#0F3E17" transform="translate(174,219)"/>
<path d="M0 0 C-0.33 0.99 -0.66 1.98 -1 3 C-1.99 3 -2.98 3 -4 3 C-4 3.66 -4 4.32 -4 5 C-5.32 5.33 -6.64 5.66 -8 6 C-6.729 2.186 -4.191 0 0 0 Z " fill="#0F3E17" transform="translate(183,116)"/>
</svg>
