<?xml version="1.0" encoding="UTF-8"?>
<svg viewBox="0 0 512 512" version="1.1" xmlns="http://www.w3.org/2000/svg">
<path d="M0 0 C4.709 3.371 8.888 7.15 13.039 11.176 C13.651 11.715 14.264 12.253 14.895 12.809 C20.849 18.232 25.065 25.228 29.039 32.176 C29.039 32.836 29.039 33.496 29.039 34.176 C30.184 34.017 31.328 33.859 32.508 33.695 C55.005 30.913 76.351 35.883 94.475 49.914 C110.992 63.244 122.518 82.986 125.039 104.176 C126.571 128.727 121.091 152.459 104.785 171.465 C90.117 187.629 70.016 197.06 48.199 198.414 C26.712 198.992 6.717 191.862 -9.238 177.242 C-14.966 171.78 -19.993 166.068 -23.961 159.176 C-24.835 159.32 -25.709 159.465 -26.609 159.613 C-51.092 163.309 -74.433 160.959 -95.184 146.309 C-99.698 142.842 -103.903 139.165 -107.961 135.176 C-108.66 134.49 -109.358 133.804 -110.078 133.098 C-119.126 123.592 -124.961 111.572 -128.961 99.176 C-129.223 98.384 -129.485 97.593 -129.754 96.777 C-131.95 89.598 -132.356 83.027 -132.211 75.551 C-132.206 74.483 -132.201 73.416 -132.195 72.316 C-131.959 48.232 -122.94 27.841 -106.332 10.418 C-93.432 -1.862 -78.249 -9.111 -60.961 -12.824 C-60.172 -13.01 -59.383 -13.195 -58.57 -13.387 C-38.586 -16.737 -16.724 -10.804 0 0 Z " fill="#0F3E17" transform="translate(261.9609375,150.82421875)"/>
<path d="M0 0 C7.156 19.936 6.112 42.172 -2.787 61.34 C-6.134 68.187 -9.976 74.245 -15 80 C-15.507 80.66 -16.013 81.32 -16.535 82 C-23.189 90.37 -33.182 96.894 -43 101 C-44.32 101 -45.64 101 -47 101 C-47.633 99.357 -48.256 97.71 -48.875 96.062 C-49.223 95.146 -49.571 94.229 -49.93 93.285 C-55.958 74.783 -54.766 54.355 -46.312 36.938 C-37.234 19.204 -25.067 8.432 -7.395 -0.285 C-4.558 -1.132 -2.816 -0.805 0 0 Z " fill="#CFE7D3" transform="translate(288,197)"/>
<path d="M0 0 C0.33 0 0.66 0 1 0 C1.17 11.895 -3.675 21.935 -11.75 30.5 C-18.716 36.927 -27.299 42.366 -37 43 C-39.254 42.535 -39.254 42.535 -41 42 C-40.394 41.732 -39.788 41.464 -39.164 41.188 C-32.286 37.971 -26.686 34.012 -21 29 C-20.618 28.666 -20.618 28.666 -18.688 26.977 C-10.567 19.392 -4.806 9.96 0 0 Z " fill="#CFE7D3" transform="translate(292,261)"/>
<path d="M0 0 C0.551 0.006 0.551 0.006 3.34 0.035 C4.445 0.044 5.549 0.053 6.688 0.062 C7.542 0.074 8.397 0.086 9.277 0.098 C9.402 4.848 9.402 4.848 8.277 7.098 C5.57 8 4.04 8.216 1.266 8.195 C0.887 8.194 0.887 8.194 -1.029 8.186 C-1.815 8.177 -2.601 8.169 -3.41 8.16 C-4.207 8.156 -5.005 8.151 -5.826 8.146 C-7.792 8.135 -9.757 8.117 -11.723 8.098 C-11.723 7.768 -11.723 7.438 -11.723 7.098 C-9.083 6.768 -6.443 6.438 -3.723 6.098 C-3.743 5.293 -3.764 4.489 -3.785 3.66 C-3.698 0.107 -3.564 0.128 0 0 Z " fill="#CFE7D3" transform="translate(310.72265625,332.90234375)"/>
<path d="M0 0 C3.96 0 7.92 0 12 0 C12 1.98 12 3.96 12 6 C7.029 5.588 2.555 5.204 -2 3 C-1.34 2.67 -0.68 2.34 0 2 C0 1.34 0 0.68 0 0 Z " fill="#CFE7D3" transform="translate(282,333)"/>
<path d="M0 0 C2.97 0.33 5.94 0.66 9 1 C9 3.97 9 6.94 9 10 C8.67 10.165 8.67 10.165 7 11 C5.824 9.737 4.66 8.465 3.5 7.188 C2.85 6.48 2.201 5.772 1.531 5.043 C0 3 0 3 0 0 Z " fill="#CFE7D3" transform="translate(362,204)"/>
<path d="M0 0 C1.087 0.111 2.173 0.222 3.293 0.336 C4.124 0.431 4.956 0.527 5.812 0.625 C5.812 2.275 5.812 3.925 5.812 5.625 C3.812 6.625 3.812 6.625 0.773 5.629 C-0.41 5.153 -1.593 4.678 -2.812 4.188 C-4.001 3.714 -5.19 3.241 -6.414 2.754 C-7.329 2.381 -8.245 2.009 -9.188 1.625 C-5.543 -0.804 -4.258 -0.458 0 0 Z " fill="#CFE7D3" transform="translate(250.1875,140.375)"/>
<path d="M0 0 C0.33 0 0.66 0 1 0 C0.67 2.97 0.34 5.94 0 9 C-0.66 9 -1.32 9 -2 9 C-2.248 9.619 -2.495 10.238 -2.75 10.875 C-4 13 -4 13 -8 15 C-5.36 10.05 -2.72 5.1 0 0 Z " fill="#CFE7D3" transform="translate(292,261)"/>
<path d="M0 0 C-0.99 0 -1.98 0 -3 0 C-3 0.99 -3 1.98 -3 3 C-3.557 3.072 -3.557 3.072 -6.375 3.438 C-10 4 -10 4 -12 5 C-12.33 4.01 -12.66 3.02 -13 2 C-8.792 -0.805 -4.858 -1.682 0 0 Z " fill="#CFE7D3" transform="translate(259,304)"/>
<path d="M0 0 C0.66 0 1.32 0 2 0 C2.99 3.3 3.98 6.6 5 10 C4.34 10 3.68 10 3 10 C3 9.34 3 8.68 3 8 C2.01 8 1.02 8 0 8 C0 5.36 0 2.72 0 0 Z " fill="#CFE7D3" transform="translate(371,235)"/>
<path d="M0 0 C1.231 3.693 0.667 4.582 -1 8 C-1.958 9.364 -2.947 10.708 -4 12 C-4.99 11.67 -5.98 11.34 -7 11 C-6.578 10.374 -6.157 9.747 -5.723 9.102 C-5.449 8.693 -5.449 8.693 -4.062 6.625 C-3.517 5.813 -2.972 5.001 -2.41 4.164 C-1 2 -1 2 0 0 Z " fill="#0F3E17" transform="translate(283,261)"/>
<path d="M0 0 C0 0.66 0 1.32 0 2 C-0.66 2 -1.32 2 -2 2 C-2 2.99 -2 3.98 -2 5 C-3.65 5 -5.3 5 -7 5 C-7.33 4.01 -7.66 3.02 -8 2 C-5.094 0.743 -3.204 0 0 0 Z " fill="#CFE7D3" transform="translate(194,149)"/>
<path d="M0 0 C0 3.589 -0.664 4.109 -3 6.688 C-3.557 7.31 -4.114 7.933 -4.688 8.574 C-5.121 9.045 -5.554 9.515 -6 10 C-6.33 9.01 -6.66 8.02 -7 7 C-4.69 4.69 -2.38 2.38 0 0 Z " fill="#0F3E17" transform="translate(158,159)"/>
<path d="M0 0 C0.99 0.33 1.98 0.66 3 1 C2.67 4.3 2.34 7.6 2 11 C1.67 11 1.34 11 1 11 C0.67 7.37 0.34 3.74 0 0 Z " fill="#CFE7D3" transform="translate(138,230)"/>
<path d="M0 0 C0.66 0.33 1.32 0.66 2 1 C0.68 2.155 0.68 2.155 -6 8 C-6.66 7.67 -7.32 7.34 -8 7 C-5.36 4.69 -2.72 2.38 0 0 Z " fill="#CFE7D3" transform="translate(261,209)"/>
<path d="M0 0 C0.33 1.32 0.66 2.64 1 4 C-0.485 4.165 -0.485 4.165 -8 5 C-5.374 3.249 -2.712 1.613 0 0 Z " fill="#CFE7D3" transform="translate(259,299)"/>
<path d="M0 0 C0.66 0 1.32 0 2 0 C1.34 1.98 0.68 3.96 0 6 C-0.99 6 -1.98 6 -3 6 C-2.01 4.02 -1.02 2.04 0 0 Z " fill="#CFE7D3" transform="translate(382,295)"/>
</svg>
