<?xml version="1.0" encoding="UTF-8"?>
<svg viewBox="0 0 512 512" version="1.1" xmlns="http://www.w3.org/2000/svg">
<path d="M0 0 C0.904 -0.024 1.807 -0.049 2.738 -0.074 C10.231 -0.107 16.206 1.505 22.09 6.27 C22.617 6.902 23.144 7.535 23.688 8.188 C24.233 8.813 24.778 9.438 25.34 10.082 C29.773 17.29 28.987 25.124 28.875 33.312 C28.866 34.569 28.857 35.825 28.848 37.119 C28.824 40.205 28.791 43.29 28.75 46.375 C29.485 46.349 30.22 46.323 30.978 46.296 C34.36 46.191 37.742 46.126 41.125 46.062 C42.281 46.021 43.438 45.979 44.629 45.936 C53.103 45.816 59.82 47.156 66.396 52.783 C72.401 59.288 72.114 67.499 72.125 75.812 C72.149 76.811 72.174 77.809 72.199 78.838 C72.229 86.312 70.938 91.681 66.004 97.398 C65.446 97.844 64.888 98.29 64.312 98.75 C63.757 99.211 63.201 99.673 62.629 100.148 C58.185 103.05 54.4 103.618 49.137 103.57 C48.513 103.567 48.513 103.567 45.357 103.551 C44.064 103.534 42.77 103.517 41.438 103.5 C40.781 103.495 40.781 103.495 37.459 103.473 C34.222 103.449 30.986 103.416 27.75 103.375 C27.776 104.302 27.802 105.23 27.829 106.186 C27.915 109.66 27.977 113.133 28.025 116.607 C28.05 118.105 28.084 119.602 28.127 121.1 C28.553 136.112 28.553 136.112 24.077 141.973 C20.005 146.275 15.983 149.013 10.014 149.681 C6.822 149.752 3.631 149.796 0.438 149.812 C-0.114 149.829 -0.114 149.829 -2.904 149.912 C-10.014 149.959 -14.788 149.078 -20.25 144.375 C-25.339 139.018 -26.505 134.406 -26.445 127.105 C-26.442 126.424 -26.44 125.743 -26.437 125.042 C-26.426 122.882 -26.401 120.722 -26.375 118.562 C-26.365 117.092 -26.356 115.621 -26.348 114.15 C-26.326 110.558 -26.291 106.967 -26.25 103.375 C-27.127 103.396 -28.005 103.417 -28.909 103.438 C-32.185 103.507 -35.461 103.557 -38.738 103.595 C-40.152 103.615 -41.566 103.642 -42.98 103.677 C-45.021 103.726 -47.06 103.748 -49.102 103.766 C-49.714 103.776 -49.714 103.776 -52.815 103.829 C-58.244 103.111 -62.003 100.092 -65.5 96 C-65.98 95.456 -66.459 94.912 -66.953 94.352 C-70.976 88.22 -70.616 81.572 -70.625 74.5 C-70.637 73.975 -70.637 73.975 -70.699 71.316 C-70.729 63.45 -69.633 57.793 -63.996 52.098 C-63.615 51.824 -63.615 51.824 -61.688 50.438 C-60.923 49.872 -60.159 49.306 -59.371 48.723 C-55.556 46.299 -52.469 46.257 -48.051 46.277 C-46.842 46.281 -45.634 46.284 -44.389 46.287 C-43.126 46.295 -41.863 46.304 -40.562 46.312 C-39.925 46.315 -39.925 46.315 -36.701 46.326 C-33.551 46.338 -30.4 46.354 -27.25 46.375 C-27.271 45.574 -27.292 44.773 -27.313 43.948 C-27.397 40.278 -27.449 36.608 -27.5 32.938 C-27.534 31.677 -27.567 30.417 -27.602 29.119 C-27.692 20.434 -26.982 13.819 -21.285 7.035 C-20.634 6.508 -19.983 5.981 -19.312 5.438 C-18.988 5.165 -18.988 5.165 -17.348 3.785 C-11.734 0.011 -6.581 0.009 0 0 Z " fill="#CFE7D3" transform="translate(255.25,178.625)"/>
<path d="M0 0 C1.403 0.629 2.806 1.257 4.21 1.884 C7.715 3.462 11.207 5.065 14.695 6.679 C18.502 8.44 22.313 10.188 26.125 11.938 C26.885 12.286 27.644 12.635 28.427 12.995 C35.221 16.11 42.041 19.162 48.875 22.188 C49.405 22.423 49.405 22.423 52.088 23.614 C57.363 25.955 62.644 28.283 67.932 30.595 C70.618 31.771 73.301 32.955 75.984 34.14 C77.272 34.707 78.561 35.27 79.852 35.83 C81.644 36.608 83.429 37.397 85.215 38.188 C86.237 38.635 87.259 39.082 88.312 39.543 C91.385 41.209 92.93 42.152 95 45 C95.617 48.5 95.556 51.976 95.533 55.522 C95.542 56.595 95.551 57.667 95.56 58.772 C95.582 62.331 95.575 65.89 95.566 69.449 C95.572 71.94 95.578 74.43 95.585 76.92 C95.596 82.158 95.591 87.396 95.576 92.635 C95.558 99.278 95.582 105.92 95.618 112.563 C95.64 117.72 95.638 122.878 95.63 128.035 C95.629 130.479 95.636 132.923 95.651 135.367 C95.769 158.258 93.209 180.27 83 201 C82.811 201.391 82.811 201.391 81.854 203.367 C74.716 217.962 66.21 230.177 55 242 C54.107 242.958 53.213 243.916 52.293 244.902 C35.533 262.518 3.959 286.23 -21.258 287.305 C-26.325 287.206 -30.302 285.698 -34.875 283.625 C-35.69 283.266 -36.505 282.908 -37.345 282.538 C-56.558 273.936 -74.386 263.731 -89.719 249.16 C-91.629 247.351 -93.571 245.701 -95.625 244.062 C-112.542 229.643 -123.816 207.271 -130.875 186.625 C-131.244 185.563 -131.614 184.502 -131.994 183.408 C-137.83 165.558 -138.476 147.591 -138.469 128.949 C-138.476 126.592 -138.484 124.234 -138.492 121.877 C-138.505 116.978 -138.507 112.08 -138.501 107.181 C-138.495 100.907 -138.526 94.635 -138.566 88.362 C-138.592 83.512 -138.595 78.663 -138.591 73.813 C-138.593 71.498 -138.603 69.184 -138.62 66.87 C-138.642 63.647 -138.633 60.425 -138.615 57.202 C-138.628 56.253 -138.642 55.304 -138.655 54.326 C-138.6 49.992 -138.437 46.955 -135.681 43.49 C-132.024 40.093 -132.024 40.093 -129.496 38.965 C-128.848 38.666 -128.2 38.368 -127.533 38.06 C-126.841 37.761 -126.15 37.461 -125.438 37.152 C-124.702 36.819 -123.966 36.485 -123.208 36.141 C-120.812 35.059 -118.406 33.998 -116 32.938 C-114.328 32.187 -112.656 31.435 -110.985 30.682 C-106.784 28.792 -102.577 26.92 -98.367 25.052 C-94.842 23.485 -91.325 21.902 -87.809 20.316 C-81.914 17.662 -76.013 15.022 -70.109 12.389 C-66.371 10.719 -62.635 9.041 -58.902 7.359 C-57.289 6.633 -55.676 5.91 -54.061 5.19 C-49.906 3.332 -45.784 1.425 -41.684 -0.551 C-40.796 -0.971 -39.907 -1.391 -38.992 -1.823 C-37.311 -2.619 -35.636 -3.43 -33.97 -4.259 C-21.299 -10.201 -11.883 -5.414 0 0 Z M-30.027 5.043 C-30.719 5.363 -31.412 5.682 -32.125 6.012 C-33.618 6.702 -35.109 7.397 -36.6 8.094 C-39.768 9.576 -42.944 11.042 -46.119 12.509 C-47.741 13.258 -49.361 14.008 -50.982 14.759 C-58.212 18.108 -65.474 21.379 -72.75 24.625 C-75.085 25.669 -77.419 26.713 -79.754 27.758 C-80.922 28.28 -82.09 28.803 -83.293 29.341 C-89.414 32.08 -95.531 34.827 -101.645 37.581 C-102.983 38.183 -104.321 38.784 -105.659 39.385 C-107.527 40.223 -109.395 41.064 -111.262 41.906 C-112.324 42.384 -113.385 42.861 -114.479 43.354 C-117.418 44.728 -120.32 46.149 -123.22 47.603 C-124.116 48.052 -125.013 48.501 -125.936 48.964 C-126.277 49.135 -126.277 49.135 -128 50 C-128.07 63.527 -128.123 77.054 -128.155 90.581 C-128.171 96.864 -128.192 103.147 -128.226 109.429 C-128.259 115.505 -128.277 121.58 -128.285 127.656 C-128.29 129.961 -128.301 132.267 -128.317 134.572 C-128.427 150.781 -127.824 166.433 -122.375 181.875 C-122.121 182.607 -121.867 183.339 -121.606 184.094 C-112.169 210.423 -96.507 233.166 -74 250 C-73.468 250.402 -72.936 250.803 -72.388 251.217 C-60.683 260.008 -48.458 267.096 -35.062 273 C-34.174 273.398 -33.286 273.797 -32.371 274.207 C-25.688 277.064 -20.679 278.134 -13.688 275.531 C-12.118 274.87 -10.556 274.192 -9 273.5 C-8.166 273.137 -7.332 272.774 -6.473 272.4 C10.478 264.903 26.412 255.702 39.965 242.918 C41.655 241.325 43.364 239.87 45.188 238.438 C68.532 218.206 83.509 184.449 86 154 C86.127 150.476 86.127 146.957 86.114 143.431 C86.114 142.924 86.114 142.924 86.114 140.354 C86.113 137.026 86.106 133.699 86.098 130.371 C86.096 128.052 86.094 125.733 86.093 123.415 C86.09 117.334 86.08 111.253 86.069 105.172 C86.058 98.957 86.054 92.743 86.049 86.529 C86.038 74.353 86.021 62.176 86 50 C73.359 43.632 73.359 43.632 67.891 41.203 C67.359 40.966 67.359 40.966 64.667 39.765 C63.539 39.265 62.412 38.765 61.25 38.25 C59.366 37.411 57.483 36.57 55.6 35.73 C54.25 35.127 52.901 34.525 51.551 33.923 C43.456 30.315 35.372 26.681 27.289 23.045 C24.7 21.88 22.11 20.717 19.52 19.554 C12.079 16.21 4.646 12.855 -2.746 9.406 C-3.865 8.886 -4.984 8.365 -6.137 7.829 C-8.145 6.891 -10.149 5.947 -12.15 4.996 C-13.013 4.592 -13.876 4.189 -14.766 3.773 C-15.131 3.6 -15.131 3.6 -16.978 2.724 C-21.946 0.945 -25.604 2.952 -30.027 5.043 Z " fill="#0F3E17" transform="translate(277,114)"/>
<path d="M0 0 C0.904 -0.024 1.807 -0.049 2.738 -0.074 C10.231 -0.107 16.206 1.505 22.09 6.27 C22.617 6.902 23.144 7.535 23.688 8.188 C24.233 8.813 24.778 9.438 25.34 10.082 C29.773 17.29 28.987 25.124 28.875 33.312 C28.866 34.569 28.857 35.825 28.848 37.119 C28.824 40.205 28.791 43.29 28.75 46.375 C29.485 46.349 30.22 46.323 30.978 46.296 C34.36 46.191 37.742 46.126 41.125 46.062 C42.281 46.021 43.438 45.979 44.629 45.936 C53.103 45.816 59.82 47.156 66.396 52.783 C72.401 59.288 72.114 67.499 72.125 75.812 C72.149 76.811 72.174 77.809 72.199 78.838 C72.229 86.312 70.938 91.681 66.004 97.398 C65.446 97.844 64.888 98.29 64.312 98.75 C63.757 99.211 63.201 99.673 62.629 100.148 C58.185 103.05 54.4 103.618 49.137 103.57 C48.513 103.567 48.513 103.567 45.357 103.551 C44.064 103.534 42.77 103.517 41.438 103.5 C40.781 103.495 40.781 103.495 37.459 103.473 C34.222 103.449 30.986 103.416 27.75 103.375 C27.776 104.302 27.802 105.23 27.829 106.186 C27.915 109.66 27.977 113.133 28.025 116.607 C28.05 118.105 28.084 119.602 28.127 121.1 C28.553 136.112 28.553 136.112 24.077 141.973 C20.005 146.275 15.983 149.013 10.014 149.681 C6.822 149.752 3.631 149.796 0.438 149.812 C-0.114 149.829 -0.114 149.829 -2.904 149.912 C-10.014 149.959 -14.788 149.078 -20.25 144.375 C-25.339 139.018 -26.505 134.406 -26.445 127.105 C-26.442 126.424 -26.44 125.743 -26.437 125.042 C-26.426 122.882 -26.401 120.722 -26.375 118.562 C-26.365 117.092 -26.356 115.621 -26.348 114.15 C-26.326 110.558 -26.291 106.967 -26.25 103.375 C-27.127 103.396 -28.005 103.417 -28.909 103.438 C-32.185 103.507 -35.461 103.557 -38.738 103.595 C-40.152 103.615 -41.566 103.642 -42.98 103.677 C-45.021 103.726 -47.06 103.748 -49.102 103.766 C-49.714 103.776 -49.714 103.776 -52.815 103.829 C-58.244 103.111 -62.003 100.092 -65.5 96 C-65.98 95.456 -66.459 94.912 -66.953 94.352 C-70.976 88.22 -70.616 81.572 -70.625 74.5 C-70.637 73.975 -70.637 73.975 -70.699 71.316 C-70.729 63.45 -69.633 57.793 -63.996 52.098 C-63.615 51.824 -63.615 51.824 -61.688 50.438 C-60.923 49.872 -60.159 49.306 -59.371 48.723 C-55.556 46.299 -52.469 46.257 -48.051 46.277 C-46.842 46.281 -45.634 46.284 -44.389 46.287 C-43.126 46.295 -41.863 46.304 -40.562 46.312 C-39.925 46.315 -39.925 46.315 -36.701 46.326 C-33.551 46.338 -30.4 46.354 -27.25 46.375 C-27.271 45.574 -27.292 44.773 -27.313 43.948 C-27.397 40.278 -27.449 36.608 -27.5 32.938 C-27.534 31.677 -27.567 30.417 -27.602 29.119 C-27.692 20.434 -26.982 13.819 -21.285 7.035 C-20.634 6.508 -19.983 5.981 -19.312 5.438 C-18.988 5.165 -18.988 5.165 -17.348 3.785 C-11.734 0.011 -6.581 0.009 0 0 Z M-16.062 13.875 C-18.934 17.503 -18.451 21.9 -18.531 26.289 C-18.55 27.059 -18.568 27.83 -18.587 28.623 C-18.666 31.919 -18.734 35.215 -18.802 38.511 C-18.854 40.916 -18.911 43.321 -18.969 45.727 C-18.982 46.478 -18.996 47.229 -19.01 48.002 C-19.137 53.262 -19.137 53.262 -20.25 54.375 C-22.711 54.486 -25.148 54.537 -27.609 54.551 C-29.133 54.574 -30.656 54.598 -32.18 54.623 C-34.587 54.658 -36.994 54.687 -39.401 54.701 C-41.721 54.716 -44.04 54.757 -46.359 54.801 C-47.074 54.799 -47.789 54.797 -48.525 54.795 C-53.378 54.913 -55.842 55.936 -59.25 59.375 C-62.401 64.101 -61.7 69.064 -61.75 74.625 C-61.791 75.745 -61.833 76.865 -61.875 78.02 C-61.926 83.451 -61.936 87.331 -58.344 91.609 C-54.431 95.477 -51.201 95.554 -45.871 95.656 C-45.144 95.675 -44.417 95.693 -43.667 95.712 C-40.55 95.791 -37.432 95.859 -34.315 95.927 C-32.042 95.979 -29.769 96.036 -27.496 96.094 C-26.786 96.107 -26.075 96.121 -25.343 96.135 C-20.363 96.262 -20.363 96.262 -19.25 97.375 C-19.139 99.897 -19.088 102.395 -19.074 104.918 C-19.051 106.482 -19.027 108.047 -19.002 109.611 C-18.967 112.082 -18.938 114.553 -18.924 117.024 C-18.909 119.406 -18.868 121.786 -18.824 124.168 C-18.826 124.899 -18.828 125.631 -18.83 126.385 C-18.709 131.504 -17.491 134.44 -14.25 138.375 C-9.601 141.474 -4.843 140.744 0.625 140.75 C1.714 140.774 2.804 140.799 3.926 140.824 C11.874 140.853 11.874 140.853 15.883 138.664 C19.717 133.964 20.06 129.378 20.129 123.484 C20.137 123.112 20.137 123.112 20.18 121.226 C20.233 118.859 20.274 116.492 20.312 114.125 C20.356 111.744 20.403 109.362 20.455 106.981 C20.487 105.502 20.514 104.023 20.536 102.544 C20.638 97.487 20.638 97.487 21.75 96.375 C24.044 96.265 26.34 96.219 28.637 96.199 C30.064 96.176 31.492 96.152 32.92 96.127 C35.174 96.092 37.427 96.063 39.68 96.049 C41.854 96.034 44.026 95.993 46.199 95.949 C46.851 95.942 46.851 95.942 50.147 95.905 C55.364 95.138 58.397 93.133 61.598 88.973 C63.683 84.272 63.221 79.44 63.188 74.375 C63.207 73.295 63.227 72.215 63.248 71.102 C63.243 63.242 63.243 63.242 60.973 59.25 C56.537 55.508 52.879 55.065 47.176 54.996 C46.451 54.979 45.727 54.962 44.981 54.945 C42.675 54.892 40.369 54.851 38.062 54.812 C35.746 54.769 33.429 54.722 31.112 54.67 C29.672 54.638 28.232 54.611 26.792 54.589 C21.862 54.487 21.862 54.487 20.75 53.375 C20.664 50.792 20.637 48.231 20.645 45.648 C20.631 44.043 20.616 42.437 20.6 40.832 C20.577 38.297 20.562 35.764 20.575 33.229 C20.633 17.321 20.633 17.321 16.887 12.789 C11.791 8.867 7.59 9.162 1.438 9.125 C0.595 9.104 -0.247 9.084 -1.115 9.062 C-7.105 9.025 -11.312 9.943 -16.062 13.875 Z " fill="#0F3E17" transform="translate(255.25,178.625)"/>
<path d="M0 0 C4.331 3.874 5.642 8.919 6.3 14.584 C6.438 17.314 6.468 20.017 6.438 22.75 C6.43 23.718 6.422 24.686 6.415 25.683 C6.239 33.336 5.086 39.946 2 47 C1.564 48.011 1.129 49.021 0.68 50.062 C-7.953 68.555 -21.341 81.132 -40 89 C-43.348 90.068 -46.52 90.6 -50 91 C-51.771 91.395 -53.542 91.791 -55.312 92.188 C-62.865 93.554 -71.123 93.66 -78 90 C-77.406 89.991 -76.811 89.981 -76.199 89.972 C-73.465 89.917 -70.733 89.834 -68 89.75 C-67.065 89.736 -66.131 89.722 -65.168 89.707 C-57.692 89.446 -51.888 88.04 -46.625 82.5 C-43.536 77.748 -42.682 74.286 -42.586 68.609 C-42.567 67.905 -42.547 67.2 -42.527 66.474 C-42.468 64.233 -42.421 61.992 -42.375 59.75 C-42.337 58.227 -42.298 56.703 -42.258 55.18 C-42.162 51.453 -42.078 47.727 -42 44 C-41.597 43.995 -41.597 43.995 -39.557 43.972 C-35.87 43.918 -32.186 43.834 -28.5 43.75 C-27.232 43.736 -25.963 43.722 -24.656 43.707 C-16.853 43.504 -10.453 43.163 -4.491 37.589 C-0.399 33.015 1.258 28.725 1.23 22.656 C1.229 21.657 1.227 20.658 1.225 19.629 C1.212 18.596 1.2 17.564 1.188 16.5 C1.187 15.467 1.186 14.435 1.186 13.371 C1.159 8.759 1.02 4.514 0 0 Z " fill="#CFE7D3" transform="translate(325,238)"/>
<path d="M0 0 C9.24 0 18.48 0 28 0 C28.026 2.145 28.052 4.29 28.078 6.5 C28.117 8.602 28.162 10.703 28.208 12.805 C28.236 14.254 28.257 15.703 28.271 17.152 C28.355 25.264 28.464 31.968 33 39 C33.33 39.66 33.66 40.32 34 41 C25.886 39.78 17.507 31.217 12.516 25.086 C0 7.861 0 7.861 0 0 Z " fill="#CFE7D3" transform="translate(201,282)"/>
<path d="M0 0 C0.66 0 1.32 0 2 0 C2 0.66 2 1.32 2 2 C2.728 2.287 3.457 2.575 4.207 2.871 C13.321 6.555 19.943 11.12 27 18 C27.908 18.846 28.815 19.691 29.75 20.562 C33.986 25.152 38.263 30.365 41 36 C40.67 36.99 40.34 37.98 40 39 C39.526 38.257 39.051 37.515 38.562 36.75 C33.533 31.353 27.686 29.81 20.434 29.391 C18.102 29.322 15.77 29.279 13.438 29.25 C9.333 29.167 5.229 29.085 1 29 C0.67 19.43 0.34 9.86 0 0 Z " fill="#CFE7D3" transform="translate(283,196)"/>
<path d="M0 0 C0 8.58 0 17.16 0 26 C-8.58 26 -17.16 26 -26 26 C-22.697 17.742 -10.458 0 0 0 Z " fill="#CFE7D3" transform="translate(228,199)"/>
<path d="M0 0 C2.832 0.033 5.664 0.065 8.496 0.098 C8.496 4.058 8.496 8.018 8.496 12.098 C4.866 12.428 1.236 12.758 -2.504 13.098 C-2.834 16.728 -3.164 20.358 -3.504 24.098 C-4.824 24.098 -6.144 24.098 -7.504 24.098 C-7.834 58.088 -8.164 92.078 -8.504 127.098 C-8.834 127.098 -9.164 127.098 -9.504 127.098 C-9.507 126.523 -9.511 125.949 -9.514 125.357 C-9.595 111.386 -9.687 97.415 -9.791 83.444 C-9.842 76.688 -9.888 69.932 -9.926 63.176 C-9.962 56.659 -10.009 50.143 -10.062 43.627 C-10.081 41.137 -10.096 38.647 -10.107 36.157 C-10.124 32.678 -10.153 29.199 -10.185 25.719 C-10.187 24.683 -10.189 23.646 -10.192 22.579 C-10.197 22.105 -10.197 22.105 -10.225 19.71 C-10.231 18.887 -10.236 18.064 -10.242 17.216 C-10.504 15.098 -10.504 15.098 -12.504 12.098 C-9.534 12.098 -6.564 12.098 -3.504 12.098 C-3.516 11.315 -3.527 10.533 -3.539 9.727 C-3.548 8.715 -3.557 7.703 -3.566 6.66 C-3.578 5.651 -3.59 4.641 -3.602 3.602 C-3.47 0.225 -3.376 0.132 0 0 Z " fill="#CFE7D3" transform="translate(381.50390625,141.90234375)"/>
<path d="M0 0 C0.842 -0.016 1.684 -0.032 2.551 -0.049 C7.342 -0.053 10.632 0.158 14.5 3.312 C14.83 3.972 15.16 4.632 15.5 5.312 C14.448 5.148 13.396 4.982 12.312 4.812 C2.513 3.618 -6.883 4.154 -16.5 6.312 C-15.55 3.723 -14.855 2.528 -12.469 1.082 C-8.289 -0.001 -4.301 -0.016 0 0 Z " fill="#CFE7D3" transform="translate(256.5,187.6875)"/>
<path d="M0 0 C-4 3 -8 6 -12 9 C-11.381 5.554 -10.912 4.912 -8.25 2.25 C-4.984 -0.011 -3.831 -0.563 0 0 Z " fill="#0F3E17" transform="translate(245,181)"/>
<path d="M0 0 C0.66 0.66 1.32 1.32 2 2 C1.67 2.495 1.67 2.495 0 5 C-0.66 5 -1.32 5 -2 5 C-2.66 6.32 -3.32 7.64 -4 9 C-4.99 9 -5.98 9 -7 9 C-4.69 6.03 -2.38 3.06 0 0 Z " fill="#0F3E17" transform="translate(340,330)"/>
<path d="M0 0 C0 3.932 -1.394 5.164 -4 8 C-4.66 8 -5.32 8 -6 8 C-4.731 4.086 -3.488 2.209 0 0 Z " fill="#CFE7D3" transform="translate(200,235)"/>
</svg>
