<?xml version="1.0" encoding="UTF-8"?>
<svg viewBox="0 0 512 512" version="1.1" xmlns="http://www.w3.org/2000/svg">
<path d="M0 0 C2.394 1.896 4.707 3.832 6.965 5.887 C7.415 5.523 7.865 5.16 8.328 4.785 C20.659 -4.853 30.622 -8.47 46.309 -6.875 C56.231 -4.862 64.236 1.834 69.965 9.887 C75.451 18.348 75.121 29.179 73.965 38.887 C70.782 52.337 62.382 63.124 52.965 72.887 C52.096 73.796 51.227 74.704 50.332 75.641 C44.234 81.886 37.838 87.518 30.965 92.887 C30.242 93.454 29.519 94.022 28.774 94.606 C24.793 97.729 20.806 100.844 16.809 103.945 C16.14 104.464 15.472 104.983 14.783 105.517 C12.244 107.43 10.414 108.806 7.246 109.375 C2.501 108.669 0.002 106.177 -3.535 103.074 C-4.961 101.866 -6.388 100.659 -7.816 99.453 C-8.172 99.15 -8.172 99.15 -9.969 97.618 C-12.374 95.603 -14.845 93.697 -17.343 91.8 C-34.946 78.399 -56.267 60.421 -59.852 37.145 C-59.912 36.399 -59.973 35.654 -60.035 34.887 C-60.127 33.894 -60.218 32.902 -60.312 31.879 C-60.836 21.077 -57.819 12.81 -50.91 4.512 C-37.11 -9.819 -16.299 -11.349 0 0 Z " fill="#CFE7D3" transform="translate(249.03515625,138.11328125)"/>
<path d="M0 0 C3.845 3.321 7.109 6.452 8.75 11.375 C8.835 14.252 8.866 17.104 8.848 19.98 C8.846 20.82 8.845 21.659 8.843 22.524 C8.838 25.203 8.825 27.883 8.812 30.562 C8.807 32.38 8.803 34.197 8.799 36.014 C8.788 40.467 8.771 44.921 8.75 49.375 C9.529 49.047 10.309 48.72 11.112 48.382 C13.816 47.35 15.288 47.182 18.125 47.5 C18.834 47.564 19.543 47.629 20.273 47.695 C26.642 49.443 30.928 53.193 35.137 58.098 C39.862 63.406 44.786 68.432 49.895 73.371 C51.328 74.769 52.761 76.166 54.193 77.564 C56.381 79.697 58.573 81.823 60.782 83.934 C82.141 104.391 82.141 104.391 82.884 119.007 C82.888 120.004 82.891 121.002 82.895 122.03 C82.902 123.164 82.908 124.299 82.915 125.467 C82.916 126.687 82.917 127.907 82.918 129.164 C82.92 129.791 82.92 129.791 82.928 132.966 C82.933 135.618 82.936 138.269 82.935 140.92 C82.935 144.321 82.949 147.722 82.966 151.122 C82.98 154.365 82.979 157.608 82.98 160.852 C82.988 162.075 82.995 163.299 83.002 164.56 C82.999 165.689 82.996 166.817 82.993 167.979 C82.994 168.975 82.996 169.971 82.997 170.997 C82.75 173.375 82.75 173.375 80.75 175.375 C76.194 174.819 76.194 174.819 74.75 173.375 C74.648 171.612 74.614 169.846 74.608 168.08 C74.605 167.514 74.605 167.514 74.587 164.65 C74.583 163.414 74.579 162.179 74.574 160.906 C74.551 158.307 74.527 155.708 74.502 153.109 C74.466 148.999 74.436 144.889 74.424 140.779 C74.412 136.821 74.368 132.864 74.324 128.906 C74.326 127.687 74.328 126.468 74.33 125.212 C74.099 109.004 65.63 101.046 54.633 90.294 C51.79 87.498 49.086 84.647 46.488 81.621 C42.049 76.485 37.246 71.725 32.438 66.938 C31.532 66.028 30.626 65.119 29.693 64.182 C28.829 63.319 27.965 62.456 27.074 61.566 C26.683 61.176 26.683 61.176 24.702 59.198 C21.547 56.252 19.055 55.96 14.73 56.039 C12.75 56.375 12.75 56.375 10.188 58.375 C8.317 62.278 8.488 65.33 9.75 69.375 C11.536 72.105 13.734 74.289 16.062 76.562 C17.331 77.866 18.599 79.169 19.867 80.473 C21.16 81.775 22.455 83.075 23.75 84.375 C26.083 86.731 28.392 89.108 30.688 91.5 C31.213 92.02 31.739 92.539 32.281 93.075 C33.715 94.57 33.715 94.57 35.75 97.375 C35.566 100.242 35.566 100.242 34.75 102.375 C32.688 103.312 32.688 103.312 29.75 103.375 C27.05 101.387 24.941 98.899 22.75 96.375 C22.228 95.783 21.706 95.192 21.168 94.582 C20.054 93.311 18.948 92.033 17.848 90.75 C16.178 88.859 14.481 87.018 12.746 85.188 C12.212 84.621 11.678 84.055 11.128 83.471 C10.066 82.348 8.998 81.231 7.925 80.119 C7.429 79.592 6.933 79.066 6.422 78.523 C5.979 78.061 5.537 77.599 5.081 77.123 C0.007 70.461 0.338 64.32 0.379 56.242 C0.362 53.637 0.344 51.031 0.326 48.426 C0.313 44.326 0.313 40.227 0.314 36.127 C0.314 32.166 0.283 28.204 0.254 24.242 C0.262 23.013 0.27 21.784 0.279 20.517 C0.274 19.947 0.274 19.947 0.248 17.058 C0.248 16.055 0.249 15.051 0.249 14.018 C-0.384 10.664 -1.624 9.482 -4.25 7.375 C-6.25 6.809 -6.25 6.809 -8.25 6.812 C-8.58 6.802 -8.58 6.802 -10.25 6.746 C-13.389 7.733 -14.449 9.688 -16.25 12.375 C-16.765 15.298 -16.765 15.298 -16.783 18.564 C-16.799 19.793 -16.815 21.022 -16.831 22.289 C-16.828 23.626 -16.823 24.963 -16.816 26.301 C-16.822 27.69 -16.828 29.08 -16.835 30.469 C-16.846 33.385 -16.841 36.301 -16.826 39.217 C-16.813 42.178 -16.819 45.138 -16.847 48.099 C-17.093 74.601 -14.018 92.619 3.75 113.375 C4.223 113.927 4.696 114.48 5.183 115.049 C7.22 117.427 9.259 119.804 11.301 122.178 C15.876 127.504 20.376 132.882 24.75 138.375 C25.558 139.387 26.366 140.399 27.199 141.441 C35.961 152.714 37.61 160.341 36.75 174.375 C35.75 175.375 35.75 175.375 33.25 175.5 C30.75 175.375 30.75 175.375 29.75 174.375 C29.615 172.585 29.518 170.793 29.438 169 C28.317 155.8 22.869 148.501 14.232 139.027 C12.173 136.732 10.242 134.342 8.312 131.938 C5.814 128.845 3.27 125.815 0.621 122.852 C-16.361 103.814 -24.519 87.584 -24.656 61.707 C-24.662 60.977 -24.668 60.247 -24.673 59.494 C-24.703 55.64 -24.722 51.786 -24.73 47.932 C-24.741 43.974 -24.79 40.018 -24.846 36.06 C-24.884 32.992 -24.894 29.923 -24.897 26.854 C-24.903 25.395 -24.919 23.937 -24.946 22.478 C-25.074 14.864 -25.121 8.737 -19.814 2.783 C-14.011 -2.442 -6.945 -3.473 0 0 Z " fill="#0F3E17" transform="translate(154.25,176.625)"/>
<path d="M0 0 C4.354 2.006 7.208 4.166 9.844 8.277 C10.947 11.588 10.984 14.075 11.005 17.562 C11.014 18.861 11.024 20.16 11.034 21.499 C11.039 22.923 11.043 24.346 11.047 25.77 C11.048 26.13 11.048 26.13 11.055 27.952 C11.07 31.773 11.08 35.594 11.084 39.415 C11.089 43.329 11.113 47.244 11.142 51.158 C11.161 54.193 11.166 57.229 11.167 60.265 C11.17 61.705 11.178 63.146 11.192 64.586 C11.383 86.966 4.01 102.577 -10.156 119.277 C-10.659 119.871 -11.161 120.464 -11.679 121.076 C-14.207 124.051 -16.751 127.011 -19.305 129.965 C-41.287 155.432 -41.287 155.432 -41.723 168.965 C-41.955 174.076 -41.955 174.076 -44.156 176.277 C-48.712 175.722 -48.712 175.722 -50.156 174.277 C-51.586 157.42 -45.491 148.565 -35.156 136.277 C-34.676 135.705 -34.197 135.133 -33.702 134.543 C-31.381 131.783 -29.048 129.033 -26.707 126.289 C-23.824 122.885 -21.015 119.432 -18.258 115.926 C-16.672 113.927 -15.064 111.962 -13.43 110.004 C-0.962 94.896 3.147 81.172 3.18 61.695 C3.186 60.309 3.193 58.923 3.2 57.537 C3.212 54.651 3.216 51.766 3.214 48.881 C3.214 45.191 3.242 41.502 3.276 37.812 C3.298 34.958 3.302 32.104 3.301 29.25 C3.303 27.889 3.312 26.528 3.328 25.168 C3.347 23.268 3.339 21.369 3.33 19.469 C3.332 18.392 3.335 17.314 3.338 16.203 C2.724 12.571 1.388 10.892 -1.156 8.277 C-3.156 7.648 -3.156 7.648 -5.156 7.715 C-5.816 7.714 -6.476 7.712 -7.156 7.711 C-10.064 8.535 -11.253 9.954 -13.156 12.277 C-13.648 14.958 -13.648 14.958 -13.639 18.052 C-13.642 18.633 -13.642 18.633 -13.659 21.572 C-13.654 22.198 -13.654 22.198 -13.625 25.363 C-13.636 27.334 -13.647 29.304 -13.659 31.275 C-13.678 35.433 -13.661 39.591 -13.651 43.748 C-13.644 47.17 -13.645 50.591 -13.666 54.012 C-13.68 56.576 -13.676 59.141 -13.653 61.705 C-13.715 72.387 -13.715 72.387 -18.156 77.277 C-18.663 77.884 -19.17 78.491 -19.693 79.117 C-20.172 79.621 -20.651 80.125 -21.145 80.645 C-21.683 81.216 -22.221 81.788 -22.775 82.377 C-23.055 82.67 -23.055 82.67 -24.469 84.152 C-25.632 85.387 -26.795 86.623 -27.957 87.859 C-28.234 88.154 -28.234 88.154 -29.635 89.643 C-31.522 91.67 -33.348 93.744 -35.156 95.84 C-35.68 96.438 -36.203 97.036 -36.742 97.652 C-37.676 98.725 -38.598 99.809 -39.508 100.902 C-40.781 102.34 -40.781 102.34 -43.156 104.277 C-45.969 104.09 -45.969 104.09 -48.156 103.277 C-47.781 97.598 -46.733 95.154 -42.531 91.34 C-38.107 87.18 -34.095 82.89 -30.156 78.277 C-28.286 76.163 -26.414 74.051 -24.539 71.941 C-21.669 68.488 -22.002 65.675 -22.156 61.277 C-22.486 60.287 -22.816 59.297 -23.156 58.277 C-24.781 57.59 -24.781 57.59 -27.156 57.277 C-28.229 57.112 -29.301 56.947 -30.406 56.777 C-37.888 57.775 -42.223 64.317 -47.055 69.688 C-51.225 74.279 -55.53 78.699 -59.961 83.039 C-60.539 83.607 -61.117 84.175 -61.713 84.76 C-64.085 87.087 -66.459 89.412 -68.848 91.722 C-79.487 102.032 -86.965 110.707 -87.459 126.219 C-87.494 128.497 -87.519 130.776 -87.535 133.055 C-87.552 134.262 -87.569 135.469 -87.587 136.713 C-87.64 140.547 -87.68 144.381 -87.719 148.215 C-87.763 152.074 -87.809 155.933 -87.862 159.792 C-87.894 162.189 -87.92 164.586 -87.942 166.984 C-87.955 168.059 -87.969 169.134 -87.983 170.242 C-87.992 171.193 -88.002 172.143 -88.011 173.123 C-88.156 175.277 -88.156 175.277 -89.156 176.277 C-91.656 176.402 -91.656 176.402 -94.156 176.277 C-95.867 174.567 -95.301 172.336 -95.317 169.998 C-95.327 168.869 -95.337 167.741 -95.346 166.578 C-95.351 165.345 -95.355 164.113 -95.359 162.844 C-95.365 161.582 -95.371 160.319 -95.377 159.019 C-95.386 156.336 -95.393 153.654 -95.396 150.971 C-95.402 147.558 -95.426 144.146 -95.454 140.734 C-95.478 137.458 -95.48 134.182 -95.484 130.906 C-95.497 129.692 -95.509 128.478 -95.522 127.228 C-95.482 111.782 -90.298 102.536 -79.957 91.523 C-79.347 90.873 -78.738 90.222 -78.11 89.552 C-71.441 82.467 -64.628 75.528 -57.758 68.639 C-55.623 66.494 -53.499 64.339 -51.375 62.184 C-50.001 60.803 -48.626 59.423 -47.25 58.043 C-46.625 57.406 -46 56.768 -45.356 56.111 C-40.944 51.722 -37.054 48.588 -30.656 47.902 C-26.855 48.31 -24.502 49.501 -21.156 51.277 C-21.193 50.047 -21.23 48.817 -21.267 47.549 C-21.395 42.957 -21.475 38.365 -21.541 33.772 C-21.576 31.79 -21.624 29.807 -21.684 27.825 C-21.77 24.965 -21.809 22.107 -21.84 19.246 C-21.876 18.369 -21.912 17.491 -21.949 16.587 C-21.953 10.416 -20.285 7.331 -16.054 2.872 C-11.236 -1.177 -5.965 -1.999 0 0 Z " fill="#0F3E17" transform="translate(371.15625,175.72265625)"/>
<path d="M0 0 C2.394 1.896 4.707 3.832 6.965 5.887 C7.415 5.523 7.865 5.16 8.328 4.785 C20.659 -4.853 30.622 -8.47 46.309 -6.875 C56.231 -4.862 64.236 1.834 69.965 9.887 C75.451 18.348 75.121 29.179 73.965 38.887 C70.782 52.337 62.382 63.124 52.965 72.887 C52.096 73.796 51.227 74.704 50.332 75.641 C44.234 81.886 37.838 87.518 30.965 92.887 C30.242 93.454 29.519 94.022 28.774 94.606 C24.793 97.729 20.806 100.844 16.809 103.945 C16.14 104.464 15.472 104.983 14.783 105.517 C12.244 107.43 10.414 108.806 7.246 109.375 C2.501 108.669 0.002 106.177 -3.535 103.074 C-4.961 101.866 -6.388 100.659 -7.816 99.453 C-8.172 99.15 -8.172 99.15 -9.969 97.618 C-12.374 95.603 -14.845 93.697 -17.343 91.8 C-34.946 78.399 -56.267 60.421 -59.852 37.145 C-59.912 36.399 -59.973 35.654 -60.035 34.887 C-60.127 33.894 -60.218 32.902 -60.312 31.879 C-60.836 21.077 -57.819 12.81 -50.91 4.512 C-37.11 -9.819 -16.299 -11.349 0 0 Z M-49.426 14.586 C-53.656 21.214 -52.908 30.334 -52.035 37.887 C-51.175 41.563 -49.866 44.596 -48.035 47.887 C-47.611 48.703 -47.187 49.519 -46.75 50.359 C-43.051 57.027 -38.302 62.414 -33.035 67.887 C-32.654 68.293 -32.654 68.293 -30.727 70.352 C-25.147 76.151 -19.161 81.119 -12.781 85.988 C-10.115 88.027 -7.519 90.13 -4.945 92.285 C-4.271 92.844 -3.597 93.403 -2.903 93.979 C-1.597 95.065 -0.299 96.161 0.991 97.267 C2.785 98.746 2.785 98.746 5.965 100.887 C9.158 100.561 11.04 99.283 13.469 97.262 C14.121 96.725 14.774 96.188 15.446 95.635 C16.133 95.058 16.82 94.481 17.527 93.887 C18.974 92.689 20.421 91.491 21.867 90.293 C22.571 89.706 23.275 89.12 24 88.516 C26.504 86.44 29.049 84.417 31.59 82.387 C45.598 70.847 58.349 59.26 64.965 41.887 C65.398 40.773 65.831 39.659 66.277 38.512 C67.961 29.635 67.962 21.93 63.391 13.973 C61.513 11.225 59.5 9.042 56.965 6.887 C56.14 6.165 55.315 5.443 54.465 4.699 C47.042 -0.683 37.753 -0.048 28.965 0.887 C21.17 2.853 16.393 8.093 11.191 13.973 C8.965 15.887 8.965 15.887 6.895 15.906 C4.535 14.66 3.215 13.214 1.465 11.199 C-5.106 4.508 -12.108 0.706 -21.538 0.277 C-34.657 0.186 -41.243 4.588 -49.426 14.586 Z " fill="#0F3E17" transform="translate(249.03515625,138.11328125)"/>
<path d="M0 0 C3.049 7.575 3.426 14.161 3.363 22.277 C3.364 23.525 3.364 24.773 3.365 26.058 C3.362 29.347 3.345 32.636 3.323 35.924 C3.309 38.618 3.314 41.312 3.32 44.006 C3.324 47.222 3.312 50.437 3.301 53.652 C3.301 54.256 3.301 54.256 3.304 57.314 C3.294 58.426 3.284 59.538 3.275 60.683 C3.27 61.664 3.265 62.645 3.261 63.656 C3 66 3 66 1 68 C-3.556 67.444 -3.556 67.444 -5 66 C-5.145 64.09 -5.22 62.174 -5.269 60.259 C-5.302 59.03 -5.335 57.802 -5.368 56.536 C-5.399 55.184 -5.428 53.832 -5.457 52.48 C-5.465 52.141 -5.465 52.141 -5.503 50.426 C-5.582 46.836 -5.655 43.245 -5.722 39.655 C-5.794 35.945 -5.889 32.237 -5.989 28.528 C-6.062 25.678 -6.116 22.827 -6.166 19.976 C-6.193 18.609 -6.227 17.241 -6.268 15.875 C-6.324 13.96 -6.352 12.045 -6.378 10.13 C-6.402 9.04 -6.425 7.951 -6.45 6.828 C-5.86 3.118 -4.088 0 0 0 Z " fill="#0F3E17" transform="translate(234,284)"/>
<path d="M0 0 C0.66 0 1.32 0 2 0 C0.425 3.578 -1.757 6.315 -4.25 9.312 C-5.048 10.274 -5.846 11.236 -6.668 12.227 C-9.424 15.504 -12.196 18.764 -15 22 C-15.99 21.67 -16.98 21.34 -18 21 C-17.371 20.322 -16.742 19.644 -16.094 18.945 C-10.996 13.402 -6.152 7.807 -1.594 1.801 C-1.068 1.207 -0.542 0.612 0 0 Z " fill="#CFE7D3" transform="translate(360,295)"/>
<path d="M0 0 C1.65 1.65 3.3 3.3 5 5 C3.35 6.65 1.7 8.3 0 10 C-1.32 8.68 -2.64 7.36 -4 6 C-3.34 4.68 -2.68 3.36 -2 2 C-1.34 2 -0.68 2 0 2 C0 1.34 0 0.68 0 0 Z " fill="#0F3E17" transform="translate(198,245)"/>
<path d="M0 0 C0.33 0.99 0.66 1.98 1 3 C-2.3 6.3 -5.6 9.6 -9 13 C-9.99 12.67 -10.98 12.34 -12 12 C-8.04 8.04 -4.08 4.08 0 0 Z " fill="#0F3E17" transform="translate(302,256)"/>
<path d="M0 0 C0 3.517 -0.692 4.364 -2.75 7.125 C-3.005 7.477 -3.005 7.477 -4.297 9.258 C-6.195 11.199 -7.351 11.62 -10 12 C-8.523 8.548 -6.562 6.35 -3.875 3.75 C-3.151 3.044 -2.426 2.337 -1.68 1.609 C-1.125 1.078 -0.571 0.547 0 0 Z " fill="#CFE7D3" transform="translate(300,269)"/>
<path d="M0 0 C0.66 0.66 1.32 1.32 2 2 C1.526 2.557 1.051 3.114 0.562 3.688 C-1.124 6.183 -1.59 8.045 -2 11 C-2.66 10.67 -3.32 10.34 -4 10 C-3.385 3.477 -3.385 3.477 -1.438 1.062 C-1.2 0.887 -1.2 0.887 0 0 Z " fill="#CFE7D3" transform="translate(166,233)"/>
<path d="M0 0 C0 4.353 -2.062 5.928 -5 9 C-7.172 9.68 -7.172 9.68 -9 10 C-8.064 8.894 -7.126 7.791 -6.188 6.688 C-5.665 6.073 -5.143 5.458 -4.605 4.824 C-3.128 3.146 -1.6 1.561 0 0 Z " fill="#0F3E17" transform="translate(318,240)"/>
</svg>
