<?xml version="1.0" encoding="UTF-8"?>
<svg viewBox="0 0 512 512" version="1.1" xmlns="http://www.w3.org/2000/svg">
<path d="M0 0 C11.276 9.498 19.102 23.337 21 38 C21.874 58.58 17.727 75.518 4.25 91.625 C-6.575 103.393 -22.38 110.35 -38.301 111.32 C-56.133 111.974 -70.775 106.113 -84.359 94.547 C-96.763 82.584 -103.868 67.192 -104.354 49.993 C-104.506 31.82 -98.833 16.281 -86.279 3.011 C-81.691 -1.57 -76.703 -4.966 -71 -8 C-70.552 -8.241 -70.552 -8.241 -68.285 -9.461 C-45.933 -20.557 -18.735 -15.681 0 0 Z " fill="#CFE7D3" transform="translate(311,139)"/>
<path d="M0 0 C5.233 5.099 8.547 8.98 8.75 16.562 C8.646 23.158 7.209 27.439 2.66 32.258 C-2.244 36.769 -7.579 40.791 -12.836 44.879 C-17.731 48.691 -22.532 52.608 -27.312 56.562 C-33.353 61.556 -39.413 66.516 -45.562 71.375 C-46.084 71.788 -46.605 72.201 -47.142 72.627 C-50.693 75.44 -54.255 78.237 -57.83 81.02 C-59.473 82.305 -61.106 83.603 -62.738 84.902 C-69.027 89.804 -75.08 93.589 -82.562 96.375 C-83.353 96.693 -84.143 97.012 -84.957 97.34 C-99.575 102.335 -116.198 99.942 -130.562 95.375 C-132.311 94.837 -134.06 94.299 -135.809 93.762 C-143.12 91.487 -150.398 89.113 -157.652 86.66 C-158.451 86.391 -159.25 86.121 -160.073 85.843 C-161.547 85.343 -163.019 84.839 -164.49 84.329 C-171.585 81.91 -178.629 80.267 -186.125 79.75 C-187.158 79.675 -188.19 79.6 -189.254 79.523 C-189.635 79.499 -189.635 79.499 -191.562 79.375 C-191.501 80.406 -191.439 81.438 -191.375 82.5 C-191.579 86.721 -192.25 88.867 -194.562 92.375 C-198.591 95.463 -202.17 95.842 -207.094 95.844 C-207.807 95.851 -208.521 95.859 -209.256 95.867 C-210.759 95.878 -212.261 95.88 -213.764 95.876 C-216.056 95.875 -218.345 95.917 -220.637 95.961 C-222.102 95.966 -223.566 95.969 -225.031 95.969 C-225.712 95.985 -226.392 96.002 -227.093 96.018 C-230.849 95.964 -232.448 95.467 -235.408 93.088 C-239.162 88.361 -239.859 85.009 -239.837 79.024 C-239.842 78.29 -239.847 77.556 -239.853 76.8 C-239.867 74.378 -239.866 71.957 -239.863 69.535 C-239.867 67.849 -239.872 66.163 -239.876 64.476 C-239.884 60.943 -239.883 57.41 -239.878 53.877 C-239.872 49.353 -239.889 44.83 -239.913 40.306 C-239.927 36.824 -239.928 33.342 -239.925 29.859 C-239.926 28.192 -239.931 26.524 -239.941 24.856 C-239.953 22.522 -239.946 20.189 -239.935 17.856 C-239.939 17.513 -239.939 17.513 -239.958 15.776 C-239.911 11.472 -239.156 8.816 -236.562 5.375 C-232.559 2.166 -229.297 1.99 -224.25 1.977 C-223.559 1.974 -222.867 1.971 -222.155 1.968 C-220.699 1.966 -219.244 1.971 -217.788 1.984 C-215.569 2 -213.352 1.984 -211.133 1.965 C-209.714 1.967 -208.294 1.971 -206.875 1.977 C-205.592 1.98 -204.31 1.983 -202.988 1.987 C-199.338 2.4 -197.45 3.143 -194.562 5.375 C-193.25 8.062 -193.25 8.062 -192.562 10.375 C-192.043 10.14 -192.043 10.14 -189.414 8.949 C-171.371 0.86 -154.136 -4.18 -134.562 2.375 C-123.635 7.241 -123.635 7.241 -119.84 11.148 C-113.393 17.417 -107.163 17.155 -98.654 17.102 C-96.936 17.071 -95.218 17.037 -93.5 17 C-90.932 16.956 -88.365 16.922 -85.797 16.919 C-84.208 16.916 -82.619 16.89 -81.032 16.836 C-75.081 16.812 -71.199 18.689 -66.562 22.375 C-62.562 26.675 -62.562 26.675 -62.562 29.375 C-53.224 23.09 -43.954 16.763 -35 9.938 C-33.083 8.496 -31.162 7.06 -29.239 5.627 C-27.765 4.526 -26.301 3.411 -24.84 2.293 C-17.37 -2.893 -8.354 -3.81 0 0 Z M-25.125 12.062 C-26.675 13.256 -28.226 14.449 -29.777 15.641 C-30.562 16.257 -31.347 16.874 -32.156 17.51 C-36.086 20.556 -40.14 23.425 -44.188 26.312 C-46.302 27.832 -48.412 29.356 -50.515 30.891 C-51.922 31.911 -53.34 32.915 -54.768 33.906 C-58.747 36.733 -61.4 38.835 -63.25 43.5 C-65.073 47.581 -66.633 49.997 -70.562 52.375 C-73.766 53.443 -76.044 53.496 -79.411 53.489 C-80.011 53.488 -80.011 53.488 -83.05 53.488 C-83.699 53.486 -83.699 53.486 -86.98 53.473 C-88.321 53.471 -89.662 53.469 -91.003 53.468 C-94.53 53.465 -98.056 53.455 -101.582 53.444 C-105.182 53.433 -108.781 53.429 -112.381 53.424 C-119.441 53.413 -126.502 53.396 -133.562 53.375 C-133.562 51.725 -133.562 50.075 -133.562 48.375 C-132.86 48.369 -132.157 48.363 -131.432 48.357 C-124.797 48.299 -118.161 48.227 -111.526 48.139 C-108.115 48.095 -104.704 48.055 -101.293 48.029 C-97.368 47.998 -93.444 47.943 -89.52 47.887 C-88.299 47.88 -87.078 47.874 -85.82 47.867 C-84.679 47.848 -83.538 47.828 -82.363 47.807 C-81.361 47.796 -80.36 47.785 -79.328 47.774 C-75.314 47.195 -72.682 45.417 -69.75 42.688 C-67.992 39.264 -67.787 36.083 -68.562 32.375 C-70.539 28.853 -72.661 26.675 -76.562 25.375 C-79.26 25.292 -81.936 25.262 -84.633 25.27 C-86.268 25.256 -87.904 25.241 -89.539 25.225 C-92.107 25.202 -94.673 25.187 -97.24 25.2 C-115.083 25.264 -115.083 25.264 -122.562 18.375 C-135.916 9.042 -148.291 5.627 -164.617 7.777 C-173.61 9.642 -181.524 14.097 -189.562 18.375 C-189.892 18.54 -189.892 18.54 -191.562 19.375 C-191.562 36.535 -191.562 53.695 -191.562 71.375 C-185.623 72.035 -179.683 72.695 -173.562 73.375 C-170.423 74.196 -167.712 74.961 -164.75 76.125 C-163.259 76.665 -161.767 77.199 -160.273 77.73 C-159.893 77.867 -159.893 77.867 -157.968 78.556 C-153.655 80.025 -149.264 81.219 -144.875 82.438 C-137.388 84.526 -130.024 86.817 -122.691 89.395 C-107.136 94.269 -90.433 91.936 -76.062 84.812 C-70.487 81.601 -65.751 77.508 -60.934 73.289 C-57.653 70.422 -54.257 67.73 -50.812 65.062 C-45.486 60.923 -40.257 56.679 -35.062 52.375 C-29.823 48.035 -24.55 43.75 -19.188 39.562 C-16.979 37.834 -14.771 36.104 -12.562 34.375 C-12.023 33.953 -11.483 33.531 -10.927 33.097 C-9.383 31.885 -7.847 30.661 -6.312 29.438 C-5.877 29.093 -5.877 29.093 -3.672 27.348 C-0.95 24.802 0.208 22.866 0.773 19.191 C0.845 15.089 0.791 12.941 -1.438 9.375 C-5.259 5.779 -8.56 5.934 -13.652 5.991 C-18.471 6.627 -21.439 9.048 -25.125 12.062 Z " fill="#0F3E17" transform="translate(363.5625,255.625)"/>
<path d="M0 0 C11.276 9.498 19.102 23.337 21 38 C21.874 58.58 17.727 75.518 4.25 91.625 C-6.575 103.393 -22.38 110.35 -38.301 111.32 C-56.133 111.974 -70.775 106.113 -84.359 94.547 C-96.763 82.584 -103.868 67.192 -104.354 49.993 C-104.506 31.82 -98.833 16.281 -86.279 3.011 C-81.691 -1.57 -76.703 -4.966 -71 -8 C-70.552 -8.241 -70.552 -8.241 -68.285 -9.461 C-45.933 -20.557 -18.735 -15.681 0 0 Z M-75 4 C-75.686 4.523 -76.372 5.047 -77.078 5.586 C-85.053 12.07 -90.417 20.424 -94 30 C-94.18 30.438 -94.18 30.438 -95.09 32.652 C-96.298 37.094 -96.291 41.232 -96.25 45.812 C-96.258 46.664 -96.265 47.515 -96.273 48.393 C-96.246 57.56 -94.396 65.065 -90.188 73.188 C-89.857 73.86 -89.526 74.532 -89.186 75.225 C-82.01 89.369 -69.343 97.144 -54.645 102.141 C-39.597 105.689 -24.67 102.316 -11.488 94.609 C-0.444 87.466 8.517 75.812 12 63 C14.073 51.499 14.777 37.86 10 27 C9.694 26.21 9.389 25.42 9.074 24.605 C3.126 10.871 -8.833 1.282 -22.375 -4.375 C-40.035 -11.167 -60.315 -7.554 -75 4 Z " fill="#0F3E17" transform="translate(311,139)"/>
<path d="M0 0 C3.536 0.536 3.536 0.536 5 2 C5.072 3.519 5.084 5.042 5.062 6.562 C5.053 7.389 5.044 8.215 5.035 9.066 C5.024 9.704 5.012 10.343 5 11 C5.701 11.062 6.402 11.124 7.125 11.188 C11.033 12.292 13.004 14.282 16 17 C15.67 18.65 15.34 20.3 15 22 C12.75 22.188 12.75 22.188 10 22 C9.423 21.505 8.845 21.01 8.25 20.5 C4.807 18.205 1.034 18.4 -3 19 C-5 21 -5 21 -5.438 24.938 C-5.308 28.702 -5.308 28.702 -3.125 30.812 C-0.425 31.838 2.225 32.651 5 33.438 C10.559 35.017 13.762 37.142 17 42 C17.573 46.806 17.636 51.426 15.812 55.938 C12.888 59.265 10.228 61.591 6 63 C5.97 63.319 5.97 63.319 5.816 64.934 C5.775 65.347 5.775 65.347 5.562 67.438 C5.481 68.261 5.4 69.085 5.316 69.934 C5 72 5 72 4 73 C1.5 73.125 1.5 73.125 -1 73 C-2 72 -2 72 -2.098 69.934 C-2.086 69.11 -2.074 68.286 -2.062 67.438 C-2.058 67.024 -2.058 67.024 -2.035 64.934 C-2.024 64.296 -2.012 63.657 -2 63 C-2.866 62.773 -3.733 62.546 -4.625 62.312 C-8.618 60.76 -10.842 58.857 -14 56 C-13.67 54.35 -13.34 52.7 -13 51 C-12.175 50.835 -12.175 50.835 -8 50 C-7.67 50.99 -7.34 51.98 -7 53 C-3.038 55.477 0.557 55.024 5.012 54.582 C7 54 7 54 9 51 C9.548 45.739 9.548 45.739 7.809 43.395 C5.511 41.623 3.584 41.269 0.75 40.688 C-4.665 39.325 -8.393 37.301 -12 33 C-14.307 29.123 -14.693 25.431 -14 21 C-11.743 16.653 -9.075 13.716 -5 11 C-4.01 11 -3.02 11 -2 11 C-2.023 10.374 -2.046 9.747 -2.07 9.102 C-2.088 8.284 -2.106 7.467 -2.125 6.625 C-2.148 5.813 -2.171 5.001 -2.195 4.164 C-2 2 -2 2 0 0 Z " fill="#0F3E17" transform="translate(268,150)"/>
<path d="M0 0 C0 0.99 0 1.98 0 3 C-14 3 -14 3 -17 1 C-10.907 -0.883 -6.275 -1.075 0 0 Z " fill="#CFE7D3" transform="translate(207,265)"/>
<path d="M0 0 C5.75 0.75 5.75 0.75 8 3 C3.05 3 -1.9 3 -7 3 C-7 2.67 -7 2.34 -7 2 C-4.69 2 -2.38 2 0 2 C0 1.34 0 0.68 0 0 Z " fill="#CFE7D3" transform="translate(280,133)"/>
<path d="M0 0 C1.32 0.66 2.64 1.32 4 2 C2.68 3.65 1.36 5.3 0 7 C-1 6 -1 6 -1.125 3.5 C-1 1 -1 1 0 0 Z " fill="#0F3E17" transform="translate(230,303)"/>
</svg>
