<?xml version="1.0" encoding="UTF-8"?>
<svg viewBox="0 0 512 512" version="1.1" xmlns="http://www.w3.org/2000/svg">
<path d="M0 0 C1.76 1.51 3.51 3.03 5.25 4.562 C6.092 5.271 6.934 5.98 7.801 6.711 C23.255 20.026 23.255 20.026 26.258 28.359 C27.25 30.562 27.25 30.562 29.211 31.312 C30.008 31.395 30.804 31.477 31.625 31.562 C44.778 33.644 56.376 40.702 65.25 50.562 C65.767 51.064 66.284 51.565 66.816 52.082 C75.416 60.913 80.917 73.567 83.25 85.562 C83.43 86.469 83.611 87.375 83.797 88.309 C86.754 109.545 81.313 129.712 68.562 146.938 C61.53 155.128 52.58 161.485 42.688 165.723 C38.959 168.537 37.285 172.428 35.25 176.562 C35.967 176.552 36.683 176.542 37.421 176.531 C40.656 176.489 43.89 176.463 47.125 176.438 C48.253 176.421 49.381 176.404 50.543 176.387 C51.619 176.38 52.696 176.374 53.805 176.367 C54.8 176.357 55.795 176.346 56.82 176.335 C59.25 176.562 59.25 176.562 61.25 178.562 C61.316 181.954 61.125 184.48 58.934 187.191 C57.744 188.337 56.536 189.464 55.316 190.578 C53.04 192.764 51.146 195.088 49.188 197.562 C44.85 202.96 40.178 207.97 35.419 212.996 C31.111 217.573 27.124 222.296 23.199 227.207 C20.929 229.95 18.485 232.417 15.93 234.891 C14.117 236.695 12.431 238.573 10.75 240.5 C10.174 241.159 9.598 241.817 9.004 242.496 C7.794 243.922 6.616 245.374 5.465 246.848 C0.976 252.442 0.976 252.442 -3.125 253.125 C-5.75 252.562 -5.75 252.562 -6.75 251.562 C-7.333 245.189 -5.537 239.991 -3.5 234 C-2.855 232.045 -2.212 230.089 -1.57 228.133 C-1.257 227.184 -0.944 226.236 -0.622 225.259 C0.888 220.589 2.209 215.873 3.523 211.145 C4.051 209.27 4.634 207.41 5.25 205.562 C4.437 205.568 3.625 205.573 2.787 205.578 C-0.871 205.599 -4.529 205.612 -8.188 205.625 C-9.467 205.633 -10.746 205.642 -12.064 205.65 C-13.279 205.654 -14.494 205.657 -15.746 205.66 C-16.309 205.663 -16.309 205.663 -19.158 205.676 C-21.75 205.562 -21.75 205.562 -22.75 204.562 C-23.139 199.931 -22.416 197.243 -20.082 193.262 C-19.518 192.284 -18.954 191.306 -18.373 190.299 C-18.074 189.796 -18.074 189.796 -16.562 187.25 C-15.402 185.254 -14.242 183.258 -13.082 181.262 C-12.801 180.784 -12.801 180.784 -11.381 178.365 C-9.11 174.464 -6.92 170.52 -4.75 166.562 C-5.523 166.425 -6.295 166.287 -7.091 166.145 C-19.334 163.465 -30.114 150.842 -37.75 141.562 C-40.952 143.621 -43.947 145.679 -46.812 148.188 C-51.208 151.741 -54.189 152.664 -59.75 152.562 C-59.715 153.538 -59.68 154.514 -59.645 155.52 C-59.617 156.792 -59.59 158.064 -59.562 159.375 C-59.528 160.64 -59.493 161.904 -59.457 163.207 C-59.75 166.562 -59.75 166.562 -61.133 168.523 C-62.75 169.562 -62.75 169.562 -64.812 169.375 C-66.75 168.562 -66.75 168.562 -68.75 166.562 C-68.945 163.523 -68.945 163.523 -68.875 159.938 C-68.857 158.749 -68.839 157.56 -68.82 156.336 C-68.797 155.421 -68.774 154.505 -68.75 153.562 C-72.05 153.562 -75.35 153.562 -78.75 153.562 C-78.727 154.55 -78.704 155.537 -78.68 156.555 C-78.662 157.836 -78.644 159.117 -78.625 160.438 C-78.602 161.714 -78.579 162.99 -78.555 164.305 C-78.75 167.562 -78.75 167.562 -80.75 169.562 C-84.047 169.233 -85.373 168.94 -87.75 166.562 C-87.945 163.523 -87.945 163.523 -87.875 159.938 C-87.857 158.749 -87.839 157.56 -87.82 156.336 C-87.797 155.421 -87.774 154.505 -87.75 153.562 C-89.015 153.597 -90.279 153.632 -91.582 153.668 C-93.242 153.696 -94.902 153.723 -96.562 153.75 C-97.396 153.775 -98.229 153.8 -99.088 153.826 C-99.489 153.831 -99.489 153.831 -101.52 153.855 C-101.889 153.863 -101.889 153.863 -103.757 153.903 C-106.321 153.465 -107.216 152.632 -108.75 150.562 C-108.329 146.141 -108.329 146.141 -106.75 144.562 C-103.45 144.562 -100.15 144.562 -96.75 144.562 C-96.75 121.463 -96.75 98.363 -96.75 74.562 C-99.72 74.562 -102.69 74.562 -105.75 74.562 C-106.74 73.572 -107.73 72.582 -108.75 71.562 C-108.329 67.141 -108.329 67.141 -106.75 65.562 C-105.261 65.476 -103.769 65.455 -102.277 65.465 C-101.378 65.468 -100.479 65.471 -99.553 65.475 C-99.08 65.479 -99.08 65.479 -96.688 65.5 C-96.213 65.502 -96.213 65.502 -93.811 65.514 C-91.457 65.525 -89.104 65.542 -86.75 65.562 C-86.762 64.491 -86.773 63.42 -86.785 62.316 C-86.795 60.919 -86.804 59.522 -86.812 58.125 C-86.817 57.771 -86.817 57.771 -86.838 55.982 C-86.847 54.176 -86.802 52.369 -86.75 50.562 C-85.75 49.562 -85.75 49.562 -83.312 49.375 C-80.75 49.562 -80.75 49.562 -78.75 51.562 C-78.555 54.82 -78.555 54.82 -78.625 58.688 C-78.643 59.969 -78.661 61.25 -78.68 62.57 C-78.703 63.558 -78.726 64.545 -78.75 65.562 C-75.45 65.562 -72.15 65.562 -68.75 65.562 C-68.773 64.575 -68.796 63.588 -68.82 62.57 C-68.838 61.289 -68.856 60.008 -68.875 58.688 C-68.898 57.411 -68.921 56.135 -68.945 54.82 C-68.75 51.562 -68.75 51.562 -66.75 49.562 C-64.25 49.312 -64.25 49.312 -61.75 49.562 C-59.75 51.562 -59.75 51.562 -59.555 54.82 C-59.578 56.096 -59.601 57.373 -59.625 58.688 C-59.643 59.969 -59.661 61.25 -59.68 62.57 C-59.703 63.558 -59.726 64.545 -59.75 65.562 C-59.001 65.688 -58.252 65.813 -57.48 65.941 C-52.92 66.979 -49.072 69.24 -45.75 72.562 C-45.398 71.873 -45.046 71.183 -44.684 70.473 C-38.16 58.056 -29.674 47.194 -17.75 39.562 C-17.09 39.562 -16.43 39.562 -15.75 39.562 C-18.156 32.344 -28.227 28.137 -34.625 24.812 C-46.905 18.908 -58.579 16.385 -72.125 16.375 C-73.02 16.363 -73.914 16.351 -74.836 16.338 C-80.748 16.325 -86.045 17.038 -91.75 18.562 C-92.804 18.823 -93.859 19.083 -94.945 19.352 C-108.701 23.276 -120.171 29.95 -130.75 39.562 C-131.066 39.838 -131.066 39.838 -132.664 41.23 C-146.447 53.975 -154.858 72.511 -158.75 90.562 C-158.837 90.95 -158.837 90.95 -159.278 92.912 C-161.869 107.468 -160.609 123.652 -155.75 137.562 C-155.541 138.186 -155.332 138.81 -155.117 139.453 C-150.263 153.736 -142.425 165.869 -131.75 176.562 C-131.077 177.247 -130.404 177.931 -129.711 178.637 C-114.315 193.311 -93.983 200.973 -72.875 200.812 C-71.863 200.82 -70.851 200.828 -69.809 200.836 C-62.157 200.816 -54.325 200.437 -47.168 197.505 C-43.944 196.248 -41.176 196.365 -37.75 196.562 C-36.75 197.562 -36.75 197.562 -36.375 200.438 C-36.75 203.562 -36.75 203.562 -38.938 205.312 C-59.249 214.34 -82.707 213.835 -103.438 206.312 C-130.182 195.199 -150.764 176.017 -162.285 149.328 C-164.752 143.234 -166.309 136.969 -167.75 130.562 C-167.976 129.7 -168.201 128.838 -168.434 127.949 C-171.496 114.708 -170.98 98.705 -167.75 85.562 C-167.505 84.485 -167.26 83.407 -167.008 82.297 C-164.569 72.669 -160.527 64.206 -155.75 55.562 C-155.205 54.572 -154.659 53.582 -154.098 52.562 C-140.317 29.381 -117.336 14.609 -91.75 7.562 C-66.935 2.827 -42.976 7.238 -21.75 20.562 C-17.997 23.18 -14.372 25.879 -11.191 29.18 C-9.75 30.625 -9.75 30.625 -6.75 32.562 C-4.502 32.397 -2.563 31.837 -0.406 31.184 C4.716 29.986 10.02 30.417 15.25 30.562 C3.181 9.319 -20.623 -3.556 -43.219 -10.543 C-52.99 -13.018 -62.294 -13.827 -72.375 -13.812 C-73.035 -13.812 -73.696 -13.811 -74.376 -13.811 C-85.077 -13.77 -94.634 -12.903 -104.75 -9.438 C-105.384 -9.223 -106.017 -9.009 -106.67 -8.788 C-130.878 -0.414 -154.491 16.341 -167.75 38.562 C-168.414 39.663 -169.078 40.764 -169.762 41.898 C-181.641 61.962 -188.34 82.472 -188.141 105.824 C-188.125 108.061 -188.141 110.297 -188.16 112.535 C-188.181 125.531 -186.282 137.808 -181.562 150 C-181.261 150.794 -180.959 151.587 -180.648 152.405 C-167.949 185.025 -145.761 208.894 -113.75 223.562 C-85.628 235.444 -55.691 233.77 -27.75 222.562 C-26.656 222.012 -25.561 221.462 -24.434 220.895 C-21.284 219.331 -19.224 219.168 -15.75 219.562 C-13.75 221.562 -13.75 221.562 -13.688 223.938 C-15.766 229.073 -22.832 231.163 -27.75 233.251 C-57.007 245.278 -89.561 244.618 -118.75 232.562 C-133.592 225.913 -145.948 216.719 -157.75 205.562 C-158.572 204.805 -159.395 204.047 -160.242 203.266 C-184.038 180.582 -198.275 145.578 -199.105 112.901 C-199.317 84.124 -191.665 56.559 -175.75 32.562 C-175.098 31.571 -174.445 30.58 -173.773 29.559 C-163.983 15.667 -151.256 3.393 -136.75 -5.438 C-135.779 -6.058 -134.809 -6.678 -133.809 -7.316 C-92.879 -32.55 -37.702 -30.288 0 0 Z " fill="#CFE7D3" transform="translate(324.75,130.4375)"/>
<path d="M0 0 C1.76 1.51 3.51 3.03 5.25 4.562 C6.092 5.271 6.934 5.98 7.801 6.711 C31.693 27.296 47.813 59.258 51.25 90.562 C51.482 95.404 51.539 100.227 51.511 105.073 C51.5 107.258 51.511 109.442 51.523 111.627 C51.53 118.834 51.309 125.595 49.25 132.562 C48.25 133.562 48.25 133.562 45.25 133.688 C42.25 133.562 42.25 133.562 41.25 132.562 C41.211 129.682 41.233 126.824 41.293 123.945 C41.315 122.121 41.337 120.297 41.357 118.473 C41.394 115.61 41.436 112.748 41.497 109.885 C41.828 93.477 40.433 77.605 34 62.312 C33.703 61.583 33.407 60.853 33.101 60.101 C20.581 30.044 -0.849 6.704 -30.75 -6.438 C-35.963 -8.502 -41.284 -10.178 -46.75 -11.438 C-47.542 -11.62 -48.334 -11.803 -49.15 -11.991 C-56.889 -13.589 -64.489 -13.823 -72.375 -13.812 C-73.035 -13.812 -73.696 -13.811 -74.376 -13.811 C-85.077 -13.77 -94.634 -12.903 -104.75 -9.438 C-105.384 -9.223 -106.017 -9.009 -106.67 -8.788 C-130.878 -0.414 -154.491 16.341 -167.75 38.562 C-168.414 39.663 -169.078 40.764 -169.762 41.898 C-181.641 61.962 -188.34 82.472 -188.141 105.824 C-188.125 108.061 -188.141 110.297 -188.16 112.535 C-188.181 125.531 -186.282 137.808 -181.562 150 C-181.261 150.794 -180.959 151.587 -180.648 152.405 C-167.949 185.025 -145.761 208.894 -113.75 223.562 C-85.628 235.444 -55.691 233.77 -27.75 222.562 C-26.656 222.012 -25.561 221.462 -24.434 220.895 C-21.284 219.331 -19.224 219.168 -15.75 219.562 C-13.75 221.562 -13.75 221.562 -13.688 223.938 C-15.766 229.073 -22.832 231.163 -27.75 233.251 C-57.007 245.278 -89.561 244.618 -118.75 232.562 C-133.592 225.913 -145.948 216.719 -157.75 205.562 C-158.572 204.805 -159.395 204.047 -160.242 203.266 C-184.038 180.582 -198.275 145.578 -199.105 112.901 C-199.317 84.124 -191.665 56.559 -175.75 32.562 C-175.098 31.571 -174.445 30.58 -173.773 29.559 C-163.983 15.667 -151.256 3.393 -136.75 -5.438 C-135.779 -6.058 -134.809 -6.678 -133.809 -7.316 C-92.879 -32.55 -37.702 -30.288 0 0 Z " fill="#0F3E17" transform="translate(324.75,130.4375)"/>
<path d="M0 0 C2.562 0.188 2.562 0.188 4.562 2.188 C4.758 5.445 4.758 5.445 4.688 9.312 C4.669 10.594 4.651 11.875 4.633 13.195 C4.61 14.183 4.586 15.17 4.562 16.188 C7.863 16.188 11.162 16.188 14.562 16.188 C14.539 15.2 14.516 14.213 14.492 13.195 C14.474 11.914 14.456 10.633 14.438 9.312 C14.414 8.036 14.391 6.76 14.367 5.445 C14.562 2.188 14.562 2.188 16.562 0.188 C19.062 -0.062 19.062 -0.062 21.562 0.188 C23.562 2.188 23.562 2.188 23.758 5.445 C23.735 6.721 23.711 7.998 23.688 9.312 C23.669 10.594 23.651 11.875 23.633 13.195 C23.61 14.183 23.586 15.17 23.562 16.188 C24.317 16.32 25.071 16.453 25.848 16.59 C32.754 18.11 36.414 21.735 40.398 27.285 C43.829 32.891 43.309 39.879 42.562 46.188 C41.254 49.154 39.776 51.581 37.875 54.199 C36.562 56.188 36.562 56.188 36.562 59.188 C37.305 59.93 38.048 60.673 38.812 61.438 C44.457 67.082 46.006 71.129 46.188 79.062 C46.141 87.332 43.7 91.998 38.004 97.766 C33.431 101.899 29.601 103.298 23.562 103.188 C23.597 104.163 23.632 105.139 23.668 106.145 C23.695 107.417 23.722 108.689 23.75 110 C23.767 110.632 23.767 110.632 23.855 113.832 C23.562 117.188 23.562 117.188 22.18 119.148 C20.562 120.188 20.562 120.188 18.5 120 C16.562 119.188 16.562 119.188 14.562 117.188 C14.367 114.148 14.367 114.148 14.438 110.562 C14.456 109.374 14.474 108.185 14.492 106.961 C14.515 106.046 14.539 105.13 14.562 104.188 C11.262 104.188 7.963 104.188 4.562 104.188 C4.586 105.175 4.609 106.162 4.633 107.18 C4.642 107.82 4.642 107.82 4.688 111.062 C4.711 112.339 4.734 113.615 4.758 114.93 C4.562 118.188 4.562 118.188 2.562 120.188 C-0.735 119.858 -2.06 119.565 -4.438 117.188 C-4.633 114.148 -4.633 114.148 -4.562 110.562 C-4.544 109.374 -4.526 108.185 -4.508 106.961 C-4.485 106.046 -4.461 105.13 -4.438 104.188 C-5.07 104.205 -5.07 104.205 -8.27 104.293 C-9.93 104.321 -11.59 104.348 -13.25 104.375 C-14.083 104.4 -14.917 104.425 -15.775 104.451 C-16.578 104.461 -17.38 104.471 -18.207 104.48 C-18.945 104.496 -19.684 104.512 -20.445 104.528 C-23.008 104.09 -23.904 103.257 -25.438 101.188 C-25.016 96.766 -25.016 96.766 -23.438 95.188 C-20.137 95.188 -16.838 95.188 -13.438 95.188 C-13.438 72.088 -13.438 48.988 -13.438 25.188 C-16.407 25.188 -19.377 25.188 -22.438 25.188 C-23.428 24.197 -24.417 23.208 -25.438 22.188 C-25.016 17.766 -25.016 17.766 -23.438 16.188 C-21.949 16.101 -20.456 16.08 -18.965 16.09 C-18.066 16.093 -17.167 16.096 -16.24 16.1 C-15.295 16.108 -14.349 16.116 -13.375 16.125 C-12.426 16.13 -11.476 16.134 -10.498 16.139 C-8.144 16.15 -5.791 16.167 -3.438 16.188 C-3.449 15.116 -3.461 14.045 -3.473 12.941 C-3.482 11.544 -3.491 10.147 -3.5 8.75 C-3.508 8.043 -3.517 7.336 -3.525 6.607 C-3.534 4.801 -3.49 2.994 -3.438 1.188 C-2.438 0.188 -2.438 0.188 0 0 Z " fill="#0F3E17" transform="translate(241.4375,179.8125)"/>
<path d="M0 0 C2.223 1.673 4.329 3.426 6.43 5.25 C7.226 5.904 8.023 6.557 8.844 7.23 C26.922 22.594 39.243 45.736 42.43 69.25 C42.703 74.066 42.71 78.865 42.68 83.688 C42.687 84.933 42.695 86.179 42.703 87.463 C42.662 107.018 42.662 107.018 38.43 111.25 C35.93 111.562 35.93 111.562 33.43 111.25 C31.118 107.783 31.511 106.786 32.115 102.864 C33.974 87.434 34.304 68.763 28.43 54.25 C28.188 53.611 27.947 52.973 27.698 52.315 C18.984 29.356 3.288 11.399 -19.039 0.754 C-30.249 -4.02 -40.834 -5.929 -52.945 -5.938 C-53.393 -5.944 -53.393 -5.944 -55.656 -5.975 C-61.569 -5.987 -66.865 -5.275 -72.57 -3.75 C-73.625 -3.49 -74.679 -3.229 -75.766 -2.961 C-89.521 0.964 -100.992 7.638 -111.57 17.25 C-112.202 17.8 -112.834 18.351 -113.484 18.918 C-127.267 31.662 -135.679 50.198 -139.57 68.25 C-139.745 69.025 -139.919 69.801 -140.099 70.6 C-142.689 85.156 -141.429 101.34 -136.57 115.25 C-136.466 115.562 -136.466 115.562 -135.937 117.14 C-131.084 131.424 -123.245 143.556 -112.57 154.25 C-111.897 154.934 -111.225 155.619 -110.531 156.324 C-95.136 170.999 -74.803 178.66 -53.695 178.5 C-52.683 178.508 -51.671 178.515 -50.629 178.523 C-42.978 178.504 -35.146 178.125 -27.989 175.192 C-24.764 173.936 -21.997 174.052 -18.57 174.25 C-17.57 175.25 -17.57 175.25 -17.195 178.125 C-17.57 181.25 -17.57 181.25 -19.758 183 C-40.069 192.027 -63.528 191.522 -84.258 184 C-111.003 172.887 -131.584 153.705 -143.105 127.016 C-145.573 120.922 -147.13 114.657 -148.57 108.25 C-148.796 107.388 -149.021 106.525 -149.254 105.637 C-152.316 92.395 -151.8 76.393 -148.57 63.25 C-148.325 62.172 -148.08 61.095 -147.828 59.984 C-145.389 50.357 -141.347 41.894 -136.57 33.25 C-136.025 32.26 -135.48 31.27 -134.918 30.25 C-121.137 7.068 -98.156 -7.703 -72.57 -14.75 C-46.719 -19.683 -21.618 -14.718 0 0 Z " fill="#0F3E17" transform="translate(305.5703125,152.75)"/>
<path d="M0 0 C0.833 0.002 1.666 0.005 2.524 0.007 C4.281 0.017 6.038 0.039 7.794 0.072 C10.49 0.121 13.183 0.133 15.879 0.139 C17.586 0.153 19.293 0.169 21 0.188 C21.808 0.193 22.617 0.198 23.449 0.204 C29.134 0.325 29.134 0.325 31.367 2.559 C31.367 9.401 27.93 14.227 24.367 19.871 C23.263 21.659 22.159 23.446 21.055 25.234 C20.564 26.017 20.072 26.8 19.566 27.607 C18.367 29.559 18.367 29.559 17.367 31.559 C18.084 31.548 18.8 31.538 19.539 31.527 C22.773 31.485 26.008 31.459 29.242 31.434 C30.37 31.417 31.498 31.4 32.66 31.383 C33.737 31.376 34.813 31.37 35.922 31.363 C36.917 31.353 37.912 31.342 38.937 31.332 C41.367 31.559 41.367 31.559 43.367 33.559 C43.434 36.95 43.242 39.476 41.051 42.188 C39.861 43.333 38.653 44.46 37.434 45.574 C35.157 47.76 33.263 50.084 31.305 52.559 C26.967 57.956 22.295 62.966 17.537 67.992 C13.228 72.569 9.241 77.292 5.316 82.203 C3.047 84.946 0.603 87.413 -1.953 89.887 C-3.766 91.691 -5.452 93.569 -7.133 95.496 C-7.709 96.155 -8.285 96.814 -8.879 97.492 C-10.089 98.918 -11.267 100.37 -12.418 101.844 C-16.907 107.438 -16.907 107.438 -21.008 108.121 C-23.633 107.559 -23.633 107.559 -24.633 106.559 C-25.216 100.185 -23.42 94.987 -21.383 88.996 C-20.738 87.041 -20.095 85.085 -19.453 83.129 C-19.14 82.18 -18.827 81.232 -18.505 80.255 C-16.995 75.585 -15.674 70.869 -14.359 66.141 C-13.832 64.266 -13.249 62.406 -12.633 60.559 C-13.445 60.564 -14.258 60.569 -15.095 60.574 C-18.754 60.595 -22.412 60.608 -26.07 60.621 C-27.35 60.629 -28.629 60.638 -29.947 60.646 C-31.162 60.65 -32.377 60.653 -33.629 60.656 C-34.755 60.661 -35.881 60.667 -37.041 60.672 C-39.633 60.559 -39.633 60.559 -40.633 59.559 C-41.72 53.151 -38.202 48.538 -35.07 43.246 C-34.495 42.254 -33.921 41.261 -33.328 40.239 C-31.446 37.003 -29.541 33.78 -27.633 30.559 C-27.299 29.992 -27.299 29.992 -25.609 27.123 C-23.606 23.721 -21.59 20.326 -19.57 16.934 C-19.255 16.404 -19.255 16.404 -17.66 13.721 C-17.062 12.727 -16.464 11.732 -15.848 10.707 C-15.323 9.832 -14.798 8.957 -14.258 8.056 C-13.721 7.232 -13.185 6.408 -12.633 5.559 C-12.085 4.639 -11.536 3.719 -10.971 2.772 C-7.605 -0.414 -4.393 -0.107 0 0 Z " fill="#0F3E17" transform="translate(342.6328125,275.44140625)"/>
<path d="M0 0 C7.59 0 15.18 0 23 0 C20.782 6.653 17.84 11.17 14 17 C7.07 16.67 0.14 16.34 -7 16 C-7.33 15.34 -7.66 14.68 -8 14 C-6.754 11.543 -5.474 9.232 -4.062 6.875 C-2.722 4.606 -1.381 2.337 0 0 Z " fill="#CFE7D3" transform="translate(338,285)"/>
<path d="M0 0 C3 1 3 1 4 2.688 C4 6.494 1.534 8.281 -1 11 C-1.66 10.67 -2.32 10.34 -3 10 C-2.01 6.7 -1.02 3.4 0 0 Z " fill="#CFE7D3" transform="translate(335,349)"/>
<path d="M0 0 C0.66 0 1.32 0 2 0 C1.355 3.483 0.018 6.094 -2 9 C-2.66 9 -3.32 9 -4 9 C-2.801 5.917 -1.523 2.937 0 0 Z " fill="#0F3E17" transform="translate(171,182)"/>
</svg>
