<?xml version="1.0" encoding="UTF-8"?>
<svg viewBox="0 0 512 512" version="1.1" xmlns="http://www.w3.org/2000/svg">
<path d="M0 0 C1.651 -0.003 3.302 -0.008 4.953 -0.014 C8.403 -0.022 11.852 -0.011 15.301 0.012 C19.706 0.041 24.11 0.024 28.515 -0.006 C31.921 -0.024 35.327 -0.018 38.733 -0.005 C40.356 -0.002 41.979 -0.006 43.603 -0.017 C60.065 -0.11 60.065 -0.11 66.094 5.664 C70.698 10.415 72.221 13.369 72.191 19.984 C72.188 21.241 72.185 22.498 72.182 23.793 C72.173 25.112 72.165 26.43 72.156 27.789 C72.151 29.129 72.147 30.469 72.143 31.809 C72.131 35.094 72.114 38.379 72.094 41.664 C72.419 41.661 72.419 41.661 74.065 41.644 C80.846 41.577 87.627 41.532 94.408 41.499 C96.938 41.484 99.467 41.464 101.997 41.438 C105.636 41.401 109.275 41.384 112.914 41.371 C114.042 41.356 115.171 41.34 116.333 41.324 C122.99 41.323 127.85 41.672 132.957 46.383 C133.435 46.971 133.914 47.558 134.406 48.164 C134.897 48.752 135.389 49.34 135.895 49.945 C138.239 53.305 138.237 56.376 138.287 60.341 C138.303 61.506 138.319 62.671 138.335 63.871 C138.38 69.189 138.421 74.506 138.444 79.823 C138.457 82.631 138.485 85.437 138.526 88.244 C138.585 92.288 138.603 96.331 138.617 100.375 C138.64 101.63 138.663 102.886 138.686 104.179 C138.665 112.954 138.665 112.954 135.603 116.761 C134.775 117.389 133.947 118.017 133.094 118.664 C132.595 121.436 132.349 123.652 132.344 126.414 C132.168 133.59 132.168 133.59 131.094 134.664 C128.594 134.789 128.594 134.789 126.094 134.664 C125.094 133.664 125.094 133.664 124.996 130.723 C125.002 130.125 125.002 130.125 125.031 127.102 C125.04 125.904 125.049 124.706 125.059 123.473 C125.064 123.009 125.064 123.009 125.094 120.664 C124.478 120.82 123.862 120.975 123.227 121.135 C101.647 126.547 79.981 130.749 57.969 133.977 C56.813 134.148 55.658 134.32 54.468 134.497 C48.273 135.37 42.349 135.843 36.094 135.664 C36.109 136.224 36.125 136.784 36.141 137.361 C36.204 139.899 36.243 142.438 36.281 144.977 C36.306 145.858 36.332 146.739 36.357 147.646 C36.362 148.07 36.362 148.07 36.387 150.215 C36.402 150.995 36.418 151.775 36.434 152.579 C36.094 154.664 36.094 154.664 34.958 156.419 C32.266 158.217 30.182 158.036 26.965 158.027 C25.765 158.027 24.566 158.026 23.33 158.025 C22.076 158.009 20.823 157.993 19.531 157.977 C18.903 157.978 18.903 157.978 15.721 157.986 C6.361 157.931 6.361 157.931 4.094 155.664 C3.867 153.601 3.867 153.601 3.898 151.094 C3.905 150.198 3.911 149.302 3.918 148.379 C3.926 147.91 3.926 147.91 3.969 145.539 C3.978 144.594 3.987 143.649 3.996 142.676 C4.02 140.338 4.053 138.001 4.094 135.664 C3.502 135.679 2.91 135.693 2.3 135.708 C-4.262 135.797 -10.593 135.269 -17.094 134.414 C-17.614 134.347 -17.614 134.347 -20.246 134.007 C-40.886 131.268 -61.269 127.144 -81.585 122.625 C-81.99 122.535 -81.99 122.535 -84.038 122.08 C-84.655 121.943 -85.271 121.805 -85.906 121.664 C-85.822 133.721 -85.727 145.777 -85.619 157.834 C-85.569 163.432 -85.522 169.03 -85.484 174.628 C-85.448 180.03 -85.401 185.431 -85.348 190.832 C-85.33 192.894 -85.315 194.956 -85.303 197.018 C-85.286 199.903 -85.257 202.788 -85.225 205.673 C-85.223 206.528 -85.221 207.383 -85.219 208.264 C-85.207 209.052 -85.196 209.841 -85.185 210.652 C-85.179 211.335 -85.174 212.017 -85.168 212.719 C-84.85 215.084 -84.169 216.642 -82.906 218.664 C-79.46 220.962 -78.189 220.916 -74.13 220.922 C-73.528 220.926 -73.528 220.926 -70.48 220.943 C-69.144 220.941 -67.807 220.938 -66.47 220.935 C-65.064 220.94 -63.658 220.945 -62.252 220.951 C-59.224 220.963 -56.196 220.968 -53.167 220.969 C-48.382 220.971 -43.597 220.989 -38.811 221.01 C-26.927 221.059 -15.043 221.09 -3.158 221.111 C6.08 221.128 15.318 221.15 24.556 221.194 C29.316 221.216 34.077 221.224 38.837 221.222 C41.794 221.223 44.75 221.237 47.707 221.255 C49.082 221.261 50.456 221.261 51.831 221.256 C53.702 221.25 55.573 221.264 57.445 221.279 C58.493 221.281 59.542 221.283 60.623 221.285 C61.438 221.41 62.254 221.535 63.094 221.664 C65.094 224.664 65.094 224.664 64.781 226.789 C64.094 228.664 64.094 228.664 63.094 229.664 C61.26 229.767 59.422 229.799 57.585 229.805 C56.389 229.81 55.193 229.816 53.961 229.822 C52.624 229.823 51.286 229.824 49.948 229.825 C48.549 229.83 47.15 229.835 45.751 229.84 C41.938 229.853 38.126 229.86 34.314 229.864 C31.933 229.867 29.552 229.871 27.17 229.876 C19.722 229.889 12.274 229.899 4.825 229.903 C-3.775 229.907 -12.376 229.925 -20.977 229.954 C-27.621 229.976 -34.266 229.986 -40.911 229.987 C-44.88 229.988 -48.85 229.994 -52.819 230.012 C-56.557 230.028 -60.293 230.03 -64.03 230.022 C-66.052 230.021 -68.074 230.034 -70.096 230.048 C-71.306 230.043 -72.516 230.037 -73.763 230.032 C-74.81 230.033 -75.858 230.034 -76.937 230.036 C-82.057 229.395 -85.925 227.212 -89.156 223.227 C-89.636 222.65 -90.115 222.074 -90.609 221.48 C-92.968 218.177 -94.157 215.588 -94.147 211.501 C-94.15 210.679 -94.152 209.857 -94.155 209.011 C-94.148 208.118 -94.141 207.225 -94.133 206.306 C-94.134 205.359 -94.134 204.412 -94.134 203.437 C-94.133 200.309 -94.117 197.182 -94.102 194.055 C-94.098 191.886 -94.095 189.717 -94.093 187.548 C-94.085 181.84 -94.066 176.132 -94.044 170.424 C-94.023 164.599 -94.014 158.774 -94.004 152.949 C-93.982 141.521 -93.948 130.092 -93.906 118.664 C-94.226 118.509 -94.226 118.509 -95.844 117.727 C-97.906 116.664 -97.906 116.664 -98.906 115.664 C-99.021 113.763 -99.066 111.858 -99.083 109.954 C-99.096 108.733 -99.109 107.511 -99.122 106.252 C-99.13 104.906 -99.138 103.56 -99.145 102.215 C-99.149 101.539 -99.153 100.864 -99.157 100.168 C-99.178 96.588 -99.192 93.009 -99.201 89.429 C-99.212 85.738 -99.247 82.047 -99.287 78.356 C-99.313 75.514 -99.321 72.672 -99.325 69.83 C-99.33 68.47 -99.341 67.11 -99.36 65.75 C-99.528 52.609 -99.528 52.609 -94.906 47.664 C-91.938 44.675 -88.882 41.764 -84.54 41.544 C-83.549 41.546 -82.559 41.548 -81.539 41.551 C-80.418 41.551 -79.297 41.551 -78.142 41.551 C-76.927 41.556 -75.712 41.561 -74.461 41.566 C-73.221 41.568 -71.981 41.569 -70.703 41.571 C-67.405 41.575 -64.107 41.584 -60.809 41.595 C-57.445 41.606 -54.08 41.61 -50.715 41.615 C-44.112 41.626 -37.509 41.643 -30.906 41.664 C-30.938 40.858 -30.969 40.051 -31.001 39.221 C-31.127 35.535 -31.204 31.851 -31.281 28.164 C-31.332 26.896 -31.382 25.627 -31.434 24.32 C-31.54 17.492 -31.513 12.416 -26.694 7.265 C-26.399 7.001 -26.399 7.001 -24.906 5.664 C-24.384 5.148 -23.861 4.631 -23.322 4.1 C-16.793 -1.148 -7.922 -0.057 0 0 Z M-90.906 54.664 C-92.192 57.235 -92.026 59.061 -92.02 61.94 C-92.02 63.041 -92.02 64.142 -92.02 65.276 C-92.014 66.469 -92.009 67.662 -92.004 68.891 C-92.002 70.109 -92.001 71.327 -92 72.581 C-91.994 76.484 -91.981 80.386 -91.969 84.289 C-91.964 86.93 -91.959 89.57 -91.955 92.211 C-91.944 98.695 -91.927 105.18 -91.906 111.664 C-79.31 115.232 -66.803 118.551 -53.906 120.852 C-52.535 121.102 -51.164 121.353 -49.793 121.604 C-39.298 123.506 -28.771 125.06 -18.187 126.372 C-13.707 126.946 -9.245 127.646 -4.781 128.332 C-1.798 128.677 1.093 128.722 4.094 128.664 C4.154 127.665 4.215 126.666 4.277 125.637 C4.319 124.992 4.319 124.992 4.531 121.727 C4.572 121.083 4.572 121.083 4.777 117.824 C5.094 114.664 5.094 114.664 6.094 113.664 C10.567 113.41 15.052 113.479 19.531 113.477 C20.798 113.464 22.064 113.452 23.369 113.439 C24.576 113.438 25.784 113.436 27.027 113.434 C27.585 113.432 27.585 113.432 30.404 113.421 C33.094 113.664 33.094 113.664 35.094 115.664 C35.508 118.703 35.508 118.703 35.719 122.289 C35.756 122.883 35.756 122.883 35.945 125.891 C35.994 126.806 36.043 127.721 36.094 128.664 C56.698 126.504 76.929 123.402 97.219 119.227 C97.659 119.136 97.659 119.136 99.885 118.678 C110.001 116.545 120.043 114.081 130.094 111.664 C130.256 104.336 130.38 97.009 130.456 89.679 C130.493 86.275 130.542 82.873 130.622 79.47 C130.713 75.553 130.746 71.637 130.777 67.719 C130.813 66.503 130.85 65.287 130.887 64.034 C130.887 63.464 130.887 63.464 130.888 60.578 C130.904 59.578 130.92 58.579 130.936 57.55 C129.669 53.207 126.878 51.024 123.094 48.664 C120.186 47.855 117.446 47.851 114.441 47.902 C114.017 47.897 114.017 47.897 111.876 47.874 C109.053 47.85 106.231 47.869 103.408 47.888 C101.379 47.88 99.35 47.869 97.321 47.856 C91.819 47.829 86.317 47.839 80.815 47.858 C75.054 47.873 69.293 47.859 63.532 47.85 C53.858 47.839 44.184 47.853 34.51 47.882 C23.329 47.914 12.149 47.904 0.968 47.871 C-8.635 47.844 -18.239 47.84 -27.843 47.856 C-33.577 47.865 -39.31 47.866 -45.045 47.846 C-50.436 47.829 -55.826 47.841 -61.217 47.876 C-63.195 47.884 -65.172 47.881 -67.149 47.868 C-69.852 47.852 -72.551 47.872 -75.253 47.902 C-75.643 47.895 -75.643 47.895 -77.617 47.862 C-83.611 47.99 -86.938 50.227 -90.906 54.664 Z " fill="#0F3E17" transform="translate(237.90625,111.3359375)"/>
<path d="M0 0 C9.336 7.051 15.911 17.35 19.047 28.629 C20.71 40.588 20.688 53.418 15.438 64.438 C15.087 65.219 14.736 66 14.375 66.805 C8.624 78.347 -0.914 86.896 -12.777 91.754 C-26.237 96.179 -40.507 96.208 -53.562 90.438 C-68.284 82.776 -77.422 71.122 -82.562 55.438 C-86.064 41.502 -82.906 27.799 -76.348 15.359 C-69.052 3.419 -56.908 -5.624 -43.285 -9.152 C-27.681 -11.503 -13.097 -8.822 0 0 Z " fill="#CFE7D3" transform="translate(395.5625,267.5625)"/>
<path d="M0 0 C9.336 7.051 15.911 17.35 19.047 28.629 C20.71 40.588 20.688 53.418 15.438 64.438 C15.087 65.219 14.736 66 14.375 66.805 C8.624 78.347 -0.914 86.896 -12.777 91.754 C-26.237 96.179 -40.507 96.208 -53.562 90.438 C-68.284 82.776 -77.422 71.122 -82.562 55.438 C-86.064 41.502 -82.906 27.799 -76.348 15.359 C-69.052 3.419 -56.908 -5.624 -43.285 -9.152 C-27.681 -11.503 -13.097 -8.822 0 0 Z M-66.773 14.898 C-74.893 26.422 -76.933 37.624 -75.562 51.438 C-72.613 63.783 -65.59 72.897 -55.562 80.438 C-45.475 86.615 -35.044 89.236 -23.32 86.75 C-11.575 83.434 -0.989 77.935 5.352 67.195 C11.595 55.572 14.706 43.72 11.785 30.48 C7.602 17.931 0.254 7.896 -11.66 1.871 C-31.58 -6.793 -52.655 -2.009 -66.773 14.898 Z " fill="#0F3E17" transform="translate(395.5625,267.5625)"/>
<path d="M0 0 C2.625 0.375 2.625 0.375 5 1 C5 3.31 5 5.62 5 8 C5.361 8.031 5.361 8.031 7.188 8.188 C10.859 9.248 12.477 11.197 15 14 C15.33 14.33 15.66 14.66 16 15 C16.041 17 16.043 19 16 21 C14.35 21.33 12.7 21.66 11 22 C10.34 21.01 9.68 20.02 9 19 C7.372 17.032 6.491 16.123 3.992 15.496 C1.029 15.414 -1.415 15.698 -4.062 17.062 C-5.526 20.088 -4.534 22.767 -4 26 C-3.047 26.315 -2.095 26.629 -1.113 26.953 C0.154 27.385 1.421 27.817 2.688 28.25 C3.929 28.668 5.17 29.085 6.449 29.516 C10.531 31.222 13.641 33.189 16.312 36.75 C17.847 41.772 17.731 46.191 15.312 50.812 C13.026 53.964 11.535 55.459 8 57 C7.01 57 6.02 57 5 57 C5.041 57.949 5.082 58.897 5.125 59.875 C5 63 5 63 3 65 C0.375 64.625 0.375 64.625 -2 64 C-2 61.69 -2 59.38 -2 57 C-2.866 56.979 -3.733 56.959 -4.625 56.938 C-9.29 55.642 -11.502 53.074 -14 49 C-14.5 46.188 -14.5 46.188 -14 44 C-13.34 43.34 -12.68 42.68 -12 42 C-10.125 42 -10.125 42 -8 43 C-7.443 44.011 -6.886 45.021 -6.312 46.062 C-4 49 -4 49 -1.887 49.535 C1.995 49.681 4.319 49.438 7.625 47.312 C9 45 9 45 9.062 42.438 C7.655 39.208 6.089 38.625 3 37 C1.179 36.359 -0.655 35.755 -2.5 35.188 C-7.788 33.275 -10.344 32.037 -13 27 C-13.906 22.317 -14.093 18.066 -11.82 13.77 C-9.463 10.808 -7.755 9.246 -4.125 8.062 C-3.424 8.042 -2.723 8.021 -2 8 C-2.041 7.051 -2.082 6.103 -2.125 5.125 C-2 2 -2 2 0 0 Z " fill="#0F3E17" transform="translate(363,277)"/>
<path d="M0 0 C0.982 -0.01 1.963 -0.019 2.974 -0.029 C3.507 -0.031 3.507 -0.031 6.2 -0.042 C7.293 -0.048 8.386 -0.053 9.512 -0.059 C11.828 -0.069 14.145 -0.075 16.462 -0.079 C20 -0.089 23.537 -0.12 27.075 -0.151 C29.325 -0.158 31.575 -0.163 33.825 -0.167 C34.353 -0.173 34.353 -0.173 37.027 -0.204 C42.522 -0.188 46.566 -0.01 51.278 3.161 C53.153 5.349 53.153 5.349 54.278 7.161 C52.628 8.811 50.978 10.461 49.278 12.161 C48.521 11.514 47.765 10.866 46.985 10.199 C42.354 7.133 37.357 7.558 31.974 7.552 C30.895 7.535 29.815 7.519 28.704 7.502 C25.27 7.453 21.837 7.432 18.403 7.411 C16.07 7.383 13.737 7.353 11.403 7.321 C5.695 7.247 -0.013 7.196 -5.722 7.161 C-6.052 5.181 -6.382 3.201 -6.722 1.161 C-4.293 -0.053 -2.714 0.021 0 0 Z " fill="#0F3E17" transform="translate(317.7216796875,152.8388671875)"/>
<path d="M0 0 C6.037 0.805 12.013 1.885 18 3 C16 5 16 5 13.574 5.23 C12.622 5.216 11.669 5.202 10.688 5.188 C9.743 5.181 8.798 5.175 7.824 5.168 C5.126 5.007 2.632 4.599 0 4 C0 2.68 0 1.36 0 0 Z " fill="#CFE7D3" transform="translate(353,350)"/>
<path d="M0 0 C3.735 0.498 5.812 0.875 9 3 C10.655 3.385 12.322 3.728 14 4 C13.34 5.32 12.68 6.64 12 8 C8.442 7.39 5.317 6.422 2 5 C2 4.01 2 3.02 2 2 C1.34 2 0.68 2 0 2 C0 1.34 0 0.68 0 0 Z " fill="#CFE7D3" transform="translate(341,345)"/>
<path d="M0 0 C0 3 0 3 -1.312 4.387 C-2.875 5.591 -4.438 6.796 -6 8 C-6.33 6.35 -6.66 4.7 -7 3 C-6.216 2.876 -5.433 2.752 -4.625 2.625 C-2 2 -2 2 0 0 Z " fill="#CFE7D3" transform="translate(396,338)"/>
</svg>
