<?xml version="1.0" encoding="UTF-8"?>
<svg viewBox="0 0 512 512" version="1.1" xmlns="http://www.w3.org/2000/svg">
<path d="M0 0 C1.97 0.986 3.929 1.994 5.879 3.02 C8.102 4.138 10.326 5.253 12.551 6.367 C13.691 6.945 14.831 7.523 16.006 8.118 C21.49 10.854 27.059 13.401 32.629 15.957 C49.482 23.747 66.261 31.693 83.022 39.68 C85.455 40.839 87.89 41.994 90.325 43.149 C94.219 44.998 98.109 46.855 101.996 48.719 C103.45 49.415 104.905 50.107 106.361 50.797 C108.366 51.748 110.365 52.708 112.363 53.672 C113.493 54.212 114.624 54.752 115.788 55.308 C118.441 56.832 118.441 56.832 120.441 59.832 C120.682 62.774 120.682 62.774 120.668 66.415 C120.669 67.078 120.669 67.742 120.669 68.426 C120.668 70.617 120.652 72.809 120.637 75 C120.633 76.52 120.63 78.041 120.628 79.561 C120.621 83.561 120.601 87.56 120.579 91.56 C120.558 95.642 120.549 99.724 120.539 103.807 C120.518 111.815 120.483 119.824 120.441 127.832 C121.376 128.125 122.311 128.417 123.273 128.719 C128.769 130.65 131.845 133.684 134.441 138.832 C135.318 145.216 135.256 151.44 131.441 156.832 C127.722 161.139 124.858 163.395 119.184 164.121 C113.633 164.444 109.744 163.721 105.203 160.441 C101.52 157.076 98.926 153.542 98.035 148.562 C97.796 142.704 98.959 137.547 103.023 133.102 C106.691 129.737 108.291 128.862 113.441 127.832 C113.441 109.682 113.441 91.532 113.441 72.832 C109.42 74.833 105.398 76.833 101.254 78.895 C100.015 79.509 98.776 80.124 97.499 80.758 C89.728 84.634 82.063 88.671 74.441 92.832 C74.44 93.511 74.439 94.191 74.437 94.891 C74.417 101.997 74.363 109.103 74.289 116.208 C74.266 118.856 74.251 121.504 74.246 124.152 C74.237 127.97 74.195 131.787 74.148 135.605 C74.152 136.779 74.156 137.952 74.16 139.161 C73.997 148.462 71.639 155.438 65.441 162.457 C43.663 182.243 12.932 186.161 -15.246 186.207 C-15.602 186.208 -15.602 186.208 -17.401 186.214 C-42.564 186.205 -72.714 181.609 -91.902 163.637 C-100.061 154.917 -100.998 148.135 -100.852 136.461 C-100.847 135.183 -100.843 133.906 -100.839 132.59 C-100.825 129.215 -100.798 125.84 -100.765 122.465 C-100.734 119.012 -100.72 115.56 -100.705 112.107 C-100.672 105.349 -100.622 98.59 -100.559 91.832 C-101.386 91.578 -102.213 91.325 -103.066 91.063 C-107.011 89.672 -110.688 87.966 -114.441 86.129 C-114.81 85.949 -114.81 85.949 -116.674 85.037 C-118.223 84.276 -119.771 83.513 -121.318 82.748 C-122.895 81.971 -124.476 81.201 -126.06 80.438 C-128.362 79.33 -130.652 78.201 -132.941 77.066 C-133.294 76.899 -133.294 76.899 -135.075 76.052 C-139.639 73.751 -142.137 71.508 -144.559 66.832 C-144.684 63.27 -144.684 63.27 -143.559 59.832 C-139.426 55.893 -135.227 53.432 -130.066 51.074 C-129.341 50.734 -128.615 50.393 -127.868 50.042 C-125.477 48.922 -123.08 47.815 -120.684 46.707 C-118.984 45.913 -117.285 45.118 -115.586 44.322 C-112.032 42.658 -108.476 40.997 -104.919 39.339 C-97.272 35.769 -89.654 32.139 -82.035 28.511 C-77.902 26.544 -73.768 24.581 -69.633 22.617 C-67.972 21.828 -66.311 21.039 -64.65 20.25 C-63.818 19.855 -62.986 19.46 -62.129 19.053 C-59.48 17.795 -56.831 16.536 -54.182 15.277 C-49.756 13.174 -45.33 11.072 -40.903 8.971 C-39.23 8.177 -37.558 7.383 -35.886 6.588 C-33.576 5.489 -31.265 4.393 -28.953 3.297 C-28.275 2.974 -27.597 2.651 -26.898 2.318 C-17.492 -2.135 -9.979 -4.471 0 0 Z M-22.914 8.094 C-23.605 8.436 -24.295 8.778 -25.007 9.13 C-26.488 9.865 -27.966 10.606 -29.442 11.353 C-32.577 12.94 -35.726 14.497 -38.875 16.055 C-40.477 16.848 -42.077 17.642 -43.677 18.438 C-50.664 21.906 -57.717 25.207 -64.809 28.457 C-75.316 33.29 -85.742 38.272 -96.134 43.347 C-103.124 46.761 -110.128 50.123 -117.227 53.309 C-117.836 53.583 -118.444 53.858 -119.072 54.141 C-121.946 55.436 -124.825 56.717 -127.715 57.977 C-128.722 58.428 -129.729 58.879 -130.766 59.344 C-131.647 59.73 -132.529 60.116 -133.437 60.514 C-135.895 62.041 -136.391 63.251 -137.559 65.832 C-117.704 76.37 -97.647 86.502 -77.567 96.602 C-71.63 99.588 -65.697 102.581 -59.773 105.592 C-53.988 108.53 -48.195 111.451 -42.395 114.36 C-40.2 115.465 -38.008 116.576 -35.819 117.693 C-32.769 119.248 -29.707 120.781 -26.642 122.309 C-26.196 122.54 -26.196 122.54 -23.94 123.707 C-17.473 126.887 -11.957 128.153 -4.928 126.042 C-4.218 125.67 -3.509 125.298 -2.778 124.915 C-1.949 124.491 -1.121 124.068 -0.267 123.633 C0.604 123.165 1.474 122.697 2.371 122.215 C3.307 121.731 4.243 121.247 5.207 120.748 C8.252 119.168 11.284 117.563 14.316 115.957 C16.432 114.854 18.548 113.753 20.665 112.653 C24.923 110.438 29.176 108.215 33.426 105.983 C40.981 102.019 48.574 98.13 56.169 94.245 C59.665 92.454 63.155 90.653 66.645 88.852 C71.173 86.515 75.704 84.184 80.241 81.864 C82.059 80.934 83.876 80.001 85.692 79.067 C87.875 77.944 90.061 76.826 92.25 75.712 C93.192 75.226 94.134 74.739 95.105 74.238 C95.925 73.819 96.744 73.399 97.588 72.967 C99.441 71.832 99.441 71.832 100.441 69.832 C63.151 69.502 25.861 69.172 -12.559 68.832 C-12.559 67.182 -12.559 65.532 -12.559 63.832 C28.691 63.502 69.941 63.172 112.441 62.832 C111.006 59.961 109.147 59.602 106.238 58.285 C105.128 57.777 104.018 57.27 102.874 56.747 C102.276 56.476 101.678 56.206 101.061 55.927 C97.847 54.474 94.643 53 91.438 51.527 C90.772 51.222 90.107 50.917 89.421 50.602 C82.65 47.486 75.953 44.226 69.254 40.957 C58.163 35.561 46.98 30.398 35.735 25.332 C24.613 20.318 13.591 15.127 2.626 9.779 C1.588 9.273 0.55 8.767 -0.52 8.246 C-1.425 7.802 -2.33 7.358 -3.263 6.901 C-10.473 3.544 -16.034 4.543 -22.914 8.094 Z M-93.559 95.832 C-93.686 103.233 -93.773 110.634 -93.833 118.037 C-93.858 120.553 -93.892 123.069 -93.936 125.584 C-93.997 129.209 -94.025 132.832 -94.047 136.457 C-94.073 137.575 -94.098 138.693 -94.125 139.845 C-94.128 147.824 -92.448 152.59 -87.07 158.456 C-70.759 174.652 -42.185 179.131 -20.369 179.105 C-20.019 179.103 -20.019 179.103 -18.248 179.093 C-16.126 179.082 -14.006 179.093 -11.885 179.105 C11.532 179.131 41.727 174.493 59.598 157.82 C66.285 150.626 66.731 144.035 66.637 134.527 C66.634 133.448 66.631 132.369 66.628 131.257 C66.617 127.824 66.592 124.39 66.566 120.957 C66.556 118.624 66.547 116.29 66.539 113.957 C66.517 108.249 66.484 102.54 66.441 96.832 C62.884 97.962 59.558 99.155 56.266 100.914 C55.457 101.342 54.649 101.769 53.816 102.209 C52.929 102.683 52.042 103.157 51.129 103.645 C40.328 109.344 29.481 114.95 18.614 120.522 C16.753 121.477 14.892 122.433 13.031 123.389 C10.385 124.75 7.738 126.108 5.09 127.465 C4.292 127.876 3.494 128.287 2.671 128.71 C0.603 129.768 -1.475 130.805 -3.559 131.832 C-4.397 132.252 -5.235 132.672 -6.099 133.105 C-13.087 135.171 -18.247 133.572 -24.427 130.344 C-25.168 129.973 -25.909 129.602 -26.672 129.221 C-29.099 128.002 -31.514 126.761 -33.93 125.52 C-35.619 124.666 -37.309 123.814 -39 122.964 C-43.434 120.729 -47.858 118.475 -52.28 116.217 C-57.673 113.467 -63.076 110.74 -68.478 108.009 C-72.676 105.887 -76.872 103.762 -81.063 101.626 C-81.83 101.236 -82.597 100.845 -83.388 100.443 C-84.826 99.712 -86.263 98.979 -87.7 98.244 C-92.446 95.832 -92.446 95.832 -93.559 95.832 Z " fill="#0F3E17" transform="translate(266.55859375,143.16796875)"/>
<path d="M0 0 C1.97 0.986 3.929 1.994 5.879 3.02 C8.102 4.138 10.326 5.253 12.551 6.367 C13.691 6.945 14.831 7.523 16.006 8.118 C21.49 10.854 27.059 13.401 32.629 15.957 C59.361 28.309 85.935 41.003 112.441 53.832 C112.441 55.832 112.441 55.832 110.441 57.957 C109.781 58.576 109.121 59.195 108.441 59.832 C103.515 58.321 99 56.307 94.371 54.078 C93.98 53.892 93.98 53.892 92.003 52.949 C90.319 52.145 88.635 51.34 86.952 50.533 C84.278 49.251 81.602 47.973 78.925 46.697 C76.159 45.378 73.394 44.059 70.629 42.739 C61.661 38.456 52.679 34.2 43.691 29.957 C43.323 29.783 43.323 29.783 41.461 28.904 C31.197 24.059 20.921 19.241 10.629 14.457 C9.49 13.927 8.352 13.398 7.179 12.852 C5.134 11.904 3.087 10.961 1.037 10.024 C-0.524 9.308 -2.078 8.577 -3.619 7.819 C-7.805 5.828 -10.952 5.494 -15.559 5.832 C-18.157 6.82 -20.463 7.829 -22.914 9.094 C-23.605 9.436 -24.295 9.778 -25.007 10.13 C-26.488 10.865 -27.966 11.606 -29.442 12.353 C-32.577 13.94 -35.726 15.497 -38.875 17.055 C-40.477 17.848 -42.077 18.642 -43.677 19.438 C-50.664 22.906 -57.717 26.207 -64.809 29.457 C-75.315 34.29 -85.74 39.273 -96.133 44.346 C-103.138 47.765 -110.157 51.136 -117.262 54.344 C-117.873 54.621 -118.484 54.898 -119.114 55.183 C-122.005 56.491 -124.899 57.787 -127.803 59.065 C-128.308 59.292 -128.308 59.292 -130.863 60.441 C-131.75 60.833 -132.637 61.225 -133.55 61.628 C-135.559 62.832 -135.559 62.832 -136.559 65.832 C-134.249 66.987 -134.249 66.987 -122.559 72.832 C-123.219 73.162 -123.219 73.162 -126.559 74.832 C-127.809 76.957 -127.809 76.957 -128.559 78.832 C-130.672 77.786 -132.773 76.721 -134.871 75.645 C-136.043 75.053 -137.215 74.461 -138.422 73.852 C-141.698 71.742 -143.011 70.366 -144.559 66.832 C-144.621 63.332 -144.621 63.332 -143.559 59.832 C-139.433 55.888 -135.226 53.432 -130.066 51.074 C-129.341 50.734 -128.615 50.393 -127.868 50.042 C-125.477 48.922 -123.08 47.815 -120.684 46.707 C-118.984 45.913 -117.285 45.118 -115.586 44.322 C-112.032 42.658 -108.476 40.997 -104.919 39.339 C-97.272 35.769 -89.654 32.139 -82.035 28.511 C-77.902 26.544 -73.768 24.581 -69.633 22.617 C-67.972 21.828 -66.311 21.039 -64.65 20.25 C-63.818 19.855 -62.986 19.46 -62.129 19.053 C-59.48 17.795 -56.831 16.536 -54.182 15.277 C-49.756 13.174 -45.33 11.072 -40.903 8.971 C-39.23 8.177 -37.558 7.383 -35.886 6.588 C-33.576 5.489 -31.265 4.393 -28.953 3.297 C-28.275 2.974 -27.597 2.651 -26.898 2.318 C-17.492 -2.135 -9.979 -4.471 0 0 Z " fill="#0F3E17" transform="translate(266.55859375,143.16796875)"/>
<path d="M0 0 C0.33 0 0.66 0 1 0 C1.33 16.83 1.66 33.66 2 51 C2.33 50.835 2.33 50.835 4 50 C4.33 51.98 4.66 53.96 5 56 C5.433 56.031 5.433 56.031 7.625 56.188 C12.65 57.397 15.664 60.14 18.652 64.301 C21.006 69.016 20.51 73.853 20 79 C18.117 84.451 14.774 88.336 9.812 91.312 C3.824 92.776 -1.812 93.094 -7.312 90 C-11.981 86.629 -15.374 82.496 -16.406 76.73 C-16.647 70.844 -15.449 65.733 -11.418 61.234 C-7.551 57.628 -6.67 57 -1 57 C-0.67 38.19 -0.34 19.38 0 0 Z " fill="#0F3E17" transform="translate(381,215)"/>
<path d="M0 0 C3 2.438 3 2.438 5 5 C5.33 5.33 5.66 5.66 6 6 C6.663 10.499 6.763 14.686 4.062 18.5 C0.113 21.724 -2.957 22.403 -8 22 C-11.685 20.478 -14.17 18.564 -16 15 C-16.845 8.455 -16.845 8.455 -14.945 5.184 C-10.611 -0.138 -6.634 -1.066 0 0 Z " fill="#CFE7D3" transform="translate(388,278)"/>
<path d="M0 0 C0 2.31 0 4.62 0 7 C-1.65 7 -3.3 7 -5 7 C-5.33 10.63 -5.66 14.26 -6 18 C-7.65 18.33 -9.3 18.66 -11 19 C-13.621 16.379 -14.016 14.874 -14.5 11.125 C-14.34 6.358 -12.343 4.263 -9 1 C-6.043 -0.478 -3.258 -0.06 0 0 Z " fill="#CFE7D3" transform="translate(386,278)"/>
<path d="M0 0 C0.33 0.99 0.66 1.98 1 3 C-4.126 3.103 -8.95 3.036 -14 2 C-14 1.67 -14 1.34 -14 1 C-9.276 0.348 -4.78 -0.12 0 0 Z " fill="#CFE7D3" transform="translate(283,327)"/>
<path d="M0 0 C0 1.32 0 2.64 0 4 C-0.99 4.66 -1.98 5.32 -3 6 C-3.688 8.625 -3.688 8.625 -4 11 C-4.33 11 -4.66 11 -5 11 C-5.33 8.36 -5.66 5.72 -6 3 C-2.25 0 -2.25 0 0 0 Z " fill="#0F3E17" transform="translate(400,280)"/>
<path d="M0 0 C0.33 0.99 0.66 1.98 1 3 C-0.188 4.562 -0.188 4.562 -2 6 C-4.688 5.688 -4.688 5.688 -7 5 C-7 4.34 -7 3.68 -7 3 C-4.439 0.704 -3.52 0 0 0 Z " fill="#0F3E17" transform="translate(209,249)"/>
<path d="M0 0 C-0.33 0.66 -0.66 1.32 -1 2 C-3.066 2.414 -3.066 2.414 -5.562 2.625 C-6.389 2.7 -7.215 2.775 -8.066 2.852 C-8.385 2.876 -8.385 2.876 -10 3 C-10 2.34 -10 1.68 -10 1 C-3.375 -1.125 -3.375 -1.125 0 0 Z " fill="#CFE7D3" transform="translate(390,297)"/>
</svg>
