<?xml version="1.0" encoding="UTF-8"?>
<svg viewBox="0 0 512 512" version="1.1" xmlns="http://www.w3.org/2000/svg">
<path d="M0 0 C0.764 0.003 1.527 0.006 2.314 0.009 C3.119 0.008 3.925 0.007 4.754 0.006 C7.474 0.005 10.193 0.01 12.912 0.016 C14.853 0.016 16.794 0.016 18.735 0.015 C24.022 0.015 29.309 0.021 34.596 0.028 C40.115 0.034 45.634 0.035 51.152 0.036 C61.611 0.039 72.069 0.047 82.527 0.057 C94.43 0.068 106.333 0.074 118.236 0.079 C142.729 0.089 167.222 0.107 191.715 0.129 C195.979 9.607 195.979 9.607 197.546 13.876 C197.846 14.691 198.146 15.506 198.455 16.346 C199.788 20.031 201.113 23.718 202.425 27.411 C203.116 29.342 203.816 31.271 204.526 33.196 C213.909 58.675 213.909 58.675 209.027 71.067 C206.216 76.401 203.042 82.006 197.715 85.129 C197.055 85.129 196.395 85.129 195.715 85.129 C195.715 121.429 195.715 157.729 195.715 195.129 C200.335 195.129 204.955 195.129 209.715 195.129 C210.375 195.789 211.035 196.449 211.715 197.129 C211.179 200.665 211.179 200.665 209.715 202.129 C206.711 202.232 203.729 202.268 200.724 202.263 C200.247 202.264 200.247 202.264 197.831 202.27 C194.605 202.276 191.379 202.275 188.153 202.274 C185.85 202.277 183.548 202.281 181.246 202.285 C174.973 202.293 168.7 202.296 162.428 202.296 C157.201 202.297 151.975 202.301 146.748 202.305 C135.128 202.312 123.508 202.315 111.888 202.315 C111.539 202.314 111.539 202.314 109.774 202.314 C109.075 202.314 108.376 202.314 107.656 202.314 C96.328 202.314 85 202.323 73.673 202.338 C62.054 202.352 50.435 202.359 38.816 202.358 C32.288 202.358 25.76 202.361 19.232 202.371 C13.095 202.381 6.958 202.381 0.821 202.374 C-1.438 202.373 -3.696 202.375 -5.954 202.381 C-9.026 202.389 -12.097 202.384 -15.168 202.376 C-16.072 202.381 -16.976 202.387 -17.907 202.392 C-24.057 202.357 -24.057 202.357 -26.285 200.129 C-25.749 196.593 -25.749 196.593 -24.285 195.129 C-22.099 195.056 -19.91 195.045 -17.723 195.067 C-16.525 195.076 -15.328 195.085 -14.094 195.094 C-13.167 195.106 -12.24 195.117 -11.285 195.129 C-11.252 180.89 -11.26 166.652 -11.314 152.413 C-11.338 145.802 -11.348 139.19 -11.33 132.579 C-11.312 126.198 -11.329 119.819 -11.369 113.438 C-11.378 111.004 -11.375 108.569 -11.36 106.135 C-11.34 102.725 -11.364 99.318 -11.399 95.908 C-11.383 94.901 -11.367 93.894 -11.351 92.856 C-11.481 86.117 -11.481 86.117 -13.843 83.215 C-15.734 81.604 -15.734 81.604 -17.618 80.295 C-19.844 78.738 -20.882 76.968 -22.098 74.567 C-22.475 73.843 -22.853 73.12 -23.242 72.375 C-27.529 63.143 -27.199 55.419 -23.77 45.871 C-23.589 45.395 -23.589 45.395 -22.672 42.985 C-22.302 41.971 -21.931 40.958 -21.55 39.914 C-20.374 36.708 -19.173 33.513 -17.973 30.317 C-17.178 28.154 -16.384 25.99 -15.592 23.826 C-6.821 0.02 -6.821 0.02 0 0 Z " fill="#0F3E17" transform="translate(163.28518491983414,139.8709186911583)"/>
<path d="M0 0 C0.66 0 1.32 0 2 0 C2.861 1.324 3.663 2.686 4.438 4.062 C8.524 10.465 14.828 14.609 22 17 C33.366 17.84 42.426 17.039 51.438 9.562 C54.233 6.953 56.161 4.371 58 1 C58.66 1 59.32 1 60 1 C61.191 2.539 61.191 2.539 62.562 4.625 C66.899 10.62 72.954 14.734 80 17 C90.412 18.023 99.72 17.151 108.312 10.75 C111.113 7.884 112.989 5.06 114.922 1.574 C115.1 1.314 115.1 1.314 116 0 C116.66 0 117.32 0 118 0 C118.516 1.031 119.031 2.062 119.562 3.125 C123.756 10.383 130.13 14.535 138 17 C143.94 17 149.88 17 156 17 C156 51.98 156 86.96 156 123 C118.05 123 80.1 123 41 123 C41 99.9 41 76.8 41 53 C41.33 53 41.66 53 42 53 C42 75.77 42 98.54 42 122 C79.29 122 116.58 122 155 122 C154.67 90.32 154.34 58.64 154 26 C153.34 26.33 152.68 26.66 152 27 C141.709 27.844 133.491 27.19 125.164 20.836 C122.618 18.646 120.198 16.54 118 14 C118 13.01 118 12.02 118 11 C117.34 11 116.68 11 116 11 C115.754 11.752 115.508 12.503 115.254 13.277 C112.418 19.436 104.877 23.841 98.711 26.34 C90.187 28.416 80.239 28.184 72.258 24.41 C67.304 21.316 61.891 17.674 60 12 C59.67 11.835 59.67 11.835 58 11 C57.918 11.577 57.835 12.155 57.75 12.75 C55.847 18.46 48.968 22.792 43.812 25.5 C34.576 29.098 24.137 27.539 14.996 24.406 C10.225 22.167 6.308 19.111 3 15 C2.266 12.75 2.266 12.75 2 11 C1.34 11 0.68 11 0 11 C-0.106 11.589 -0.211 12.178 -0.32 12.785 C-1.836 17.726 -6.217 20.848 -10.418 23.562 C-17.823 27.413 -24.766 27.758 -33 27 C-33.99 26.67 -34.98 26.34 -36 26 C-36.33 57.68 -36.66 89.36 -37 122 C-28.09 122 -19.18 122 -10 122 C-10 122.33 -10 122.66 -10 123 C-19.24 123 -28.48 123 -38 123 C-38 88.02 -38 53.04 -38 17 C-32.72 17 -27.44 17 -22 17 C-18.1 15.817 -15.409 14.925 -12 13 C-11.345 12.638 -10.69 12.276 -10.016 11.902 C-5.727 9.199 -3.443 6.005 -1.043 1.574 C-0.699 1.055 -0.355 0.535 0 0 Z " fill="#CFE7D3" transform="translate(197,212)"/>
<path d="M0 0 C0.607 -0.005 0.607 -0.005 3.681 -0.029 C4.34 -0.028 4.34 -0.028 7.674 -0.026 C9.034 -0.03 10.394 -0.034 11.754 -0.039 C14.605 -0.047 17.457 -0.046 20.308 -0.041 C23.967 -0.035 27.625 -0.052 31.284 -0.075 C34.093 -0.09 36.901 -0.091 39.71 -0.088 C41.717 -0.089 43.723 -0.103 45.729 -0.117 C46.944 -0.11 48.159 -0.104 49.41 -0.098 C50.483 -0.098 51.557 -0.099 52.662 -0.1 C53.501 0.024 54.341 0.147 55.205 0.275 C57.268 3.369 57.456 4.03 57.464 7.531 C57.47 8.385 57.476 9.239 57.483 10.119 C57.479 11.038 57.475 11.957 57.471 12.904 C57.473 13.849 57.475 14.794 57.477 15.769 C57.478 17.767 57.474 19.765 57.466 21.763 C57.455 24.829 57.466 27.894 57.479 30.96 C57.477 32.9 57.475 34.839 57.471 36.779 C57.475 37.699 57.479 38.62 57.483 39.569 C57.48 39.995 57.48 39.995 57.464 42.148 C57.462 42.898 57.461 43.649 57.459 44.422 C57.205 46.275 57.205 46.275 55.205 48.275 C52.662 48.529 52.662 48.529 49.41 48.533 C48.195 48.54 46.981 48.546 45.729 48.553 C45.071 48.551 45.071 48.551 41.736 48.54 C40.376 48.542 39.016 48.544 37.656 48.546 C34.805 48.549 31.954 48.545 29.102 48.535 C25.443 48.524 21.785 48.531 18.126 48.543 C15.317 48.55 12.509 48.547 9.7 48.542 C7.694 48.54 5.687 48.546 3.681 48.553 C2.466 48.546 1.251 48.54 0 48.533 C-1.073 48.532 -2.146 48.53 -3.252 48.529 C-5.795 48.275 -5.795 48.275 -7.795 46.275 C-8.049 44.377 -8.049 44.377 -8.054 42.04 C-8.06 41.166 -8.066 40.292 -8.073 39.391 C-8.069 38.445 -8.065 37.499 -8.061 36.525 C-8.062 35.556 -8.064 34.587 -8.066 33.588 C-8.068 31.537 -8.064 29.486 -8.056 27.435 C-8.045 24.287 -8.056 21.141 -8.068 17.993 C-8.067 16.004 -8.064 14.014 -8.061 12.025 C-8.065 11.079 -8.069 10.133 -8.073 9.158 C-8.067 8.284 -8.06 7.41 -8.054 6.509 C-8.052 5.738 -8.051 4.967 -8.049 4.172 C-7.418 -0.538 -3.876 0.017 0 0 Z M-0.795 7.275 C-0.795 18.495 -0.795 29.715 -0.795 41.275 C16.035 41.275 32.865 41.275 50.205 41.275 C50.205 30.055 50.205 18.835 50.205 7.275 C33.375 7.275 16.545 7.275 -0.795 7.275 Z " fill="#0F3E17" transform="translate(273.794921875,261.725341796875)"/>
<path d="M0 0 C13.86 0 27.72 0 42 0 C42.092 7.793 42.172 15.584 42.22 23.376 C42.24 26.024 42.267 28.672 42.302 31.32 C42.351 35.138 42.373 38.955 42.391 42.773 C42.411 43.947 42.432 45.12 42.453 46.329 C42.456 54.919 41.239 62.18 35.562 68.875 C34.717 69.576 33.871 70.278 33 71 C32.175 71.722 31.35 72.444 30.5 73.188 C23.698 78.119 16.051 77.822 8 77 C0.792 74.524 -3.601 68.358 -7.875 62.375 C-9.664 57.008 -9.225 51.605 -9 46 C-8.67 47.32 -8.34 48.64 -8 50 C8.17 50 24.34 50 41 50 C41 33.83 41 17.66 41 1 C27.47 1 13.94 1 0 1 C0 0.67 0 0.34 0 0 Z " fill="#CFE7D3" transform="translate(211,146)"/>
<path d="M0 0 C0.99 0 1.98 0 3 0 C5.186 6.558 4.236 11.775 1.262 17.828 C-2.027 23.489 -6.483 29.164 -13 31 C-21.631 32.062 -29.585 32.16 -36.945 26.906 C-42.292 21.946 -45.642 16.198 -47 9 C-47 7.02 -47 5.04 -47 3 C-31.49 3 -15.98 3 0 3 C0 2.01 0 1.02 0 0 Z " fill="#CFE7D3" transform="translate(364,192)"/>
<path d="M0 0 C0.33 0 0.66 0 1 0 C1.621 8.81 1.335 15.707 -4 23 C-8.535 27.831 -12.843 31.672 -19.574 32.371 C-27.666 32.615 -34.622 32.644 -41 27 C-47.566 20.063 -49 14.654 -49 5 C-32.83 4.67 -16.66 4.34 0 4 C0 2.68 0 1.36 0 0 Z " fill="#CFE7D3" transform="translate(309,191)"/>
<path d="M0 0 C0.33 0.66 0.66 1.32 1 2 C17.5 1.67 34 1.34 51 1 C49.826 12.744 47.854 18.144 38.965 25.59 C32.505 30.226 24.694 30.155 17 29 C10.41 26.543 5.343 22.553 2.105 16.262 C-0.267 10.857 -0.323 5.83 0 0 Z " fill="#CFE7D3" transform="translate(144,194)"/>
<path d="M0 0 C13.86 0 27.72 0 42 0 C41.67 0.66 41.34 1.32 41 2 C40.01 2.33 39.02 2.66 38 3 C38 25.77 38 48.54 38 72 C37.67 72 37.34 72 37 72 C36.67 50.22 36.34 28.44 36 6 C29.895 5.835 29.895 5.835 -1 5 C-0.67 3.35 -0.34 1.7 0 0 Z " fill="#0F3E17" transform="translate(195,263)"/>
<path d="M0 0 C2.258 -0.078 2.258 -0.078 5 1 C6.768 3.906 7.787 7.039 8.875 10.25 C9.195 11.11 9.514 11.97 9.844 12.855 C11.433 17.34 12.453 20.303 11 25 C10.67 25.165 10.67 25.165 9 26 C8.375 28.062 8.375 28.062 8 30 C7.22 28.233 6.452 26.461 5.688 24.688 C5.258 23.701 4.829 22.715 4.387 21.699 C2.592 16.911 1.345 11.933 0 7 C-13.86 7 -27.72 7 -42 7 C-42.33 7.66 -42.66 8.32 -43 9 C-43 8.01 -43 7.02 -43 6 C-42.357 5.995 -42.357 5.995 -39.1 5.972 C-34.331 5.932 -29.562 5.866 -24.793 5.792 C-22.728 5.764 -20.663 5.743 -18.598 5.729 C-15.631 5.708 -12.666 5.661 -9.699 5.609 C-9.237 5.609 -9.237 5.609 -6.896 5.606 C-0.474 5.459 -0.474 5.459 2.106 2.962 C2.254 2.638 2.254 2.638 3 1 C2.01 0.67 1.02 0.34 0 0 Z " fill="#0F3E17" transform="translate(351,140)"/>
<path d="M0 0 C0.66 0 1.32 0 2 0 C2.697 1.955 3.382 3.914 4.062 5.875 C4.445 6.966 4.828 8.056 5.223 9.18 C6 12 6 12 5 14 C3.68 14 2.36 14 1 14 C0.67 14.165 0.67 14.165 -1 15 C-3.429 6.571 -3.429 6.571 -2 2 C-1.34 2 -0.68 2 0 2 C0 1.34 0 0.68 0 0 Z " fill="#0F3E17" transform="translate(362,163)"/>
<path d="M0 0 C0.54 0.002 0.54 0.002 3.27 0.013 C3.881 0.014 3.881 0.014 6.971 0.014 C8.308 0.024 9.645 0.035 10.983 0.045 C12.348 0.049 13.712 0.052 15.077 0.054 C18.671 0.061 22.265 0.081 25.858 0.103 C29.525 0.124 33.191 0.133 36.858 0.143 C44.053 0.164 51.248 0.198 58.444 0.241 C58.444 0.571 58.444 0.901 58.444 1.241 C38.644 1.241 18.844 1.241 -1.556 1.241 C-1.886 2.891 -2.216 4.541 -2.556 6.241 C-3.216 4.921 -3.876 3.601 -4.556 2.241 C-2.556 0.241 -2.556 0.241 0 0 Z " fill="#0F3E17" transform="translate(270.5563049316406,261.7594909667969)"/>
<path d="M0 0 C1.623 2.434 2.617 4.313 3.625 7 C3.885 7.681 4.146 8.361 4.414 9.062 C5 11 5 11 5 14 C3.02 14.99 1.04 15.98 -1 17 C-0.844 16.443 -0.688 15.886 -0.527 15.312 C0.884 9.78 1.021 5.616 0 0 Z " fill="#0F3E17" transform="translate(368,178)"/>
<path d="M0 0 C-0.75 1.938 -0.75 1.938 -2 4 C-4.125 4.75 -4.125 4.75 -6 5 C-6.33 3.68 -6.66 2.36 -7 1 C-3.375 -1.125 -3.375 -1.125 0 0 Z " fill="#0F3E17" transform="translate(150,214)"/>
<path d="M0 0 C0.66 0 1.32 0 2 0 C2.33 0.99 2.66 1.98 3 3 C1.35 4.32 -0.3 5.64 -2 7 C-2.66 6.67 -3.32 6.34 -4 6 C-2.726 3.962 -1.389 1.961 0 0 Z " fill="#CFE7D3" transform="translate(197,212)"/>
</svg>
