<?xml version="1.0" encoding="UTF-8"?>
<svg viewBox="0 0 512 512" version="1.1" xmlns="http://www.w3.org/2000/svg">
<path d="M0 0 C9.55 6.719 16.677 16.422 19 28 C20.903 45.497 12.542 61.844 3.051 75.941 C1.278 78.585 -0.39 81.255 -2 84 C-1.443 84.147 -0.886 84.294 -0.312 84.445 C7.106 86.626 12.306 90.037 17.5 95.75 C19.598 100.295 20.009 104.085 19 109 C15.004 116.752 8.016 121.923 0 125 C-16.591 129.967 -33.739 129.85 -49.215 121.723 C-53.034 119.361 -56.336 116.64 -59 113 C-59 112.34 -59 111.68 -59 111 C-90.927 115.812 -90.927 115.812 -99.871 126.008 C-102 129 -102 129 -102.625 132.562 C-101.804 137.077 -100.651 138.225 -97 141 C-92.632 143.477 -88.057 145.522 -83.484 147.59 C-75.666 151.215 -69.006 154.987 -65 163 C-64.355 170.351 -65.821 176.069 -70.52 181.879 C-89.029 199.905 -123.168 201.502 -147.281 201.203 C-150 201 -150 201 -151 200 C-151.188 197.562 -151.188 197.562 -151 195 C-148.342 192.342 -146.917 192.674 -143.199 192.508 C-142.004 192.445 -140.81 192.382 -139.579 192.317 C-138.295 192.254 -137.01 192.19 -135.688 192.125 C-90.653 189.41 -90.653 189.41 -76 175 C-73.888 171.832 -73.668 169.868 -73.441 166.133 C-74.358 162.634 -76.215 161.274 -79 159 C-82.206 157.289 -85.52 155.89 -88.875 154.5 C-97.618 150.845 -105.134 147.61 -110 139 C-111.497 134.509 -111.929 130.385 -110.199 125.945 C-104.046 115.076 -92.351 109.731 -80.789 106.354 C-67.142 102.689 -67.142 102.689 -61 103 C-60.918 102.299 -60.835 101.597 -60.75 100.875 C-59.018 94.234 -54.947 90.917 -49.512 87.199 C-46.371 85.7 -43.443 85.356 -40 85 C-40.362 84.417 -40.725 83.835 -41.098 83.234 C-62.984 47.805 -62.984 47.805 -59.574 26.316 C-56.626 15.013 -49.785 6.214 -40 0 C-27.135 -7.408 -12.956 -7.201 0 0 Z " fill="#CFE7D3" transform="translate(366,136)"/>
<path d="M0 0 C1.789 2.144 3.497 4.34 5.188 6.562 C5.406 6.844 5.406 6.844 6.514 8.271 C8.655 11.067 10.585 13.767 12 17 C14.234 17.266 14.234 17.266 17 17 C19.141 15.234 19.141 15.234 21.25 12.75 C21.633 12.3 21.633 12.3 23.574 10.023 C27.516 5.111 31.297 0.095 35 -5 C45.968 -2.34 54.042 1.863 60.82 11.047 C62 13 62 13 62 15 C63.98 15 65.96 15 68 15 C68 15.33 68 15.66 68 16 C67.356 16.03 67.356 16.03 64.098 16.184 C62.419 16.268 60.741 16.353 59.062 16.438 C58.212 16.477 57.362 16.516 56.486 16.557 C55.677 16.599 54.869 16.64 54.035 16.684 C53.661 16.702 53.661 16.702 51.766 16.795 C50 17 50 17 49 18 C49 19.65 49 21.3 49 23 C53.29 23.33 57.58 23.66 62 24 C57.904 34.15 50.632 38.604 40.871 42.957 C32.773 45.899 25.621 46.315 17.019 46.261 C15.004 46.25 12.991 46.261 10.977 46.273 C-3.953 46.244 -16.197 42.496 -27.219 31.934 C-30.79 28.056 -32.139 24.755 -32.438 19.562 C-32.156 12.847 -29.07 8.782 -24.312 4.375 C-16.41 -2.159 -8.05 -8.809 0 0 Z " fill="#CFE7D3" transform="translate(167,313)"/>
<path d="M0 0 C8.625 7.477 16.658 18.137 17.954 29.763 C18.671 40.488 18.336 50.528 13.688 60.375 C13.414 60.971 13.14 61.566 12.858 62.18 C10.626 66.998 8.209 71.702 5.688 76.375 C5.362 76.982 5.036 77.589 4.701 78.214 C-1.993 90.484 -10.554 101.519 -19.312 112.375 C-20.006 113.256 -20.699 114.137 -21.414 115.044 C-22.101 115.878 -22.788 116.711 -23.496 117.57 C-23.803 117.948 -23.803 117.948 -25.353 119.86 C-27.312 121.375 -27.312 121.375 -29.894 121.277 C-33.496 119.933 -35.24 117.253 -37.438 114.25 C-37.911 113.623 -38.385 112.995 -38.873 112.349 C-39.868 111.025 -40.858 109.697 -41.841 108.364 C-43.238 106.476 -44.658 104.607 -46.086 102.742 C-56.567 88.926 -65.495 74.336 -72.312 58.375 C-72.682 57.536 -73.052 56.697 -73.434 55.832 C-77.221 45.243 -77.09 29.572 -72.312 19.375 C-65.819 6.91 -56.621 -2.5 -43.312 -7.625 C-28.471 -11.641 -12.296 -9.04 0 0 Z M-59.418 12.66 C-65.374 20.471 -69.264 30.61 -68.75 40.543 C-64.72 66.632 -47.055 93.262 -28.312 111.375 C13.382 59.05 13.382 59.05 10.688 32.375 C8.978 21.994 3.075 12.487 -5.062 5.875 C-23.327 -6.302 -44.513 -3.517 -59.418 12.66 Z " fill="#0F3E17" transform="translate(211.3125,209.625)"/>
<path d="M0 0 C9.55 6.719 16.677 16.422 19 28 C21.566 51.593 6.306 72.882 -7.69 90.381 C-11.403 94.969 -15.186 99.496 -19 104 C-25.569 103.373 -28.666 98.467 -32.618 93.704 C-47.784 75.012 -61.549 53.992 -60 29 C-58.227 17.823 -51.762 8.345 -42.719 1.727 C-29.094 -6.926 -14.327 -7.963 0 0 Z M-38 8 C-38.645 8.434 -39.289 8.869 -39.953 9.316 C-46.171 14.061 -50.934 21.199 -52 29 C-52.86 39.424 -51.598 47.525 -47 57 C-46.711 57.603 -46.421 58.207 -46.123 58.829 C-41.678 67.981 -36.382 76.048 -30 84 C-29.225 84.978 -28.451 85.957 -27.652 86.965 C-25.78 89.32 -23.896 91.664 -22 94 C-17.281 90.344 -13.728 86.48 -10.188 81.688 C-9.671 80.993 -9.155 80.299 -8.623 79.584 C2.104 64.854 12.543 47.762 11 29 C9.2 19.348 2.991 11.504 -5 6 C-15.502 0.374 -28.273 1.308 -38 8 Z " fill="#0F3E17" transform="translate(366,136)"/>
<path d="M0 0 C1 1 1 1 1.188 3.438 C1 6 1 6 -1 8 C-3.12 8.182 -5.248 8.269 -7.375 8.312 C-21.336 8.956 -41.045 12.223 -51.463 22.434 C-53.908 25.215 -54.976 26.862 -55.625 30.562 C-54.804 35.077 -53.651 36.225 -50 39 C-45.632 41.477 -41.057 43.522 -36.484 45.59 C-28.666 49.215 -22.006 52.987 -18 61 C-17.355 68.351 -18.821 74.069 -23.52 79.879 C-42.029 97.905 -76.168 99.502 -100.281 99.203 C-103 99 -103 99 -104 98 C-104.188 95.562 -104.188 95.562 -104 93 C-101.342 90.342 -99.917 90.674 -96.199 90.508 C-95.004 90.445 -93.81 90.382 -92.579 90.317 C-91.295 90.254 -90.01 90.19 -88.688 90.125 C-43.653 87.41 -43.653 87.41 -29 73 C-26.888 69.832 -26.668 67.868 -26.441 64.133 C-27.358 60.634 -29.215 59.274 -32 57 C-35.206 55.289 -38.52 53.89 -41.875 52.5 C-50.618 48.845 -58.134 45.61 -63 37 C-64.497 32.509 -64.929 28.385 -63.199 23.945 C-56.96 12.925 -45.139 7.66 -33.443 4.256 C-22.46 1.293 -11.442 -1.311 0 0 Z " fill="#0F3E17" transform="translate(319,238)"/>
<path d="M0 0 C4.203 3.202 8.241 7.232 10.625 12 C11.32 19.404 11.26 25.929 6.625 32 C1.861 37.058 -2.657 39.99 -9.688 40.375 C-15.497 40.211 -19.929 38.337 -24.137 34.316 C-29.36 28.435 -30.95 24.041 -30.824 16.113 C-29.916 9.822 -26.215 5.712 -21.688 1.5 C-15.547 -2.483 -6.819 -2.02 0 0 Z " fill="#0F3E17" transform="translate(192.375,229)"/>
<path d="M0 0 C4.463 3.321 7.938 6.893 9.273 12.43 C9.664 18.398 7.971 22.431 4.379 27.148 C0.529 31.363 -3.166 32.197 -8.688 32.562 C-13.814 32.409 -16.874 31.134 -20.719 27.77 C-24.539 23.528 -25.969 18.736 -25.727 13.051 C-24.67 7.817 -21.463 4.096 -17.688 0.5 C-11.85 -2.095 -6.062 -1.83 0 0 Z " fill="#0F3E17" transform="translate(353.3125,156)"/>
<path d="M0 0 C2.451 1.715 3.93 3.22 5.5 5.75 C3.85 7.4 2.2 9.05 0.5 10.75 C-0.366 10.09 -1.233 9.43 -2.125 8.75 C-5.801 6.572 -7.332 5.952 -11.5 6.75 C-14.97 9.353 -16.303 11.061 -17.5 15.25 C-18.665 19.328 -20.34 21.006 -23.5 23.75 C-25.62 19.509 -26.334 15.416 -25.5 10.75 C-20.758 -0.464 -11.355 -4.055 0 0 Z " fill="#0F3E17" transform="translate(353.5,156.25)"/>
<path d="M0 0 C-3.406 5.266 -6.877 10.27 -11 15 C-15.524 10.75 -19.383 6.045 -23 1 C-23 0.67 -23 0.34 -23 0 C-19.73 -0.197 -16.459 -0.381 -13.188 -0.562 C-12.259 -0.619 -11.33 -0.675 -10.373 -0.732 C-9.48 -0.781 -8.588 -0.829 -7.668 -0.879 C-6.846 -0.926 -6.024 -0.973 -5.177 -1.022 C-3 -1 -3 -1 0 0 Z " fill="#CFE7D3" transform="translate(194,306)"/>
<path d="M0 0 C0.99 0.66 1.98 1.32 3 2 C3.188 4.625 3.188 4.625 3 7 C-2.215 8.607 -7.599 8.059 -13 8 C-13 12.62 -13 17.24 -13 22 C-17 18 -17 18 -17.566 15.633 C-17.56 11.279 -17.538 8.004 -14.75 4.5 C-9.718 -0.074 -6.696 -0.425 0 0 Z " fill="#CFE7D3" transform="translate(187,235)"/>
<path d="M0 0 C3.96 0 7.92 0 12 0 C12 4.95 12 9.9 12 15 C9 16 9 16 6 15 C5.67 19.29 5.34 23.58 5 28 C4.67 28 4.34 28 4 28 C3.963 26.817 3.925 25.633 3.887 24.414 C3.551 15.814 3.024 8.151 0 0 Z " fill="#CFE7D3" transform="translate(225,227)"/>
<path d="M0 0 C5.94 0 11.88 0 18 0 C16.875 7.875 16.875 7.875 16 11 C15.331 10.723 14.662 10.446 13.973 10.16 C4.964 6.762 -3.488 6.225 -13 6 C-13 5.67 -13 5.34 -13 5 C-8.38 5 -3.76 5 1 5 C0.67 3.35 0.34 1.7 0 0 Z " fill="#CFE7D3" transform="translate(189,195)"/>
<path d="M0 0 C-0.885 1.423 -1.784 2.838 -2.688 4.25 C-2.937 4.644 -2.937 4.644 -4.199 6.641 C-6.192 9.252 -8.372 11.048 -11 13 C-12.503 11.19 -14.002 9.377 -15.5 7.562 C-16.335 6.553 -17.171 5.544 -18.031 4.504 C-20 2 -20 2 -20 1 C-13.344 -0.238 -6.753 -0.091 0 0 Z " fill="#CFE7D3" transform="translate(355,217)"/>
<path d="M0 0 C0 0.33 0 0.66 0 1 C-1.98 1 -3.96 1 -6 1 C-6.33 3.64 -6.66 6.28 -7 9 C-11.95 9 -16.9 9 -22 9 C-22 7.68 -22 6.36 -22 5 C-22.66 4.67 -23.32 4.34 -24 4 C-16.237 -0.712 -8.799 -0.417 0 0 Z " fill="#CFE7D3" transform="translate(353,139)"/>
<path d="M0 0 C7.138 3.172 7.138 3.172 9 7 C9.235 9.72 9.137 12.26 9 15 C8.67 14.01 8.34 13.02 8 12 C5.36 12 2.72 12 0 12 C0 8.04 0 4.08 0 0 Z " fill="#CFE7D3" transform="translate(284,293)"/>
<path d="M0 0 C0 1.32 0 2.64 0 4 C-17.375 4 -17.375 4 -21.688 3.5 C-22.496 3.407 -23.304 3.314 -24.137 3.219 C-24.752 3.147 -25.366 3.074 -26 3 C-26 2.67 -26 2.34 -26 2 C-22.794 1.464 -19.585 0.949 -16.375 0.438 C-15.471 0.286 -14.568 0.135 -13.637 -0.021 C-8.819 -0.778 -4.813 -1.207 0 0 Z " fill="#CFE7D3" transform="translate(268,333)"/>
<path d="M0 0 C1.32 0 2.64 0 4 0 C4.767 8.776 4.767 8.776 2.887 11.777 C1.5 13.125 1.5 13.125 -1 15 C-1.027 12.688 -1.046 10.375 -1.062 8.062 C-1.074 6.775 -1.086 5.487 -1.098 4.16 C-1 1 -1 1 0 0 Z " fill="#CFE7D3" transform="translate(191,243)"/>
<path d="M0 0 C-2.691 1.794 -5.086 2.973 -8.062 4.188 C-8.94 4.552 -9.818 4.917 -10.723 5.293 C-13 6 -13 6 -15 5 C-14.67 3.35 -14.34 1.7 -14 0 C-12.418 -0.196 -10.834 -0.382 -9.25 -0.562 C-8.368 -0.667 -7.487 -0.771 -6.578 -0.879 C-4.116 -0.995 -2.335 -0.736 0 0 Z " fill="#CFE7D3" transform="translate(283,243)"/>
<path d="M0 0 C-0.57 1.277 -1.157 2.546 -1.75 3.812 C-2.075 4.52 -2.4 5.228 -2.734 5.957 C-4 8 -4 8 -8 11 C-8 7.7 -8 4.4 -8 1 C-5.072 0.024 -3.044 -0.082 0 0 Z " fill="#CFE7D3" transform="translate(229,337)"/>
<path d="M0 0 C0.485 0.01 0.485 0.01 2.938 0.062 C2.938 3.363 2.938 6.663 2.938 10.062 C-0.801 7.406 -2.712 5.481 -4.062 1.062 C-3.062 0.062 -3.062 0.062 0 0 Z " fill="#CFE7D3" transform="translate(140.0625,336.9375)"/>
<path d="M0 0 C2.64 0 5.28 0 8 0 C8.33 0.66 8.66 1.32 9 2 C6.688 4.5 6.688 4.5 4 7 C3.01 7 2.02 7 1 7 C0 6 0 6 -0.062 2.938 C-0.042 1.968 -0.021 0.999 0 0 Z " fill="#CFE7D3" transform="translate(143,211)"/>
<path d="M0 0 C2.325 2.853 3.751 5.541 5 9 C4.34 9.66 3.68 10.32 3 11 C1.68 11 0.36 11 -1 11 C-1.027 9.354 -1.046 7.708 -1.062 6.062 C-1.074 5.146 -1.086 4.229 -1.098 3.285 C-1 1 -1 1 0 0 Z " fill="#CFE7D3" transform="translate(144,279)"/>
<path d="M0 0 C0 0.33 0 0.66 0 1 C-1.582 1.338 -3.166 1.67 -4.75 2 C-5.191 2.093 -5.191 2.093 -7.422 2.562 C-10 3 -10 3 -14 3 C-14 1.68 -14 0.36 -14 -1 C-9.047 -2.598 -4.867 -1.283 0 0 Z " fill="#CFE7D3" transform="translate(267,323)"/>
<path d="M0 0 C0.66 0.33 1.32 0.66 2 1 C2 3.64 2 6.28 2 9 C0.02 9 -1.96 9 -4 9 C-2.941 5.597 -1.991 2.986 0 0 Z " fill="#CFE7D3" transform="translate(219,281)"/>
<path d="M0 0 C1.32 0.66 2.64 1.32 4 2 C3.693 2.552 3.386 3.103 3.07 3.672 C1.906 6.205 1.379 8.512 0.875 11.25 C0.707 12.142 0.54 13.034 0.367 13.953 C0.246 14.629 0.125 15.304 0 16 C-0.91 12.896 -1.135 10.105 -1.125 6.875 C-1.128 6.006 -1.13 5.137 -1.133 4.242 C-1 2 -1 2 0 0 Z " fill="#CFE7D3" transform="translate(254,258)"/>
<path d="M0 0 C0.409 0.005 0.409 0.005 2.477 0.027 C2.79 0.033 2.79 0.033 4.375 0.062 C4.705 0.723 5.035 1.382 5.375 2.062 C3.146 3.177 1.844 3.227 -0.625 3.25 C-0.976 3.257 -0.976 3.257 -2.75 3.293 C-4.625 3.062 -4.625 3.062 -6.625 1.062 C-4.22 -0.14 -2.675 -0.038 0 0 Z " fill="#CFE7D3" transform="translate(182.625,257.9375)"/>
<path d="M0 0 C0.66 0.165 0.66 0.165 4 1 C4 2.98 4 4.96 4 7 C3.01 7 2.02 7 1 7 C-0.062 4.625 -0.062 4.625 -1 2 C-0.67 1.34 -0.34 0.68 0 0 Z " fill="#CFE7D3" transform="translate(217,211)"/>
<path d="M0 0 C4 4.75 4 4.75 4 7 C2.35 7 0.7 7 -1 7 C-1.043 5 -1.041 3 -1 1 C-0.67 0.67 -0.34 0.34 0 0 Z " fill="#CFE7D3" transform="translate(316,204)"/>
<path d="M0 0 C0.66 1.32 1.32 2.64 2 4 C0.02 5.98 -1.96 7.96 -4 10 C-4.66 9.67 -5.32 9.34 -6 9 C-4.73 7.535 -3.461 6.07 -2.191 4.605 C-1 3 -1 3 0 0 Z " fill="#CFE7D3" transform="translate(299,310)"/>
</svg>
