<?xml version="1.0" encoding="UTF-8"?>
<svg viewBox="0 0 512 512" version="1.1" xmlns="http://www.w3.org/2000/svg">
<path d="M0 0 C2.197 0.52 2.197 0.52 4.197 2.52 C4.621 5.312 4.621 5.312 4.197 8.52 C2.197 11.186 2.197 11.186 -0.588 13.856 C-0.835 14.098 -0.835 14.098 -2.085 15.32 C-3.665 16.86 -5.264 18.378 -6.865 19.895 C-8.945 21.898 -11.016 23.908 -13.088 25.919 C-13.592 26.405 -14.097 26.892 -14.616 27.393 C-18.002 30.676 -21.145 34.084 -24.196 37.675 C-27.048 40.949 -30.15 43.973 -33.24 47.02 C-33.877 47.652 -34.513 48.284 -35.168 48.934 C-36.711 50.465 -38.257 51.993 -39.803 53.52 C-38.546 56.151 -37.187 58.52 -35.483 60.884 C-14.017 91.081 -3.814 124.123 -10.115 161.458 C-10.627 164.161 -11.204 166.834 -11.803 169.52 C-11.905 170.018 -11.905 170.018 -12.424 172.536 C-14.342 180.684 -18.076 188.078 -21.803 195.52 C-22.125 196.171 -22.446 196.823 -22.778 197.493 C-26.962 205.91 -31.548 213.445 -37.803 220.52 C-38.502 221.339 -39.2 222.157 -39.92 223.001 C-62.233 248.609 -92.568 263.052 -126.343 265.721 C-146.243 266.94 -166.841 263.255 -184.803 254.52 C-185.428 254.217 -186.054 253.914 -186.698 253.602 C-196.165 248.954 -204.737 243.487 -212.916 236.79 C-214.803 235.52 -214.803 235.52 -217.803 235.52 C-218.977 236.591 -220.138 237.681 -221.225 238.841 C-223.155 240.895 -225.168 242.857 -227.178 244.833 C-229.922 247.532 -232.511 250.312 -235.026 253.223 C-239.145 257.962 -243.467 262.479 -247.865 266.958 C-248.642 267.772 -249.419 268.586 -250.219 269.425 C-250.98 270.197 -251.741 270.97 -252.526 271.766 C-253.204 272.464 -253.882 273.162 -254.581 273.881 C-257.335 275.913 -259.415 276.289 -262.803 276.52 C-264.74 275.395 -264.74 275.395 -265.803 273.52 C-265.608 269.717 -264.375 267.298 -261.803 264.52 C-261.143 264.52 -260.483 264.52 -259.803 264.52 C-259.672 264.226 -259.672 264.226 -259.007 262.738 C-257.745 260.413 -256.419 258.895 -254.547 257.037 C-254.216 256.707 -254.216 256.707 -252.545 255.036 C-251.834 254.335 -251.122 253.633 -250.389 252.911 C-249.659 252.184 -248.93 251.457 -248.178 250.708 C-245.849 248.391 -243.514 246.081 -241.178 243.77 C-239.597 242.199 -238.016 240.627 -236.436 239.055 C-232.563 235.205 -228.685 231.361 -224.803 227.52 C-226.351 224.293 -228.11 221.821 -230.428 219.083 C-248.943 196.157 -258.239 168.582 -258.115 139.27 C-258.115 138.929 -258.115 138.929 -258.11 137.2 C-258.064 126.984 -257.608 117.384 -254.803 107.52 C-254.463 106.293 -254.122 105.066 -253.772 103.802 C-247.771 84.177 -237.095 66.22 -222.803 51.52 C-222.131 50.787 -221.46 50.053 -220.768 49.298 C-205.127 32.721 -184.127 21.58 -162.115 16.27 C-161.439 16.107 -160.762 15.943 -160.065 15.775 C-129.485 8.855 -97.349 14.31 -70.323 29.887 C-63.971 34.004 -57.917 38.568 -52.303 43.645 C-49.803 45.52 -49.803 45.52 -47.975 45.484 C-44.758 44.057 -42.815 41.581 -40.549 38.977 C-39.479 37.785 -38.408 36.594 -37.334 35.406 C-36.763 34.773 -36.193 34.14 -35.605 33.488 C-30.531 27.947 -25.216 22.63 -19.928 17.295 C-18.535 15.885 -17.148 14.471 -15.766 13.051 C-13.739 10.97 -11.697 8.906 -9.651 6.844 C-9.036 6.207 -8.421 5.57 -7.788 4.913 C-3.504 0.65 -3.504 0.65 0 0 Z M-219.216 62.71 C-239.544 85.897 -249.764 116.324 -248.019 147.08 C-245.152 179.489 -229.956 207.943 -205.588 229.298 C-180.224 249.539 -150.364 257.071 -118.274 254.302 C-113.687 253.724 -109.27 252.723 -104.803 251.52 C-103.604 251.203 -102.405 250.886 -101.17 250.559 C-71.467 241.667 -47.646 221.417 -32.855 194.382 C-18.895 168.165 -14.811 136.654 -23.03 107.778 C-23.479 106.395 -23.945 105.017 -24.428 103.645 C-24.689 102.893 -24.95 102.14 -25.219 101.365 C-35.579 72.455 -55.887 48.831 -83.555 35.29 C-130.467 13.415 -184.408 24.657 -219.216 62.71 Z " fill="#0F3E17" transform="translate(392.802978515625,106.479736328125)"/>
<path d="M0 0 C16.553 6.519 28.379 21.4 35.473 37.301 C43.185 56.436 43.754 78.63 36.22 98.005 C33.098 105.286 29.135 111.965 24 118 C23.406 118.737 22.811 119.475 22.199 120.234 C17.438 125.921 12.317 130.132 6 134 C5.265 134.451 4.53 134.902 3.773 135.367 C-13.147 144.728 -33.782 146.953 -52.5 142.438 C-66.825 138.253 -79.842 131.028 -89 119 C-86.057 117.038 -83.567 116.055 -80.25 114.875 C-47.869 102.579 -25.283 78.548 -10.945 47.543 C-8.988 43.113 -7.403 38.633 -6 34 C-5.739 33.148 -5.477 32.296 -5.208 31.417 C-3.227 24.604 -2.139 17.851 -1.312 10.812 C-1.248 10.289 -1.248 10.289 -0.92 7.639 C-0.606 5.093 -0.3 2.547 0 0 Z " fill="#CFE7D3" transform="translate(384,248)"/>
<path d="M0 0 C0.68 0.003 1.36 0.007 2.061 0.01 C12.12 0.082 21.14 0.61 30.562 4.438 C30.887 4.564 30.887 4.564 32.53 5.201 C45.403 10.233 58.408 16.776 67.562 27.438 C68.438 30.062 68.438 30.062 68.562 32.438 C66.938 34.812 66.938 34.812 64.562 36.438 C60.387 36.132 58.515 34.8 55.625 31.875 C38.252 15.849 14.991 10.413 -8.007 11.29 C-29.877 12.621 -49.203 23.203 -64.438 38.438 C-65.107 39.107 -65.776 39.776 -66.465 40.465 C-78.251 53.106 -83.712 67.997 -87.438 84.438 C-87.635 85.241 -87.832 86.044 -88.035 86.871 C-91.455 108.683 -85.691 131.78 -73.293 149.898 C-72.681 150.736 -72.068 151.574 -71.438 152.438 C-70.794 153.337 -70.151 154.237 -69.488 155.164 C-55.759 173.183 -35.467 183.501 -13.438 187.438 C11.758 189.09 35.467 184.038 55.227 167.488 C72.296 152.503 83.904 131.897 85.854 109.022 C86.918 88.9 84.641 73.051 75.016 55.391 C73.658 52.631 72.827 50.494 72.562 47.438 C74.188 45.062 74.188 45.062 76.562 43.438 C79.027 43.574 79.027 43.574 81.562 44.438 C96.457 61.235 98.682 87.469 97.734 108.651 C96.069 135.721 81.424 158.579 62.188 176.688 C42.383 193.642 16.281 200.928 -9.438 199.438 C-30.052 197.508 -50.06 189.484 -65.438 175.438 C-65.945 174.977 -66.453 174.517 -66.976 174.043 C-84.885 157.623 -98.103 134.227 -99.615 109.548 C-100.235 79.121 -93.917 53.17 -72.516 30.56 C-71.168 29.174 -69.803 27.805 -68.438 26.438 C-67.721 25.709 -67.004 24.981 -66.266 24.23 C-48.42 7.223 -24.211 -0.19 0 0 Z " fill="#0F3E17" transform="translate(260.4375,146.5625)"/>
<path d="M0 0 C1.368 25.438 -6.624 47.613 -23.457 66.801 C-35.912 79.985 -51.292 88.199 -69 92 C-72.04 80.259 -71.087 65.294 -67 54 C-66.648 53.01 -66.296 52.02 -65.934 51 C-58.434 31.594 -43.72 15.228 -25 6 C-17.07 2.692 -8.664 -0.248 0 0 Z " fill="#CFE7D3" transform="translate(347,241)"/>
<path d="M0 0 C1.375 0.144 2.75 0.29 4.125 0.438 C4.891 0.519 5.656 0.6 6.445 0.684 C9.313 1.039 12.152 1.509 15 2 C16.602 33.152 5.358 60.613 -15.156 83.898 C-28.879 99.07 -49.2 113.359 -70 116 C-71.005 114.211 -72.004 112.419 -73 110.625 C-73.557 109.627 -74.114 108.63 -74.688 107.602 C-76 105 -76 105 -76 103 C-76.66 102.67 -77.32 102.34 -78 102 C-77.515 101.866 -77.515 101.866 -75.062 101.188 C-48.206 93.462 -27.032 78.159 -13.059 53.586 C-4.025 36.3 -0.859 19.278 0 0 Z " fill="#CFE7D3" transform="translate(358,241)"/>
<path d="M0 0 C0.33 0.99 0.66 1.98 1 3 C0.598 3.371 0.598 3.371 -1.438 5.25 C-3.77 7.753 -4.635 8.718 -5 12 C-5.66 12 -6.32 12 -7 12 C-6.474 8.212 -5.619 5.828 -3 3 C-2.34 3 -1.68 3 -1 3 C-0.67 2.01 -0.34 1.02 0 0 Z " fill="#0F3E17" transform="translate(134,368)"/>
<path d="M0 0 C0.66 0.33 1.32 0.66 2 1 C-0.849 4.008 -3.235 6.278 -7 8 C-6.021 6.854 -5.042 5.708 -4.062 4.562 C-3.517 3.924 -2.972 3.286 -2.41 2.629 C-1.632 1.73 -0.841 0.841 0 0 Z " fill="#0F3E17" transform="translate(168,334)"/>
<path d="M0 0 C0.33 0.66 0.66 1.32 1 2 C-0.32 3.65 -1.64 5.3 -3 7 C-3.99 6.67 -4.98 6.34 -6 6 C-4.02 4.02 -2.04 2.04 0 0 Z " fill="#0F3E17" transform="translate(160,342)"/>
</svg>
